<mxfile host="65bd71144e">
    <diagram id="vIuJnymZZKCE_VlZ-PvX" name="Página-1">
        <mxGraphModel dx="1836" dy="1774" grid="1" gridSize="10" guides="1" tooltips="1" connect="1" arrows="1" fold="1" page="1" pageScale="1" pageWidth="827" pageHeight="1169" math="0" shadow="0">
            <root>
                <mxCell id="0"/>
                <mxCell id="1" parent="0"/>
                <mxCell id="23" value="Servicio" style="rounded=0;whiteSpace=wrap;html=1;align=left;verticalAlign=top;" parent="1" vertex="1">
                    <mxGeometry x="440" y="-20" width="400" height="240" as="geometry"/>
                </mxCell>
                <mxCell id="22" value="Sincronización" style="rounded=0;whiteSpace=wrap;html=1;align=left;verticalAlign=top;" parent="1" vertex="1">
                    <mxGeometry x="14" y="-20" width="400" height="240" as="geometry"/>
                </mxCell>
                <mxCell id="4" style="edgeStyle=none;html=1;entryX=0;entryY=0.5;entryDx=0;entryDy=0;" parent="1" source="2" target="3" edge="1">
                    <mxGeometry relative="1" as="geometry"/>
                </mxCell>
                <mxCell id="2" value="Descarga Service" style="rounded=0;whiteSpace=wrap;html=1;" parent="1" vertex="1">
                    <mxGeometry x="70" y="120" width="120" height="60" as="geometry"/>
                </mxCell>
                <mxCell id="6" style="edgeStyle=none;html=1;" parent="1" source="3" target="5" edge="1">
                    <mxGeometry relative="1" as="geometry"/>
                </mxCell>
                <mxCell id="3" value="Persistencia Postgres/ encode" style="whiteSpace=wrap;html=1;rounded=0;" parent="1" vertex="1">
                    <mxGeometry x="280" y="120" width="120" height="60" as="geometry"/>
                </mxCell>
                <mxCell id="8" value="" style="edgeStyle=none;html=1;" parent="1" source="5" target="7" edge="1">
                    <mxGeometry relative="1" as="geometry"/>
                </mxCell>
                <mxCell id="5" value="Servicio / decode" style="whiteSpace=wrap;html=1;rounded=0;" parent="1" vertex="1">
                    <mxGeometry x="480" y="120" width="120" height="60" as="geometry"/>
                </mxCell>
                <mxCell id="20" style="edgeStyle=none;html=1;entryX=0.55;entryY=0.95;entryDx=0;entryDy=0;entryPerimeter=0;" parent="1" source="7" target="19" edge="1">
                    <mxGeometry relative="1" as="geometry"/>
                </mxCell>
                <mxCell id="7" value="Exposición / API - REST" style="whiteSpace=wrap;html=1;rounded=0;" parent="1" vertex="1">
                    <mxGeometry x="680" y="120" width="120" height="60" as="geometry"/>
                </mxCell>
                <mxCell id="10" style="edgeStyle=none;html=1;entryX=0.5;entryY=0;entryDx=0;entryDy=0;" parent="1" source="9" target="2" edge="1">
                    <mxGeometry relative="1" as="geometry"/>
                </mxCell>
                <mxCell id="9" value="API - whodrug" style="ellipse;shape=cloud;whiteSpace=wrap;html=1;" parent="1" vertex="1">
                    <mxGeometry x="70" width="120" height="80" as="geometry"/>
                </mxCell>
                <mxCell id="15" value="" style="shape=image;verticalLabelPosition=bottom;labelBackgroundColor=default;verticalAlign=top;aspect=fixed;imageAspect=0;image=data:image/png,iVBORw0KGgoAAAANSUhEUgAAAgAAAAIACAYAAAD0eNT6AAAKo2lDQ1BJQ0MgUHJvZmlsZQAASImVlwdQk9kWgO//p4eEFghFSugd6QSQEnoo0qsohCRAKDEGAopdWVzBtaAiAhbApSq4KkUWFbFgYRFQwL4gi4K6LhZsqLwfGIK7b957887Mzfnm/Oeee86de2ZOACDjWQJBKiwNQBo/Qxjs5UqLjIqm4cYABGCAB9bAmMVOFzACA/0AIvP67/J+APFG5LbJTKx///5fRYbDTWcDAAUiHM9JZ6chfAZZT9gCYQYAqCLErpWVIZjhNoTlhEiCCPfMcOIc/zHD8XP8cdYnNNgNADQJADyJxRImAkBSROy0THYiEodER9iMz+HxEU5C2CktbSUH4WqE9REfAcIz8enx38VJ/FvMeHFMFitRzHO1zArenZcuSGWt+T+v439LWqpo/gxdMFOA0DsY0UTkzu6mrPQVMz9+acA88ziz/rOcJPIOm2d2ulv0PHNY7r7ivalL/eY5gefJFMfJYIbOMzfdI2SehSuDxWclCN0Y88wSLpwrSgkT25O4THH87KTQiHnO5IUvnef0lBDfBR83sV0oChbnz+V7uS6c6ymuPS39u3p5TPHejKRQb3HtrIX8uXzGQsz0SHFuHK67x4JPmNhfkOEqPkuQGij256Z6ie3pmSHivRnIg1zYGyi+w2SWT+A8g3AQCSyAJUBeZwZ3dcZMAW4rBWuEvMSkDBoD6SwujclnmxrTLMwsrACY6dO5Z/D27mz/QVT8go2P1EzvQ/rBfsEW+xCA01QApHwXbPrHkXZB3m57FVskzJyzoWd+MEhWUkAOKAE1oAX0gQmSmw1wAC7AA/iAABAKosAKwAZJIA0IQRZYBzaDXJAPdoP9oBgcARWgGpwAp0AzaAMXwVVwE/SAfvAADIFR8AJMgPdgCoIgHESGKJASpA7pQEaQBUSHnCAPyA8KhqKgOCgR4kMiaB20FcqHCqBiqAyqgX6BzkIXoetQL3QPGobGoTfQZxgFk2A5WBXWhRfDdJgB+8Kh8HI4EV4FZ8M58E64CC6Hj8NN8EX4JtwPD8Ev4EkUQEmgqCgNlAmKjnJDBaCiUQkoIWoDKg9ViCpH1aNaUZ2o26gh1EvUJzQWTUHT0CZoB7Q3OgzNRq9Cb0DvQBejq9FN6Mvo2+hh9AT6G4aMUcEYYewxTEwkJhGThcnFFGIqMY2YK5h+zCjmPRaLpWL1sLZYb2wUNhm7FrsDewjbgG3H9mJHsJM4HE4JZ4RzxAXgWLgMXC7uIO447gKuDzeK+4iXwKvjLfCe+Gg8H78FX4ivxZ/H9+Gf4acI0gQdgj0hgMAhrCHsIhwjtBJuEUYJU0QZoh7RkRhKTCZuJhYR64lXiA+JbyUkJDQl7CSCJHgSmySKJE5KXJMYlvhEkiUZktxIMSQRaSepitROukd6SyaTdcku5GhyBnknuYZ8ifyY/FGSImkqyZTkSG6ULJFskuyTfCVFkNKRYkitkMqWKpQ6LXVL6qU0QVpX2k2aJb1BukT6rPSg9KQMRcZcJkAmTWaHTK3MdZkxWZysrqyHLEc2R7ZC9pLsCAVF0aK4UdiUrZRjlCuUUTmsnJ4cUy5ZLl/uhFy33IS8rLyVfLj8avkS+XPyQ1QUVZfKpKZSd1FPUQeonxVUFRgKXIXtCvUKfQofFBcpuihyFfMUGxT7FT8r0ZQ8lFKU9ig1Kz1SRisbKgcpZykfVr6i/HKR3CKHRexFeYtOLbqvAqsYqgSrrFWpUOlSmVRVU/VSFageVL2k+lKNquailqy2T+282rg6Rd1Jnae+T/2C+nOaPI1BS6UV0S7TJjRUNLw1RBplGt0aU5p6mmGaWzQbNB9pEbXoWgla+7Q6tCa01bX9tddp12nf1yHo0HWSdA7odOp80NXTjdDdptusO6anqMfUy9ar03uoT9Z31l+lX65/xwBrQDdIMThk0GMIG1obJhmWGN4ygo1sjHhGh4x6jTHGdsZ843LjQROSCcMk06TOZNiUaupnusW02fTVYu3F0Yv3LO5c/M3M2izV7JjZA3NZcx/zLeat5m8sDC3YFiUWdyzJlp6WGy1bLF9bGVlxrQ5b3bWmWPtbb7PusP5qY2sjtKm3GbfVto2zLbUdpMvRA+k76NfsMHaudhvt2uw+2dvYZ9ifsv/LwcQhxaHWYWyJ3hLukmNLRhw1HVmOZY5DTjSnOKejTkPOGs4s53LnJy5aLhyXSpdnDANGMuM445WrmavQtdH1g5u923q3dneUu5d7nnu3h6xHmEexx2NPTc9EzzrPCS9rr7Ve7d4Yb1/vPd6DTFUmm1nDnPCx9Vnvc9mX5BviW+z7xM/QT+jX6g/7+/jv9X+4VGcpf2lzAAhgBuwNeBSoF7gq8NcgbFBgUEnQ02Dz4HXBnSGUkNiQ2pD3oa6hu0IfhOmHicI6wqXCY8Jrwj9EuEcURAxFLo5cH3kzSjmKF9USjYsOj66MnlzmsWz/stEY65jcmIHlestXL7++QnlF6opzsVKxrNjTcZi4iLjauC+sAFY5azKeGV8aP8F2Yx9gv+C4cPZxxrmO3ALuswTHhIKEsUTHxL2J40nOSYVJL3luvGLe62Tv5CPJH1ICUqpSplMjUhvS8GlxaWf5svwU/uWVaitXr+wVGAlyBUOr7FftXzUh9BVWpkPpy9NbMuSQgahLpC/6QTSc6ZRZkvkxKzzr9GqZ1fzVXWsM12xf8yzbM/vntei17LUd6zTWbV43vJ6xvmwDtCF+Q8dGrY05G0c3eW2q3kzcnLL5ty1mWwq2vNsasbU1RzVnU87ID14/1OVK5gpzB7c5bDvyI/pH3o/d2y23H9z+LY+TdyPfLL8w/8sO9o4bP5n/VPTT9M6End27bHYd3o3dzd89sMd5T3WBTEF2wche/71N+2j78va92x+7/3qhVeGRA8QDogNDRX5FLQe1D+4++KU4qbi/xLWkoVSldHvph0OcQ32HXQ7XH1E9kn/k81He0btlXmVN5brlhRXYisyKp8fCj3X+TP+5plK5Mr/yaxW/aqg6uPpyjW1NTa1K7a46uE5UN3485njPCfcTLfUm9WUN1Ib8k+Ck6OTzX+J+GTjle6rjNP10/RmdM6WNlMa8JqhpTdNEc1LzUEtUS+9Zn7MdrQ6tjb+a/lrVptFWck7+3K7zxPM556cvZF+YbBe0v7yYeHGkI7bjwaXIS3cuB13uvuJ75dpVz6uXOhmdF645Xmu7bn/97A36jeabNjebuqy7Gn+z/q2x26a76ZbtrZYeu57W3iW95/uc+y7edr999Q7zzs3+pf29A2EDdwdjBofucu6O3Uu99/p+5v2pB5seYh7mPZJ+VPhY5XH57wa/NwzZDJ0bdh/uehLy5MEIe+TFH+l/fBnNeUp+WvhM/VnNmMVY27jneM/zZc9HXwheTL3M/VPmz9JX+q/O/OXyV9dE5MToa+Hr6Tc73iq9rXpn9a5jMnDy8fu091Mf8j4qfaz+RP/U+Tni87OprC+4L0VfDb62fvP99nA6bXpawBKyZkcBFLLghAQA3lQBQI4CgILMxcRlc3P0rEBzs/8sgf/Ec7P2rNgAUNEOQJgLAAGIPopoPWTJIp8CER3qAmBLS/Gan3ln5/PZ2YSH/B3oQCYH6M7bLDr4h8zN7t/l/U8NxFH/pv8Fs6EAusMweWQAAAA4ZVhJZk1NACoAAAAIAAGHaQAEAAAAAQAAABoAAAAAAAKgAgAEAAAAAQAAAgCgAwAEAAAAAQAAAgAAAAAAKDCXvwAAQABJREFUeAHtvfl3Htd55/lgBwgSBEgCJECC+75vkrhol20tsSwndmy3s3T3ScfpnJk5Od0/zMyZ/2BmzkxyuidLO92dtDtxYrdjK5ZsSRatfRcXcV/BHQsBkgBJgNiBuc9rQ8JLYXnfqltVt6o+95z34K33rXvvcz9P4a1v3eW5BULKInDt2vnNBQWF3xgdHX1YpGCh+bLBvMqzTuIAAhCAQDaBm+b3Yn9Bweh+8/GP6uqWHsr+miMIuEegwD2TorGore3CLvMP/B8LCmRnNBZQKwQgkBACwyMjQ3/Z3d31Z6tW7WxKSJtoRgIJpF4AmCf94vb2y/+fyOh3jH9TzyOB1zhNgkDoBIaHh6XnTtdAcWnFI8uWrf8gdAOoEAI5ECjM4ZzEnjI6ur+kvf3SD83N/49MI7n5J9bTNAwC4RMYGRkuHRrofevChROmd5EEAfcIpFoAXLs29++MS37TPbdgEQQgkAQCRgSUIAKS4MlktiG1AsCM+X+roKDgG8l0K62CAARcIYAIcMUT2HEvgVQKgJaWlnnm5v8f7oXBMQQgAIEgCCACgqBKmX4JpFIAFBcP/IkBV+sXHvkhAAEI5EoAEZArKc4Li0DqBIBO/BsdlX8TFmDqgQAEIDBGABEwRoK/LhBInQDo6KjVSX8LXICPDRCAQPoIIALS53NXW5w6AWDW/T/nqjOwCwIQSAcBREA6/Ox6K1MnAIxDWJPr+lWJfRBIAQFEQAqc7HgTUyUA2trO1Rl/LHfcJ5gHAQikhAAiICWOdrSZqRIAhYXFOxz1A2ZBAAIpJYAISKnjHWh2qgSACfmrPQAkCEAAAk4RQAQ45Y7UGJMqATAyUlidGs/SUAhAIFYEEAGxclcijE2VADBb/c5OhNdoBAQgkEgCiIBEutXZRqVKAJghAASAs5cihkEAAkoAEcB1EBaBVAmAgoLRorDAUg8EIAABrwQQAV7JkS8fAqkSAPmA4VwIQAACURJABERJPx11IwDS4WdaCQEIxJAAIiCGTouRyQiAGDkLUyEAgfQRQASkz+dhtRgBEBZp6oEABCDgkQAiwCM4sk1JAAEwJR6+hAAEIOAGAUSAG35IkhUIgCR5k7ZAAAKJJoAISLR7Q28cAiB05FQIAQhAwDsBRIB3duTMJoAAyObBEQQgAAHnCSACnHdRLAxEAMTCTRgJAQhAIJsAIiCbB0f5E0AA5M+MHBCAAAScIIAIcMINsTUCARBb12E4BCAAgc/2Drhy4fgD8IBAPgQQAPnQ4lwIQAACDhLQnoC+gb63EQEOOsdhkxAADjsH0yAAAQjkSgARkCspzhsjgAAYI8FfCEAAAjEngAiIuQNDNh8BEDJwqoMABCAQJAFEQJB0k1U2AiBZ/qQ1EIAABAQRwEWQCwEEQC6UOAcCEIBAzAggAmLmsAjMRQBEAJ0qIQABCIRBABEQBuX41oEAiK/vsBwCEIDAtAQQAdMiSu0JCIDUup6GQwACaSGACEiLp/NrJwIgP16cDQEIQCCWBBABsXRboEYjAALFS+EQgAAE3CGACHDHFy5YggBwwQvYAAEIQCAkAoiAkEDHoBoEQAychIkQgAAEbBJABNikGd+yEADx9R2WQwACEPBMABHgGV1iMiIAEuNKGgIBCEAgPwKIgPx4Je1sBEDSPEp7IAABCORBABGQB6yEnYoASJhDaQ4EIACBfAkgAvIllozzEQDJ8COtgAAEIOCLACLAF75YZkYAxNJtGA0BCEDAPgFEgH2mLpeIAHDZO9gGAQhAIGQCiICQgUdYHQIgQvhUDQEIQMBFAogAF71i3yYEgH2mlAgBCEAg9gQQAbF34bQNQABMi4gTIAABCKSTACIg2X5HACTbv7QOAhCAgC8CiABf+JzOjABw2j0YBwEIQCB6AoiA6H0QhAUIgCCoUiYEIACBhBFABCTMoaY5CIDk+ZQWQQACEAiEwKci4Pzx+wOpgEJDJYAACBU3lUEAAhCIN4GMCBjse+cKIiDejjTWIwBi70IaAAEIQCBcAoiAcHkHVRsCICiylAsBCEAgwQQQAfF3LgIg/j6kBRCAAAQiIYAIiAS7tUoRANZQUhAEIACB9BFABMTX5wiA+PoOyyEAAQg4QQAR4IQb8jYCAZA3MjJAAAIQgMC9BBAB9xJx/xgB4L6PsBACEIBALAggAmLhpk+NRAB8ioI3EIAABCDglwAiwC/B8PIjAMJjTU0QgAAEUkEAERAPNyMA4uEnrIQABCAQKwKIAPfdhQBw30dYCAEIQCCWBBABbrsNAeC2f7AOAhCAQKwJIALcdR8CwF3fYBkEIACBRBBABLjpRgSAm37BKghAAAKJIoAIcM+dCAD3fIJFEIAABBJJABHgllsRAG75A2sgAAEIJJoAIsAd9yIA3PEFlkAAAhBIBQFEgBtuRgC44QesgAAEIJAqAoiA6N2NAIjeB1gAAQhAIJUEEAHRuh0BEC1/aocABCCQagKIgOjcjwCIjj01QwACEICAIYAIiOYyQABEw51aIQABCEBgHAFEwDgYIb1FAIQEmmogAAEIQGBqAoiAqfnY/hYBYJso5UEAAhCAgGcCiADP6PLOiADIGxkZIAABCEAgSAKIgCDpflY2AuAzFryDAAQgAAFHCCACgncEAiB4xtQAAQhAAAIeCIyJgMtNx+7zkJ0s0xBAAEwDiK8hAAEIQCA6AioC+of630UE2PcBAsA+U0qEAAQgAAGLBBABFmGOKwoBMA4GbyEAAQhAwE0CiAD7fkEA2GdKiRCAAAQgEAABRIBdqAgAuzwpDQIQgAAEAiSACLAHFwFgjyUlQQACEIBACAQQAXYgIwDscKQUCEAAAhAIkQAiwD9sBIB/hpQAAQhAAAIREEAE+IOOAPDHj9wQgAAEIBAhAUSAd/gIAO/syAkBCEAAAg4QQAR4cwICwBs3ckEAAhCAgEMEEAH5OwMBkD8zckAAAhCAgIMEEAH5OQUBkB8vzoYABCAAAYcJIAJydw4CIHdWnAkBCEAAAjEggAjIzUkIgNw4cRYEIAABCMSIACJgemchAKZnxBkQgAAEIBBDAoiAqZ2GAJiaD99CAAIQgECMCSACJnceAmByNnwDAQhAAAIJIIAImNiJCICJufApBCAAAQgkiAAi4PPORAB8ngmfQAACEIBAAgkgArKdigDI5sERBCAAAQgkmAAi4DPnIgA+Y8E7CEAAAhBIAQFEwK+cjABIwcVOEyEAAQhAIJsAIkAEAZB9TXAEAQhAAAIpITAmAi5dOrIjJU3OamZx1hEHEEgggf7eQenrHpTBgWGZPbdCSsq57BPo5imb1H93UO7c7JVS4/vymaWZv1Nm8PllQUGBFJeU+iyF7CERKBkZlhdbWvavaGjYeTekOp2ohl9CJ9yAETYIjAyPSseVW9JyrlNudfRkbvp9PQMyMjKaVXzl7DKpmT9TVmxfIHMbZmV9x0FyCLQ2dcrFY+3S1d4jvXcGshpWVFwo5ZUlGTEwp36mNKyYI3PMtWDu21ZSYWGhzJxVbaUsCgmFwAKR0d83Nf1VKLU5Uomly92R1kxjRnv7hT8bHS34k2lO4+sYEdCn+jbzQ99iXtcudsmQOc416Y/9yh31sn5Po+gNgZQMAoP9Q3L49Uty+URHXg0qqyiRBcurpWHlHJm/dLYUFnFN5AUw/icfnj9/6db4NyP3FiAAcmfFmQ4RGBkekaZPrsnpD5tloG/Il2VVZljgkW9uYGjAF0U3Mvd09clb/+PE557487VuRlWZrN/bKIvXzcs3K+fHmMD16z1lGzZsyO4uinF7pjMdiTsdIb53jsCVk9flF39zWI6+ecn3zV8bd/tGrxx+46Jz7cSg/AiMmpGe/a80+b75a613b/fL/pfOyS//+1Fpv3QrP0M4O7YEFiyYXRdb4z0YzhwAD9DIEg0BncT18c/PZcZ0bVtw+cR1Wbh6rtQvr7FdNOWFRODcwVa50XzHam06l+SdfzpphgSqZedTK6RsRonV8inMLQIjI0MqAK66ZVVw1tADEBxbSrZIoO1Cl7zx/WOB3PzHzDz6xqWxt/yNGYGhwWE58e6VwKzW+SWv/f3RQK+/wIyn4JwJmF6k+TmfnIATEQAJcGLSm3Bmf4u8//ypzDK+INvabcaPdbkYKX4EutrvyvDQSKCG60qCN//xuDSfuRFoPRQeJYHRVA0BIACivNaoe0oCo2b53v6Xz8mxty6Lju+Gkbqu9YRRDXVYJtDV1m25xImLU5Hx4Ytn5eT7qeklnhhEQj8dHS2kByChvqVZMSNw+PWLZinX9VCt7jRrxknxIxC231QANB1qix8oLJ6GwGjtNCck6mt6ABLlzuQ05sKRa3L+8LXQG1RSWhR6nVTon0AUfjti5oy0X2aFgH/vuVNCQcFoqmZ5IgDcufaw5NcEOq7clsOvXYyER/X8ykjqpVJ/BKLw26gZl9LhAJ07QoJAHAkgAOLotQTbrOuvP3zhzOfC94bRZI3fXl2HAAiDte06NLRzFGnQBKF6//nTeUWgjMJO6oTARAQQABNR4bPICGi3qt/Ifl6Nn7doFiGBvcKLOJ9Gc5wxqywSKzQ+xemPmiOpm0oh4IcAAsAPPfJaJXCj5Y7ZyOem1TJzLUz3Atj2heW5ns55jhEoKCyQ7U9G579zB9usRCB0DCvmJJwAAiDhDo5T83S5X1RJ477PrCmPqnrqtUCgbvFsWb41mlVcujzwxHvBBSKygIciIPA5AgiAzyHhgygI6JO/9gBEkZZvmS8rt9dHUTV1Wiaw8aElsnDVHMul5lac7j54+3qqtpPPDQxnOUsAAeCsa9Jl2In3wg+sUjGrVB78+jrZ+sQya/vAp8tr7rW2uKRQHnh2tdz3zEopLQ93qxMNVkWAIPeuCSyanEC4/yGT28E3KSagk6jCeHLScf6qeTOkxiz1q1kwUxrMk2IU68dT7OrQmt64dp7UNs6W1qab0mmiO3a29ZhdH++KRpcMMumeFUODI6JChAQB1wkgAFz3UArsaznXGUgryytLpH7FnF/f8Culau4M0clipHQQUP8v2zxflv26uTpOr0LzV4KgW1rO3rS+v4TWoRsHRTUMkQ7P0kpbBBAAtkhSjmcC+pRmO+kT4JbHl4beDWy7HZRnj4D2AGnPj77EzPtYv6dRDrzSZD2an85nQQDY8xslBUcAARAcW0rOgUBfz6DcbLW3kYt2ve54aiU/wDmwT/spY3NANOT04dcuWNtwqu18VyaQVSG9TWm/xJxvPwNVzrso2Qa2XbDb/R/lLPBkeyq5rbO9CmSwf0huNEezoiW5XqJlQRBAAARBlTJzJtDT1Z/zudOdGOU68Ols43u3CdiOA9HD/gBuOxzrMgQQAFwIkRLo6x6wUn/UkeCsNIJCIiNgOxJkb4+d6zoyIFScCgIIgFS42d1G2vqhjDIWvLt0sSwfAjb3gug3c1tIEHCdAALAdQ8l3D5bPQBR7QaXcPekqnk2d4PUya0kCLhOAAHguocSbl+vpR/KKPaDT7hrUtk8W9dRH0MAqbx+4tZoBEDcPJYwe3U/dRupcnY0W8HasJ0y3CFg6zoa7B92p1FYAoFJCCAAJgHDxxCAAAQ8Ewg24rBns8gIgfEEEADjafAeAhCAAAQgkBICCICUOJpmQgACEIAABMYTQACMp8F7CEAAAhCAQEoIIABS4miaCQEIQAACEBhPAAEwngbvIQABCEAAAikhgABIiaNpJgQgAAEIQGA8AQTAeBq8hwAEIAABCKSEAAIgJY6mmRCAAAQgAIHxBBAA42nwHgIQgAAEIJASAgiAlDiaZkIAAhCAAATGE0AAjKfBewhAAAIQgEBKCCAAUuJomgkBCEAAAhAYTwABMJ4G7yEAAQhAAAIpIYAASImjaSYEIAABCEBgPAEEwHgavIcABCAAAQikhAACICWOppkQgAAEIACB8QSKxx/wHgIQSA6B0dFR6Wzrke7OXuntGZDBvmEpqyiW8pmlUjV3hsyunZGcxtISCEAgbwIIgLyRkQECbhO41XFXzh1slbbzndLfOzSpsRVGCDSsnCOrdtTLjNllk57HFxCAQDIJIACS6VdalUICfeYp//g7l+XyiRuiT//Tpd7uAWn6pE0uHL0mK7YukHW7G6W4lFHB6bjxPQSSQgABkBRP0o5UE7jZ2i0f/PS09PUM5s1hZHhUzh4wPQYXumT3V9fIzOryvMsgAwQgED8CyP34+QyLIZBFoOXcTXnzB8c93fzHF3TnZq+88f1j0nmte/zHvIcABBJKAAGQUMfSrHQQ6Gq/Kx///JyMjkzf5Z8LkYG+IXn/+TOiwwMkCEAg2QQQAMn2L61LMIGhweFMt//w0IjVVupcAh1OyGUegdWKKQwCEAiVAAIgVNxUBgF7BM7ub5W7t/vtFTiuJF0+eOXUjXGf8BYCEEgaAQRA0jxKe1JBoP/uoJwxAiDIdOK9K6ITBEkQgEAyCSAAkulXWpVwAldP35BhMwQQZLp7q186rtwOsgrKhgAEIiSAAIgQPlVDwCuB1qZOr1nzytdyjmGAvIBxMgRiRAABECNnYSoElIB2y19vDufJ/NrFW0CHAAQSSgABkFDH0qzkEujvHQxtbL5PlwMyDSC5FxMtSzUBBECq3U/j40ggc1MOyfARE19ABQcJAhBIHgEEQPJ8SosSTmB4KNxHclYCJPyConmpJYAASK3raXhcCZTPLAnP9AKR8soQ6wuvZdQEgdQTQACk/hIAQNwI6Da+YaWy8mIpKDQqgAQBCCSOAAIgcS6lQUknUFRcKLNrZ4TSzLkLZ4VSD5VAAALhE0AAhM+cGoMgUJCup9T65TVBUPxcmQ0r53zusyR/UGDpOhpl6USSL5PEtA0BkBhXxq8hA71D1owuqyi2VlYcClq4eq5IwJqnqKRIFoQkNFxhXmrpOrJ5bbvCBjuSRwABkDyfxqZFNrecrZgV3ri4C4B1CGCRioAA06rtC6TUzAFIU5oxq8xKc3Vb5ZFhu7s0WjGMQiAwjgACYBwM3oZLQLedtZEKiwqlrCJ9M9U3PNgohUXBdANoj8qq+xpsuCdWZdgUkn09xE+IlfNTaCwCIIVOd6XJPV12trKtCHNZnCvwjB2Vs8tl2xeWW7eo0Mz6v//Lq6SktMh62a4XqCssLE0DkO6uPtebi30pJ4AASPkFEGXzW8/b2dCmwlK3bZQsvNa9ZEOtrNxe7zX7hPm2PL5MahtnT/hd0j/UJY/llXaGk9rOdyUdF+2LOQEEQMwdGFfzhwaGzVazdjaaCXNdvIu8Nz+6RDbsbfQ9KVCHUu57ZqUs21znYjNDs8nWMEBr083QbKYiCHghgADwQo08vgm0XeiytqGNrR9s342KsIA1DyyU3c+tEa8sdFLhI9/aII1r50XYCjeqttWj1HOrX2519LjRKKyAwAQE0jXFdwIAfBQNgTMft1ireEaVnZnb1gyKqCCNDTB/SbU0HWqVswfaJJdJlpXV5bLm/oWyZMM8M/YdzITCiHB4rrbS4vV0+qMWuf83Vnm2hYwQCJIAAiBIupQ9IYErp65LV7u9J6MFy6onrCeNH+qqgFU7G2TVjga50XpH2sw8i24z2bL/7qDo0jRd1lc2o0Rmz6uQ+hVzQosoGCdfzDfX05n9dgTq1dM3ZLVZTVFdVxknBNiaEgIIgJQ42pVm6s5yJ969Ys2cOfWzhB6ACXCah/m5DbMyrwm+5aMpCMxbVCXlZjWArW2Xj711WR78+ropauQrCERDgDkA0XBPba2HX78oOjZqKzWuCzYYji07KSc+BHQkxGaQpfbLt+Tcwdb4AMDS1BBAAKTG1dE3tOlQm1w4cs2aITpmbfOH2pphFBR7AovW2BWWR9+8LNfMxFcSBFwigABwyRsJtqW1qVOOvHHJagtrF1dlxrOtFkphEDAE5tTPNIGW7E0uHR0dlY9+dtbq3BccBQG/BBAAfgmSf1oC+uT/wU/PiP4I2kwsWbNJk7LuJWC7F2DQxL546wfHpeUs8QHuZc1xNAQQANFwT0WtOuHv0L4LouP+tm/+GrQmbVvVpuKicaiRi9bYj4kwNDgiH7xwRk592OxQSzElrQRYBZBWzwfcbl3qp7P9bU74G2/y8i3zpaQsfbHqxzPgfbAENDiSLgkMYuxe/zeaz9yUTQ8vlrol6Qy7HKz3KD0XAgiAXChxTk4ENLyvRvjTID821/nfW7ku0Vq/Z9G9H3MMAesEtpp9Efb9t8MyPGR/a1+NEvjOP53MCADdz6HOzGnRni0SBMIigAAIi3TC6hnoHZLe7oFMtDnd1U839tHY/trtH3Ta/MgSKU7hTnVBc6X8zxPQiYAaZtlm7Ip7a2m/dEv0VVxSJPOXzjav6kxsCxW6FZUlUmKCN5EgEAQBrqwgqCaszJGR0czEpc62bum81pN5uten/ShS3eLZYntyVhTtoM74EFhtIitePtEh3Z3Bbu87NDgszWaCoL7GJ43eWD2/Umrmz8ysTqhfUTP+a95DwDMBBIBndOnIeKvjrux/+ZzZ1ORu5A3WMLdbnlgauR0YkC4Cet1tfWKZvPOjk5E0XEM4j/USqAG1jVWy48kVRMCMxBvJqpQBp2T502prNB76698/6sTNXxumMe5n1VRYbSOFQSAXAtrz5Mqy044rt2Xf947I5ZPXczGdcyAwKQEEwKRo0v2FjulrDPMwxvRzIT1rToWsNWOxJAhERWCTmXuiGym5kHQI7uArTWw37IIzYmwDAiDGzgvKdO1yPPTq+aCKz7tc3eP+wa+tk6JiLte84ZHBGoFyMyHvwa+tdWb5qc7N2f9yk+hfEgS8EOAX1Qu1hOfRJ/++nkEnWllWYX50zU5qKgJIEIiawOzaStnzm2udEaM6N+fcATYaivq6iGv9CIC4ei5Au9sudAZYeu5Fa6CfveaJi3H/3JlxZvAEdJvlXV9ZLYWFZttAB9K1i2wy5IAbYmkCAiCWbgvOaN0D3YWnf+3u3/3VtVJdVxlcYykZAh4J6Fr9nc+sFN06OOoUZNCtqNtG/cESQAAEyzd2pes6/6iTPlk98OxqmbdwVtSmUD8EJiWgW1Fv+8LySb8P64vB/uHAYxSE1RbqCZcAAiBc3s7XpjuWRZ1KzUxrjcNOgoDrBHTbYI3gF3Vy4f82agbUnz8BBED+zBKdo8ZEHIs66TCEBl3RcMMkCLhKoKerLxPLXyP4RZm0x2z2POJjROmDuNaNAIir5wKye6YJtOPCE82dm73yzo9PCk82ATmaYn0R0H0w3jYi1YX5MlXzZrCJkC9vpjczAiC9vp+w5TqpSbs1XUhdZj7C+8+fDmQnNhfahw3xJKA9U9pDdfd2vxMN0FUJJAh4IYAA8EIt4Xk2PbLYmSVO16/elg9fOEOwk4Rfc3FpnvZIac+U9lC5kHSjIN2tkAQBLwQQAF6oJTyPBjtZu2uRM61su9Al+18654w9GJJOAhoWW3uktGfKlbTl8aWiEQpJEPBCAAHghVoK8qy5v0F0AxRX0tXTN+TKKTY/ccUfabTjrNkcS3ukXElLNtQ6s0GRK0ywIz8CCID8eKXm7AIzs1hD8G5+dIkzYU+PvnmJSYGpuQLdaqiO95/6sNkJo0pMt/99T6/MbAnshEEYEVsCxbG1HMNDIbBye73MX1YtZz5skc5r3Zmxz9GI9h7RGdcn37tiRMnSUNpOJRAYI/DJaxcinYyqS/10tr9O0NVdMctnsjfGmG/4650AAsA7u9Tk1Fj8O55akWnv0OBIZgvSnlv98quwwQPS3dUvHZdvhfID2XTomizZUEegoNRcfdE3tOXcTWk7H068/ZKyYqldXCWVVWWZm7yO78+sLs9c74VFdNhGfzUkywIEQLL8GXhriksKRZcd3bv0aHhoRNov3ZKWszflihmvHxkeCcSWUdP9cGjfBXn0X2wIpHwKhcB4Aip4D79+cfxH1t/rTX/x+nlSv6JG5i2qcmYFjvWGUqBzBBAAzrkkngbp5j36A6avdXsXyYl3r8qVkx0SxHDBzdY7cvFYuyzdWBdPWFgdGwKn3r8qvXcGArFXn+hXbJ2fWcany/lIEAibAFdd2MRTUN+MWWWy0wwZrNpRLx+b5Xu3r9+13urj71yRJetrRScrkiAQBAGdc3L2YGsQRUttY1VmEt8M09VPgkBUBBhUiop8CurVDX0e/dYGWbC82npr++8OSruZd0CCQFAEms/ckNER+zNel22eL3u/tk64+QflOcrNlQACIFdSnOeJQHFpkex+bq2s2LbAU/6pMl09dWOqr/kOAr4IXAng+try2FKzhfAyxvl9eYbMtgggAGyRpJxJCej+AvrDp/un20w6O1snH5IgYJuArvvXuSY2ky7fC0II27SRstJFAAGQLn9H2lpdSmhzu2GNy65hgkkQsE1AI0/aTAtXz5H1exttFklZEPBNAAHgGyEF5EpAVwrsem6N1e2GrxIeOFf8nJcHAZvd/5VmHf/Op1bmUTunQiAcAgiAcDhTy68JVJgIZqt21lvjoT0A2hNAmpiAxk24faNXLp3okBMmiqLup9Dd2TfxyXyaIXCnszcT7MoWjg3myV/FLwkCrhFgGaBrHkmBPSoAzh++JjqT32/SOQBt5zvZFOUekENGFB1967JcNjf+ieZJlJQVZcaj1z6wSAqLWEo5Hl/LmZvjD329r55fKYvW2J374ssgMkNgHAFk6TgYvA2HQHFJkay+r8FaZd03eaIdD1OXR+773hG5cOTahDd/PXewf1hOfdAsr3//qHS1u7O97fh2RPVeewBspfW7Gfe3xZJy7BNAANhnSok5ENBJUbZSb3cwkdps2RdmOa1NnfLOj06KzmLPJd3quCtvfP8YImAcLFuR/7SXpW6pO1tqj2sibyGQIYAA4EKIhIBGC6yuq7RSd++d3G52VipzuJCBviE5+Or5vC0cMcFuDrzSZPZvsB/0Jm9jHMhw11Lo3wXLaljv74A/MWFyAgiAydnwTcAE6lfWWKmBHoBfYfzEbJLkdV6F9gSc+vCqFX/EvRBbPQC2ru+488R+dwkgANz1TeItq6611QPAEIDGrb9qQtf6SU2H2vxkT0ReFVC2drLUUNgkCLhMAAHgsncSbpvudW4j6TLAtC8F7LzW7RulTgxM+xJBW0//6oyKylLfPqEACARJAAEQJF3KnpJAuYkJYCvZ/OG2ZVOY5XS12ZnJb0NIhNlu23XdtTSfRFe66D4YJAi4TAAB4LJ3Em5b+Qw7PQCKqa8n3cMAtyxtuRzE1s1xuoz7uv3HptD2llnq3YoTO2yNHwEEQPx8lhiLCwrtBaAJYtvWOIGeKNiPF/ttleOlbhfyjIzY2VyqUHfAIkHAcQIIAMcdhHkQgAAEIACBIAggAIKgSpkQgAAEIAABxwkgABx3EOZBAAIQgAAEgiCAAAiCKmVCAAIQgAAEHCeAAHDcQZgHAQhAAAIQCIIAAiAIqpQJAQhAAAIQcJwAAsBxB2EeBCAAAQhAIAgCCIAgqFImBCAAAQhAwHECCADHHYR5EIAABCAAgSAIIACCoEqZEIAABCAAAccJIAAcdxDmQQACEIAABIIggAAIgiplQgACEIAABBwngABw3EGYBwEIQAACEAiCAAIgCKqUCQEIQAACEHCcAALAcQdhHgQgAAEIQCAIAgiAIKhSJgQgAAEIQMBxAggAxx2EeRCAAAQgAIEgCCAAgqBKmRCAAAQgAAHHCSAAHHcQ5kEAAhCAAASCIIAACIIqZUIAAhCAAAQcJ4AAcNxBmAcBCEAAAhAIggACIAiqlAkBCEAAAhBwnAACwHEHYR4EIAABCEAgCAIIgCCoUiYEIAABCEDAcQIIAMcdhHkQgAAEIACBIAggAIKgSpkQgAAEIAABxwkgABx3EOZBIBcC5ZUluZw27TnllaXTnsMJEIBAMgggAJLhR1qRcgI1C2ZaIVAz3045VoyhEAhAIFACCIBA8VI4BMIhUDO/0kpF1fNnWCmHQiAAAfcJIADc9xEWQmBaAlXzZkhJWfG05011wuzaSt9lTFU+30EAAm4RQAC45Q+sgYAnAkXFhbLlsaWe8mqmggKRrU94z++5YjJCAAKREUAARIaeiiFgl8Di9fOkYeUcT4Wu3F4vcxtmecpLJghAIJ4EEADx9BtWQ2BCAtu+sEyq6/KbD1C3eLas39s4YXl8CAEIJJcAAiC5vqVlKSRQNqNEHv32Rlm3a5EUFJp+/SmSDhtsfXyZPPj1daLvSRCAQLoI+Js1lC5WtBYCsSBQaG786/YskvqVNXL5RId0XuuRW+09MjQ4kpnkpzP9dbnf0k11MrO6PBZtwkgIQMA+AQSAfaaUmAcBffIcHhrJI8fEpw70DU38RYo/1aGAseGA0VGR/p4BKZ9JoJ+pLglb11EhPSpTYeY7RwjQ7+eII9Jqhq0bkj7lkiYnoLP8bbGevJb4f2PrOiqfaScyY/yJ0gKXCSAAXPZOCmyrsBTCtqutOwW0aGLQBLosCclyMxeDBAHXCSAAXPdQwu2z9VTa1X7XylBCwnHTvCkIdHf1Sf/dwSnOyP0rW9d17jVyJgTyJ4AAyJ8ZOSwSsPVDOTQ4LCfevWLRMopKG4Gjb1yy1mRbmzNZM4iCIDABAQTABFD4KDwCM2bZm5R27mCr3Gi+E57x1JQYApdPXJfW853W2lPBZEtrLCkoOAIIgODYUnIOBDQIja2kM933v9IkvXcGbBVJOSkgcPtGrxx+46K1luoyzNrGKmvlURAEgiKAAAiKLOXmREA3samcXZbTubmc1GPGcfd970hm/Xsu53NOegmoYDy7v1Ve//ujMmhxGem8RVVsqpTeyypWLScOQKzclUxj6038+nMHWq01brB/SPa/3CTNZ2/K0o11mbXwFRaHGqwZSkGREOi51W+CI3VL08E2udFif8ioYZW3/RgigUGlqSaAAEi1+91ofMOKGqsCYKxVrU2doi9NGiK3ZkGl1NTNlGr9ayLhMVFrjFRy/969rTf7HukyN/zOth7pNBERbT7tT0Su3lzPJAjEgQACIA5eSriNcxfOktKKYhnoDS6any7vajvflXmN4Vy0eq5sNZvnlJbzbzDGJCl/9cZ/4BdN0nH5dqhNmlM/U5gAGCpyKvNBgDkAPuCR1Q6BAhOmbtWOBjuF5VHK1TM35NW/PfxpL0EeWTnVYQIXj7Zn5oGEffNXJKvvC/86dtgVmOY4AQSA4w5Ki3krty+QKMbptWfg/X8+Le2Xb6UFdaLbqTf/g6+el6GB4dDbObdhljSY+SwkCMSFAAIgLp5KuJ26KdD6PdHtSX/wF9HcNBLu1lCbp93+R960F8wnX+M3Prw43yycD4FICSAAIsVP5eMJLF5fK7osMIqkN4+jb12OomrqtERAx/yjePJX8/XJX3sASBCIEwEEQJy8lXBbdce6zY8uEf0bRbp8okNGdXE4KXYEVMBFMeavoIpLimTjQzz9x+6iwWBBAHAROEVAIwNueDCaH9PhoRG5c7PPKR4YkxsBW9v45lZb9lk7n14hM2vKsz/kCAIxIIAAiIGT0maizqRevG5eJM3WADGk+BHQdf5RpPV7G5n4FwV46rRCAAFgBSOF2Caw7YvLTeCembaLnbY8DSVMih+B7q7+0I1etGaurH1gYej1UiEEbBFAANgiSTlWCeiqgN3PrQm9a3XWnAqr7aCwcAhUhew3jfe/48kV4TSOWiAQEAEEQEBgKdY/AQ3V+9i3N8r8JfZ2DJzOKg0RTIofAQ3vHFbS/SUe/No6UZFKgkCcCXAFx9l7KbC9pKxY9vzWWtFAQUGnkrKi0Hscgm5TWsoPQ7hpxMrNjy6V7V9aLoVFES1VSYtDaWcoBBAAoWCmEj8Esn94g7tkV2wLXmT44UDeyQlob5Hu7RBU0v0i9oYkRINqA+VC4F4C7IJyLxGOnSWgXa+6TPDEu1fk8snrVu2cXTvDTOhaZLVMCguXgG7s1HH1tmh4Z1upsKhQVmydL2vMZD82jbJFlXJcIRDc45QrLcSORBGYUVUmO59eKU/83iapszQ3oLCwIDOhi27deF8qeoPeblaP2EqNZinql/71Ftn0yBJu/ragUo5TBOgBcModGJMrgdm1lZmJWLqJz+XjHdJ6ocvTPu/65K+zuavrwptElmsbOS9/AvUrauTBr68T3dtBowPmm3QrXy1j2eY60WuMBIEkE0AAJNm7KWibDgnoa3RkVK433zFb+96UlnOd0/7464Q/HfPXbn+e/JN1oej18IXf35zZ20HDO2uEx6mS7j/RYG76euOPIvbEVLbxHQSCJIAACJIuZYdGoMB049c2VmVeOlN7sH9Y+noGpLd7QPq6BzPvB80WsVVzK0RnjBO6NTTXRFJRcWmRbDNzArY+sTQT3lkjPHabMM86TFA+s0T0Sb+80rzM3+ISRkIjcRKVRk4AARC5CzAgCAL6hF9SViEE9gmCbnzK1BUkKvr0RYIABLIJIH2zeXAEAQhAAAIQSAUBBEAq3EwjIQABCEAAAtkEEADZPDiCAAQgAAEIpIIAAiAVbqaREIAABCAAgWwCCIBsHhxBAAIQgAAEUkEAAZAKN9NICEAAAhCAQDYBBEA2D44gAAEIQAACqSCAAEiFm2kkBCAAAQhAIJsAAiCbB0cQgAAEIACBVBBAAKTCzTQSAhCAAAQgkE0AAZDNgyMIQAACEIBAKgggAFLhZhoJAQhAAAIQyCaAAMjmwREEIAABCEAgFQQQAKlwM42EAAQgAAEIZBNAAGTz4AgCEIAABCCQCgIIgFS4mUZCAAIQgAAEsgkgALJ5cAQBCEAAAhBIBQEEQCrcTCMhAAEIQAAC2QQQANk8OIIABCAAAQikggACIBVuppEQgAAEIACBbAIIgGweHEEAAhCAAARSQQABkAo300gIQAACEIBANgEEQDYPjiAAAQhAAAKpIIAASIWbaSQEIAABCEAgmwACIJsHRxCAAAQgAIFUEEAApMLNNBICEIAABCCQTQABkM2DIwhAAAIQgEAqCCAAUuFmGgkBCEAAAhDIJoAAyObBEQQgAAEIQCAVBBAAqXAzjYQABCAAAQhkE0AAZPPgCAIQgAAEIJAKAgiAVLiZRkIAAhCAAASyCSAAsnlwBAEIQAACEEgFAQRAKtxMIyEAAQhAAALZBBAA2Tw4ggAEIAABCKSCAAIgFW6mkRCAAAQgAIFsAgiAbB4cQQACEIAABFJBAAGQCjfTSAhAAAIQgEA2AQRANg+OIAABCEAAAqkggABIhZtpJAQgAAEIQCCbAAIgmwdHEIAABCAAgVQQQACkws00EgIQgAAEIJBNAAGQzYMjCEAAAhCAQCoIIABS4WYaCQEIQAACEMgmgADI5sERBCAAAQhAIBUEEACpcDONhAAEIAABCGQTQABk8+AIAhCAAAQgkAoCCIBUuJlGQgACEIAABLIJIACyeXAEAQhAAAIQSAUBBEAq3EwjIQABCEAAAtkEEADZPDiCAAQgAAEIpIIAAiAVbqaREIAABCAAgWwCCIBsHhxBAAIQgAAEUkEAAZAKN9NICEAAAhCAQDYBBEA2D44gAAEIQAACqSCAAEiFm2kkBCAAAQhAIJsAAiCbB0cQgAAEIACBVBBAAKTCzTQSAhCAAAQgkE0AAZDNgyMIQAACEIBAKgggAFLhZhoJAQhAAAIQyCaAAMjmwREEIAABCEAgFQQQAKlwM42EAAQgAAEIZBMozj5M9tGl49cXDvQNJbuRtA4CEIAABDwRKC0vXugpY0wzpUoANJ+9ubK1qTOmrsJsCEAAAhAIkkD9ipqVQZbvWtkMAbjmEeyBAAQgAAEIhEAAARACZKqAAAQgAAEIuEYAAeCaR7AHAhCAAAQgEAIBBEAIkKkCAhCAAAQg4BoBBIBrHsEeCEAAAhCAQAgEEAAhQKYKCEAAAhCAgGsEEACueQR7IAABCEAAAiEQQACEAJkqIAABCEAAAq4RQAC45hHsgQAEIAABCIRAAAEQAmSqgAAEIAABCLhGAAHgmkewBwIQgAAEIBACAQRACJCpAgIQgAAEIOAaAQSAax7BHghAAAIQgEAIBBAAIUCmCghAAAIQgIBrBBAArnkEeyAAAQhAAAIhEEAAhACZKiAAAQhAAAKuEUAAuOYR7IEABCAAAQiEQAABEAJkqoAABCAAAQi4RgAB4JpHsAcCEIAABCAQAgEEQAiQqQICEIAABCDgGgEEgGsewR4IQAACEIBACAQQACFApgoIQAACEICAawQQAK55BHsgAAEIQAACIRBAAIQAmSogAAEIQAACrhFAALjmEeyBAAQgAAEIhEAAARACZKqAAAQgAAEIuEYAAeCaR7AHAhCAAAQgEAIBBEAIkKkCAhCAAAQg4BoBBIBrHsEeCEAAAhCAQAgEEAAhQKYKCEAAAhCAgGsEEACueQR7IAABCEAAAiEQQACEAJkqIAABCEAAAq4RKHbNIOxxm0DjqgVSM7/Kk5Gd127LlbNtnvK6kqmgoECKSopkaHBIZNQVq9y3ozjDbNh9Q7EQAikigABIkbNtNHXl1iWyZsdST0WdPnAxFgKgrKJE6pfVScPyWplVM1MqKsuk/Ncv/U5FgN78B40IGOw3rwH9Oyi93X1y+0aP3L7ZbV5jf7sz53gCFpNMRcWFsmCJspohM6oqZMascqmcZf6OvTd/C4sKM5zu3u6Vntt9cvdO769e5n2Ped/VcUc6mm8iqmLic8xMBgEEQDL8SCt8Eli4cr4sXlMvC5fXydyG6l/d5Kcq02iAktLizGuq0/S7zvbbctX0fFw9d01azrcnQhCUlpdkeC3buEgWr66XkrLpf0qU1+x5szKviZj1GHFw8USzXDjenOE0Mjwy0WnOf1Y2o1R2PrHBs50nPmzKXDOeC7CcceOeVTJ77kxPpV4+3SZXzrR6ykum4AlM/18bvA3UAIFICOhT6SrTo7Hl4TUyZ/7swGyoqasSfW3au1pGRkal/coNOXf4spz86LwMD8WnW7zSPMkvXb9Qlm5YmBFKys9m0vI37FqZeQ30DcqlUy1y0YiBy6dbM70HNusKsqzSspKMr73WodfKi//lTa/ZredbvrEx0xvmpeD+3kEEgBdwIeVBAIQEmmrcIaBPqxt3rZKNe1eJ3nTCTIWFBaa7fF7mtePx9fLJW6flxAfnnL7B6RDIfU9uknX3LZ++Z8QSTO1hUHGmrwEzvHLglyfk6LtnJK69AvlgWWTm2SxZ1yCXTrbkk41zIZA3AQRA3sjIEGcC9ctq5fFvPGDGqysjb0bFzHLZ/cwW2fboOvnJX+yTW9fvRG7TeANUrGzYvUp2fmGj6NyHqJI+USun9fcvl3dfOJTpEYjKlrDq3f3MVvPk3JYKwRMWU+r5PAEEwOeZ8EkCCWh39X3mRrb10bWhPcXmilEnxN264dbNX59C9z67LTN0kWs7gj5P5w88868fzggAFQKuCSab7a+unZUZCtFeDxIEgiKAAAiKLOU6Q0AnMH3h23ukdmGNMzaNN+Tgayecmf2uPSN649exfleTTtZcZCZt6s3x41ePmSWZ8ZlHkQ/TnV/YIGcOXZT+uwP5ZONcCORMwO4snpyr5UQIhENAb2hf+c5jzt789Sm26eiVcGBMU8vc+mr5rf/pC07f/MeaoD06Wx5eK8/+4WNmeKJ07ONE/dV2aa8VCQJBEUAABEWWciMnoGPsX/6DR6Ry9ozIbZnMgAPm6X/UrAyIOi1YOk+e+6PHRZnFKc1fPFee+7ePm9gD4U7mDIvRerMqQlcFkCAQBAEEQBBUKTNyAjppTW/+Om7satL4AGcPXYrcPJ1x/uU/eFR05n0cky7h/M0/fsLzWnWX26wTMXf/xlaXTcS2GBNAAMTYeZg+CQETpOfJ33tQtEvb5aTj16Oj0T79r962JMNKQ/XGOc2aUylfNSLAdZ97YaxzHhpXL/CSlTwQmJIAAmBKPHwZRwJrdy43gUvqnDb9ekunnD8W7di/BiZ6/Bu7RJ8yk5B0+EKHMXSpZ9LSni9vS4yfkuabOLeHVQBx9h62f46ATpza9dTmz31u4wON8X+jtcuszR41Ef1GMmP3GphGo/vpcWFhYWa8Vp9Cp+tO//Dlo5HO/NdZ/jrbP4ik+yNcu3x9XMx/jf3fJ6UmAJPOx6icXZEJwDTPhFy2PXav3J/+lw/JD//sZenuuhtE8yIpU+cBrH9gpRx7/2wk9VNpMgkgAJLp19S26n4TsU437rGRtHu+/crNTHx6jcp289qtnIvVLul59TWZiG7azT4+bK7uBxBlfHR9Un70a/fl3JZcTuy5dddwMqF7TSz/ZtO+XCL26aZKOvlwxeZG0XCzuomQjaQiQHs2Xvjr1yMfYrHRnrEydn5xo5z9xCwLNOF1SRCwQQABYIMiZThBYF5DjXlKWmHFlmazcc9r/+Mj0Rubl3TH7AaorwvHr8p+M9a/9ZG1Gdu0l+CDlw57KdJansd++35rIkmfst978ZAZzriat30qsFovdGRe7/70kCwzewzs/cp2K+GZdSdH3ePhkzdP5W2XqxnKzSZDO8wmQ++9+ImrJmJXzAggAGLmMMydnIBuJJPZqnfyU6b9Rrvz9YZ96I2T1p4eu42IeOenB+WICVzTaCLsaa9CVGnD7pWZXfz81q9P+J+8dUo0iJGNQDwqBlRE6I6Je8ys97Vm3wG/6f4vbcrswni9pctvUc7k32hCMx//oCnRURCdgZ0CQ5gEmAInp6GJBWYimz5B+kn6NPvT//SaHHzdrM0PYHb+7Rvd5sf7nB8TfeXV8LIaY95v0qGQH/zpy/LRK0et3PzH26O7AL7xTx/LC//5DTOHoHf8V3m/12GXJ761W4qK473CYXzDtU26LwIJAjYIIABsUKSMyAnorH8/Y//9vQOZDXnaLl2PvC1BGDB2M/S73E9v/i989/XAn0B1COZFIwL6evp94dDJc7ueDmZSqC/DfGTWCZwLTShkEgT8EkAA+CVIficIrNjU6MuOt36y3/cTpy8DAs6sOw763QtBAxe98NdvSK/Pm3KuTdX6Xvyvb2a2A841z0Tnbdqz2vN+9hOV58JnOkyivV4kCPghgADwQ4+8ThDIdP9vXOTZFo3G13Qk2jX5no3PIaM+9W82a/79pK6O2/JT8+Tf293np5i8815v7pSX/vZtf0MN5j657dH1edftcgZdarrOxLsgQcAPAQSAH3rkdYJAZVWFVHhc+qfj/m//8wEn2hGUEau3L5UyM4Pca9IJfy9/753Qb/5j9upKgTd+9NHYoae/OvmyujZZMfXv+9JGE1shnuGbPTmRTNYJIACsI6XAsAn4CSZz/MNzohPPkpw04p+fdMgspevquOOnCN95zx2+LM1N17yXY3oBNu1d5T2/gzk1nsP2x5PVs+Eg5kSbhABItHvT0bjKKu8BZPTpMslpkXny9bObnK5c0KV+LiSNFaDLNL2mNdoTYjaJSlJScVc1Z2aSmkRbQiSAAAgRNlUFQ8BrD8Dw0LB0XI1uTX4wNLJL9fvUq8MjysmFpCsQjvsIhVtcWmziC9gJFOUCD7WhqJhlga74Io52IADi6DVsziLgNYSsBuQZHhrJKitJB7oV8pI1DZ6b1HT0iglZ3OY5fxAZ9+875msVwkYTCClps+eXmQmwGvmQBIF8CSAA8iXG+c4R0LFQL8lvoBkvdYaZZ9MeM+btY6XYYRPpz7WkcfCPvHPas1mzaipF19EnLelugX6jYCaNCe2ZngACYHpGnOE4gf6+AU8WVpsn5KQm7e5es3OZ5+bpsr8oQxZPZbgu2xTvUwFEw+kmLek+GGt2LE1as2hPwAQQAAEDpvjgCfTc8hYyVkPj+nlCDr5l3muYv3iulBgR4DWdPnjRa9bA8+nSzRYfkzfrzQ6EfiMiBt5IDxXc/+RmXz73UCVZYk4AARBzB2K+eN6xT5+SZ5r96ZOYFiyZ57lZug/C2YPmKdvhdPbQRc/WaVjkusY5nvO7mlHnwmx7bJ2r5mGXgwQQAA46BZPyI6BPhF7T3AXVXrM6nc+PAGhpahfdwdDldP7YFV8TOBcsTeakuS0PrRGd50CCQC4EEAC5UOIcpwl0exwC0EbteMIEUvExUc5FMDoZbP6SuZ5Nc7n7f6xROhnw0qmWscO8//oRSHlXlmeGlvPteeb47HTd+TBpmx991jre2SaAALBNlPJCJ9Db0+f5abCuca6sT9ja8DkLZvsKEas9AHFIl042ezZTBYCrs+Yz2ywPDHlu24rNi8VlgeO5YWS0TgABYB0pBYZOwMwI93MzeOCpzb62Eg69vdNU6OfHX7ffdb37f6z511u6xt7m/be0vERUKLmYdHmqhl/2k/Y8uy1xPVt+eJB3YgIIgIm58GnMCBx976xni3WjnCe+uSsxM8Pn+5gA2NHS6Zlj2Bl1u2DdqMhr8iOUvNaZaz6NweBHiNUtmiOrty3NtTrOSykBBEBKHZ+0ZmtM/xut3p8IG1cvkGf/8DEp97FrnitM630IgOsxEgB687/Zdssz9gVmOaCraWhwWD74+WFf5mnPVhKXO/qCQuYsAgiALBwcxJnAMR+9ANpuXTv/1T9+QmZWx3dpoO6LMGuO91ng15vj0wOgPrvuQ/S53AOgbdMdEK9dvqFvPSXdJnvrIywL9AQvJZkQAClxdBqaefaTS9J/11tUwDE+umf81/7nL4rGV49j8juuHTsB4KPHQpfLlZR5D5YUxvXx7guHfEU93PrIWqlMaKyLMPgnvQ4EQNI9nKL2abep7l7nN+neAk/+7l558vceFH2KilMqqyj1bO5A/6DcutntOX8UGf0KFj+8wmhv+5UbosLWa9IhgF1mKIAEgYkIIAAmosJnsSWg3aZH3z1jxf5lGxbKN//907LB7CCn0ePikPzMYbjVccfX02YUfHQioJ/kugDQtn348hFRces1rdq6JJGRD73yIN9nBOLxq/aZvbyDwLQE3jeTp9ouXZ/2vFxO0OViDz23Q779v/6GbDS762mgFZeTnxtaf6+/4ZMouOhGUKMj3ncG8sMrrPbqagBfOzOaQFd7n90elrnUEyMCCIAYOQtTcyOgs8Nf/fv3pLe7L7cMOZylewY8+JXt8jv/25dly8Nrnd10RZc0ek39fYNes0aXz9z7B3zYHQcBoHA1LoCf7at1guvKLYuj8xM1O0kAAeCkWzDKLwH9sfz537wlvSawjc2kG67sfmaL/M7//qwJI7xByipKbBbvuyw/N7QBE143jslPz4Vr/puM/5CJDKhDAX7Srqe3sCzQD8AE5kUAJNCpNOlXBDrMkrbn//KXcudmj3UkOtZ+3xc3ZoTAA2Yb1orKMut1eCnQjwDQ7vQ4Jj89F354hc3qjNkBsePqTc/V6vJW3SyIBIExAgiAMRL8TSSBW9fvyE/+cp+vIEFTgSktK8lswao9AtozELUQ8DMJ0M+T9FSMgv7Oj92lPlZNBN2uz5VvhjsyywI/90XuH2x7dJ1orAgSBJQAAoDrIPEE7t7pk3/+q9ek+dy1wNqqy610boDOEdCu1vKIegT8PNEyBBDY5WGtYJ3c2nTkiufyikuL5YGnNnnOT8ZkEUAAJMuftGYSArrG/cX/8qboCoHhIe/x4ycp/tOP9QdWg6/8rhECOjSgx2EmX5MAY7gKQNn6ES5+BFOYfh1f1wcv6TXsfVngmu3LpHZhzfgieZ9SAgiAlDo+jc0eHR3NLKf60X94RXR+QJBJb/zbHlsn3/x3T8miVQuCrCqrbD83ND+z6bOMCPnAzxCAH14hN/PT6u509siRt33EujDLAvd82ewWSEo9AQRA6i+B9AHQ4DE/+fNXZf++4752k8uFnIab/fIfPCKP/fYD4ufpPJe69Bw/e9z7WU+fq31BnOfHbj+8gmhLrmUefP2E6NCW11S/rFaWb2r0mp18CSGAAEiII2lGfgRGTPCY/fuOyT/+vy9J02kn0R8AABUcSURBVFHvY6q51rpmx1L5lokq2Bhwb0B/r/dlj6WOLWnMla0fu/30HuRqXxDnDZplgR+94m9Z4G4zV6WomFtAEP6JS5l4Py6ews5ACNy+0Z0JGvTjP98nbRftRA+czFDdY+Dpf/WQrN6+dLJTfH/e72Mtf1m59yBCvg33UYCfbvy4CgDFdfrARfGzfbPuGrl5L8sCfVx6sc+KAIi9C2mADQK66crzf/VLefl774jf+PJT2aN7Cjz+jQdk+2PrpzrN83d+dkPUsMdxTH6C+fiZQBg1K53T8t6LZrdAH2n74+tFhSkpnQQQAOn0O62ehMDFE83ywz99WV774YeBBBAaq/b+JzfJQ1/d4WvMfqys8X/9PNH66Uofb0PY70t99Fz44RV2Oyeqr+V8h1w4dnWir3L6TLdDvv9LLAvMCVYCT0IAJNCpNMkfAX2yOnPwovzD//Nzefv5A2ayVa+/AifJvWHXSus/vn13vUfzi+8QgPeei7gLAL203jfLAnX/C69p7X3LZG59tdfs5IsxAQRAjJ2H6cES0B/V4x+ck+//Xz8TXXvtp3t9Mks1Mlvj6vrJvs77c1+TAGM6BJDmHgC9QHQeyxEfW2DrSgiWBeb9r5aIDAiARLiRRgRJQPdi/8Tsxvb3/+eLcuCXx0VnYFtLZk32E998QCqr7IRn9TMJMK5DAP4mAcZzA6R7r7+Dvzzha+OrhSvqZOn6hfcWy3HCCSAAEu5gmmePgEYT/PjVY/J9IwROfNQk4n0b+iyjNGzwF7+9RwoLjRrwmfz0Uvi5kfo023P2ouIiX0vZ4roB0r3AMtfmL47e+3Fex7t/Y6voJFVSegjg7fT4mpZaIqBbDL/14/3y079+TXSzIRtpwdJ5smH3Kt9F+RnTrq6t8l1/2AVUmaVsfpIfXn7qDSLvyY/Py822W56Lnj13pmza4/8a9GwAGUMngAAIHTkVJoWAzsD+4Z+9IofePCl+otGN8di4e+XYW89//UwC1J0EdcvYOKV5PmPaD8R0/4OJfKTXoN9lgTue2BDZRlYTtYnPgiWAAAiWL6UnnIBuyvLhS0fkpf/2tgz5nBswe94sWbhivi9ifnsk5jXEa5OYWh/29nb3iZ85E74cFVDmq2bHy0snWzyXrrEg7vviRs/5yRgvAgiAePkLax0lcPl0q/z0u6/7moilTVu/a4WvFt6+2e0rRnzcBMBcHwJAt9ZNYnrvZ5/4Wha4/v4VMmf+7CSioU33EEAA3AOEQwh4JdB+9aY8/xf7RHdr85qWmZnYM2b5i8x2zceNbV5DvNaD+xEsQYd+9noN+M2nvUDH3j/nuZgCMxl195e3es5PxvgQQADEx1dYGgMCt8ya7H3/8L5oMCEvSWdhr9621EvWT/P4ebKN0z7xGsveTxhgP5w+he3omwO/PCZ+5oPoplVL1jY42jrMskUAAWCLJOVA4NcErl2+IUd9BGap8dn96ufGVjl7RmwmgfkZ/9fYDh3NnYm9ZnVuw36zZNVPyiwLtLA01Y8N5A2WAAIgWL6UnlICH71yVHQ83kuqnO0vKJDe2HRyote0aKW/iYhe68033/wl8/LN8un5HWa4xk/43E8LcvjNiQ/P+drYqrp2lpWlqQ4jSr1pCIDUXwIACIKAPmEeffesp6Jn+hQAemPruOr96XbV1iWe7A4zk45Tr9yy2HOVrRc7POeNS8aRzLLAT3yZu1OXBZrloaRkEkAAJNOvtMoBAjdavd2EK6v8r8VvveT9Bte4eoHzwwDaS+EnfHJSJwDee9lfOdMqukLFayozN/85C1gR4JWf6/kQAK57CPtiS+BGq7eobLpFa2mZ9x3uFNi1Szc8c9OJiCs2N3rOH0bGNTuWea/GzM+8djmZSwAngvK+Lgs0vQEkCNxLAAFwLxGOIWCJgIaZ7b5111NpfucBtJkubj8/+n5XInhqdI6ZNFjNsg3eN665bnpmkhYAaCp0ne235YTZ1ZIEgXsJIADuJcIxBCwS8Lo5j97k/CRdAnbh2BXPRcxfPFeq5sz0nD/IjCs3LzYbABV5ruLEh2Yjp5Sl/fuOGdEzkLJW09zpCCAApiPE9xDwQUB3+vOS7powtX6T10mIY/VueXjN2Ft3/poNE9c/4D1aoj75nzl0yZ32hGSJCkLdypoEgfEEEADjafB+WgKl5cXTnsMJnxHwOoP67u3ezwrx+E7jAfhZ6643Wj+R9jyaPWU2DVPrZwOgU/vP+96zYUoDHf5SowP63SvC4eZhmgcCCAAP0NKcxU+3cNLXXd97XVSYp38vXdU6bDA8NHJvcZ6O/QQkKigokAef2y5inrpdSMrzgac2ezZFozMee8/b0kzPlTqUUf//dJ8AEgTGCCAAxkjwNycCfgTA3Tv+n2pzMtKRkxpW1HmypMcip3OHL4vueuc1LTDBdlyZEKiR6coqvK9Jv3iixdc+DV4ZupRPdwrUHQNJEFACCACug5wJaJx4XaLmNfVY6Nb2WncU+RZ6jKjXee22NXP1qc/vpLfdz2wRv5MS/TaoYXmtrN6+1Fcxx9474yt/UjK/9+IhGWVZYFLc6asdCABf+NKVeYWZfe0n3b3j/UnUT71R5C0uKRLd2c9LOu9j9v5E9R03S8D8DL9UzCyXJ3/vQU/DGRPZk+9nuj/BY19/IN9sWeffbLslzU3tWZ+l9UBZnPz4fFqbT7vHEUAAjIPh6lv9AdTQp1EmffJftc1fiFgbE9uiZJBP3Zv2rha9ceabNITwpVPeI7dNVJ8KLx0K8JMWmuGML/3OHikM+TrUa/8r33lMdOc/P+nIO6f9ZE9c3o9/cVQG+gYT1y4alB8BBEB+vEI/WyeRfeUPH5Vv/funMzdgnZgVRdLxVz+hV9XmnoB7AGbV+LtJ2OKqN/6tj6z1VJyGbh0aGPKUd6pMGg3Oz1wALXvJugZ57BsPSFjX4NjNf/Zcf/EImpuuyakDF6bCk7rvenv65cBrJ1LXbhqcTQABkM3DuaMdj6+X2fNmZV5PfHOXfOPfPSXr7l/uazJUvo3UpVf68pN0/XWvxcltE9ny9L98SH77T56UtTuXRdZdXVxaLM/8q4c8++f80asTNc33Z/qD/8Y/fey7HN0o6NGv3y86xBFk0id+ffL3e/PX6+61H34kQiTcz7lLV4jcvuFtx8rPFcYHsSTgfUZXLJsbL6PnmH3h732SrKmrkkd+6z556LkdcuVMW6Zr9+KJZhkM4KlRf+R3mN3Atj26zje480ev+ApNO50BmU1LDC9dsqY3qAee3pKZ/HbWBH3p6rA3qW4qO3SY5Eu/s1dqF82Z6rRJv7vT2SO2x//HV6YzwE981ORbzK3ZsVQaltXKGz/+WJotzygvKi6ULQ+vle2PrbciMt5+fr/0eAzHPJ5dEt/rvJD3f37YzO/Ym8Tm0aYcCCAAcoAUySnmRvbwb+0U3ZhloqSfa5esvnTc+OrZNmk535556SY0uubZa9Iehw0mCMwa8yTtZ9nV+PrPHLo4/tD6+/qltVnr1XXNuPae6EsFwIVjzXLh+FVpb74ZyNPggqXz5Ilv7PI1Vv3BS4etrf+fDPB7L34iC1fM9/1krU/oz/6bR+WUmUyma8ttjCcvXlMve7+y3bdtY23XeQ9+5z6MlZXUv/o/ob8bDcu9LVlNKpe0tAsB4Kintctd12DnkvRJfamZca4vTRrzu/VCx6/FQJfZkKY38xSkQuHepJO6ZsyqEN18Rm/8q81Ev0UrF2TdTO/Nk++xPtkGvf+6LhObLFXXVsm2x/S1LsNBJ9npZjltZse82zf9dYFqzPyNu1fJyq2LfY2Na9S+piNXJmuCtc91fsEv//ED+c0/fsLKxNK19y2X5WbnwAvHrsrZTy6bmfbX8lpiVmXG95dtWCTLNy4SZWkr6VO/Pv2TpiegywK/9r98ydf1O30tnOEiAQSAg16ZMatcdpkubK9Jn9rHC4KxcjQeuP4wakAePUcnWWldQU/qOvvJpUCeusfapX/rl+X2BKNt1hC3Y/HkdYb8NXPzbTWvTrM8SmPw62d9Zsz8c70opldmVnVlpou/znTzL1q1wITKrR5vhrf3prPmvRcOecvrIVf7lRty8PUTmeEdD9k/l0W3LtbtefWl7FQMdF2/Ixr3Qa+3HiNAtT+q0lxrM6oqMtecTtjUJ/659Rb43WuRqUzH/dO049+9CPI5vt7SJaf3XxAVc6R0EUAAOOhv7QYNIvCKxqXXVyA/upNwHOwf8h2IZpKiP/1Yb0DzPN5IVAAtM0+f+hqfNFCKTpzru9svJWZiX2l5qXkVByKWdJ1++1UzNBFi0o1hNM6/DiHZTMpzw+6VNovMu6wPXz6S6YnIO2OKM3xklgVqnA8/gb5SjC+2TZ94gDm2zYm/4UvWNsiKTY3xb8ivW/DuCwelu+tuoO3R8XfbcRK0PL2Z6URMfVotqygJ5OavczeUUdhpxAicV/77O3L6wMWwqw6sPu2xeesn++XQmycDqyOpBWvPzcE3WBaYVP9O1i4EwGRkIvhcl5BlNl+JoO4gqrxwvFlOma7FoFP9FOP/Qdftp/yb127JL/7uvUBXR0xln4qA13/0oRx+69RUp8XiO9086dXvvx94b1MsYHg08sjbZ1K/V4JHdLHNhgBwyHXbTPAYV4LZ+MWiQWfeMsvEwkgNOY7/h2FLrnXoE9fP/+YtGeiPOBqbGS/XpWC6AiGuSYeZfv63b4kuNSV5JzA8NBzr68B7y9ObEwHgkO8PvXlK9u87HkgkuDCbqasQXvm7dzNj6EHXqysgdJOiOCUNvvLif34j8KGRfJh8Yq69N370UV4z+PMpP6hzdZ7GT7/7mvV4BEHZ63q5uhKl7eJ1183EPksEEACWQNooRpdo7d93TL7/f/9MTn50PnY/xspAl/z95C9+GdqPiK5m0FnmcUkatOlH//EXot3/riUdrnn5e+9kZu+7ZttE9rRfuSnP/+UvpaO5c6Kv+cwjgXfNskAiJ3qEF7NsCAAHHabdw2+a7vMf/tnLZmOYFgctnNgkncn+4z/fF1rkPbVCl5r94E9fkk/MOLaOabua1LYPTFe73mBtBM0Jqp16vf2DEaC6SmCiuBFB1ZtPuerz137wgfz4L16VW2a5IckugQ7zfxx04C67FlOaVwIsA/RKLoR8ne235aW/fVvqGueaNdZLM8t0dBmfa2lsz3kdR47ipqF16s1Vw/5qmOS6Rm+heIPiet08oepTlQZnikNSnh+/eizTC7XrmS2ycou/baBttVnt0gmLh944Gcl1ZqsdcShHl1JqcCadmExKLgG8GwPfauAWfb1rgsU0rl4guiGLBvoJekOW6dDosiu96erNQrv+o043WrvM8MO+zDr0TXtWZSIbRmnTtcs3Mk/Sl0/b3d43rDZ1myA++/7hfdFNY/Y+uz1SYaUhfVXkqU2k4AloL4vOSbrvixuDr4waIiOAAIgMff4V65O2buiiLw1Oo8FrVAzoXu2T7RmQfy3T59CNh9SGg2Y7UdfGslWUHHvvbOalUfqWm5gKGldBwxyHlVrOdxg2x+Wq5Y1ywrL/3npUyGh3e6OJfKhhezV4kN+toe+tY6JjvbYumqWkTWZ2v4o7UrgEtLdFdx6daaJnkpJJAAEQU7/qTfjMwYuZl+6gVrtwjmhAHN0/QF/lZjMcm0mf8HV8WG/8zU3tomLE9aQhTvX10StHMyF7VQzopic1dbMzgX1s2a8z0XVXPN2dUQP76NNT4pKZXqHt05c8L6KhkMfCTWuwJBtJoy+2mhnoOlFSX373abBhU5rL0CGXD186Ik98a1eaMSS67QiABLhXg6DoZjL6Gkv6xFtvBIHOH9CNfmbMLJeKzKtMioon3stdb+r9fYOZiVVdHXcyk/n0r85FiPtkqzExMMZHN0CqmV+VifSnWywrr7Lykkwo1BITWrjUbO07Nv6pNyYNCZwJDdwzYPYJMHsFmH0VdDmfPuVfbzWz0N2dfzjWZHt/TVt1Br6+VFzphj46NKX7JGj0xArz0utN4/5XzDBC1OyhMJb0GlOOd41I0smumb0XzHu9vnSoRLnGPWlsBx028Zoijw0xzvCzhy9Jde0sz6HJtfeI5C6Bcf+a7hppy7Lnv/vKodamzq22yotrORo7v2JmWWbYQHsSMi8TTCUOT/VhMtdNknSexeDgULpu8BYh626TKjx1b4uMgDJCKlViySJLigqeQP2Kmk+++p0ntwVfkxs10APghh9CtUKfMFx6ygi18XlUpvMJVByRvBPQ5Y86JJLIYRHvWMgJAScIEAfACTdgBAQgAAEIQCBcAgiAcHlTGwQgAAEIQMAJAggAJ9yAERCAAAQgAIFwCSAAwuVNbRCAAAQgAAEnCCAAnHADRkAAAhCAAATCJYAACJc3tUEAAhCAAAScIIAAcMINGAEBCEAAAhAIlwACIFze1AYBCEAAAhBwggACwAk3YAQEIAABCEAgXAIIgHB5UxsEIAABCEDACQIIACfcgBEQgAAEIACBcAmkSwBocHcSBCAAAQhAYCICKbtHpEoAlFaU9E3kcz6DAAQgAAEIpO0ekSoBUF5Z0sMlDgEIQAACEJiIQNruEakSALPmzuiayOl8BgEIQAACEEjbPSJVAmDh6prm0vJirnIIQAACEIBAFgG9N+g9IuvDhB+kSgAUFRW9uWB5dcJdSvMgAAEIQCBfAnpv0HtEvvnifH6qBMD16z0/W7WjvqugIM4uw3YIQAACELBJQO8Jem/Qe4TNcl0vK1UCYMOGDQOza2d8d8mGOtf9gn0QgAAEIBASAb0n6L1B7xEhVelENakSAEq8rm7p/7Fuz6IXZ1SVOeEAjIAABCAAgegI6L1A7wl6b4jOimhqTp0AKCgoGO7pG/zafU+veru4JHXNj+Yqo1YIQAACDhLQe4DeC/SeoPcGB00M1KTUjoZfuHChvLOl8xeHXj3/0EDvUKCQKRwCEIAABNwiUFpRLNu+uPztmoaaLy1btiyVQeJSKwDGLsUDbx343VMfNH/39o27FWOf8RcCEIAABJJLoGrujN61uxZ+Z8fDO/4uua2cvmWp7wPXC6Bkad+s5Vvq/tqMBaWuC2j6S4QzIAABCCSDgP7G62+9/uan/eavHk19D8D4y/rs2bNlV462/VF3V//vd3f1rh7sHaro7xksHh4eGX8a7yEAAQhAwHECRUWFUlZZMlRSUdw7s7rizMzqsu81blrwn1atWtXvuOmhmff/AzZGgD4AjBIqAAAAAElFTkSuQmCC;" parent="1" vertex="1">
                    <mxGeometry x="170" y="90" width="40" height="40" as="geometry"/>
                </mxCell>
                <mxCell id="17" value="" style="shape=image;verticalLabelPosition=bottom;labelBackgroundColor=default;verticalAlign=top;aspect=fixed;imageAspect=0;image=data:image/png,iVBORw0KGgoAAAANSUhEUgAAAgAAAAIACAYAAAD0eNT6AAAKo2lDQ1BJQ0MgUHJvZmlsZQAASImVlwdQk9kWgO//p4eEFghFSugd6QSQEnoo0qsohCRAKDEGAopdWVzBtaAiAhbApSq4KkUWFbFgYRFQwL4gi4K6LhZsqLwfGIK7b957887Mzfnm/Oeee86de2ZOACDjWQJBKiwNQBo/Qxjs5UqLjIqm4cYABGCAB9bAmMVOFzACA/0AIvP67/J+APFG5LbJTKx///5fRYbDTWcDAAUiHM9JZ6chfAZZT9gCYQYAqCLErpWVIZjhNoTlhEiCCPfMcOIc/zHD8XP8cdYnNNgNADQJADyJxRImAkBSROy0THYiEodER9iMz+HxEU5C2CktbSUH4WqE9REfAcIz8enx38VJ/FvMeHFMFitRzHO1zArenZcuSGWt+T+v439LWqpo/gxdMFOA0DsY0UTkzu6mrPQVMz9+acA88ziz/rOcJPIOm2d2ulv0PHNY7r7ivalL/eY5gefJFMfJYIbOMzfdI2SehSuDxWclCN0Y88wSLpwrSgkT25O4THH87KTQiHnO5IUvnef0lBDfBR83sV0oChbnz+V7uS6c6ymuPS39u3p5TPHejKRQb3HtrIX8uXzGQsz0SHFuHK67x4JPmNhfkOEqPkuQGij256Z6ie3pmSHivRnIg1zYGyi+w2SWT+A8g3AQCSyAJUBeZwZ3dcZMAW4rBWuEvMSkDBoD6SwujclnmxrTLMwsrACY6dO5Z/D27mz/QVT8go2P1EzvQ/rBfsEW+xCA01QApHwXbPrHkXZB3m57FVskzJyzoWd+MEhWUkAOKAE1oAX0gQmSmw1wAC7AA/iAABAKosAKwAZJIA0IQRZYBzaDXJAPdoP9oBgcARWgGpwAp0AzaAMXwVVwE/SAfvAADIFR8AJMgPdgCoIgHESGKJASpA7pQEaQBUSHnCAPyA8KhqKgOCgR4kMiaB20FcqHCqBiqAyqgX6BzkIXoetQL3QPGobGoTfQZxgFk2A5WBXWhRfDdJgB+8Kh8HI4EV4FZ8M58E64CC6Hj8NN8EX4JtwPD8Ev4EkUQEmgqCgNlAmKjnJDBaCiUQkoIWoDKg9ViCpH1aNaUZ2o26gh1EvUJzQWTUHT0CZoB7Q3OgzNRq9Cb0DvQBejq9FN6Mvo2+hh9AT6G4aMUcEYYewxTEwkJhGThcnFFGIqMY2YK5h+zCjmPRaLpWL1sLZYb2wUNhm7FrsDewjbgG3H9mJHsJM4HE4JZ4RzxAXgWLgMXC7uIO447gKuDzeK+4iXwKvjLfCe+Gg8H78FX4ivxZ/H9+Gf4acI0gQdgj0hgMAhrCHsIhwjtBJuEUYJU0QZoh7RkRhKTCZuJhYR64lXiA+JbyUkJDQl7CSCJHgSmySKJE5KXJMYlvhEkiUZktxIMSQRaSepitROukd6SyaTdcku5GhyBnknuYZ8ifyY/FGSImkqyZTkSG6ULJFskuyTfCVFkNKRYkitkMqWKpQ6LXVL6qU0QVpX2k2aJb1BukT6rPSg9KQMRcZcJkAmTWaHTK3MdZkxWZysrqyHLEc2R7ZC9pLsCAVF0aK4UdiUrZRjlCuUUTmsnJ4cUy5ZLl/uhFy33IS8rLyVfLj8avkS+XPyQ1QUVZfKpKZSd1FPUQeonxVUFRgKXIXtCvUKfQofFBcpuihyFfMUGxT7FT8r0ZQ8lFKU9ig1Kz1SRisbKgcpZykfVr6i/HKR3CKHRexFeYtOLbqvAqsYqgSrrFWpUOlSmVRVU/VSFageVL2k+lKNquailqy2T+282rg6Rd1Jnae+T/2C+nOaPI1BS6UV0S7TJjRUNLw1RBplGt0aU5p6mmGaWzQbNB9pEbXoWgla+7Q6tCa01bX9tddp12nf1yHo0HWSdA7odOp80NXTjdDdptusO6anqMfUy9ar03uoT9Z31l+lX65/xwBrQDdIMThk0GMIG1obJhmWGN4ygo1sjHhGh4x6jTHGdsZ843LjQROSCcMk06TOZNiUaupnusW02fTVYu3F0Yv3LO5c/M3M2izV7JjZA3NZcx/zLeat5m8sDC3YFiUWdyzJlp6WGy1bLF9bGVlxrQ5b3bWmWPtbb7PusP5qY2sjtKm3GbfVto2zLbUdpMvRA+k76NfsMHaudhvt2uw+2dvYZ9ifsv/LwcQhxaHWYWyJ3hLukmNLRhw1HVmOZY5DTjSnOKejTkPOGs4s53LnJy5aLhyXSpdnDANGMuM445WrmavQtdH1g5u923q3dneUu5d7nnu3h6xHmEexx2NPTc9EzzrPCS9rr7Ve7d4Yb1/vPd6DTFUmm1nDnPCx9Vnvc9mX5BviW+z7xM/QT+jX6g/7+/jv9X+4VGcpf2lzAAhgBuwNeBSoF7gq8NcgbFBgUEnQ02Dz4HXBnSGUkNiQ2pD3oa6hu0IfhOmHicI6wqXCY8Jrwj9EuEcURAxFLo5cH3kzSjmKF9USjYsOj66MnlzmsWz/stEY65jcmIHlestXL7++QnlF6opzsVKxrNjTcZi4iLjauC+sAFY5azKeGV8aP8F2Yx9gv+C4cPZxxrmO3ALuswTHhIKEsUTHxL2J40nOSYVJL3luvGLe62Tv5CPJH1ICUqpSplMjUhvS8GlxaWf5svwU/uWVaitXr+wVGAlyBUOr7FftXzUh9BVWpkPpy9NbMuSQgahLpC/6QTSc6ZRZkvkxKzzr9GqZ1fzVXWsM12xf8yzbM/vntei17LUd6zTWbV43vJ6xvmwDtCF+Q8dGrY05G0c3eW2q3kzcnLL5ty1mWwq2vNsasbU1RzVnU87ID14/1OVK5gpzB7c5bDvyI/pH3o/d2y23H9z+LY+TdyPfLL8w/8sO9o4bP5n/VPTT9M6End27bHYd3o3dzd89sMd5T3WBTEF2wche/71N+2j78va92x+7/3qhVeGRA8QDogNDRX5FLQe1D+4++KU4qbi/xLWkoVSldHvph0OcQ32HXQ7XH1E9kn/k81He0btlXmVN5brlhRXYisyKp8fCj3X+TP+5plK5Mr/yaxW/aqg6uPpyjW1NTa1K7a46uE5UN3485njPCfcTLfUm9WUN1Ib8k+Ck6OTzX+J+GTjle6rjNP10/RmdM6WNlMa8JqhpTdNEc1LzUEtUS+9Zn7MdrQ6tjb+a/lrVptFWck7+3K7zxPM556cvZF+YbBe0v7yYeHGkI7bjwaXIS3cuB13uvuJ75dpVz6uXOhmdF645Xmu7bn/97A36jeabNjebuqy7Gn+z/q2x26a76ZbtrZYeu57W3iW95/uc+y7edr999Q7zzs3+pf29A2EDdwdjBofucu6O3Uu99/p+5v2pB5seYh7mPZJ+VPhY5XH57wa/NwzZDJ0bdh/uehLy5MEIe+TFH+l/fBnNeUp+WvhM/VnNmMVY27jneM/zZc9HXwheTL3M/VPmz9JX+q/O/OXyV9dE5MToa+Hr6Tc73iq9rXpn9a5jMnDy8fu091Mf8j4qfaz+RP/U+Tni87OprC+4L0VfDb62fvP99nA6bXpawBKyZkcBFLLghAQA3lQBQI4CgILMxcRlc3P0rEBzs/8sgf/Ec7P2rNgAUNEOQJgLAAGIPopoPWTJIp8CER3qAmBLS/Gan3ln5/PZ2YSH/B3oQCYH6M7bLDr4h8zN7t/l/U8NxFH/pv8Fs6EAusMweWQAAAA4ZVhJZk1NACoAAAAIAAGHaQAEAAAAAQAAABoAAAAAAAKgAgAEAAAAAQAAAgCgAwAEAAAAAQAAAgAAAAAAKDCXvwAAQABJREFUeAHsXQd8FUUTH0gPJYSEDqGH3rs0KVIVBQWUpqAUQYqIFCsKCgiCfNgbigURlaaA0nuV3nvvvScE+Ob/MBrCe8nd7rX33s7vN3nv3e3Mzv7vcju3OztLpEghoBBQCCgEFAIKAYWAQkAhoBBQCCgEFAIKAYWAQkAhoBBQCCgEFAIKAYWAQkAhoBBQCCgEFAIKAYWAQkAhoBBQCCgEFAIKAYWAQkAhoBBQCCgEFAIKAYWAQkAhoBBQCCgEFAIKAYWAQkAhoBBQCCgEFAIKAYWAQkAhoBBQCCgEFAIKAYWAQkAhoBBQCCgEFAIKAYWAQkAhoBBQCCgEFAIKAYWAQkAhoBBQCCgEFAIKAYWAQkAhoBBQCCgEFAIKAYWAQkAhoBBQCCgEFAIKAYWAQkAhoBBQCCgEFAIKAYWAQkAhoBBQCCgEFAIKAYWAQkAhoBBQCCgEFAIKAYWAQkAhoBBQCCgEFAIKAYWAQkAhoBBQCCgEFAIKAYWAQkAhoBBQCCgEFAIKAYWAQkAhoBBQCCgEFAI+gkAaH2mHaoZCQCFwLwKZ+Sc4kjmCOe0/n/xBAcwZ8YUp6Xf8vsi8gXk1821mRQoBhYCPIqAcAB+9sKpZPodACLcoN3Me5ph/OAd/JnbyST/xXZYOsII3mL+TVaTkFQIKAWcioBwAZ14XZZX/IYA39PzMxZkLMudjRmef2Omjs7eDxnOlnZlv2VG5qlMhoBAwDwHlAJiHrdKsEHCHQCAfRAdfgrkoc8l/PvE9jNmJNJKN6u9Ew5RNCgGFgDgCygEQx05JKgRSQwDD9mWZKzNXYi7HHMsczOxNhFiA8swbvcloZatCQCGQMgLKAUgZH3VWIaAVAQzh4y0eHT06fHAZ5iBmXyBMBXTyhYaoNigEFAJ3EVAOgLoTFAJiCKBjr8Jcj7kWc0XmxMh6/upzdIJbZFccgs+BqRqkEHACAsoBcMJVUDZ4AwJ4wy/GXJ25PnMDZiyv8ycK58Ze95IGI4CyMTNGYRB3cZh5LfNi5mvMihQCCgGFgEJAIeARgSJ8pgfzr8xnme/4OTs1SJEvy78Ep+xL5nhmd9cLDsxfzP2YSzErUggoBBQCCgGFgCtZDt7wRzDvZHbXgfjrseNecH/kYhv36LxuR7k8HIZmzN7g4LCZihQCCgGFgELACATw0MfDH53ASWZ/7eBTa/fXjI2TCTEZyGCYWjtSOn+V5acwd2TOwqxIIaAQUAgoBHwMAWTKe4YZD3s89FPqFNS5u0mAMJfuZOrLxhl5rRJY3x/MNZzcaGWbQkAhoBBQCKSOANbkt2BGp3+D2cjOwtd1vcd4OZ12sIFmXAdkQHyXWQVMO/0OUPYpBBQCCoEkCOChXZP5M+ZzzGZ0EL6uE0P/AcxOJsz9m30d3nEyAMo2hYBCQCGgELiLABLyDGXez2x2x+Cr+oFdO2ZvIDh5Zl8HjARU8wYwlI0KAa0IYH2sIoWALyCAYL4nmbsxIwufvxOWu2HU4/w/fIk/E9e/Y4kcYh9AN5mvuL7dXTqHaP/1zN60HTDaYzYhD8QA5sfMrkjpVwhYhYCa17IKaVWPWQgUZsXo9BG5HWlWJQ7Riw78IPMRZixfS/yO1QtJO3t0+ohz8BfCdT/DjE7aTIKzlJHZn7A1E0+l22YElANg8wVQ1QshgDnpR5i7M9dn9qX7GG/g25mRh2AbM4biDzGj00fHrsg9Akv4sBUR+9jcSW2K5P4aqKNehoCaAvCyC+bn5ubg9j/L3JU5t5djcYDt38SM6HUwOnt0+heYFelHYASLWOEAIN+AIoWAQkAhoBCwCIGCXM9YZsxrmx3sZYb+Y2z3DObBzBi5yMqsyHgEvmGVZly/pDpzGm+20qgQUAgoBBQCyRGowgd+Y0YEdtKHsJO/I7huDvNbzOjsMWqhyBoE8Hb+A7NZ98c+a5qhalEIKAQUAv6LAIZy8cZs1oPcSL0IDMMuc8OZEY8QyqzIXgRacfVYyWDkdYYurAJQpBBQCCgEFAIGI4DAvtbM65iNfnAbqS+O7VvIPJi5NjMyDCpyJgLF2SykCJ7NfI1Z5j5AnIYRzl0w63maGaNEWH4JmxDcOY+5E7O6nxgERQoBhYB/IIClW+2ZdzPLPKDNlD3Ntk1gbsmMZWCKvA8B5IlowPw+MzpzPffLES5fmFmW4JAg8DOlug/z+eeZ4SgoUggoBBQCPosAhszNGKpN6QGr9dxetg2Bh7BRRX4zCD5GRbk9GNJfxpxSjMlUPp+LWZZQ3ylmrfffAS7bmVndewyCIoWAQsB3EKjLTVnBrPVhaFU52PQiM1YdKPIfBLJxUzsyf8k8k3ky85vMpZmNIExvIU5E5D5G4OHTzBgpU6QQUAgoBLwWgUpsudOC+7ayTYOZCzMrUgiYgcCTrFSk808qg6mDxmYYp3QqBBQCCgEzEcDc56/Mt5mTPtTs+n6Q7RjOXIZZkULAbASMdHoRLFjRbIOVfoWAQkAhIItAJCsYx4ylcnZ19on1XmYbPmfGEkNfSh3MzVHkcASOsn2J96ERn3Ckf2RWCaUcfuGVeQoBf0QA85UdmE8yG/HAk9GBIX4Ee8EZUaQQsAOBq1ypzD3sSRb/X5hWU6QQUAgoBByBAB5Idgf4XWcbfmZGBL8ihYDdCBxhAzx14rLHsQtiPrsbqOpXCCgE/BsBpLzFWnk75/mxpLAbs1qrzyAocgwCiH+R7ehTkp/umJYqQxQCCgG/QgDrlHszX2RO6SFl5rmlXDfy7itSCDgRgUfZKDPvfzjdahWLE6+8skkh4MMIVOO2YY7dzIebJ91Iyfs1cwlmRQoBJyOAmBg4qZ7uZSOO93QyAMo2hYBCwHcQCOOmYBldArMRDy89OjDSMJY5N7MihYC3IJCXDcXyUz33up6y//MWIJSdCgGFgPcigMC6fcx6Hk5GlEUgVR/mDMyKFALeiEAeNnohsxH/D8l1KAfAG+8IZbNCwEsQiGA7P2O2OsgP+dOxjA+jDooUAt6OAHJQIDPgdubknbjMbzjHihQCCgGFgOEINGWN2KVM5gGlVxbLmwYzqzd+BkGRzyGA/QHaMe9i1vu/4a58SZ9DSDVIIaAQsBWBKK79J2Z3Dxyzjp3l+l5hTs+sSCHg6wgEcgOfYZaZVpvr6yCp9ikEFALWIlCHq7PyrR/BfW8yqzX81l5n1IZh6cgkjE5JkbUIYDltF+YTzHqc63NcPj+zIoWAbgTwj69IIZAUATyI3mbuz4zlS2YT9mIfz/waM1KbKtKHQDounpcZAWbRzOjIM3v4DOXjmZgT/+9RNjW6wgWwlwMI3y8xn0+BD/G5o8wI2rzBrEgfAoi1wf8e5vTDUxHFaFlL5gWplFOnFQJuEUh8ELg9qQ76HQKFuMU/MFe2qOV4cL3IvNGi+ryxGnQCRZmLMMcwo6PHZ+J3dPZOpdNsGJwBjCSB4RzsZEYAHIa8Ex0L/qooGQK5+PerzO2Zk0+HwWnGDoNwEg4yK1IICCGgHAAh2HxS6GluFXbusyLobg/X8zLzVGZFdxEA7sWYkdgIHT4+8TsfsxUjMVyNpYTOfy8znAE4BTuYtzBvYlaOAYPwD2FKrCFzfmaM4MBxWsQMh0qRQkAhoBCQQgAPmO+Y71jA2JJ3MHMIsz8TplnQwWPOdwIzsinirc6Ka+D0OtD5Aw/g0pu5BjM6PkUKAYWAQkAhYCACGOrfz2x2p3Cb6xjPnIXZHwlTKx2ZP2b+mzme2WzMfUk/YglWMY9hfpTZydMebJ5XEWJC+jHPZz7OjOW3a5hHMBdmVqQQUAj4IAIduE3XmM3uKDDcX98H8UupSdn4ZEtmJE7az2w2xv6oH9MHwBc4RzMr0o/AEyyCQEJP908cnxvCHMisSCGgEPABBDD8jgenp396o47j4fEWsz8M32IapTnzh8zbmI3CUOnRhiVGmBBIOpy5JnMAs6KUEWjPp4GblntsMZfLnrI6dVYhoBBwOgK52MAVzFr+6WXKLOE6ijsdDEn7MJ2BURREY2OIWgYvJWssfnir/ZkZMRaq42IQkhHiT+Cg67nvjnD5qsn0qJ8KAYWAlyBQm+08waznn15vWSQleY45DbMvEh6cg5gxH6317Ukvhqq8sfdoAl8rOKR9mXMzKyL6nUEQuc/g6MKpUqQQUAh4EQKIpkZ0tcg/vVYZPFR88W0rltv1NrNROdu14qnKGX+/YqUFhrN7MCNOwx8JI1eyz4IvWEewP4Kn2qwQ8CYEwthYJPYxszPB0j5feyuI5ja9wGzFdImZ10bp9nzvY2RgDvOzzJHM/kINuKFG3BdLWU9WfwFNtVMh4G0IRLHBGPo04p/dk46VrB9vyL5ACI58hBlzx3rnRz3ho46be/8ZhS+GtnHdcf0DmH2ZnuLGGYUbVvj4eqyPL98Lqm0+igA6ZfxzGvWPnlwP1rG/yuwLD0tgNZoZ8QvJ26l++x8m+L/BbpQ5mX2RmnCjjLyvL7C+Rr4IlGqTQsAbEajBRiOZh5H/5El1YZlbBW8EJonNcFweY/6TWQXzmXevJL1vvO075smnMWNUIC2zrxBiH4y+5xNY57O+ApBqh0LAWxFozYZfZzbrYfsx60ZcgbcSHn54uzvIbBZGXqk3MiTkTiIHpU3rlW0w8ZpiVKAnc/JNefiQVxJiH4y+xgiwbOGVaPix0b66XMsfL+kAbvQwZjOu6RXW25X5R2ZvJMxTAp8nmYO9sQEp2ZwpOIRi0mdwcZbQMMocEkqRzPgER4Xe/YwIDqaMQcEUkObuC22mkJBUb5ZrCQkUdwvPdqIL8XF0Pu4GnU/8jOPf/P0CHzt5/RodvXqFjjAfunqZrtzEC7TPEYa7v2Aex3zYi1v3ANuO1RBGT+GdYp1FmIGTIi9AwIzOwgua7TgTEYWMYXVwHmb8zvQP4+mLoDT8c2FrVbyNbGDezIy3faTp/JAZHbQZtJWVIt3qdjOUm6yzCusfxOzVw7j8Rk6FM2aiEpFRVDBjBOX5p7PPmz6jq9NHp+40usiOgcsZuHKZDrNTsOviedp+4RztvHCeDly5RLfv4AXUawlD3r8wI3YEefO9kV5mo98zwfBerBMOkiIvQEA5APZcJLyC1WBuxdyYuQCzXkLk8gpmePG19AprLP89l+vGfFVjeacUa8CGDGSu4xSDtNgRkCYNFY7IRCUjo6l4psxUnDv8EpGZKTYikuAE+Ard4BGFnewQwBmAU7D+7Clae/okHbvmbbeZ64rM579vMeON2tsIS12xwRJeIowiTC/g/0+RFyCgHABrL1IOrg4ZydowOznKGM4Fkgd9zuwthHsZc5B448dIiuMpe1g4VcmanSozV82agypGZ6UMDnybtwrI4+wA/H2GnYEzJ2kdPtkpOMFTC15CC9hOOAKLvMTeRDMf5C+TmLMmHpD8xNRIjKQOJW4RAsoBsAbo3FxNf+bOzKHWVClcy16WxJD/emEN1gs25CrfZS5vfdXaayzJb/T1cuVxdfbo8PPyUL6ilBHA1MGi40dpyYmjtOD4EVecQcoStp+FAzCYeSGzt1AuNhRTGlUNMPgI68A0piIvQEA5AOZeJAzP92MezOz0jp9NJLzFPMGMNfHeQHhgDWN+0InG5gxPRw/liuFOP4bqM+ONX5EcAnsvXaRFJ47QwmNH6M8jB+n0DYTBOJIwJfAq81JHWne/USF86H/MXe4/pevIMi6N6U1FXoCAcgDMu0jFWfV45srmVWGoZgz3Y07wpqFazVGGTXneYX7UHPViWjFPXydHbmoSk9/V4WMeX5F5CCCQcA1PE/xxeD/9cWg/bTh72rW2zbwahTT/xlKYltolJG29UHeucixzoGDV+L98TVBWiVmMgHIAzAH8KVb7NbM3vPVjlQFGKT5gdjphKgUPmHbMjoiKCwsMpEa589Jj+QrRw3ny8/I7vEgpsgMBLEOcefgA/c7OwF9HD/67fNEOW5LVCaf6M+a3mM8kO+fEn/XZqJ+ZsRpJD8Vz4ULMiANQ5AUIKAfA+IuEuf7hzN6A7SW280nmWcxOJvSqfZkxpJrObkMjeN39w/yW/1jegtQ4Tz4KZydAkbMQQM6CqQf20s/7dtHcY4cp4fZtJxh4kY3AswFv2I6du/gHKHTkM5iL/vNby8dALjRCS0FVxhkIeEMn5QykUrcCWGIODcPo3kD72Uisj9/qcGObsH0YnShsp51Yoof5/A6Fi/PbfkEKDUB4hyJvQOAMxwn8sn+PyxlYzMGEDshBcIhxe4kZgXdOJsxhYYUARgRSI+QiwcohR3haqRmrzt9FQDkAxt0Jb7GqN4xTZ6qm1az9YebTptYip7wgi49hhpNiGxXjefwOhYtRe2YE9SnybgSQnOjrXVtp/M6tdJCTFNlMs7l+vDBg5Y1TCZ4unBW83bubEjjOxwcwf8esyMsQUA6AMResE6v5yhhVlmjBG0gl5lOW1KavkjAu/goz4hJsiaHAWvy2hYrQ0/y2j3X6inwPAYwCzDl6iL5iR2D6wX0UfxuhMLbQDa51GDOGzuNssUBbpVizigQ/FZiRpfQk80rm+czeEDjMZipKjoByAJIjov93HRb5kzlIv6itEou5dgztOemftxbb8yWzLcP9hTjdbo/iZeiZ2GKEeX5F/oHAKU42NGHPDvps+ybCMkObaDfX24N5jk31q2r9EAHlAMhddHjFm5nzyqmxTRoBSYNsq/2/itPzV9jyPHPa/w6b/w3/AA04ir9nibKuaP60PNevyD8RwKjA9EP76IPN6wmxAjbRT1wv8uk7eXrOJmhUtUYjoJ52coh+wuLd5FTYKp3AtVdhXmejFQ9x3V8wW+pEIXK/U2wJ6lGiDBXhXPuKFAJJEUBK4g+2rHcFDt60fgUBpubwXJmS1Cb1XSFgNALKARBHtC6LzmX2dgyxsyDiAeAMWEmYRxzF3InZMgwxv9+9eGl6sWQ5yqoy81l5vb2yLuQWGLd1A32yfTNdvoll7pbSD1wbRgPOWVqrqsxvELDswetjiAZxezYyFzOyXXmzh9JDFaOoQhHe2z1bKGXKEEQ34m/RuUsJtO3AFVq59SLN//s8xd00fKUNHjLjjGxLKrrw1o8siblSKWfYaSTo6Vm8LPUqWZYyh4Qaplcp8g8EzsbdcE0NwBm4ZK0jgCh7pOf93T+QVq20EgHlAIihjfWuWJsuTZhyblY9C/Vvm4+qlYig1KagL15NoB/+OkEjfjhAh04igNgQwhtGLPNZQ7R5VhLMp4YyI8LfknsvOjSM+vDb/gs81J/Rj3fa83xJ1Bk9CJxjR2AsTw2M3WK5IwCH+UVm26IU9eCkoyxifkowZ2O+xryd+TyzIgsQsOQhbEE7rKwimivbxSw9cRybJ5y+HlScqpfCaLg+iudRgCHf7qfh3x+ghFt39Am7L/0RH8aaZLMImcUmMlc0q4KketMHBVG/0hWob8nyhO+KFAJGInA+Ls7lCCBOwMIRgf3chtbMa4xsi0268PxEboHnmJFwKJEwvDmPeQjzksSD6tMcBJQDoB/Xj1kE0epS9GiNLPTjmyUpPDRASs+SjRfosVc28jTBTSk9LIwYgHLMW2QVuZHvwMc+ZMaqCVMpkDfk6VykJL1RvgplU3P8LqyvJyQQhrDx9orPWxzUFs98NeHuPXP15k3X78QLg6yHGYMxWMOJGDjjYVhAoOt7Jp5GyRIaTlE8haKcKhckrt0I3163ij7fsZksChZEIAJW7iBJliGe/92WWPoXuQR+Y45JoVa0bQTzK8ze2s4UmueMU8oB0HcdSnPxdcxSvXabh7LThNdKUEBaY+Dfuv8q1XphrRFOADzv+vogSbF0Rj4Lh6ltiqUMOtmcU/S+W6m630T1I7/9YQ5SO3DlEh24fIkOMuP7sWtXCelvz95Ah3+drrEDYDSFsGMARyCKp1jwmT08nGLSZaB8GSKYM1J+5rzpM/pNyuSdF8/ToNXLaOrBvUZD7Unf73ziGWazp+081S96vCgLLmWO0qgAjg72AVFkAgLG9EAmGOZQleggEf0vTLXKRNKcMeUoOAhTX8YRRgLq9fmbbiZIO8vN2aqpBlgGZ+k35oIG6EpRRbWsOWhklZr0QLYcKZbz1pN4g9924RxtOneGtp4/6/rczR3OUe7oHbLJjVto8XDJwemTC2SMIGyNXCpzNJVmxmcmH020hPwB/VctpdWnT7jFxOCDR1jfU8zoUL2BcEssZq6h01gkSMKLhCKDEVAOgHZAW3DRX7UXv79kxnSBtPnbqq4I//vPyh8Z/PU+emv8PllFeIVBUE6chKInWfZL5nQSOlIVRYDfiMo1OHNfcWsiClO1SL4A3taxx/3yU8dow5nTrs5+z6ULdIuT1PgS5U2f4V+HoHKW7C7nDdfTFwhX6gfOLNh/1RI6wVkGTSYM77zJjHTCTr9JarONC5n10i0WeIwZox6KDERAOQDawMS6MeyaV0BbcfelxvUpQi88nsf9SQOO4u2/bMeVvGTwqqw2zDEOF1CCqRHIvcRs2r2FbH1I4jO8cnWvX9KHzWmWnTxGK04epxWnjtP6s6cd/VYvcE9oEsHNUiRTJD2QNSdVz57T5RB4e4Kmi7wl8WtrV9CnnGLYAgcOLyfPMF9hdiph5RRWUInQJRaqzrxFRFjJuEfAtIe0++q89ig6xHdlrC9ZID2t/7oKBQaYC/lfq89Sw5fWy5gK2cvMRZixBlkrYU7vJ2YjYwjuq7sMDx9/XKMuYdjfG+kKB9zN5/3p/zxy0MX7Ll/0xmZYYjMSNdXPmYca5clHDXgrZm9N3ISsgs8vnU9rz5w0G7dNXAHelPebXZGg/j9ZroGgLMQOMiNzqelAojJ/IHN7I99AMCc3Yycz8tUL05wx5al+xczC8noEmw3cSDOWndYj4q7sN3ywo7sTbo5h9QDm+/O5OWfIIWTwG1yhKifzKUOI9Pcmwtz9bO7w/2JeeuKYnTvPeRNs99iKUZ8K0Vld+zXAIcC0AVYreAthn4FPOZvga2uX0wUeGTCRzrDuVswLTKxDVPV8FqwjKvyP3Ip/dJgKoqSNXiPuPf9B9kH6LVeNZWzC9FjNLDTl3TLC8noFdx+5RiU7rCTkCpAgCFdlXpOKDqxL/po5PJVywqfr5MhNX9V6yBVdLqzEYkHM4/+yfzdNZkaEviJjEcDKg+b5ClGrAoWpDo8SeIszcJwDN7vxaMAM3nTIREJcQF/mcSbWIaL6exYyYkXQ56ynq4gBSuZeBJQDcC8eyX9huAkepzBOIRztv/W7alQwl7UBTi9/vJtGTTyYvD16f6PtmHfzFFz0Mp8bwSyMD8t6JGzYM6xSDVcWP1Mq8Fiz2AkM9U7et8vV6e9Xnb4YiAJSmBp43OUMxFJNjh/whh0dv929nV5cscjs0YAvGc5uzAiicwJ1YSM+M8gQOABwBBRJIOANz1WJ5kmJApvlzHgLFqYBbfPR8G6FhOVFBS9xyuDYNsvp5Ll4URWJcu34CzYlSUoI9vsfc/ekB438jiV942s1oMIRmYxUa7iuw1cv09c7t9H3e7bbuZe84e3yVoVYdti6QCw9V7Ska+mhk9uBANDOS+a6YkFMtHM86+5kon49qpEI7BCzEf/UeLDVYcYzWpEgAsoB8Axcez41wfPp1M9kzxxMuyZWpwzh6C+tp69+P0bPjdgmW/ERVlCUOXFpAYb6JzI3YzackHlucIVq9FKp8o4d1kXGt98P7aevdm5xPbwtiPA2HGd/UAgn8jnOCtmKHQKMJjmRMLT25Y4t1I+XDJq42yBiAiY7pP1wRr4yyJbjrKci8zGD9PmdGuUAuL/kCPjbwZzL/WltR8e/XoaeaZBFW2ETSt2+fYcqdV5N63YhqF+KhrD0G8xZmWcwV2Y2nJAs5qd6TahkJBYUOI+wHv+rnVvp213brFjf7TwAvNSiCE461LZQEZczUDbKvv/HlODDlNFT82eZlUBoK9ddMqX6LT6HmKGOBtU5nfU8apAuv1OjHAD3l3woH37V/SltRyuViKKV39WntNfO8Qy6pyl0bbpkSi3ddMGVJljShOtsA/7JPmEuKGOPJ9mnCxejD6vXoXSBztu4B9ndRm9e53rrRzS3Iu9FoGb2XNSXR5ceicnvuFgBjCy9smaZ614z4S6DAwBHwAkUzEb8yfygQcYgTklNBQiAqRyA+0HLz4cwbh56/yltR7A6aek3DeiBsvy2EXeV2d7cHE8O3kyT5jlz6SyGZsc9UIc6cjY/JxFS7P6yf4/rYWzB+m0nNd0vbImNiKQXS5WjDoWKUZjDpgf+OLyfOi6a49rPwcCL0YZ1YerOKZSZDVnBHGuAQR+zjh4G6PE7FcoBuP+SY67sifsPaz/Spkk++mEYnFIQ+/JXeGkudyh20aGTN6hYuxV07YZTgoHvIlGMh/wnOWzIH/OwX/Cc7LitG+jgFempE7suuapXIwJZOP1wd84t0aN4aXJSKmIECLZbMJsw+mQQYe59vEG6jFJTmBXBCZCd84OOB4wyyp/0KAfg3qv9IP9ccO8hfb/ShQXSjmmPUO5sSZbFJ9wgumZvxjeD9gnQB0YKpdsXKurK6OeUIX/k4P9o20Yauelvo9+8UkDBulNRUVEUHR1N+AznnfsC+a03QwYEZXMCB/4dwlv9JlLCzQS6ePEi+6y36QbvKAiOi4ujc+fP0dmzZ+ncuXN065aznMlE20U/sb1xrxJlXdMDmTnHgBMIo1Bv/r2Shm9c43Edrg47H+Gyv+sob1XRWlzRXGaZuT+M2JawymBfqkc5AP9dTYTq/80slbHn7R6l6fUupf7TmvgNsQD/7L+eeMjKT7z9F227gg6fYmfERkIWv/er1KKeJaRgNqwFN7gjQ672ERvX0knzN24xzO5ERejIY2JiKH/+/P9ygQIFKFeuXK7OPrHTD+DVFSIEZyCRk8pfuHDB5QzAITh2/BgdPHSQDh48SIcOHbr7/cBBus5bEnsbIWCwT8lyrumBjJx90gmEZFKdeErgqvjzA95aDubTTmiPGxue52MYxhelZSxYQ1TYn+WUA/Df1e/KXz/976f+b3lzpKPt/PYfFuLmYXs7gacCzupXaqDExLknqM1bWwzUqE9VJL9l/lS3CT3Eed3tpvjbt3j51VYaxm9XR3m41emUhgNL0LGXK1eOSpcuTWXKlKFSpUpRnjx5XG/zZtt/h4Mf4QjcjL9Jt29pm86CY7Bt2zbasmULbd221fW5c9dOusn7ITidMArwUunynHq6LGF0wG7awJtEtZj7u2hWSaTpftzuNqRS/xd8/rlUyng6PZpPvOTppDruGQHlANzFBokpdjFz1J44TRpZg1o1yOtZwY1LRPH2vRUhgL1mj7W0bPMFzzaadAY7u01r8Agh+Mpu+pWD+/qvXkJOztaXI0cOqlmzJtWoUYMqVKjg6uwTh+ztxu9Wwi2XIwCHQC+h84cTsHbtWlqxYgWtXL2S9u3bp1eNZeWzcZbBIRWruXaftDvD4GkeUWk17w9adPyonvZzFDJhr47deoRsKAsvax5zTYG6y7LMRgE5vxdRDsDdW2AMf/SRuRtqVchKi75+KGUVd/jNCQGBNi4l+3vnJarcZQ3P77I3YBFhJzes78/Ew6t2Et6iXly5SO8D1BKTY2NjXZ19YqdfqFAhS+qVqQSjAhgRAN+RuJ9OnjxJq1avcjkEi5csps1bNvO/iHX3pxYMyvNGRGOq1uJUw7m0FDetDJYK4h7+eNumVOsIThtAH1SrtfL5nLVrp5k8GJnznE452cC1zJiu0Eo/cMF2WgurcvcioByAu1nu8N8ED1SIAtKmoTUTG1O5ohrebuOvEd2wN7r82eHb6Os/jgm1Va9Q75JlaWTlmrbu4HeK5/Zf/3sFp+zdasW+7JogCg0NpQcffJCaNm3qYszhezO5HIE4nh7gDkqWTpw4QXPnzaU5c+fQ/AXzCfEGTiFsPjSC7+e86TPYatIk3nOi5/KFHgNWC2XMRF/Wqk+17joss9NkSNsizZgx9g0/akcLb/MYCcAywdRoHReox+ycGyQ1ix12XjkARDP5mjSWuS6dHy9En79RRbsKxAIgJsAmOsH7AxThfQKwX4BZhOHS0fzGhMhquwhR1GN5Od/Q9avporlbsGpqIob1mzVrRk2aNKH69eu7ou81CXpRIUwLxMfFa44TSK1pCbw6Y83aNTRz1kz6bcpvriDD1GTMPo+8AS+XqkADy1YipK62ixAU+OOenbTg+GHaw6s2AvlFpCgvrW2SJx81y1uAMALwH6VZlOZ28CNpvn7P3reP/wxK6VtpPvktc0oPjyl8HksbVefPIIiSvzsADzNwM0TBg1zGdEG0c/ojlD06TLuahDheFmjvffvejwdpwCfmTAsi0v+zGvVsTe6z6dwZ10Yr2JbXTsqUKRM98sgj1LJlS2rcuLElAXt2tjexbsQJxN+IN3y54PYd22nK1Cn006SfaP/+/YnV2fJZMGMEfcr3eT3ejthLaG2a+IRGaSZ8ZG80sjawsHlDS+bWzMgSFs2Mf2as+R/PvIRZkSQC/uwAYI0Phv6LyGA46qXy9FKHYvpVwAGAI2ATxd28TSU7rKQ9R3hKwkDCuv5f6jelhrnzGqhVu6rr/Mb41rqVNHrLesIIgB0UFhbmetN/6qmnqFGjRvessbfDHjvrhCMQdyPOsBGBxLYgRmDVqlU0afIk+nnyz3Tp0qXEU5Z+4gHapWgpGl65OmEJoRfQhjS3bjdIM36cU5cEegGEvmOiPzsAWDYySuZSForJQFt+bUohwUmH2jRq5GVod5cF2hfsNH3paXp0kHHBs1g6Nb1BM8IubHbQEs6a1nXpPNpx4bwd1VORIkWoY8eO1LlzZ8qcWcsUpi1m2lJpQnyCK5mQTLCgJ8ORqGjW7Fk0/pvxtHDRQlsCCLPzaoH/PfAgPZG/sCcznXM8TZqNaQLj6qT55BN7/lGcg4TfW+KvDkBWvvJY9hchcwf8/iEHcdWUiApGMCCCAm2kBn3X0Zw156QtiOGgqNmNmvMcpIZASOna7lVwhZeWvbRqsWtbVavdqeDgYHr88cepW7duVKtWrXsNU7/uQ+AmBwoiRsCsKH9MEXzzzTf0w8QfXNkM7zPA5AMt2QH4pEZdcko2QY/N5QGUNHdCHvKSmACPzVAn5BDwVwfgM4atiwx0jarnpFkf15FRcXc5oGtZ4H9D1Viet3zLRVq4/jwdPxtHIUFpqVi+dNS0WjTljDZ+iHHr/qtUtuNKSrgl13XObPQYNbJh2H/16ROcM/1Pwla9VlL27NmpV69e9Oyzz1LWrPAnFWlFAJ0/4gOwcsAsunr1Kn373bf00ccfWR44mCtdevq2dgOq6/zYgOVp4oIapPluFHIFKPJDBPzRASjL1xlrTQXG7e/eIYEBaWjD5KZUoqDUAMJdZUgMhARBTPPXnaPeY3fRln33Z6ZDnR2b5KT3uhemTOkRH2Mc9fpgJ4379bCUwhrZc9Kih1uSVTcU3JX/bdlAA1YvJWT1s4qwXK93797UpUsXwly/txOW7a1Zs4ZWrlxJWI+P1MHINFi7dm0KMjkDHjIKxl2PMzxQMOk1Qfv+/OtPGjV6FK1evTrpKVO/4/+gJ6+AGVG5BoXYuFJAQyNnp7kY+aiX5AnQ0BxVRA8CVj2v9dhkdtmFXEFtmUr6tCtKY16uIKPiXtmrZ+nTXw/QC2N20q1UEqoUiQmnOWPKU56sxm1Ycu7STYrlZYFnL8q9kU2u15Qez29+AptDvEtfh4V/GrlT2r3Xw80vpOAdMGAAPfHEEySaV9+NWlsPTZs2jfr370+7dmE27F7Kli0bDR48mLp27UpIQ2wmueIDOFDQrGmBRNuXLltKI94b4YoTSDxm9me5qCz0Q53GtkyN6WjblDS5I1ulGTzYvHXBOoxRRa1DwNz/bOvaobUmLCv5WWthd+WiM4XQrhnNKDKjcRuFzF5yiJr2Wqo5O1+5whloxWeVXNMD7mwUOfbRb4ddDoiIbKJM/gwZaesTHUxdG/0Lb4zSZck8umDRun6k4R06dKgrmj+xnb7w+dprr9E777yTalNatWpF33//vemjAVZMCyQ2dsnSJTRk6BBasXJF4iFTP8M5bwACBDvFOnfDOh5R+z5t7sin2Qn4bz7SVFSUcicgIDwM7gTjddqA8dqpzJl0yt1TfDS/+dcoZ9yc782E2/Rwr8V09oL2JYFI5JM5YxBVK2HAFMQ/ratQJCNNWXyaTp0XzxiKTjk0MCAx+9g9uMn+uMXzxq+uXU4vrlhE2MHPbMqXLx+NGDGCPvnkEypc2Asiu3UA8vHHH9PAgQM1SWzdupXOnz/vSl6kSUCwEEYZAoMCKYDvH9dWw3IhKSlakTcmL7Vv157qPFjHtQ/B4cNy018pVsYnkb53+sF9tO/SRY6TyUdBnCfDacRvgqXvXI4Le3vdyrlOs03ZYx4C/jQC8DrD+LYMlKVjM9G6SU0IqX+NohmLjlKzXgt1qyuYK4z2/FRdt1xKAnPXnqOHXkR2TXHCzmnbeRQAgVBG0RneBOWp+bNo3jFzH9SwF9n63njjDVdwn9lz4Ebho0fP6dOnqWDBgnT5Mq9A0UjonJcvX05Vq1bVKCFXzMrRAFj6x8w/6NXXX6W9e/fKGa5BukrW7ISpstwG/n9oqFZzkTRp7jyf5ov/fapZQBX0agSc54qaA2duVjtAVvUH/Ssa2vnDnnmrTgiZtffoddp/nAMIDaT6FTPTYzWzSGnEkrxX1iyT0pFUeN2ZU1Rp6kTTO//wcN71bcgQ2r17t2tJny92/sD1yy+/1NX5QwYdMkYNrCI4HCFhIRSWLsz0+AO0qWmTprR6xWoa+vZQMnvHxVWnTlBFvp8XHD9iFZy66rlzJ824O537NP5HCF48VkvNYj7EfJAZ8yYjmAswewshajofc35m4+ZuWZm3k784AMP5QqWTuViP14+hOpWyyahwK3v4hPgKnEMnb7jVKXNwVI9Y6diC7/fsIDzoZGnC7u1UY8bPdJCD/syk5s2b0/bt2wnz4unSSd0mZpppiO6//vpLSM+ff/4pJCcjhOmA8AzhlqRPRj6H3r1604a/N9DTHZ6mtCYO02NzqoazptDozXKjbTLYpiAbyA7fJN70qBuX2caMJdONmPMwxzBjGKg/807mIczoXJ1K1diw35iR8Gg/8z5mPHAXMD/B7PfkDw4AboI2Mlc6NCSARvYtJ6PCo+z1uFsez6V24toN4+N1MLXQpxX+z8UJ07d9eMtS0Wnc2/zG2X/VEnpm0V+mzvdjbn/WrFn022+/UUyMXJvF0bJW8uBBvMTpp1OnTtG1a9f0C0pKYDQgNF2oa0TAijWmyOnw4f8+pMULFxMCQM0ipKnux/d4N85caVfKak9t+3X/ngy/HdiLIR90+p4IHf9rzOOZndaPILZtNDOGIpszJ52PhN0PMk9m/oPZ3m0d2QA7yWkXzmgs0L6xzGlkFPdtX4zy50p6D8loc77sqx3yU/bMciNlGAH4jt/g9RIC/NosmEWjTHw7wvp9DPdv3rzZ56L7U8MbCXJE6cqV+/NTiOrSKxcUHETh6cJNfTNPalOZ0mVo3l/zaNi7w0zdtfHzHVuo2V/T6fJN8eDbpHbLft/LgYodF/8Fp0TrM7Md1/mqbL0GyyOG4UXm1NrQhMvMZg5i9kvydQfgab6qlWSubK6s4TToWecu35FpmyfZDOEB9G7XQp5Oaz6OJD2XdDzYzsfFUSMeGv15327NdegtiEC29evXu4b7Q0KMz6yo1x5VXjsCaQPSUlj6MNdqAe1S4iWR7+GF7i/QmpVrqH69+uKKUpGcfeQgVZ/+MyG/hd2EjbQQx6OTBnN58wDSZ0wLLv6cDpEHuOxgHeV9qqgvOwAY2nlH9moN612W0ocHyqrxOvmnG+WgikUzStl9kuc639u4VpOO/ZcvUfUZk0xL7hMaGupa1rd06VLXpj2ajFKFHIeAa0ognKcEQq1z3jA9NOXXKfTZp59RZGSkKZhsOX+W7/+faSNvY20XXeOdNCdzng0BQj8ygdn4ICn9xrypX4T6sUwhATmvF/FlB+AVvjo5ZK5QlVLR1K5pfhkVXiublpc6ju1dhKOw5ZqAQCd07inR2jMn6YHpk0zbxQ9zuWvXrnVlvfOVLH4p4ekP54JCgixbJZCIZ5sn29DK5Supdq3aiYcM/Tx69QrVmjHZthUCG86epjjxHBt41n7PbGefUoTrLy1wUTDfOVRAzutF7LxYZoJXkJVjDkiY0PGNHVBBugMUNsABgg+UjKCn6meXsgRz+v1XL/GoA1v41vvjN8JogdEUyBnY3nrrLVee+xIl/Gsax2gsnagPqwQwJWBmxH7ydufMkZOmT51OQ4cMJawcMJoQC/Dwn9No5uEDRqtOVd+5uBuplkmlQH0+b2c8gEjnn9ikVvylauIPf/n0VQdgFF9AqTFCvPljBMDfacTzhSldKIJqxYmjit2+1cznxD5NZk8zJQAqV65cNH/+fFdSHzgCinwTAXT+cALgDFhFqLN3z940f+58U6aTrvNQfIs5vxPSXltJGYIMcWgwBP+glXYnqSs8yXe9XzHWOYZZcsxTb7X2lvdFB6AeQ/qYDKyY8x/ep5yMCp+RzZ0lhAa0zSfdnr4rFhHS+SYSAp8e4ejnqwm6A44SVXj8bNiwoSvQr2bNmh7L+OuJjBnF4jow9y4qazbWsA1Jg7BSwErCSgEsF+zQvoPh1WKHS2S/RC4Mq6hU5igKlM9/AE/sO2ZzgiVSBuNUyqdTPYsRAAQR+g35mgOAV70PZK8eov5zZvH+rV5lcUiU7/dUXsqbPTTxp9Angpu+4CVPoBmH9lHzOTMIbzpGEt70sXHPzJkzKUuWLIap3rFjh2vjnCeffJIeeugheu6551wZ9S5evGhYHVYpKlCggFBVGFFBIKWTCdkDkwYH3rhxg6ZOm0ovvvQiNX+8ObXr0I6GvDPEtf2xUe0IDwunj8Z9ROPGjiOjV5XAYe60eA59un2zUeamqCdzSCjvVZA3xTIaTyLz6jiNZY0stoqVyT5U3mUdfjNkaN24mZGX2bMuZK/q6Pl06mew3v/7d6tz9jFrfKMfZh6gPYfElv+0bZCDCueWGfVKHQ+UCApMQzmjQ+iXhXIO9urTJwgPmac5wU88J0IxkpDDf/r06dS+fXvD0seeO3fOtSdA9+7dad68eYSNcfbt2+caXZgxY4YrPS5SCFepUsWwOo3ExJ0utGn27NnuTqV47KmnnqKHH344xTJOOImpACwX/PXXX6nF4y1owvcTaN36dbRv/z7auXMnLVu+jL797lvCapAa1WtQpkxSe4P92+SyZctSvbr1aO68uXQplaDXf4U0fMGY2czD+ykrOxqVspgfZF8sU2b6atdWQjIuScJ8/LZ/WFKVZvHrXBLBPiU1S9xfMIoPHWDecP8p3ztiTS9nDW6ZuZq3ZatCxj9k/lN0LwKt6majWmXkRvVO86Y+nZfMde2Odq92uV94+K5atYpq164tpyiJ9NGjR6lixYo0ceJE3qbZvbNy6dIl6tOnj2tEAPnyvYE6depEyHanh7Byonfv3npEbC37/uj3qf3T7en4ieMe7cCWwNVrVacNG417zmO1yZJFSwxfJYA7q+fyhZZMB5SNykKvlJVKnZIU84/5R/akByz4jqXf4ulV7xr4Jn8YEhBhQXulqvAlB2AwIwHvTZiQ6x85/xW5R+CD3rEcce2sGBnk8cfbXJ48KWUtdd8eT0exHe2jjz5K+/fv91TknuNff/01jR49+p5jTv2BzW4++ugjXSMWgwcPpmLFijm1SffYhemfQYMGuTYwuueEmx+Ywnmi1RN04cIFN2fFDkVHR9PU36ZSt64YjDSO8Eb+LE8HWBEY+Hq5KlQnB0bxpQlR1F9Ka9GnYDMXH69P5L7SeflI5/uO+uABX3nVzcXXBoEnwu3BFr9TPqhN2aKsnef0himAxPs+R1QIHT0dR+t2iU1ZJOox6rNXr16EztfoudcvvviCwHpo8eLF1KZNG9MSxeixJbWyxYsXp2zZshE2+PE0upGo46WXXnKlTUagndMJaY4RAIqRGa0Emfi4eKpfv75WkVTLYZVAg4cauKYXFixYoMkZSVUpF7jDPPXgXioXlZViI+RG41KqLy1f60Z58tGPe3eKZAVMrjqWDxxjXpf8hIm/V7PurswyK8HKsfwnzMZHKbNSp5CvjADAW5Masun8eCEqHWvMfKBTLq4ZdgztXJAi0tkbI4MOf8KECTR27FhT1oBjy1y9hICzfv2QUMw7qFu3brR8+XKqW7eu29EATKv88ccfNGrUKLfnndjK4cOHE6Zu9NIPE3+gOE5DbTR179advp/wPSFQ0Ci6ydNRrefPdLus1qg6oCcb2/xt7QYEZ8AAep91GDdEl7pBJ7kI6pQhJDYydhhHxhqTZA25uibZpkftfC5cR49A0rKRGYNp14xmFJ1JxmFMqlH79yY9FtCspXCQ9dPMkeWocVWpWQ/9lbLE+z8dpH4f7RaSlRXCEPa0adOoTh3hy52iCdjxDnWk9mbsSQneqhs0aODptCOPo9NcvXo1nT59miIiIqhcuXIUGxvrSFs9GXX48GEqWrSo8I6FSxcvJSzrM4P+/vtvavVUK8KOikYR1uwvevgJwpy9mfTm3ytoyHq8UEvTNNbwmLQW7QrScdFdzDm1i9xXcgcf8Y65r/tM13bAV0YApAJN3uhaypbOX9slcl6pno/nodg8xr3VaG0h5leR3Meszh92oDMU7fwhj1GABIOXN0KvmYQlfoil6NKlC7Vu3drrOn9gg6kKme2Kjx0Tc8K1XBcEB86fM59El2C6qwMZA5FH4winDzaT3ihflR40Jh7gUbazuZm2JtN9lX+/leyY3p9FWcCQYAi9FVtV3lccgHhRwIoViKAeT3rX245oW42SCw5KS6N7WotZ7ty5CfPsiMw3k2TXumOL4c8//9xME5XuZAgsWrSIJk+enOyovp9Gx5Ekrz1v3rz058w/XaMUyc+J/sbeAUgbrGfHTb11BfAUwDc8FRARbMjo6DiuXywTlV7D75ZHMOBeMdF/pfL/+80Hv/iKA7BF9NqM7lee17n7CgyiKOiXa1otmhpVsWb6AcPRiPS3IhIdjkbmzFhRKk7Yf+D6dSxJVmQFAgMHDpSupkRxLB83l7Jnz06z/5hNZcuUNayiTZxgq/W8mZTgYamqERXFpM9AY6vVNkIVgrWxTM8qQgCf7ChAglXG2lGPr/R8v4qA17RmLmpUXWaKSKRWA2Xk03ZKGYNRACQJMpPKlClDS5YsIbxBWUGIdscSQBnCXO9PP/0ko0LJakRg5cqVrs2eNBZ3WwyjSlgVYQVFRUXR79N/dyWPMqq+Pzmtdo/lC4xS51ZPh8LFqHm+gm7P6TzYnctX0SkjU/xHFkZCIhG6w0I7RQS9RcZXHIAZDPgmPaCHhwbS6JfL6xFxXtlAa5csJgegWN501L25ecG92MFvzpw5uhPXJLdT72/MJ8tuG4xYBUXmI2AEzn169THf0CQ1INBy2m/TqFbNWkmOyn1Fmu1RvPW2mfRpjXqujISSdaDP+ZRZeMm2zvpvcfk3dMokFkf047nEH7746SsOAIZpOjJf1nqR/jewIsXmtXI6SqtlOsoFBvO/UZAOAeOLvtkxP0VHGG8Dhv3R+RuZ019r6+F4IN+/DB04cEBGXMlqREBrsiZP6qpVrUbNHmnm6bRpx9OlS0eTJ002dCTglTXLCDtsmkVZQsPoM3YCDCDMgcj9g+kz4jcujn0C9NJ7egW8rbyvOADAfR1zE+Zj+OGJEMD28auV6dnmhgxnearGuuOhGayry01NkRmCaMhzxmKZP39+V+595Pe3i4YMGSKVJ94bEufYha1T6kXCng8/+pCCQ9mRtoGwj8Rvk3+jcmWRc0aeEAeAHQQPX9X8HqS70kfzFiBMBxhAQ1hHhAF6tKjAUD4cDj1LJn7m8nAcfJp8yQHAhVq68KuHXhjQqThlibw3ahX5/Z9qnI82/NyEnm9V2HcuKkYAgu5tq9WN69wsF5UumN6QapHSF8O6CMazkzDy8MYboiOHRIUKFbLTfL+pWyZfQceOHal8+fKuHQSxk6QdhC2Wp/w6hYoVNaRTJey38cTcPyiO01mbRaOq1KRoHg2QJCQweF1Shx5xBIo/xHxcg9BULtNBQzmvL2JuBJfF8Nz5uWUAFQnhkYA7pbE3y57Dl+nSlZsUEpyWCsdk4M8Aiy1KvTqpREAf1aHGNTiIERHAV85wZXB07aEF685T3d5/S1e+cOFCQzf1kTEI6/mREQ+7AOol1250LVroFVPldSKwbds2wpSNXkKyJ+wOmDjKhM2crl+9Trdv8f+SDXTixAlq1LQR7d2715DanytSkj6vWc8QXe6UTNi9nZ7hXT0lKZ7lsXOflVnFEPX9KjM6+ORvLdv52Ejmb5jte5hy5VaRb40AFA3uhs4f4CGDJTr9CsUzU8lCmRzZ+Rt2kbEaIDidYepEFNUpH0ktauvbZc5dPXpz8LvTYdQxvBWKpMLFW6k3bJ1rFE526sG+Bo0aNdJtAjY4Suz8IYwpm9DwUNvSHmOJ4PQp0w1bjfDlzi0ENova8zRA3Zx5ZNVj7gUdrpWEKeIezHAEqjPDEXicuRRzcebxzH7R+XM7yWccgDub2kTyZRuMRvklhYbz1bR3hGNUj8IUyqMtMvTjjz+6ctTL6DBSFp3Liy++qFllcHCwKxEQPr2BkKa2b9++VL16dde0ReXKlalz586uAExvsB82fvjhh4TldVqpSZMmrm2ck5dHTACcALsoJiaGfv7pZ0JsgBHUe8Ui2nbhnBGq7tOBoeNPqtelUN4qWpKw5ta8oQrPxiFQYjnzd8yY6zfPW2LlTiW5p7WjWpXmLTYn2lEmWWoM/0uGJB/RstQAyp8jjPq2zitVKYZie/bsKZWOV8oAN8LYZAbzxakRIrvhwNSuXTu1orafv3z5MrVt25YqVapEY8aMcTldGH5es2YNYTMk7GeAlMsim+tY3biCBQsStgHWspa/Xr169P3333vcRCogMMAVE2B1GxLrK1+uPE0YP0F6GSr0XecprCc5SdANk+IBCkdkolfKVk40XeZzBAvDp1BkMQI+4QDc2dy+GL/98/C/n1MQv73YvCxwUPt8lDNaLihx3bp1rt3+nHI1g4KCXNsOo3MvXdo1w3SPaTjfsmVLV+f5+OMYTXQ2ofOHk4L2wOHyRIjHwIiANyxphJ2bNm2irl27Uvr09zvCSCT1/vvvu7ZAjoyM9NRk1/GgkCAKDLInKBAGYEvj4e8OT9FGrSe3nD9Lr63Fi6451L9MBSO2Jq7A1lm5T4A5YHihVp/wuu5sbDuLsW/khfiTIUGASRt+i7NfXjVn2C9pNSl9nzD7OD39jv7AuaQ6MT+LIC0EazmNkO8ftp0/f56wagGR5Fmzysc/WNXOJ598kiZNmqS5OuwOiJEB2eRImiuULHjp0iVau3aty3HB3g5YkYFsfxji10quoMArHBRoYord1GwZOGggffTJR6kVS/U8HvKzGzenh3LFpFpWpMCMQ/vo0b9miIgmlcEDA961PVGYSS3xo+/SEzh2Y3VnY7tmbIOVy0kMbfIPMw/QnkOYjtJPbZvmdwU63iOJOIA7t4hu2ZfCunTBDDR37Tk6fOrGPabp+XHlyhXX22n9+vX1iFlSFkPNCD7DLm/oXDD07y20atUqXTENaBci1JGbASsivIGwsQ/sheNSqlQpwm6HevMyoDymA27Gs0NtE9WtW5cQo7Fv3z5pC+YcPUQI3EvPo1VGU5GISFp56gTtvXRRRjU86N3Mm2WUKFl9CGh3ifXptaT0na0tOdLqttVRpJa0TaqSELw12ze4gxUYCAjEpwxhbtqoZVEydviS7HffIeZJP4nK6YMAc68AAEAASURBVK/JORJpA9JSSJjcdJZMazBi8cVnX1BMHvk395PXr1GPZQtkzElRdiTnBgjUMcLiQdlgPm7f3IsHo3z5sFc7AHQrmJN4p4n15Qsk1LY0fFlD7X0rrVoigto1kMvkFxcXR/369ROCQAm5R2DFihXuT6RydPny5SnGC6Qi7rWng4LtjQfA6oaJP06kMPnEO/TbgT30y368ZBtPJSOjqEtRLOmXokIs/YyUBiWsCwGvdQDubGyflQP/XtHVWn8qjLwANi8LHNa1EKUPk5tlmjp1qistsD9dOjPbevLkSSH1N27coAsXLgjJersQRgH0TiEY2ebSpUrTqJGjDFHZa/lCOs+OtRk0uHxViuTpF0nCdC6P7CqyAgGvdQB4ovtdBsiqXNJWXAvj67B5n4BcWUJoYLt80u3q06cPISufInkEbt4Un9OWkZW33D4NiUmC7LOAs9W070DPPP2MtAkneCqg/+ol0nrcKUB64AFlKrk7pecY5jva6BFQZcUR8EoH4M6GJ8uxA9BRvNl+IhnI3niAvc50v6fyUqHccolNtmzZQp999pmfXDTVTCcigIBATAfYSSNHjKQSxUtIm/D1zq00l4MCzaCexctQrnT3L8PUWdcALu+VfZPOdtpe3DtBThPwgbpBNN47YfYuowvh3ReHd8PUnhy9/vrrdPbsWTklSlohIIEAdg3Us5RQoiq3oljS+PVXXxM+ZQiZH7ounUdXE8RHgzzVH8bps18ujWX9UlSUpR+R0qCENSHgdQ4AL/t7iltWS1PrVCH2ozmoNlh65y4pJB/nPQIeLBcppQNr7t966y0pHUpYISCDAKYC7FwVANuLFytOb77xpkwzXLL7L1+id9evkdbjTkHXoqUoJr30iwdGARSZjIBXOQB3lrfknuzOMJMx8T31WBaIlQE20ocvFqXAALl1gR9//DEhCY8ihYBdCGAqIDDY3pVqPZ7vQQ0bNJSG4P3N62j3ReMDO0N4f4BX5VMEV+MGOuFFDxf7SeaJzDuY9zIjiAL9kNevQLO3V2AE3RAAf4AZc/xdmHGnZ2QmShcCrzCv67v6ox0BLMgPsXdZYIn86ei5R3Jpt9lNyVuc0/yll15yc0YdUghYh0BIqL2rAjAS8eH/9G2A5A6d+Nu3aOCape5OSR/rGFucCmXMJKunv6wCSXlENG5jRucPJ6AIcwHmGswDmZG9cCSzvcEhbIAoOckBAIjo4A8zL2P+mhmRX7OZT0RmDP7u9PnrL/N3RSIIBHMgXoC9by5vP1uAMqWXs2HOnDk0ffp0EQSUjELAEARcUwHsBNhJ2D74veHvSZsw5cBemn8Mj1xjCUmBBpWVXhHQhK0qbqxlmrVh9GERc+EUJPAwQ6KSX5jlHmwpVGLmKac4AJm5kYuZhzNnd9PgsPOX4tuVbTkzfN12e/Pcu7HNew65MgTaZ26WTMH0Zkc40HKEUYD4+Hg5JUpaISCBAKYBMB1gJ7Vq2cqQqYC+KxfTrRQ2hRJtY9tCRSi33IoAzBk+L1q/hFwUy6JT1xo8hXT0r0rUZ5uoExwA/Bfhla5qaigcO32dGj0/nw4ev5paUXXeHQKBvCQQSwNtpB4t8lDRvHLTEXv27KGxY8fa2ApVtUKAZ9VsTBOciP+Y0WPc7n6YeF7L56ZzZ+jzHcbH1gRzIrI+JXnFthx1YHHpdYU6TRjE5bPolMHotddtR+8EBwCTutW1gn36fBz1ee9vrcVVueQIIDkQ/GqbKCgwDY1+QT52ZujQoSSa1c6mpqtqfQwBLAm0OzdAntx56M3X5VcFvPn3Srp00/hRtS68IiBziNSyRcR/tbPw1kGfCKdDL2G04Bm9QnaXt9sByMYA6B46mbbgMO09fMVu7LyzfqQHRppgG6lx1ShqWk3OWcaWr6++qvvWsbHVqmpfRAC5ARATYCd16dyFqlZNdQA1RRPP3LhOH2xZn2IZkZPYfbB78dIiokllevIPq0DOz3XpfftPtLV54hdv+bTbARjBQMHD00WYrvpjyVFdMqpwEgQQEGjzssD3eRQgmJMEydD48eNd26XK6FCyCgEZBND5B4fw1JqNhJGIMe+PoQBefidDYzavN2WfgBc4O2A4JwiSIAQCIvLeChLt/GEbvLCcVhhpVB1yT2A5KyqxeHtRFbsPXRYVVXKu3QKtnla7F/YiMeH0Qovc9x7U+ev27dvUu3dvv9ylTidUqriJCASFBPG+W3Y+SolKligpvVfAxfg4en+z8dOrWcPCqUPhYrJXoLusAo3yMkPLuAkQEOg1ZNddi+EcRHHZVb/XXCDTDA3iKau0WHlpH73BKwKyRsq9PS1btowmTZpkXyNUzQoBRsDuUQBchNdffZ0iIuT2R/vf1g10mqcDjKbni0lPA7RgmxCdbzZt5wpk3i69ahrArg64LYOMTE/ClC+nvfPYwoY7SdDmfQIi0gXSkOcKSiPy8ssv09WrV6X1KAUKAVEEAoN4WaDkELxo3YlyUVFRNGggAtjF6QrvFjly41pxBR4kS2WOpprZc3k4q+kw3hRaayopV+gWiy+QUFGHZSMl5C0VtcMBQM89TLaVdSu7Sxcgq9XP5AN4BCBIKkJXGrBnH85JZQvzygQJOnLkCI0cOVJCgxJVCMgjgIBAEbpy5QotX7GcFixcQLt375ba+rrLc12ocOGUctekbuHH2zcRtg02mgwYBXjaaJs86Jvi4biWwxhWbaSloBPK2OEADOCGS03+1iiXhcoV9RonywnX2bMNIRwLYGMUc0DaNDS2d6xn+zSegQNw6NAhjaVVMYWA8QggMZCe5EBLly2l5o83p9x5c1PDxg2p2WPNqHyl8lSkeBF6/c3XCStd9FIQR90PGyr3fnUtIYHGbdmgt+pUy7fIX5CyczyABFVm2aIS8lpFkZcmQWthN+WUA+AGFBzKw4x1/1L0bq+yUvJKOAkCrmWBUv+USZSJfa1VJpJa1skmJvyP1LVr12jAAPiWihQC9iGgJRbgwIED1KZdG2rctDHNnTeXsMdFUjp16hR9MPYDqli5Im3ctDHpKU3fGzZsSNUfqK6prKdCn+7YRJgOMJKQGOi5oiVlVQoHjuuo+ByXXayjfPKijfmAHS/Xye1I9bfVRr7PFkn1Nk82yks1y2dNtWGqgA4EsFFQGrklRDpqc1t0ZPfCFBYidzsiGHDp0qVu9auDCgErEEhpFABxKm++9SZVrFKRZvw+I1Vzjp84Tk0ebkL79u1LtWzyArKxAOfj4ujrXVuTq5X+3ZkdgLRyI47t2Ai5B4W2VshMA2ApYXlt1dhbygogE1tYm7+0TPwh8hkeGkgj+pQTEVUyKSLAizJC7V0WmDd7KPV7Km+KVqZ28g4niMCyQCwPVKQQsAsBd6MAE3+aSGUrlKXRY0ZTHHeuWgnTAF2e76K1+L/lateqTbVq1vr3t8iXsZwYyOg9AvKky0D1cmIgWJhiWPJBYWntgtO46B3txe8r2eS+Iw48YJUDgHrw9i9F/TsWp5gcKvpfCkRPwggGDLR3WeCgdvkpJhvbIUHr1q0jJAhSpBCwCwGMAiTmBbjOS+radWhHXbp1oRMnTgiZtGrVKkK8gF7CskAZ2n/5Ev26f4+MCrey7eRzAlixGuAwG7/FbQO0HcQ0gOPJKgegMyNRQQaN3NnCqd/TxWRUKNnUEAjRnZQxNY26zmMK4N0uhXTJuCv8yiuv0MWLF92dUscUApYgEBwc7EpQ1bFTR5o2HS+TcjRz5kzdCpAeuH69+rrlkgqM2mR8YqAW+QpShiCxFRP/2IacAFbMWeoH/T/wKvHXsP9+OvObFQ4AMlO8Ldv8kX3LU7qwQFk1Sj4lBAIYXyQIspHaPJSdqpWUS2aCIKp33nnHxlaoqv0dAWwX/MPEH+iPmX8YAsXWbVuF9AzsP1BILlFo7ZmTtPKU2MhFoo7kn+l4pPHx/FKOPjYSkYtyTG6U+9+z3B/WdBQOilQjNdUiWcgKB+BNtlEqau+BslmodUO5+WFJnEwTxzI4UQoIEJf1WCdiAeSCdDyq1nICVX/4YlFKK4EL6sF2wbt27dJSpSqjEDAFgTEfjDFMb3y82E59VapUIbAMfblDZiTcfc3tChV1f0L7UYwCmE3LuAKfHko02wEowgD2kLlK6Aj+N6CinX2SjPmpymaJFJ/zzh5lwts69gmwebfA8rEZqEPDHKlil1IBPDD79euXUhF1TiFgGgLbtm0z1AHNnVs8dUrvnr2l2jlp3y7Dtwp+MEduikkvlQCsOTfKhDege6BCLoB59xzR/gORyEe1F7enpNkOwGhultRkT6fHClKF4pntQceCWssXixSqJX14IMXmlfoH8lwvlgWmtXe6ZXi3QpSRUwXL0IwZM2j27NkyKpSsQkAIATgARpLMuv6mTZpSbKx4sq2rCTdp4t6dRjbHtRSwZf7CMjqxGqCijAKNsr9pLJe82Ho+gHwCjiYzHYCHuOVSSyEypAuit3uUdjSAssa1qB9DIcH6L8NjdfJQaIiJcTA2LwvMljmYBrXLJwsv9e3bl24anNBE2iilwOcRMPKey5QpE7VoLj7ije2Cn+/6vBTmZkwDPMbBgJKEUQCzaQpXcFygknECMpaL6O95tJkYxMX+p62o51KvdylJOaJNGOb2XKXlZ3JmCaMXnsRMiXZCx/9mt1LaBURKBobwskBmG+nF1jFUMJfc9d++fTt98sknNrZCVe2PCOTMady28G8PfpsyZswoBWPbtm0pOhqxc2L095lTtP7saTFhD1LVsuagHOFSy7of9qDayMPXWFkvZj05AeZz+e+MNMIsXWY5AJj3l4ryKByTgXq3lVJhFmaG632nZxnC/gZaCEFyX7xZhQoxPqYT9gkwfZrNcytCgtLSqB7iQ5eJmgcPHkxnz55N/Kk+FQKmI1CpUiUKD5dKeuqysWePntTxmY7S9oaFhlH7du2l9Hy109hgQGQEfCyv1ChASW6QcZ6WZ3R+4VMvM2txAv7mcq2YEQPgeDLDAcCEvVwGClbwfr8KFMwdgD9QSHAA/flpXWrTJF+KzY3MGEy/jq5F7ZrmT7GcYSexLDBY7g1c1pbHamahBpWjpNScP3+e3njjDSkdSlghoAcBdP4dO4p33BEREfTpx5/Su++8q6faFMt2fLojB1PzG4Qg/bxvN900OMum5DQAGoOpZivofa6kMfMOD5Vd5+MjmWsxe83bhvjd4AEFPvwpc1fPp1M/U69Kdpr7eb3UC/pgiSXrTtEXv+6hBWtO0vHT1zk+IICKFchIj9bJTT1aF6HMEVIxlfoR4/S6dOUM+772ObTbDlylMs+spIRbWhxw903EXu3IEli6tG/HlLhv/X9Hs2XLRsiTIEInT56krFmlVvSKVOu1MnA8K1SoQPv379fcBszXt27Vmoa+PdQUrLG3wJKlSzTbk7zgrEaPUcPceZMfFv4NhyLHD1/Qubgbojp+ZMG2osICcugzazKjo8/OzA9HwnrjmcwXmL2KjHYAynDrMQQSIIpCIK9t3/hLUypeIEJUhZIzGoF4nga7cdlorbr09Ri9gz6eckSXTPLC9erVo7lz5yY/7Fe/lQNg7eVeu3YtNW7cmM6cQT+RMtWoXoNGDB9BpUuZ56RO/mUydXquU8qGpHC2Y2xx+qqWsS/dHRb+Sd/v8fRinYIxd0+d5g90xPa9oaRqonMLGD3G/gE3VbjzB0zdW8eqzt9p90swz2ViOsBGGtq5IEVFILZUnObNm0dTpiCoV5FCwBoEKlasSOvXr6eHHvLcaWKJ3nfffkez/phlauePFjd7pBlFRYlPqU05sJfib98yFLyH5EYUEDxVzlCD/EiZkSMAjzNuCJYQpqhMIbRrejPrh7mFLfYjwQTORHbtvK0NHvfrYer1gdx65AIFChDWaIeE2LvCwS4g1QiAXcgTbVi/gab8NoX27d9HSFQVExNDD9Z+0LVrn8zcvN4WDRw0kD765CO9Yv+Wn96gGT0ck//f37JfTly/Rrl4GkB8go9eZRuMC5aQbZAXyRvlACCd3TZmqbvio1cquUYAvAg//zL1Gk9xJWjfytRocBADgFgAxATI0LBhw2jgwIEyKrxWVjkA9l26W7du0fUriBWzl9atX0e169QWNqI9p/H99sGGwvLuBMtP+ZE2iC8zxLye5yEWdxWqYy4EjJoC6MvapDr/koUyUZcnCqvL4mQEQjPYuk8A4kPG9IyVRujdd9+l48ePS+tRChQCehBAICqC/Oym8uXKU/784o/raQd5BMPgaYAGuWJkYMFmB/bOUcpYb6OsEXdjLrZ/kGwb3u9XnvCAV+RgBNJyeEeQ/NpmmRZiSWCzGpj2E6fLly8TtgxWpBCwGoGAIKkQKcPMlckseOlmPC07aawDLRkHwG8mVMowcPxIkREOwDDGK70MZo/VzUMNquWQUaFkrUIA+wRgwyAbaVSPwtI5IiZMmEBr1qyxsRWqan9EIDDQGS+qj7dAyJY4zT58QFzYjWSNbDkpXA4bK7YHdmO5dx+SfZJX5ea3k4EAyX7ee1EFccpgaKksEomEwOG2jwrnDqfeT+SRMuA2rz/u1asX3UGeA0UKAYsQCAgMkErGY5SZpUqWoiJFigirm33koLCsO8EQnh6pyqmBJUg5AALgyTgAGK/Hsj+pcfu+7YsR0v4q8iIEgjnmM0BuSZ5sa197Oj9hwyAZWrlyJf34I/KIKFIIWIcAnAAnUPPHxPfS2XzuDB25esXQZlTPphwAQwHVoEzGAejA+hF8IUzZokJp0HMlhOWVoI0IICDQRsJWwe90LiRtwYABA+jqVblVBdJGKAV+hUBgkDOmARo3QmZbcZp95IC4sBvJB3gaQIIwJCg3LChRubeKijoAmPOXXnc5vHc53vPd3jdJb71wttuNEYAgrP60jzo2yUEVisjtknb06FEaPny4fY1QNfsdAk4ZAShbpqxUuuHZh42dBqiaNTthgyAJqiYh65eiog7AIEZLyl2rVCKKOjyS3y9B95lGh7IfKPcPKwVF2rRp6INesdImvP/++3TgwAEpW5SwQkArAkj6gyWBdhOWJNavW1/YjHnHDtNtA2NoIoJDqGSkeJZCbkhZ4cb4qaCIA4BeG+v+hQl9xuiXK/CaWClvT7h+JWgQAmn4IRZi77LAGqUzUeu62aQadP36derfv7+UDiWsENCDgFNGAbA/hihdjI+jzefPioq7lasuNw2gHAC3qHo+KOIAjGR1UmO/2Pa2Rjm5tdyem6TOWIpAUDpiT87SKpNX9l73whQeKvdGNXnyZFq0aFFy1eq3QsAUBJziANSvV19qNGLZiWOG4lNVLhBQOQA6r4beJ3cd1i+1gDQ8NJDe7amuU0rX6XrcLVq49iT98McBmrbgCG3bdzGl4vaew3BOiNw8vGwD8mQNpZefkt+itHfv3oR0rYoUAmYj4IQpALQxc+bMVK6c+DLs5SeNdQDKRUm9GGIZgdxwoNiFR1Rna+ZpzEeZzzEfZp7K3IJZbz/LItaQnnBUvGJ9IGvWwGeLU0wOfmtUdB8Cx89cp7c+2Uzf/b6frt1IuOd8kXwZ6dXOJald0/zSc973KDbiR1AI0U0OCky4aYQ2IR392+Sl8TOP0aGTN4TkIbRx40b66quvqEuXLsI6lKBCQBMC7DdjFOBWgv0OJzYkwrbFIrTMYAegaEQkhXJ8xA1xRxxvl3+KtEVQBskUJjIn96Ii+Vhu5keZlzG3YT7E7CjS45ngqSi1UXWe7OH0UodijgLAKcas2HiGyracSZ/9svu+zh827jxwiTq8upxa919CGCFwHIXaOwqAKYARzxeWhuW1116jCxcuSOtRChQCqSHglFGAqlWQz02MDl65TIevXhYTdiMVyNOJJSOj3ZzRfAgOgFWEzn8xc/LOP3n9SFK0hFlqw4PkSo34rdUBgDfztmyF779Ugedq9Qw6yNboHfLo3Jv0WECnzqX+9jr5r0P07JsrndewtHxdg8NstQvBgAgKlKHTp0/TkCFDZFQoWYWAJgTSBmh9/GpSJ1yoSuUqUpsULTd4X4CyctMAZYSB0CfIQ540iTmrRjF0/j8w89iPc0jrHfgGmyzlltWqkJVaNnCcA+SIK/H80NV04XK8ZlsmzjpAU+djislhhBTBNu4TgHAELAuUXV0ybtw42rlzp8PAVeb4GgJOCQTMlCkTFS1SVBjeVadOCMu6EywTJdXV4K3cCsKQvl5nowbLNLXCOK11aHEAMGbfQ6tCd+XwQB7dr4K7U35/bOWmM7RgzUndOIwYv023jOkCroBAe5cFIjEQEgTJ0M2bN6lvX6mVrjLVK1k/QQD5ANI4ZCl0tWrVhFHfxGmBjSTJEQD5eUBtjWmvrdh9pUTl7lNkxAEtDsBorgjDHcL0bPOCVKF4ZmF5Xxb8ffFRoeat2nxG05SBkHIZoWB2ADAdYCMhRTBSBcvQzJkzadasWTIqlKxCIFUEfCEOwGgHoIRcMiDkKM+eKvDyBUTfaMUDLuRtvk9Dag4Ahisa3Sel40BE+iAa+oLekRIdFXh50T2HxAJokIBr72FjN+MwBkoeh0eGQBsJmwRhsyBZwigARgMUKQTMQsApcQCVK1UWbuKZG9fp2DXj9tPIxBkBs4RKxRNZMQoQIQgYVgZIvVAL1utWLCUHIJgl3ncrpePgG91KUdbMoTok/KvopaviHYyeuAFLUQ0MIQLbSNguODaP3HTEjh076MMPP7SxFapqX0fAKSMA+fLlo3TpxJdnY3dAI6lQRqlg3kJG2uJB1zUPx1M7jD5Xbo4ytRp0nE/JAejFeqQCKgrxNr89WsfqMEcV9RkEXLsF8miATRQclJZGcoZAWRo8eDCdOGFskJOsTUredxBAPn4nEOwoXry4sClGTwMUjpByAOT/8VNH4njqRTyWwCiAI8jT3YelDa/JWvhB/woUEoz8QYr8DoG0fN1DpIbxpCFrViMLNagcJaXn0qVLBCfA2wn7HUycOJGuXBGfNoL85ctiU1bejp9Z9iMIEMGATqASxUsIm7HFWSMAVjgAR4TBIsolIWuoqCcHYCjXIjrH4TKwcY2c1LSmY9ppKGhKmUYEQjgWAI6AjTSmZywFBsg9YL/88ktXlkAbmyFc9fHjx2nAgAGUI0cOatOmDV27JjpySdSnTx+Xnueee4727t0rbJMSvBcBp4wCyDgAWy+cu7dRkr8kRwDySVavRfyolkIeyjh6BABZjTp5MFzT4aDAtGrZnyakfL0Qd7w27xZYPF86ev4xuf837A+Azs+bKCEhgUaPHk2xsbH03nvv0cWLFw0x/+rVq650yRgu7tWrF505Y+zcryFGepmSNJIOqlHNLVmypLCqfZeMub8SDSgsFwMgtVV9og2pfPrsCMAH3HCp17YeT8ZS0fz2poZN5eKp01YhEMSBeAGBVtXmtp7BnQpQVESQ23NaDy5cuJB++eUXrcVtLbdixQqqUKECvfTSS1JD/ik1Ij4+npAwCZ3G77//nlJRdS4VBHxhBOACbw18Pi4ulZZqPx2THqv5hAkbAkn1YRpqlhkBwBS7Iyj5FMDDbFUtGcsyRwTT611KyahQsr6GgM37BGTOGERvsRMgS4MGDSK8WTuZPv/8c6pVqxZt2rTJEjNPnjxJzZo1o549ezoeG0sAEajEKQ5AZGQkISugKB24cklU9D65KF4GiE2BBAmCZu8KKBMEKLXloSAmbsWSOwCvuy2l4+C7vcoSnABF2hBIHy7+dpyRcyx4BQWwnUH2LgXtxtMApQuml4Jrz549NGnSJCkdZgnf4cQQCFbs2rWr5R0x6sZyySZNmqggQYEL7BQHAKbny5tPoAV3RfZfNm4aAFE72cPFlyWyuNnTAGeEgZJMqy9R732iSR2AJny28n0ldBwoUTCCnm1eSIeEKppXYmtkGVnLkcc+ATbugxHA0dZjeJ8AWXrnnXfo9u3bsmoMlUcH3LZtW3rrrbcM1atX2Zw5c6hhw4aEOAFF2hFwSjpgWJw3b17thicreeCycSMAUJ0rXMphNzsC/XSy5uv56cgRgEF6WuCu7IevVJKOuHan15ePNaou5qiWLJSJcmeTS3RjKa5Y72xzQGDd8pnpsZpy/3vbt2+nKVOmWApdapVhagJL9JxAiD9o2bKl5aMQTmi7qA2uPQEcshRQZgTAaAcgpxoBEL2lNMsljgDkZ4nqmqXcFHy8fgw9WNHsaRc3FXv5oTqVslG5opG6W9G3fVHdMrYLBPOQno27BaL9o3rEUggnCZKh77//XkbcUFksURwxYoShOmWVYQ8FxAQo0o6AU3IBSI0AGBgDAORySmQmZHGz9wM4y3WIDgVibsMRb2+JT8JWbBCmXYQoNCSARvYtJyTr70LYKfGjVypzwqTES5E6InAaOjQrkHpBp5XAW06wvcmBCuYKoxdbx0ghM3v2bEKCILsJgX7du3e32wy39X/66ac0bdo0t+fUwfsRcMo0QEyM+P/GKU42ZSTlkJsCEI9m1NYIRANf0FbUbSnx4C+36sQOJvY6cACE6aUOxSh/Lqn5GuG6fUGwWplo+nF4DQpjRyo1QtnJo2oS5rS9krBboM2mv9I+P+WIChGG78aNGzR16lRheSMEEYeAgD8nb1bUuXNnwioBRakj4JRAwNy5xXNmYFMgIylziPj/KNthtgOAph4UbG88yzkiUAYOAMbtyws2hLJHh9HATiVExZXcPwi0qJeHVv3QiB6q5n6fiAzpeClb99K04Mv6FJVJ6h/DXswxBRBg7yqRDOEBNLRzQSkcMApgJ33yySe0cuVKO01Ite7Tp0/7RBrlVBtqQAGnTAFkzpxZuDVn424Iy7oTjOBdASXICgdgraB9kLslKGuoGN7FmjILZ/IY3a8CveiN89GGwmissv1Hr9CCNSfp8IlrvK99EBXOm4HqVcmuaYTAWEtM0naT3xSu2zuEfuv2HSrWdgXtPnJNqJGFCxemXbt2CcnKCp0/f57y589vWHY/WXtSkg8MDKStW7e6MhKmVM7fz8XHxVP8DbwY2ktI8BSdLZqwskSEbnR6gYINSv895+ghajhLOOB2Edv/oEgbdMjU5LKLdZRPLPo8f/k08Yedn5iHEH77xxr2Lk+oZX9GX0BMp/j0lIrNWwXjemEKpXvz3PTiOLFOHDkBkF43IkJqywyhWwdr7o1K7StkgA4hJE4aOnQoTZgwQYeU/xV1yghAcHCwa1tg0U2jznE2wOxhxsS3ZXL+CMASvlOnMzfTccdu57Lf6ChvalEejxV3AB6pnZvShTkilsFUkJRygxHANIADtkFtVTcbmyEWkIA3pPXr1xsMTOrq0KFi+N8oKh+dld4oX4W+e7Ah/dW4OU2q14SGVapOtbLnogCDlqZNnjyZzp0zdrMYo9rvFD1OcQCAR1SU+A6aZw2MA4hgZ0SCrPLMO7GNOzTaeYbLtWY2dq5EY+XuiqH3zuPuhJZjGJZWpBAQQiAt33q37R3yzBkdQtgsaMs+sS1yjxw5ItR0GaG//vqLsMOfLFXJmp1GValJ1bPldKtqQJmKtJ13eBu4ehnNOLTPbRmtBxE0iaWT2DxIkXsEnOQAREdF08GDYvFtZ/haG0VeMAKApmI5IKYCvmHGdLon+ptPtGPW6ix40mPocYwACAdLlC8mHjBiaCuUMu9DAA6AA6hc4QzCVtjxVmvE6oMexcvQkodbeuz8EwEplikzTWvwiMtRkB0N6N27t2vfe3R0TuWwsDDCLofYPtlq586TA3Ds+DF6Y/AbVKlqJcqSPQtlyJTBLUdGR1KJUiWoZ++etGnzpsRLKPQpEwh4+aZxTn1GuSkAK9cb483+YeZ6zN8wo5M/z7yfeQozVtlVYXZU58/2EBwA4V48V1YrMYa5inwGAYOGl2XxyJVFPNIYwXhWE5LsyFCXoiVp3AMPUqCOKZi+pcrTSB4t8HXCSAUyPWL7ZGyj/PHHH1vXZDczUV+P/5rKlS9HYz4YQzt27CDY54kwNXTo8CH65ttvqGbtmtR/YH/hbIxwhEQp/vYtUdH75ELENwOCLt6AxHKazzV2ZC7GjH61AHML5snMxgHDyowiOADCr0AyG9kY1QClx0sRcIgDkFFiMyarkwEdPnxY6s20dOZo7vzrCN0wfUqWo+b55JZOClVsk9B1TmrTo0cPGjZsmCUW8LjIPfWM/d9Y6v1ib7p2Xf8qFeSI+OTTT6jTc52EovlDJNbfx90yrp8DIkE6HNV7ALz7cuuMYcZkhjnpJxwA4YQEV68bd7GdBIqyxQIEBJcZGW3Z5evi2/tmyCDsOws1Y926dUJyiUII7pN4oNLwSjWk5BPt8KbP1157jZYuXWq+yUn6/1WrVrmG/WUrnTJ1Cn3+xee61QQHiQffxRu8UZaekSo3DbVjFMCNGc49BAdAeBzz5Nnrzm2ZsszZCNy57Qj7Tp4Tn7OU2TtdpPH79okH4+VJl4Ea5cknUu2/MoUjMlGdHOKZ4v5V5EVf8Db9yiuvWGrx20PfNmzHyWEjhtF1nZH5wSHiDoCRIwAAXTKngHhDLL3i9lUm5QBs2CnsO9jXYlWzMxAw+E1BtFHrd10WFSWZYCmRSmUC05rG5Es2yCxiAVGTmPxigl4shREAGez1NP3EiRO0dJlxIw5nz56lhQsX6jGBkAtAlIyMAYANMiNWEBdth7/IwQEQXlO0aO0pf8FJtdNoBG6LD70bZcq5Szdpy36xJYCwIUcO92mbjbIvuZ7Ll8WdlYIZhRf73GNGIYP03KPU4T+syPmQuAoAEfwYdTCSNmzYoEtdiET0vfEjAOiihEnckxGu0rsEge56UZOnzD9MNxOMvVlFbVFyXoQA5v8NjBYWbflvi0/x/SuW8hR1litn7Q6YcZxlTZQiJQK7ktYZFRKa9KfffMebtBV04cIFw6s5d15fEqbAIPHYuZsGOy+SMQDiDTH8KjhTIRyAv0VNO3shjn6ceUBUXMn5KwK3xOfdjYIMPsinU48Kq8O+6dHR0cLyIoLh4eIpVo1K0HLqhv6odJG2Ok0ma9aslphkxrRSlugsumy/GX9TV/mkhSWH7JOqcn2XdCjEG3KfJb55QMoBACRDv9hC8TfVKIBv3h4mtQqbAdlMU5ecor93XhK2onz58sKyooIyqw52XzQmXmfXRePfUEXxsEoOW/VWqFDB1OoSN98pX648YQMlI0mv7fESyXyMdgAS5EYU1DK1VG4kOACHmLenUs7j6T2HLtOQzzd7PK9OKATuQQDR/xIPmHt0Cf64eDWBeo/dJSh9V6xBgwZS8iLCuXLlEhFzycw8fIBuG7D08o9D+4Vt8FbBevXqUbZs/2fvOuCcKp7/pNwdvffem3Sp0jtIt4IFBbGggP5toIjlp2LvKIoFUEFBBAUElCq9g3TpvXeOq8nlP98Hd15JLi+7+5KXuzd+xkve25mdnYS82ZnZmeJBER8egPbt2iubq2SJktSqZauA+MmEmiSz9jPIKekBCL2rMcOKzHUBBgBg+vU/Yv9/+9sdtHDNKTFiiyp7aUDb/YvH3WWVlcRtgAeO2UlHz/iuquZvDuzQbrsNBb6CC9WrVxee8GTMNZp5aL8wPQi3XThHy0+Jh02kJg8RMT7rMWPGBHX2l0e/TBERahLYwSvQrH4zhQBccseFQ59pHNRvTuCTJRsAUwMn/Y/C5fbQHc8so407A0s2+Y+D9SpbaAA70PjQxZAx/ZOf7qGZnPwnA+3ataNgxYRTy1mnTp3UbwN+PWrDKorlkrEiAJPtubXLya3AiyAyfyhokJn/ySefUKNGjYyfPpVNXK9uPfrgvQ+0ngkyEw+4fwDdd+99AbOQCQFEypXvzSCrpAdA7MueQYqseyHZANjBS9wqs8zL0YnUbvBCmrfihAwbizYrayCBY/9yFr2wduISkui+17fT2F+PCvNIJrznnnuSXwb1L0IAVatWFZ5zD+cBPLR8AaV61ujm9b9Na+mv40d0jw/3gQULFqTJkyfT448/HpSleNJ9KgMfHEgTv5tIkCNQwI5/1AujaOynYwMl1cbLhQCSHylCU6chwvdU0gCwkgDTaDTjm9TZJu/w7ckZh+i/cvVaInUfuoSe6FedxgyrR3lzq3Fj6ZfAGmlaDeDcf7z4mXuZda3efpkGvb2Tdh8WrnqdMn2ZMmWof//+Ke+D/QLx6L179wpP+/P+PdwBzEbftO5EOXTs1pA38MrGNTRmyzrhOcOBELt9xPkrV65MPXv2pIcffji4hZ68WGW39b1NywdAg5+58+bSwUMH6cyZM17rBCB3oGyZstS+fXsa9OAgqlChgrDaY2LEvXR5JcoIpxc4xpUok7eCM7NWEmB6paZ7n6oCNTn4HjwB4oHGVMwL5Y+kJ++tQQ/2qkTlSuZOdcd6mf00wL9u1zgL3R08g9zNsf7FGy/SJ78coblrznFTFDVa/+yzz2jo0KFqmAlwQVU3hCBkoRa3+n2rSQvqWa6ST1Zrzpyi59ctpxWn5L16Y8eO1Zrr+Jwsm99wu9wUey30p2PwMbRu25o2bxErD7Oy113UvJiaAlnIWyk95RvRb8ZZJgzO2U3vEubjy9jxmPqIXGoDAMu4n/F7vFAFbFjTzbUKU5PahemmyvmpYL5IcjrUuYlUyWnxMVADcP27xYvY6JXsWpybTp5LoE17rtCyfy7RmYtqk4BR+Q/1+HPkCF0xHBwXq1SpEh06dEivWjIdVyFvPurFRgDq/BfLmYsucrGhg1cvE7L9t19UU/wG+jp+/Hhwd9SZrtp8N12JLoqLEU9MVbmim+reREeOHBFiueOO+6kmG5cq4F8OWdX8RfhxdIBlCGb7yrw838OMcA/WZ4R3Ha4UdPDCIiYxqv1BYoaykDoEAF5TGIcxNsYbFYCd14Yd5zVUwc/iYWkgVBpAa9hQPvyxbriqhw0bRs8884wSNRy6eoU+3RFYqdhAJ37ggQesh78fpSXXAfAzLCi3ZaoeFlRYKfJKgtTzUrxuduBabs4kPzGWT0eKyl0tb+Bw/nsX4y5G00D6rThiJgMYzWGKmkZNliDZXQPdu3cnPMjMAI8++mjQqxCKrhsJac8++6woebahM4sBEBcXR9euiefKFJToI5D+w76cIOU1vJKen0Hv8fD/izH9wz/9dLX5wlLGaulvhPJ9egMAsuxmfC2UQllzWxowkwaQiT1+/HjTiJQ7d2569dVXTSNPZoI8//zzVKVKlcyGWPegAfaUmgEC7RuQWuacXDMhSkdiaWqazF5fkSsYFgwPAJLbkDifJ7N1pLqHnASMR76dKcCbAQDB3mdcihcWWBrIzhqAyx0P/1KlSplKDUOGDKGmTZuaSqb0wqBfwsiRI9Nftt570YBZPAAy7v+iOXJ6WZn4pTOxUkmRampfZy7+Q3y7YuZDMtxtxFd6Z7gaogu+DAAUUOjDaNX4DdEHY01rDg0g7n/HHXeYQ5hUUqA+/bfffksyDYJSsVP+EobTl19+SfBWWOBfA6pbAPuf0fuI48eOe7+h42q5PMiDUwenYsVDESxFMErT9hNcrSid4HS+yXwZAKC4zNiLMRiKxHwWWBowlQZwFnzEiBGmkim1MDfddBPheJ0Z4Y033qCuXbuaUTRTyuThY6tmgEOHDwmLUSa3Xk+4vinOxCKJXhjkyn36nxbPzrr+h3kdcbPXqyG4mJkBAHEOMeJf8QlGCywNZBsNDBgwgMaNG2f69Q4cONB0bnYkS7744oum152ZBEwKUYXM9DoQPf4HPqVyqTUATssZAKgDYCQUYeai7i21rhKJVfozAMD6H8YmN/7ivQWWBrK0BoYPH04TJ04kh8KEJiMVhmY1jzzyiJFT6OaNXb+ZEiZ1Cx7CgVr83xwOAK3aoKgqVHsAUAhIAoz2XBeXkC1OglYpqR4DABMiMNSOcRHeWGBpICtqICoqir755hutAQxi2OECyfH2V155JaQiwxsxa9asgLvPhVRoE0xuFvc/VCHjASitOARgcg+AjAFw2gRfO00EvQYABiOrsjPj/zFKBWeY3gJLA6bSADq+bdy4kR56CIm94QcwAnA0EAZMzpxqs7H9aQNzv/nmm/Tdd98pa2Prb86sdN8sCYDQ6eEjh4VVW15hEiC6Th67Fi0sCxOa2QMQlgYAPgzUNf6YEaUOlzNaYGkgrDWAyn5IWFu9ejUhqS7cAQbM2rVrqX59/BM1HmrWrEnoT2DF/MV1bRYD4Ny5c3T5MnK/xaBa/oJihF6ojvPDX6ITIJqOnPTCVuWlbOcBSK08tCNrzdiKcUnqG9ZrSwPhoAG4+xE337dvH40aNYqcXMQkq0CdOnVow4YNWigDXeKMABhOr7/+Om3ZsoVat8ZPgQWiGkhyY18Veti+Y7uwEMW5j0QBhVUAD3KJagk4yrSoamskoKiPKBh9QkG3XIGEALwxXcEX2zN2ZPyVMZbRAksDptUA2r2OHj1ai3V+9dVXVLp0adPKKiMYEhiRzHiImwa9/fbbygoZFShQQCvti6ZIL730khXvl/mQbtCaxQOwY+cO4dVUV7j7hxCHoqUMAPE4hn4NlNU/NMNIo8MTGSb0dUHVtgfJgUCcA0HtgNsZmzJmzV9XXpgF4aGBiIgIwo64Q4cOdPfdd9PNN5vmCG5QFJg3b16tlgHq8S9atIh+/vlnWrhwIR09ik2SPsBDv3PnztSnTx/q27dvyBsi6ZM6fEaZJQlwxw5xA0Cl+x+fHDpSSoBlAOhUnioDIHk6ZG1MuYG4hjhJQ8ZajPBFIkhUgDHQeZGSfQejKMxiQqnOEn4mLsn30fUpYMjDD6huZSoETOeL4ExcDP19UqyaF5K5zFj1ztda019H1TnU7ccDq0SJEtrDHg9/NKTJ7gCPAB7iQABCH1u3bqV///1X84ZER0dTPLcCBiBsgNbH8JY0aNCAatSoETZHIrUFhNH/8PA3SxlgKQOggLr4Pz4+dKmUgEMStHpJy+sd6GVcMAwUL9NmvBTogzgjh8yvINtx3g3MfKT/u+d5CIwIEXiJiYwsa1yP+W8RESyJs11/at+N7IqOnSF2VnnqBBFRtB+id999lypUqCBEbxGFjwbQoMdq0hP6z8ss7n+32027d+8WVkhNxQbArksXhGVhQqMfsA6eQ6Y5yBGZxamklc0BUCmLP14H/A3I5H7lTO6puLWHmQhl8sS4XOzukrJ208hfIW8+KsgJbqKwbt06UVKLztKApYEANYAHrxlg//79FCNRea9BYZmcuLQa8PBbSQPg37Qclb9DaFt085zAtKbJAQgnA+CgxMdYRYJWDymSH4Wtup2X4NxQA4iV1CtUVJjZ+vXrhWktQksDlgYC04BZTgCsXbc2MMFTjS7BJwBK5RKtipuK0Y2Xh3lDFJ2YmPGG/ivirgx9c5TQN8zrKMRnhTaLXrlJXgwnA8DMHgB8DMJfuu0X1RkAEKRBYXEDwPIAQIMWWBoIjgbcLnN4AFavWS284EZFkeqlDnbIbYhw/t/oVsC5JFYrvFGUmNMnaTgZAGb2AEDBwgbAzotS8a4MH279IuLuOJwfd3FYwgJLA5YGjNWAmRIA16xdI7zYhgrd/xBih9zv4S7hhegnlKnkt0//NMaPDCcDYL+EOqpK0OolFTYAdpjIAxATE0PbthmZL6lXndY4SwNZWwNmif+fP39eOxUiqu0GEhsOb3PulPs9FP4d9iaLj2t7+brorm2lD54huRxOBoCMB6Asa1c8M07fRyP8xdvNGa+uJHVhoRpclCNvhPjRtyVLluhbsTXK0oClAWENmCX+j92/zFHERooNgE3npArlBcMDABfpDwIfPLK9pwvQGUYSTgbAEdaCqG8a66xomBavM94pyj+OM4FV5gE47XZqXqyEqDi0ePFiYVqL0NKApQF9GsgK8f+KfOpIZRfAa65E2RMAW/VpX3rUG8zhXIBcRvP4qwHSGDo8nAwApIXqL1+WUW1GhwHO8pQwUoRg7Vm1J0NalMBJFTFYvny5lQcgpjqLytKALg1gx22WEMDff/+tS2Zvg1pJ/M5447f53FlCJ0BBgBtVqB6LwHx4+PdljNFJO4nHjdU5NmjDwskAgFJkEijqBEGrG0XnWHdGrQHQqoR4nYorV65ozWRE12LRWRqwNJC5Bszi/j99+jT9s/WfzIXN5K5qA2DDOZn8OkKemLqiKpms+8atFfy3BWNmNZTj+P6LjIMY1cV5mZkKCDcDQLxdFR+PV6EwPzw2+Lnv8/ZaxQZA06IlKNKOglViYIUBxPRmUVka0KMBs5y0Wbh4oVT8X2aj4U1PG+Xi/5u88TT4GjwOdRlvY5zICBkQDv6TEQ/+SoxvMZru4c8yUbgZADLxnfpYsMEgbADsvnyRriSiSJQayMntbRsVFT8OOG/ePDWCWFwsDVgayKABs8T/0RhKFFAASHUToPVnpTwAm0XXIkmHh/tMxoGM6DZ2E2NXRjz4UZfAtBBuBoDM+TRUA1RXrsr7RyocAkBPAMkvfwaJ2pQok+Ga3gurV6+ms2eR1mCBpQFLAyo1gPi/GUIAyEFYtHiR8NLalhL/ffE26SkuRbyXN0ISEAoPgIS4oScNNwMArhW3oNqwVrhqjASU9BM+rrjmjFpjsUvZ8sJrxY/DH3/8IUxvEVoasDTgXQNm2f1v3LiRLl4Uf+B2KVPB+wIFry4/dZyE0/+uu9iFPbCCIoc9WbgZALGscRRhEIV6ooQB0Al/CUXb+PqSrXmxkpQ/MsrXbb/XZ82a5XeMNcDSgKWBwDTgSnQFRmDQ6Dlz5whztjFllzLiGwxvEy8XbGN+gxc2h+LWjDeBssG1cDMA8JGYPQ9AuKbmytMnCDUBVEEE1wPoVLqcMLu//vqL4uKQxGqBpQFLA6o0YAYPAMIQM2bOEF5SQy7+gxwAlbCMPQASYKoKexLrCCppOBoAMnkAwfAACB+qjeUa/KsVhwG6SoQBrl27RjACLLA0YGlAjQbw8JepuqdGCk5V37SJDh8+LMyuW9kKwrTeCC/Ex8kWQ7MMAG+K9XMtHA0AGQ8AagE4/ehE9jaOhVwWZbLkhEyto4yzduU4Hdx1ojBlyhRRUovO0oClgXQaMIv7X2b3jyXhd0UlIPyJRGgJsAwAAeWFowEg4wHAKQCjvQDw4S8X+Cw0ksWKDQD06a4v0R549uzZdPXqVdHlWHSWBiwNpNKAGc7/y7r/i7Hrv6lEqfFU6kh5+dcxcW8EM0H29IEUZtYL3RoIRwPgEK8O2fai0FKUMAA64TAAjgJeVVgPADLfVhEnIMUA3QFnzpwpRmxRWRqwNJCiAc39nyS1y03hJfNi7dq1dOz4MWEWfctXJodNxq+Ycer5xw5lvKj/ivDvrf4psuZIo93hRmgN/4JWM/YQZH4L030iSKuXTPgLmchdAZeePEY9y1XSO5ffcXdWrEqjN0BlYjB58mQaMGCAGLEAVRLrAIWI/vzzT9q9ezfZ+MemUqVK1LlzZ+revTtFRop3OhQQxyKxNCCtAXynFy5YSPCo7d23lxITE6lcuXLUpnUb6t2rd1C/0z9P+1lqPbdLbCi8Tbz70kU6HC3lZVzoja91zb8G1Jpx/udTNQIlFt8UZHaC6cQ75eibFIYVvBT59A1PO2pw9do0vlWHtBcl3zWcOYW2nBcr7ONwOOjo0aNUsmRJSSn8k6P2wPPPP087d+JUT0aoWLEijRs3jrp06ZLxpnXF0oAJNbBlyxYaPHgw4dy9NyhZoiSNenEU3X/f/WTnkztGAjx6VapXEQ7rFc2Rk47fM5jQcVQVfLx9Mz29ZpkMuwpMfFiGQXalVfcpBleD4ttZolIsakWDxcVB3xWic8w5ckA2ISbD1HdWqprhmt4LKAo0YcIEvcOFxmGn361bN+rRo4fPhz8YHzx4UPMCfPfdd0LzWESWBoKpAfTUaNWqlc+HP2Q5eeokDR0+lNq0a0OrVq8yVDwk/8nk9PSpUDngh388/35cjI/X0Nvi/pSL/+9hntbD35tidVwLVw8AkvkuMYqGMO5n2h916EdmyFAm/kyUwaped1MzhYk2+69cpqrTJoqKQxUqVKD9+/cr36FcunSJ3n77bfroo48oISFBt3xO7nWwbNkyat68uW4aa6ClgWBq4Pjx41SvXj06fz6wlKWuXbvS+++8T+XLl1cubscuHQk5AKIwvWN3qlGgEB27Fk3HGY9eu6r9xevTXMr3UkK81s73Mv91cb6Dr3ymAlygjCN7WqEy8HJxiEQQvmC6JwRpsz1ZuBoA+ODgT2so+Al+yXRDBGn1klXkgcKZqS/Ua0xvNr5F71y6xjX+7SeS6bYF9/ytt96qay49g2bMmEGPPfaYcM8BPPxXrTJ2x6RnHdYYSwPeNAC3/7fffuvtlt9rOdnV/sorr9Djjz2u5cD4JdAxYNfuXdSkWRMdI8NqSF+W9rewkthEwoZrCAAqlPnlD8ZJgIMsY2Z9ojP9GsziMIBqGFC1lhTLr776Soo+NfG7775Lt99+u/DDH7zQsOiff8R7maeWx3ptaUClBuBm//FHcSdjbFwsjXxhJD0x7AllhYMmTZqkcolm4fU4C/I0482MjiAI1Y7n+IgR7X4XMU5kfIgxD2PYQTgbADJ5AHgSFg3CpyXcTWfHxfMEt71KuLdKdcrBCX2iAA8AkgFlYe7cuTRy5EhZNhr9ihXCqRZK5reYWBrwpoH169dTPMe9ZeGHH3+gsV+MlWVD0dHR9OMUcYNEWgDjGHRi1h8wogcLYi2zGZ9lVF3vpQbzxDNnMeNTjJ0Z2zM+wPgN4xHGQYxhBdnVAMC68cUxGsS7bbBk0w/K9D3KuLRCUTkISTyigGTAzz//XJRco8NxqOHDhyvb1Zw+LdU/XGotFrGlAV8aUPm9fHPMm3ThwgVfU+m6PvH7iXT5stoNha6JgzsoP0+H4+HvMaIi637G9xnh8ZV51iFugsSJZoy+oCDfQLznLV8DzHhdRimhXg9c7CckhOgiQauXFBaj8L/cn/f/q3ce3eMGVrtJ91hvAxEGkMkiXrp0qZZM6I23yLWoqCgRMovG0oChGlD5vURPjum/TheWF9UHv/gCuXLZDirxip9hXM54knE8I1z4Nka9UIgH/s6o90g3XJv99DIP9bhwNgCgu4USCoQLJ5AvgshULiaaL0IImn8unCOEAlRCh1JlqXyevMIskbX/9ddfC9OvXLlSmNYbYe3atb1dtq5ZGgipBlR/L9euE8/cx9G/o8fkQ3chVaj85MWYxcOMcOHvYxzNWJbRH4ziASX8DUp3/0N+H5numinfhrsBsEBCq/hQVceJvIkD61EYflLsBbDz2ZsHJb0AH3/8sVbJTGRROBqlCvLnz0+dOgUjkqNKYotPdtFAtWrVSKURcPIkNrBi8NlY4dPIYhOanwqegf8xHmJEMt9djBGM6QEPccT4A4WSTIBQhOkhKxgAHgktd5Gg1UuKPIBovYPTj4MBILPA9Pzw/pEatSnS7vB2S9c1JAJOnTpV19j0g3LmzJn+kvD7p59+mnLlyiVMbxFaGjBSAyOeG6GMfY4cOYR4Lf17KW35B+FwC7xoAM8/eILxYwavAE4TpHaPtub3hRlFoJUIUbBpwt0AOM0K2yqhtGAYADEs3yxRGQ9evUKrT58UJfdKV5I7BParXM3rPb0X33rrLUJCX6CAwigqoGXLljRihLofWBUyWTwsDSRrIDEhkfr07kP9+/VPviT1V9Sb8M6770jNm42Iy/FaP2CEi/ITRoQHejKKAkIOpodwNwCg4L8ktNyCaVNbfBKsMiWFhSkMU/bvFqb1Rfhk7Qa+bum6jlr9P/30k66xqQehkJDobiaZDyqloamKykSrZN7WX0sDKjSQGJ+osfn8s8/pwQcelGbZs3vgz6JFixfRipXWMdkAlY/nwXBGeAQGBkiberj+sqapqYL8OrsbAIjxICvUaECc6ZLoJFP2/UsxnMmrEhoULkoGT9iBAABAAElEQVRtSpaWYvm///2PAu1vXqxYMa36n8jERYsWJZxCQB2BAgUKiLCwaCwNGK4BV6IrxTsWERFBn33yGU37eRqhkZUItG/Xnho3bhww6Rtj3giYxiJI0QCeDTKbwx0pnEz8IisYADBx4WYXhd6ihAHQxfPYmQGMTzMU9bWnHtiT5pqKN7JegD179ghVO0Pt/0B+0PAj+sgjj2hNgvAX7YEtsDRgVg0kxGfc/HXr2o02rttI77z9DuXNq/+5Urx4cfpy3JcBL3Xe/Hm0YcOGgOksAmUakElQVyaEP0ZZwQCI40XinKcowADwlgEqys8XnVQT7vG7t/niK3y9Z7lKVCWf3E769ddfD/hEAFz3qCqoJ4Mf7v6tW7dqO/8iRYoIr9UitDQQDA1ou3+399wYGLKo7b95w2a67977/DbWuqnWTTRvzjxCu+BAwOPxEIoHWRAyDRzjmWVy04ImeFYwAKAsGWsLWZ5twcRgWMz8kbQoBGvPnNLqAggR+yBy8E56ZP1GPu7qu3zgwAH68svAdyhw58+fP58mTpxITZs2TTMZOv317duXFi1aRPPmzaMaNVCF0wJLA+bXgLfdf3qpsasf9/k4WrFsBd1/3/2UK2fakyxVq1alMW+OocWLFhNeBwozf5tJ/2z9J1Ayw8bbckaSLV8uDSlC/PSRYQKqZ4yTX6oPb6mXkjlmFV8qUtr/ldDQeKZ9VIJeL+m7PPA5vYPTjxtSsy593kJtykIiZ/JX/2USHeLTBqJQuHBh2rt3LxUsWFCUBaHa2cGDB7XEPrRBjYxECM4CSwPhowHs/uNi4JAMDFBiG/UxLnPvj7Jlykrlt6CJUKPGjejI0SOBCRHI6KgIslUpQbZKJYhKFiRbCf53XyTvjb/5yMav7a4kckY6yZHJSSHP1VjyXLxGnsuMl65j0vELlHTiAnkYtdcnuZAqtxUOM0ANgD/CQeasYgBA1/CRi5aFO8O0pRjdjEYCDJXdjEJ6zxcRScfuGUx52JWoEsbv3k6PrVgkxfLJJ58kFAiywNJAdtVATHQMJflw/wdLJ+++9y69/ubryqbDw93WqDLZ6lUgW1X+iaxakmxlOBRn1/cTphkCcQnkYONIBDyxCZS0/xS5/z1OSXtPknvnUQ0pQYyfiAwB0iAfDbHK2ADpQjJc36cYEtECnvQ1png5YKr/CNrzyyX/vTXs1VLm3EaUOzwA8ASohIQkN1WdOomOXrsqzBbxzW3btlH16tWFeViElgbCVQOiu3+V6z1x8gQ1uLkBxcRI5ETniiL73S3JdjM/9BtVIVvpQkpEtLvc5NQMAQV7LD5iqRkCWw6Sa8N+cq/fRx7mbRKYzXL0MoksfsXISgGZi7zax/yu2PeAaL411/dtZXdgut4mym3vlUv0RK16SjPhHTY7RXGb4LlHD4mKpR17Onz4MPXv31+Yh0VoaSBcNQDXP5LvQgnPPPcMbd68WUoE+5Bu5HjpTrLVKM0x+5xSvFITe+x2ckdGUFKEk+y84bDJuPWdDrJz6MHRoBJFdL+Zoga0JQcMlvy5r4cSrkgYQKmFFnsdxWSrGE+IkQeXKit5AKC5fYyVBVWIDwzVn7yn8Aoy9UKGf1XHGYUD5r927EF9Jdr6epGJ4jkOWYNzAQ5Hi3sBwHfWrFnUs2fgRUu8yWRdszQQDhpA4l9CiHeg69evpw6dO8gZIYXyUMTKt4jyqHvw+/r87BwSiGT3vs2AkAm8A4l/biHXn5u1fAJfMhh4He6IkYyIiYbWKvSzyKzkAcBS8QC/xc+afd3G4VyEAA77GqDoOjwAZRibiPI7fi2aBlWXa+ubfm4nW+hFcuSkmYf2p78V0Ht0+3v44YetJL6AtGYNDlcNYNcfH4MyH6GDxMREurv/3XT6jPAhI014x3N9yNY8OCduPA47uTiZkF2ZZGcjQOVO1F40PzmbV6fIe1uT8xZeD3sbPIfPEnEYIkiA52oXxoaMfzGaNh8gqxkAcOM/xCgKsNZ+FyUOgA7eBuFwBWL1ncuUp7K59RcU0SNb7YKFafaRA3QqVtyFdvnyZYqPj6cuXfD9t8DSQNbWAHb+yOIPJXz08Uc0bfo0KREQ63d8zD+d7F4PJiTxfAgNICRgz+TEgJBMMC44iTGifR2K7N9KCxt4Tl0iz3k5L2cAslTnsYiJrmFEbQDTgUrDywyLQ12Do4ylBIWBAVGSEX+NhqU8QRvRSW6vWIV+6dBdlNwn3aITR6nT3Bk+7+u5gXP869atowYNGugZbo2xNBCWGkDGPzL/Qwn79u2j5i2bU1xc4McPU8vt+HAg2e9skfpS0F87Et0UCW+KakMg3Upcq/+lhElLCH85ZpLuriFveVE0mPFHQ7hLMA2uuSchqE5SfJqVGEXd65FMu5dxC6PRgKTFfqKT7Ll8kfpXrk6FBduE+pq3Ut78hKJD+/hMsiigS+DGjRtp0KBBfqudic5h0VkaCLUGQp34h/DDfQPuowMHD0ipwlanPDneuFdzx0sxkiRGWMAd5bzuDTAgNyBZPHvZIhTRoxFFdKxHqEWQdOCU0ZF6J8/dlxHPlyXJcpjhb1YzAKBT7N4HSii3INNOlKDXSwpD4x7GwnoJUo+DpXOZewT0rVAl9WUlr+sUKkJfc20AGdv4xIkTWh5A69atlchkMbE0YCYNoN0vMJQwcdJE+urrr+REYDe588shyo77yQnD1CyPmwsIJTntXDuATwtIM/TNwFY4L0V0qqcZAkkcFkg6iHIwhgGW0oqxDiOKBIX2y8MCALKiAYASWPcz4kEuAuWZ6AdG7NCNBDxfceLgVtFJdlw8T3dXrqYl74ny8EZXnEuTnuOKYuvOyiUVrVixgrp3704lS5b0No11zdJAWGoAO2+Rin8qF4sjt/fcfw8lJCRIsbX3bUb2hzpK8TCCWPMGsCGgJQjKHBnUIZytEBsCXRqQs81NWrIgKhEaCDWZd1fGWYzBCDVnuhTEzLMa4MGKB7gowFIbIEocIN0EHn8+QJqU4W7+IXpj87qU9ypfvNH4FiqZK7cUS2Qn33fffRQba9okWKn1WcTZUwPxsfFyx+0k1YYQ22OPP0ZXr0oms3GNfvsI4ZIkkqvwT47aAfF8JDExBzznxoOjVlnK9e1QyvXZw2QvI+SY1SskTgesYkS4OqSQFT0AUCi8AMMZRT1IFZj2M0YYE0YC3ECFGFuKTrKTvQB3VqpKRfkIn0pAYaBi7An4TfJY4Llz57QEpc6dO6sUz+JlaSAkGnDzUbJQn/l/+523afJPk6XX73imN9k71pXmYygD/gVP4gZCHhT/MTgkkLwOe4ViFHnHLUR8TNH9zyEuEA9HrXKAhxrW11xG4U2grFRZ1QCA+74DY3lBBaFH7nLGg4L0gZChN8AwRqHPAhbKec4AvqNi1UDm1DW2LucCLD1xTLo40Nq1a6lFixZUqVLIDV5d67YGWRrwpgG4/mNj2Jtl9LbA2+Q3ruHf0pChQ7TKm5kM83vLVqMMH/sbxDX97X7HmmGAFhLgKoJaXgB/DoYDGxxOri4Y0bm+1ofAc9KQiHB+XsddjAsZORMx+BAen76YXiaJkaVQPZHyytgXx5j99zJT/HJwL21nT4BqgPtkLPceiJD8kYDLEqGAkydPqhbR4mdpIGga0Fz/BsejM1sMXP6DHx1MLhdqiUkAN/JxvMNRziCf+ZeQWCOFERDP5YndbAgEC+ANyD1hGOVAeeTcUUZMW4yZLmFsagRzfzyzsgHwCy8+xp8CMrnfi++Vz+S+yltjmJlwVmgSW8Qj161QKU8KLxQHerbOzSnvRV+cPn2a7rnnnpAXTRGV36LL3hpAsx9gKGHo8KF06NAhaRHsD7QnW8NK0nxCwcDDpwQScue4XkUwWALwnJF3taDc054jBx+ZNADgcZ7HWM8A3pmyFHI7Z8rRPDdRfAHtgesIigTjCCm2cM8YDfAvVWRsIDoRmgQ1L16KKueDV0kttCxRimZxhcAzEhUCIVHyj1e7du3UCmhxszRgoAY8vOsPddb/p2M/pc+/+Fx6lbbiBcg5/nEtvi3NLFQM2DWJpkL8XCZ0GQwW2PLnosg+vFFnD4p70wHVRYSQxHU742zGc0FbU7AmCtE8yDz7U2JunAcpyyjjSdA7fWUeiHwAYf8WYvYb+95DDvzLUAwbzp2mW2ZNIxe782XAzuGEuXPnWqWCZZRo0QZVA7HXYgnJf6GCFStXUM/ePeVd//y74Jw4nGxcGjergJNbA0eEoBeDi1sQxz43kTwXlJ/kO8KfTStG/DUcsrIHAMo7xPgAI1wsIgCr7BDjJhHiAGngBYBfrn6AdCnDT/MOvVyevNSwCMJKaqFUrjxax8Dlp05IMUYi1R9//EG33XYbFS5cWIqXRWxpwGgNoNOfKyF0rv8TJ09Qrz695I/8saLs3BzH/nDWOo2DXgIeB+c0BNlAs3PvhIhuDcm95SB5zlxW+TWEC7cH4zTGayoZe+MFN3dWBpjtX0ouEBn6wYI3eSKpX5uXN66maD5/bwSMbtCUkBMgCxcvXqTevXvTlStXZFlZ9JYGDNNAqI/8ocgPSv2eOXNGeo228kXJMfpuaT5mZIBmQgm5cogf+hZclJ3DKUgQjLy9uSAHn2Q40jWHUe3Zbi/TZXUPAJYMt/pwRlHXenGm/ZvxEKPRgJADQgHCXgA8/J0co2pXCpELtYCWwU2KlaBJe3YRihDJAOoDbNu2jfr168exPPUhCxnZMqNFBvbff/9Ns2fPpqVLl9KePXsod+7cljcjM6UF+d7x48dpzpw5WqgJTakuXLhAZcuWpYiICN2ShPrIH+ZH0t/8P+frltnnQM6ed347jGyc0Z5VAScEUDjIIXtCIlAFQbdta5ONiyq51u5ReUS0FItSjXF6oCIFMj58fnkDWVXGsRP40oMZL+u+MoNHIkEjGIA0UxgtbNKKQQ4u4rP19vuoSj7RyEfm8364bRM9u3Z55oN03n3++efpnXfe0Tk6dMPQ8vWLL76gMWPG0KlTGY/stm3blt577z1q1KhR6ITM5jOjPO6zzz5LM2bMyHBOPl++fDR06FAaNWoU5cqVy6+mQh33R7GfN9+CQ1Ae7E90I8fIYP18ycsrw8HB4ZrIa3EyLIRpExf8Q7Ev/kjEeQkK4XXm9bJCfmlYOdK8y7pvjvPSHpFYHiyxqYzqD9tnFAoBJcSBWmS8pe+Ki3cP/166SPdVramPIMBRzYqXpA3cJwAnD2Rh5cqVWq8AMz84UcoYOQuffvopRUd7T/rBCYdJkyZRmTJlrDbIsl8KAfrFixcTTpds3rzZa5ne+Ph4Wr58ueYV6Nu3L+XJk8fnLKGO+/889Wd6fuTzPuUL5IatQSVyfvwQlxnL6tHe61qBJwBZ+igYFGxwVC5BziZVybVwK58fk4rkpha9Nb9h1wJtT31R1evs4gGAvlYzNpNQ3ESmHShBHwgptu77GKUC7j+170Z3V4Ltoh7OcrOg+jMm08kY+TwVB3ssfv31Vy0vQL2k8hxRxGjy5Mm6GGEtCA9069ZN13hrkLwGdu7cSc2aNdOdKNekSRNCoypvIQHE/bH7DxUsX7Gc+tzWR7rJjyZ/gdzknPcy2Yytax8qVWU6rzM2gSLicIo7+ODefYxiHv2SPBe9bxYEJIJLA4bAegHaTEmyh1l4XQVjM9WE/5v38pAK/ocpGYGtNVw/UvD0mmVay2ApJj6I0Xvg+7Zd2NiWtyHhXu/fvz+tWrXKx2yhuwx3st6HP6TEWh577DGt/0HopM5eMw8ZMkT3wx+aQV6At7BTEtd8D+V5/3///ZfuuU++w5/26fO/S8eHA7Plwx/rdyEmz7X8QwEOLrOc+7uhZCuqrCYLwsHwQCuP6WYnAwDJFKclvhD4Nqnxy+kTYhwPgxdAGLA7H70Bjg9joAMnGo6q31gJc7jZe/XqRbt3I/3BHAC38YgRIwIW5siRIzRz5syA6SyCwDWwZcsWWrZsWcCEyOVAzkAyIOkOD3/8DQVAFhz3u3RJPqwG+e0PdyJ7p/qhWIpp5kzMFcVlg0MT5bZzOAAnBGxF86nSR0Vm9I0qZsl8spMBgMqAXycvXPDvQKYrKUgbKBn8Vy8ESpR+/LhdW2k9x+uNglcaNqPuZfHdlIfz589Tp06d6MCBA/LMFHD44IMPaN8+MRts/vz5CiSwWPjTgKieYXC++OKLKezx8EfPilAAzvr36N2D8FcF2BpXIccL2SPpz5++EnPn5DoBoXnM2csVodxcddHGoRhFgA9VaY+a0GhGkTYE2GBXDUNAFOCKeUaUWIDuV6aR8ovjuN5DyxZoRXwE5vdLghDAD+26ULX86G4pD8eOHaMOHToQdtGhhBMnTtBbb70lLML+/fuFaS1C/RoQNdAww08//aSFndDkJ1SV/s6ePavt/JPLZOtfufeRtpIFyfnVkLBr9ON9NfJXPTb+wefeAeghEAqAJyDX+CFky5tT1fQfMCPhkvHphchuBgBM7InplRDg+0d5vFRyXgDzwR8Ji88VAE2GoegU+OqmNRmuq7pQIDKKZnTqQXkjIpWwxI8hjACc5w4VjBw50mfGvx6Zwqm2gZ71mHUMSkuLAtz9w4cNp/g4mT2B6OykufuR8IfYvxLgmLfjG/65UBd7ViJWqJnAA5DA4YBQAXICco19WFX/BSzkZ0b/Z1l1LFj8X48O5iYd8i7LJfNAxfmhp4K4ti08l3QXkPe3bqTVZ04aJnatAoVoYpvOpMrOxs4ORoC3M/eGLeIG402bNtGPP/J5XgmoUqWKBLVFqlcDsnreuGkj/TL9F73TKRuHWH+f2/vQ1m18ZEwRON59gGx1KyjilrXYJEU6yZUDaVyhAQcfx8z5+j1crVDJL2Q1XoV0kjg0kR0NAASYp2LxEoDKgkUl6AMlfZkJ4L0QBoQCBv69gGIMrJTVt0JleuVmmZOWaZeHnREK7Bw9ejTtDYPfoaCPbDIYchksMF4DKvT86WefGi9oqhng9r+1x620cePGVFflXtof6Uz229T925OTxpzUiTmiCL0DQgURXRtQ1PDuqqZ/khlJf+DZ0QDAB/A2o0y6L1I7R4FRkABF85+WnWvP5Ys0asNKWTaZ0qNfwIPVamU6JpCbMAJatWolnIwXyFwYi0QwdCuUgVKlStEdd9whw8Ki1amBBg0aaEaizuFeh2EXfvzEca/3VF/EPF1u7ULbtm9TxtretSE5Rt2pjF+WZcSb7wQtHyB0K4x6qCNFoKWwPMCS+ZZRKraRXQ0AVFWaJfkZPMb0FSR5BEIOr8XCQAi8jf1sxz+05OQxb7eUXIOD66uWHahj6XJK+IEJjkjBCNi+HR+bsQBvg2yTojfeeIMiI9XkQxi72qzBHWf6ZXMudu3aZbgykNvSpVsX2rt3r7K5bDdXJsdng7Xqd8qYZmFGHq4SmIjGQSGEnKPuIEctJb1asNMaLbOU7GoAQGdvySiOaWF5/U+SR6DkSAiUylhK4lDA/UvmEyr5GQURnJj1S4dbqU6hIsqmQC5AmzZttCIuyph6YYQObDKAksYPPPCADAuLNkANoLLf/fffHyBV2uGuRJm0oLS8vL3buWsnde7aOU3tAW/jArmG5j7O74Zx1xDL2AxEb27OB0AHwZABJ2vmRJEmNccDR/A66oiuRUlGgujkJqDDjrqDhBw4OIwjGVsleARKinyA1wIlSj++a5nyNKdLbyWV/NLzTn5/9NpVumXWNDp+LTr5kvRfNHKZMmWKYWWD4+LitDrxqOgXKGAXik6B8FaEE+zYsUMzrNB2tkCBAlS/fn1q3LgxyWTYB3v9p0+fpmrVqgl7b1avXE21b6ptiNhLli7R2vrKepbSCFc4Lzl/e4Gycoe/NOtV/MbGG6GoyzGEv6EC16rdFPP4Vxx3lJZhEa+ho8g6srMHAPoaI6K0VDTQn6wnIRU7XS8x3yZdIzMZNP/YYXqPTwYYCWVz56V5XftQES4brApiYmLo9ttv1xrzqOKZmk+OHDmoaVOxGB3KGYfTw3/RokXUsGFDql27Ng0aNIhw9BFljFFXv3LlytInIVLr1ejXxYsXF6raCLmKFi1K1atVN0TEHyf/SLffebuwYeJVqDw5yfn9k2Q9/L1qR9dF1AVApcBQgvOWGhQ5oJ0KEbCJ7SPCKHQpkSLSqqc5yCxbM1aUYF2VaZcxHpLgEQgpvA4rGB9idAZCmH7s36eOU3su51suT970t5S9L5YzF3XifIBpB/dQnMCu2psgyNBHBbiLFy9S586c/cwhB5WA+H2gpXxz585Nv//+O6HtbDjA22+/TQ8++CCdPHnSq7g4pgYdICeiR48eynXsdVLJi/BawDsUaDndIY8NoQ7t8RuqDvAdfeudt2jkiyPVVhhkd79z0nCy3VxFnbDZlBPqAzi4/4MtRBUgoXYnV210rdxNnjNoAisFTZia3QkUkOsyuxsA0PgeRjxMZcIh2D58xxgsOMsTwW8k9auFfIBFJ47SAG4bnNMpZUtkuu4SuXJTyxKlaNqBvZSo8B/b2rVrCbXgu3fvTlFR6qz5OnXq0JIlSwKqRjh+/Hhq3Rq2pPlhwoQJNHw4TrL6B7TXRdlcFcft/M8mN8LJ32HkYPzwww+6H7rlypWjid9OVJq0iTDSkCeG0JdffSm3oPTUEU5yfvsE2VqqO2WTfors9j7JyUYAt+6V+fGX0hlvXpwNK1Hib+u4Ok1Az+7006IUK06LrUp/I7P3lgFAdIwVhK4ZNTJTlJ97Zfj+fsZg5gKs5vm6MZZmFIbLnPS24+IF6le5mnQmdWZCwMvQpGhx+uXgXnIpjLvhmOBvv/1GHTt2pCJF1CQdIpbfs2dPmjdvHiEu7g+ef/55eu655/wNM8V9eE1gMOEhpRfWrFmj6aNkyZJ6SUI2Dg90yInPzl9tf4QN5vw+h0qUKKFM3iNHj1Df2/vSwkXSB3bSyoTd6uePZPsGP2mVouAd/1vHw98u9/CVEsRWMA/ZuEgRcgIkAbHLbxlj9PKxDIDrmsL5skcZZXzJzZgezYaksvSZXi8gFIBD/YMZpbbve69c0nbmHUqX1Tu30LhK+fJT3cJFaOah/YTCRKrg3Llz2q6vVq1aVKOGjB33n0RINkQ2Px6Y27Zt09r8/nf3+iuc9//666/pqaeCWRgyvRSBvR87dizNnj07ICK4sxMTEw1LvAxIGB2D69SuQy1vaUnr1q8jNJhKDwgZ9ezRk6b9NI1gMKiCxUsWU+++vengQUQWFQJ2qZ8MJnvPxgqZWqySNQAvgDPRHdKEQEedcuRasUs2FJDsBl2QvDZ/f0Pm+fAnWAjuT+A5H5Sc90OmD2azIIiLree7eCED+CL81P5WuqsSUhqMBSQg3r5wDsUqrkqInftLL71Er7zyCjkc6mxbGBi//PKL1qoYD5Ty5csTjp5hJw23czgByisvXrw4YJGxS/aVLxAwMwMJEuISKCH++lFOGC4rV62k5cuXE87g58qdiypWrEh9evVR+uDHPB9+9CG9/ubrXg1FqeVy5Tpt53/rzVJsLOLMNWDnY6BR0fq9YplzE7vr3nOCrvX7QDYUgCNXlRgRJvYLlgHwn4rK88t/GZOtqP/u6H+VyENxLHCHfhLpkfBazGfsJMsptzOClve8k+oXLirLyi89ihH1+nMWXXNBZWqhXbt2mkegdOnSahlnAW6VKlUS3qHiBEbOnOpOdKhWJ1r6Gn2eP73M8BAh3v/H3D/S35J/z+fVHV8+Zrn95TWpi0PU1diQhgIgZPyncyj+G+nw0TvMaqSeRcu4vPXwD6cxh1nYcZICRzD9p5I8AiVHKGAA4+lACdOPx8P4Nt6ZG1kkKHnOdiXL0PxufSifog6CyXzxFwl8OMseqKs7NY+s+vratWvCS7t69aowrZGE2IHHXosN+sN/2fJl1LxFc2Me/lwsxsmd/eydkJ5kQTA0kJgz9AWVIgd3Ipt8N0cUjCusR2eWAZBWS6gLIPsr15553JWWreHvTvEM9zPCGJCCQ1ev0N2L5lJCkluKjx7iFsVL0YJbb6NCUepLc8Jt37t3b3ryyScpPj5YaRl6Vm2NUamBJD7GFRMdQ+4gJnGhWuTLr75MPXv3NKaHAPeOd/74FNna1VGpKouXHw2gUZA7Ql3o0M90Xm/buDZBjqd6eL0XwEV0rH1Gz3jLAEirJcRN3kt7Sejd+0yVW4hSnAiJH9K5AJh+KbvnH162UKpbkt5lNOaTAQg7lDegFgF2hp9++ql2NExl5zW9a7PGGasBuPux8/fIV1LTLSjq+Hfs3JE++vgjv6cMdDNNPbBYfnL+OoJszaqnvmq9DpIGXCYoqxzRoxE5apeTXfHjzACGQKZgGQAZ1YOHt2waL9LpX87I2vAro3mGgM6B+pLoh327afQGJax8TZFyvWaBQrSy192G5R6giRCq2yFB0PIGpKg9rF8g2Q8xfxh5wQCUhh77xVhq2aYlbd6y2ZApbZWKk/N3Lu9bE6eKLQiFBjQvAHsCQgqczJzjWaHCfqnFzs9v4BXOFKwkQO/qgfZner+l+6qLRzZn3KCbQs1AJDPiFwqFIaRhXMv29GiN4LgiryYm0B0L/6AFx49Iy+2LAcreohAOCsZkR8DZdz21DbzpBvX2ixUr5u1W0K7hgY8HfzBd/tt3bKehw4bSxk0bDVunrX5Fck7k4kxc49+C0GoANQGQEOjefYwSp68m14Z95Dl5kYiTMu0V2UhrXYsi77hFVTMfn4uNeexL2doASEbHj7dPK9kyAHyqn/7kW51939Z1ZxuPwpNGrsWcrqnSDLqV381mlPbwONgandGpB/UsVynNBEa9QaXAh5cvpO/37jJqCu3o3rBhw+jVV18Nm9K9qpQRzgYAHvpxsbzrD5LLH8WS3nnvHfrk00+0OgiqPoP0fHC+38Hd4ayufuk1E6L3yCd5aTIl/rTcZ6MeW75clOPluyiis3FJmu5th+navR/JKqEDM1jsi4n0A8IX4yxw/Uleg+yDG9bXiyHQxVyec5SKeVGwp//iebTuLPIMjQe0Ep7QpjO92fgWwzoVurj+wEcffUQ1a9akn3/+2fhFmWiGvHnFdpiosRDKPgdw+Qcz3o8Ofs1bNqf3P3jfuIc/69T+VE/tnL/18DfJPxJXErkfHUeJk5f5fPhDUs+VGIp9bhKX8F1rmOCOOuXJ2eYmWf5DM2NgGQC+tbObb6k40vcC86nrexrD7uAs6DQV3GP4gdmDz+xvv3heBTu/POCWeqFeY/q9c0/KHylTliHzqU6cOEHo4IcywigpnB2gQoUKQstEISB0Sgw2oJwvHvzJxX2Mnv/AgQPU755+1KtPL9q3b59x03GymWPsw+R4pjd3IbEcscYpOjDO7penUNJfW/QR8eYo9vVplLTfuM1R1EMd9cnie1QvvoWcNK9gGQBe1ZJy8XV+dTLlndiLSCb7jjHYJeMQ9xnE+A+jNJyL44Ywc2fQv5c5FhYk6F62Iq3m5MDq+ZWkM/iUGm1x0QAIDXJwfDArQ7du3YSWd+utiCoFF7Qs/2iOxQbhiB9qHIx+ZTQ1ad7EmHP9qVRnK1WInNOfJ3uvJqmuWi9DrYGkz7l/xA9LAxODSwjHjYXD1RhwcG4IUAKQ0XivL3rctMC3BuL51hnGvr6H6LpTikfFMq7QNVrdoERmhVyG+xhzybJFoaDfD++n3hUqU0EDzu57k69Ijpx0f9UatO3COULPAqMAO81169YRuvoh0QxJghERqOuUtQD9EtC/AB3+9ALKKk+cODFoCYDQf3xsfFB2/QgH/fDjD9T/vv60aPEi9aV80ynZ1qoWOac8TbaKoU2mTCdWtn+bNHs9uV/8UUgPScfOUeS9bcjGSYJGgJ3zDRL/3CzDujgTj/PGwDIAvGkl7TUk8nVklD2Y2ZJ5/MoY7C0mnpobGe9hlPb4XOFM/dlHDtBtFasY6p5nWVMgh8PJ3QqrUyQ/iJadOk5oY2wU4JggPALff/89FShQQPMMoHlMVgG48dHEaObMmbqXNHLkSC1UoptAYiB2/XHX4ggFfowEGHxTp02lAQMH0OQpk0mmQqIuORHvH96DnO89wBVCjAtr6ZLFGpRGA54N3Jzs4c/Fa/BzUmoEG3b2ksZ4Ku0VilHi3I3kuRyTRu4A3sAAmMGIzWwasAyANOrw+WYN3xnMKGPigbY540RGTjMNKhzk2VDkqIeKWS8lxNPco4foDm4clCdIu2QkobUqUZralSxLC48fJRgiRsKVK1fo999/pylTphAS53B8UGWDISNl98e7Xr162poWLuRiT36MqUcffZQ++OADQ1tFQ148kHG8LzEeTivjAOv97fff6IGBD9CEiRO0bo/GzXaDc4Hc5BzHNf3vb8MmuBXvN1zfAUzgOXKWXPd8wPVf9XvEvLGPaF+H8KA2BJAjwv8uXGv2yLC/zMSL0jOwDID0GvH+Hg9P/Mtt5/227qsIBSCTaoFuCnUDNzArbD1aqWB5Pj5OMwL6lK9M+SKR5hAcKMcVAwdUq0m7L12kPUHIR0CzFxgCkydPpjx58mgegaxgCNxyyy2Epkk7d+6k48ePZ/jwqlatSuPGjaMRI7gqncFJanjow+UPI8AoQCGfWbNn0UODH6Kvxn8VtFwPW/Pq5Jz8f2SrV8GopVl8RTVwMZrcd79PdPyCKIcUusg7+dQS53YYBfZyRSnBz8kEP3MjEfCT9GMsczS9Rny/R0B4PWM930N03cGvXFfGUBgB+Lx/YLyXUQlUyptfq+dfMW8+Jfz0MkEQ4OPtm+nF9Sspnn/cgwVoBYwaAoMHD6b8+fMHa1pD50F529WrVxMK/RQpUoTq1q1LN998s6FzgjmS++Lj+MFvoLs/JjZGM94++/wz4S6IQopAG1+u5mYfwv/UrV2/kAoNJUpwkav/B+RZt1d+Gg4R5l0xhmx5sLczDmKfnkCJC/+RmaAFE6cp72oZAIGpE7+KaxhlQgGYEScLYEjAsxBswHZ9HmN7VROXyZ1HMwKMztb3Ju8OPpr44N9/0cZzGcJb3oYru4awwKBBg7STA2ixa4F+DaCQDx78RrbuPXv2LH319Vf0zbff0PnzwTm+mqwBlPR1fPYw2epWSL5k/TWTBjgM5P6/7yjp19VKpIroVI9yfjBQCa/MmLhW7KKYx7/KbIi/e2/ygJdSD7IMgNTa0Pf6bR42Qt/QTEfN4bu9GLGZDTZg67qCsbaqiYvnzMXtfftSvUJFVLHUzQfVA8dsWc+4jvA6mIBwQK9eveiRRx6hzp07U1ZKGFStR8Tf4e5HNz2jvvWrVq+iiZMm0szfZhIq+QUVeKdvf7A9OUbcxmdurES/oOo+gMnc786kpM/+CIAik6Gc+Z/np2fIXrVkJoMU3WJP2dV2o8lzSbil9yaWJI1rzzIAAv9s4OdBpYjqgZNmoBjGV8ZmuBqcC4gJwQQurWo6tPWd27U3NSlaQhXLgPhsYi8AvAHBKliUXjiEB+AVGDhwIJUtC/VakKwB7cEfn+A36TB5fCB/Ubthys9TaNL3k2jPHqlEqUCmTTNW2/W//yDZGldNc916Yy4NJE1dQe5nJyoTKsfI2yjyntbK+PljFPe/aZQwPY0X3x9J6vvYbOL3/mTyRcsASNZEYH9xpO9vRtnzYdiiNGHEUcNQQC2edCljUVWT41TAz+1vpVvLVlDFMiA+yAd4Z+sGeps9AnFBzA1ILSS8Al26dKF7771X8w4geTC7Atz8KOOrOsEPxzUXLlqoHeX7Y+4f170KoVCyw072wZ043t/bquUfCv0HMKdn9b/kQm19/k6qADQEQj+AYIKLcxZiBvORRXEYxKQTksktAyBZE4H/xc79icDJMlDs4itNGa9muBOcC/V5msWMBVVN5+SkmM9uaRu0LoLe5N7HRYOGrlxCfx0/4u120K7lypWLunfvTv369SNU0wtFOd2gLTbVRC5OskL5XpUP/sTERFq8ZDHNmDGD5sydQziqGUpAZr9jzH1WrD+UH4LOuT17T5CrD0dvuYa/CnDyuf9cnw4mYgMwqMAhzqvtXybPhWjRaX9hwhSrxTIARNXI5TyYFAV2VIQCfmU+dzKGIh+Ap9UMkAX8Ny/eqIIR9RrRmMYttPOTqngGyufn/XvombXL6GSMcNws0Cl9jkczHRgBMAi6du2qZdz7HBymNxITErU4v6oHPwr0LP17Kc2dN5dmz5kdnHP7/nTP5/odI28ne/9WVoa/P12Z4f7Zy+TqNYY8x84rkcZRswzlmjCMbCHK84gdxZ0KuXKhIFxkusKM2rPGMgAEtXiDrCH/RRwdmfWyMJIZoIFPqIB/zWg+o3TJ4NQL6Fe5Gk1o3Zmi2C0eKrjMhYte27SWvti5lRKS3KESI828CBM0bdqUevToQajPj6N34ZpAqCX33Xjw+ysslEYJPt7s3LWTFixYQAsWLqDVa1aHzr2fXj4k+d3dUnv4U6HsG9ZJrxZTv+fwk4vP+ns2HVAipq1YfsrNdR3sxQso4SfCJHH+Jop9/nsR0mQahH7heQ7p5ixZmHD/+ywv4D0Fi8CTCZ1asBMPFXTiiWcxItFRGaCC38xOPQhJgqGEvZcv0QtcN2DGoX2hFMPr3IULF6ZWrVpR27ZtqU2bNmFhEGCXD1c/dv2iD37QoRMjHvRr1qyhZcuX0bHjx7zqKJQXUdDHMfousnGLVgvCRAN83NT9yBeUJFdH/7/F5s5BuScOI0d1ZXnT//EO4BVOAVxtOxrlMwOgSjN0EL/T8gAsD0AavQi9QRAIO2c8PGUBPqpGjIdkGUnQ92RaxImiJHhkIK2SrwDNYCOgdkF4n0ILy7mfwLNrl9P6s6dDK0gmsxcsWJCaNWumFeRBYyJg6dKh/eFJFheJfXjoi3TpQ2XF7Tu20/r162n12tW0du1ac7j1kxeX7q+tSkmyv3gH2fmstwXhpQH3Kz9R0neL1AjttJNz0pOUs24FsrHRGmq4dt/H5N56SFSMr5nwERBbBoCoCtPS4RDoVsYiaS8LvcNZTZwyiBWiVkPUhdnMYFQaDsjtjKBvW3eiu7iHQKgB/4R/2v8vvbpxDSFhMBygZMmS1LBhQ0JHv+rVq1ONGjU0hPfAaEjZ7XMiHgr5+ANU4Nu/f79WanjHzh20Y8d1PH7iuD9Sc9zn+K7jpTs5zs9HvPjH34Lw0kDSj3+T+wUUPVUDSPa039+WIrk9tYNbAIca4j+eTfHixs02lr8u1mAZAOo+yV7M6jdFOp3EfB5kDCW04clnMypNDMQX7pk6DemtJhxLNbjGvB7ludiN9uO+3fQmFxHaf+WyHhLTjUH53mrVqlGZMmU0LFeunFaHAB6D4sWLE7wJImWL4Z7Hbh+YereP7Hucvb9w4QKdv3CeTpw4QYcOH6LDhw/T4SOM/BeV+MIZbO3qkPP7J8N5CdlWds+ireR6aCzXmhZ2kafRnX3ordeLO/FVZ2wCRXBeQajB9fcOihmGjbwQQDE49XXFMgCE9OeTCAc0H/d5N7AbT/PwjwIjUT4aNQoQ3lB2RDBZwg6lytJP7btRkRw5ky+F9C8Mge/37aI3N6+jg1evhFQWIyZHgiEMgWRjACcSkpsaoe1x6oY/eNhfunRJi+vHxsVqZXtRVe/CxQvaQx/H8bI62P+vFzmehk1vQThpwLPtMLnueJcoJl6J2PYejcjx+aMppz3sbAxHRccp4S3DRMsDaPMS5/L798b5mKcdX19qGQA+tCN4GU8znM+4SZA+NRmstNsZ4VUIJSD4+RdjMdVClOfOftM79qCbiyhnLSwqSgnDI/DRtk0hqygoLLxFqEwD2P3DC2BB+GjAc+oiuXHc7+RFJULb6lck57TniHL+d8jLxuGvHJdDf6QYC4zu+zYl7T8lutYnmPCL0J3NEhXb3HQoMbWQcQCjbMo7jLPejMhiCWVaNDLlEArow5iPURlc5prwE/fsJDdbsa35pEDqXaiySQJkhLBEg8JFaUitutShVDk6yztgnB6wIBtpgL8Djtf6pfnhN8vq0b/eM3eTltnuQX/405fIhiNpqR5SZpE1qHJcjdVa+3oOnVEyra1CMXJO5Yd/vnQeSv5uODkB1ia88VYinsYESYBJe06IMtzPhPMtD4Co+jKnu41vT2dUoV+YeM0ZDzGGEsrz5HMZaxkhRJcy5WlCm85UgpsKmQ3+uXBO8wigqJBZ6giYTUdZSR5b+aLkXPGWqZaEB3/Sq1MpCe1g07t9ufWwvR/n1Dzfl4N12bA+AYesXAM+Ic/ynWo+M9ah8/cXyFaxuFd+UWxs2HnOUEPChEUU9xH2ZkKwgKk6Wx4AId35JUKRBXgAkM0vC/gXjaz8KYyhDD5d5vmRVtuQsQqjUkAC3vd7d1GNAgUpFG2FM1sMjJI+FSrTE7XqUaV8+ekQ5wicYc+ABVlTA/am1cjeu4lpFqfVsEcxm11HvcvEbmnP1sPsGdhItvZ1ycaVCrMTuEf8oK1dyZq5u58W/qldzic7OycXAkMNHs5zSPxjo6gYiGt8ZBkAourzT7eEhzRlVPGwLMp8mjHCCAil6Yn012mMFRiRG6AUYlwumsq7bJTtbc/u9whOXDMT5HQ6tXwFhAd6lKukuXd2XrpASCC0IOtowNapPtlbG+LoClhJHo7xuvp9wJ1CdBicl2PIw0VvbLfeTLb0ruuAZw4PArT1TfrqTzXCIvTzyWCyd9BOyPnkaWeDywxHAW0c9kn4fqlPOf3cQDj3Q8sA8KMliduIEuGbeTcjB+mkoQJzKMP4uzQnOQYwQH5jxHentRwr79Qbua3v7CMHtbbCpXKZczcDuWAEPFKjDpXNnZeuJMbTsWvR3hdkXQ2aBuoUKkJP1q6v5W6c4VoEImC/8xbTVPxz46gXN7LRDWwoeJZuI3vPxlzFI0o3WTgOTPp9Hblfwp5IDSCEYh/Qzi8zxP8dXAEz1GDjyoQJPywlEpMF4enpKmLUodaD2eevzwKuYkyXTSIs9himHCVMrZbwQWY3njFCLdvr3NBV8PGadenNxrcQigiZHY5eu0ozDu6n6Qf30srTAfxom31hJpevHJ8m6VO+Mg2oWpMa3jhRUm3aJOECT87pz5ONwwChBm333/YlITFstcqS8xcksZkvp0ZoQemIPOv3kqv/h0Txao6k2u9qQY4PBqabxftbG7v/cyjqKuh9Bv1Xr/GRR7d4ImAvywOgX9eiI5HEd5IRGf0qoBUzQS7AShXMJHlsYfq1jD0ZZU89ZBAliZOd1p49xQ/VfVSfM/PxQ29myB8ZRc2KlaBB1W+iOytV44TG3HSNwxonY6+FrM2jmfUlIxtKSj9UvTa917QVvc/YtWwFKpnKW/TSBm4iJNj4yTGCc3h5dxVq8Py2lnfz28XEOHuFPP8cJHsvzmUIdstaMYl1U3kOnr7+8Fd0Ht/GrX2dXzzKZ/31hRw5UkDOODWGh+5F+xjoWrmbksRPPix2+uBrXVarge+YXSPGIYrYvsV8UK1mnCJ+MmxQIwAZUzMYa8sw8kX77+WL1PaP6ZyEx96ARi0oT4T5vQG1ChSiWg2a0EuMp9kVPYdDGn8wLjh+hI0Cc/x4+NK3Ga9H2h3UumRpDrtUpJ4ceqmYFyFM7xDNhYquJiJdRQA4o56K+uYtwFGYxHPsnDAtCD38cHA/MZ4cXz6WdYyAC9Hk5ox/uqgm3Gbjxj7Or/hnGZ+7TvCwBeBhI8AMRwHtpQrplNrrsBKWAeBVL4ZcHM5cKzJ2VcCdv340lvEq448K+Mmy2MsMcFQRhs6dssy80cMb8NmOf7TcgE+at9EeAt7GmfFacT5F8BB7BYBxbrcWHvj75DFacuIYrWMPB4oPWZBWA3b+ka3H8fy2JctQ21JlqA3/zRcRmXaQj3dIIhUFWxF++GOLZwZQIEcSt46lZyaQ46NB5lmXqG7Z3e8aPJZUnfWnovnJMZF/lvMKRGe5NTQXMBFdiTI6e6mCMrwsA0BGewHSImsECYHLGesGSOttOPxVExhhBIQ6MRDywSTH+tYzwkOh36TmwXoBR/B6/zWbbmWX74fNWlO1/FL/APROq2xcDoeDCwyV1ZBuJs0bsOr0SYJBsIy7FG4+dzZbegiww6/LD/wWJUryQ7+sVhiqYFSUkN4RchGGIuYJM6EYjQpI+nU1ezX4YTfqDhXsQsODNwDu//uOPOv3qZmfEySd3NrXVqawED+Pzc6ngEJ5IOu62JJHPi0DQOjTFyeC274H4xrGUuJsUijhwZnKCJ4LU66G7gVM4vcYNzP+xFiE0RCYe/QQLTx+lJ7ijO9R7GbPq3N3aIgwEkyR3NipdDkNwQZVEXdePE/rz52mjWfPaC2Lt3IhItF4toRohpGi2mJNDpE0KlqcGhVhLFpMy/GAEaACTsWIZf9rc8MDYBKwteWIGnaaOrov+hM56cv5ZCuUh+xDVDgg/c2m/r77nRmUNBt7CwXAORGOsQ+TrW4FcWZmcRLJ1XywDADxb4Aw5VGmRNLcMkYVZ9ywTcKxvC6MZkgMZDE0Y6QR//2Vkfe5xgAeiu9u3ajV7n+buwveW6WGdjbfmNmCwxUPRxxlAw6qdpM2KUIEaFm8i2sO7L50kfHG38sXCPFus0IUeztQ1AnFnWrkL0Q1Cxa68b4QwRNiFES7BOP/LJDNJPF/6MZWtgjZ+Ux/0pwNSlTlfov/ORbMzVUDkUccPpD003JK+nyeMoEdL99Ndq71IAPwAIS2JMt16W1ylR/zWjkAMt8CcVoOzFF/xpmMKn4JYUjMZ4RhsZTRDHCYhWjBOIbx/xgNs5lPcMx3wNI/adzOrdxmuIXmPub5sgygIBJ2zMD0gARDHD9EDYIj0fwXGBNNR6Oj6WJ8HF1MiKcL/Deecw9UAY5nForKQQX51AP+Ivu+bJ48Wj2EsnxSo0zuPFQ+Tz6trDNi+cGGWD55IQwi8WDhyfwTOl6/h5LWcYrNmcv+B/sbATf6yB+I8uQkdLkLB/Cs4kTGUZOViWp/qCPZB3WQ5ueBZ8YEYMsvdcwzh2UAhO5DnM1TP834iSIR8jCfPxj7MC5QxFOWTTwzeIYRJwUmMpZgNAxWnzlJbedMp26cH/BGo1u0pj6GTWYSxkgwBMKVnhmgyiIMAhgDCexRuMyGARIrATAS0gMS7uCNABTgWLyTdzzaQ59fmz3cgkRLYYgy2QkTDkk4xz9Orns+VNPils+wu5/8hrBztLWoIaymYBB6dh8j10OfE3ELXhWAXb9j9F0qWJnmWK8th77EWB+LtgwAH4oJ1uVPeaIqjMMUTQhzcBYjsn1gDJgF/mRB6jEiafFWo4Wax/kB8xnv4rP4r93cLOwSBY3QTy4uY5zLmYdK8+48q0OcW+KBwbXgzQa2myuT89uh5HqA9wpiVd/SLol5uAZ+Ss4pz5CtUeW098zyjj0e7gf55zE6VolEtjrltbi/qpoIIXBsedeD3Pc1BwIZFoRWA0/x9EiYUwU5mNEMxr6qGCric4b59GB8khGFjAwF7G2nHthDtX/9kR5Zvkhzjxs6ocXcNBqQCXfYzOYBuKFVW8ua5Pj8EXXn+WMTeHf9GXn2njTN55YiiCYbH/c7fiHlkswLW4mC5GADSm1pZHOEAMgyAGS+GqagxSHwBxgRElAF8AvhdACO5ZkJ8FyG16MZ4/ZgCIZGPd/8u52qTptIg5Yt0BLpgjGvNUfoNCCVA2BSAwDatHdtSMgJUAYoqsOhBc+x88pYSjNCiGLoePJsOSjNSmPA+Q6O758kW8mCavjd4OIxQxUglsUWIZVCZnkAlH4rxJkhlRvBqSXiLDJQIpiJ7JkBGe6E/sI/LAJOB7zGKJ6yHcA6kEk/cc9OqsMegdsXzqG1Z04FQG0NDScNuDwShZVM49v1rnH7/W3J8SzSfNSA59RFzQigc1fUMJTk4n5tKiX9tUWSyw1yru7nHD+EbDXLqOGXmgtKAZoBdJYv9iGq0woB+NBMCC7DLQ4X+UqFc8M8nMj4KqPZAA/+VxlhCKxjDAog8W3mof3UfNZUajX7F64seMA0CT1BUUA2mAQJi8IQFxR7VFg8ENqf7EH2RzpL8UhNrNXWv/cjLi4uUT8hNUPB10lfL6CkCYsEqTOSOf7Xn1DnP0uDXIJkvMS/lCyt1lAtDv8CYQRsVigATNVXGDmDiMz4eSMUgOOCyIWQKOHG1AECOvahqmCtX76nd/7ZwFnyGbPhA2RpDTeBBnBsUhQ8Jmny4k9+x0t3kv3ulv6G6b7v2XmUXA9/oay7nu6Jbwz0LNpK7jd/CZTM53j7sO4Eb4lRwN0AjGIdEF+PXFKoZQAEpO3gDL7E06Bc127F0w1nftMZBQpfK5YkIzukbcNAqcu4OONtY6+g2dAL61dShZ+/o8dWLCJU3rMgfDUgYwBQGHgAtE+GQxWOdwaQvVtDZR+UduZ+yFdELokQioA0nm2HyfU4z8vxfxVg79mYHM+pC5N4k+nGCVpvt4J7LVHiyCuHX8VN5eAuM7vNhox5GAFHFS+8L/Obz1hQMV9V7A4wo46MDzOeVcVULx90kBu/ezvVnzGZ2nH3wWkH9mapErx69RDu43LwkUdh4Az0sAGUtP10MNmaVlMmctKCLeR+dgK3EgzODhcdD10PcF5wjBrvm61xVXJ8/BBnx5kkRq/sk/HOyMMNkiTA8gBIKM9o0sM8QXvGI4onas38VjCWU8xXFTv88nzDiF81nBiAdyDo8PfJ49Rv8VwqPfkbGrpqCaHIkAXhoYH8EVHigoaLByB5hVwIRmtqw+fcVQGaB7lf/VkVO998+Iy/e+BYNvUv+x4TwB1b+aLk/Ppxkjwap2tGW5AMJH/CeOTyNmItD4A/DYf2/j6evg3jQcViIDNmNWM9xXxVskMo5EnG+oyLVTIOhNd5rpz3BZcYbjFrGlWbNole27RWq8sfCA9rbHA1kD8Sp2AFIZw8AMlL5KNuzh+eIlvlEslXpP8mfbeIksbBWWgQuNzkemQcodqfEuDKho7vnyIqnFcJO39MTGMAXJZK3LxgGQD+PunQ3z/EIsAI2KtYlFLMbxnjrYr5qma3gxl2YLyTEV6RkAEa8ry2aY1mCMAg+HTHFkJ7YgvMpYH83KNAFDxnw/Tz5AefY8rTZCtVSHTpGejQPChpCn4i1IN79BTyLN+phjHXbkClRFulzMthq5nsBhePUm7CzDyXpPKmz+OYmAXm1wB+lZDA142xqEJx8UvZnxGBJJXHDxWKmMIKvxacKaRVEcTRwRwpd0LwAs135h87TJ+wEfD74QOEHvSon4/GOBaERgMH2RibvH83fbVrm9YgSUQKG8fV0TAmHMHGjYxsbW6ipFnr+F+JVGw4ZfmeJdvIVqUk2aphv6AGkj6ZQ0lf/qmGGZIhPxxI9g7IHw4eODlUZAYvgHvjfnItEzakVmePTIngfS+MnqkYT7CA0YhvO87gDGSUMimZPhhQmCcZwTiU0VSnGspxN7ze5StRj3KVqGXxUpRTJiEtGJoM4zncHIddffok/XH0IM05cpB2XFRQ0S7CSRH7xvGB2fD9aUQVPVe/9/lfsprEOmKdOCcM04wL2a9L0uz15H5ivLIkQ8cLt5P9ceyLggs5eOdtBgMgntskx38lbEx9GL7f8uB+3maaDQ8/fOLYBauGrcwQJwWQjR8OUJqFHM04iDHCbAJHcc/75sVKUrtSZal9qTLUtGgJQitdC8Q0AK/rTn7ILzpxlJaeOEZ/nzpmSO2GiE0fsJ8tv5iQJqHyrNilrnkQ1pSTkw0lmwd5uK2xqz/rVu7seoqG7f1akeO9B1LeB/NFzovRwZzO51yxL/5IiXM2+Lzv58YLlgHgR0MmvV2A5ZrH2MwA+bCN6se40ADeRrGswoz/x3g3o2mfsHkiIqh1idKaQQDDoEHhopaHIJNvBPo47Lh0Qdvl/33yGC1lPB0bkwmFmlvOOS+RrV4FNcxCyCVp/iZyUIJ3BgAAIFNJREFUP/alsvP1VCgPOaePIFvVkgGvynP4LLl6jyE6fzVgWm8EtltqkPNHTvpj70SwwcbfyxxyyXfKRL7GRyjdm4X3a/daBoCyjyLojPLwjFMZjUjiw9E7uNg/ZAwnQGjkBUYkDJo+vwUFa+oUKqJ5BhoVLU5NGGsWKMTe5+z5zxJ5FevOntL6NKBXw8ZzZ+iaS00sO5AvsWP840oL7AQyt+qxST8sJTfvElWB1llv5kiylYEjUifwbtnV+y1CyWEVYKtaipy/jSTKl0sFu4B52PkEQ9TV2IDpjCC42vEV8nDrZEG4JXv+0ghqy4RkMH/ZxCeufGEITGGujzGqMdsNEdEr08p89VnGBxlDmizI8wcEeTmRsD57BmqxIVCDsVZBRv5bOjfsvawB0YmJWrweFRe3X2S8cF6rvogjl2YArczuo13MIIoSGZB0537/NyW8wMRWsTg5Z/D+oEg+/zy5UA3yETwb9vsfq2dEsfzknDWKbKXVnXbQM23qMQ5eU6SiwkWp+Qb62sOJiFeb8eeQJHwkoZRlAASqdXOOf5XFesUg0VCLoD+jcKDJILn0sC3Bg9hPSEMYdfxa6WEZmjE42lazQEE2BgpTubx5qXyefFSWjYKyufNSWU48zMH5BmYCuOoPR1+hA1eu0P6rl+gg/z1w9TLtv3KZjl27apJK6t41Zu/bTKuw5/1ueF51vz6Nksb/pUx4W62y5Pzlucx34Zyk6R7+DSX9tlbNvMhDmPYc2epXVMNPkEsE14rAKYBQg3v7EbrG7ZwFAS6M3JYBIKg9E5LBCwBvgBFBMXzb4Vr/iFHY3GTaUAEyuh5nHMpYKlRCGDlviZy5NEOgFB9DLBSVQ8MCUVEprwtq16IIHobkWvkF2Kiw8X9IeE99dj4hyU3XbnQZ8/DHfSkhnsvDJ9EVLpV8iRsmXU5I0F5f5uu4dzomhk7EXNPi88djoukMP/zRfjlcAUfenIuQUpKFAA/j5yZR0tQVyhalxeG/51pdfA7fG7jfnM7H/eZ7uxX4NZQ9Rmimc/3AaRVTREXHkV2uC58SiRJnrKFY8YqNu1iIWpYBoOSjMA2TTizJdEajdrtIDBzAeJIxHAHbZORMDGfswGh9/1kJFqTTAD9sInZxiVrecWYp4GY77iFfUtK8TcqWZe9UX3sw8/GWNDyTfl6uGRxpLkq8QWtf+0D8kw095ODyuzZFjYtkVhP3zgxKmLxMlMU0Jrw77acmysqiM4sGUCMA/0rUZNtkXFVHvrTxxhwZ75r/ClpnzWaEoVSb8XNGFFmywNLAfxrgH3dlJWr/4xr6V9hFG9E86LmJac71e/7eQe4XflC2XvvDnU3z8Lex/9MMD38oN2nPCRkdbwexZQDIqNCctIjV38K4xyDxcAboL0Y+02NIuMEgsTOwRfkshARQSwA5AqiBYIGlAU0DHo6vZkkwonnQ9FUpzYM8/FBysZdBVUthW8e65Bh1h2k+Cptbqv2uunXAmyP3Hd0GYSwDQN1HYiZOOBjalHGeQULhe4OcgNWMdQyaI1hso3ki5E7UY2zIiDyHcA1xsOgWqNCAZ0cWNQCgHDQP4ti9rQIKi6oBNA9C7wD3ffzPR9EROST7Ob/gQ0jsuTAL4AigGcC96xh55BpXaRse82jWDFrNWjJc4uX0ZHyb0ajEvUbMGx6H0YzeM4H4RhjBZpb1acayjF0Zf2QMh9LILKYFKjXgWf2vSnbm48VH+BxTn1XaPCjpi3nkOXlRyVptZYpo5YfNlodhdxv1UxqY2iSK/2CiK4wH8cIyAKCFrAswV7FT78do1IMMmVL/Y8RZn3qMWQGgtz8Z72csfuMvvCnxjBZkAw14Dpwmz7FzWXql6Bzo4DbCVMBkDazYQ+GYwNE5PXUGgvwJ2V2okRZ6cG/Wnt+igqxhQs2SsQwAURWGFx0yPpEXIFwzUsdyG/AYeAPgcYjSMT5chsBwgicApwcKMfZiRIYTPCwWZGENeJbvysKru7407cgjjIDcJvkn63SQc/wQstUoYzrd27jgDjDkwEdsXev3yoiRchbUMgBk1BhetIj5NGFcZKDYTuY9gnEdY0MD5wkVaxSixykCHIVEABWnCXCS4CijBebRwFkWBUbbvYyHRcXyLNshShpWdFqs/RvecUfin28IAa19332AbK1qhVAI31Ob4ew/pHP/c5g8cr0IViWv0jIAkjWRPf6i0Q9i25ypYyjUZe4ICbzDmMfQmULHPJGnRl0E/uWk8ozwgDzDOJcRiYUWBE8DCNkgIfVlRhi5JRgRvpnCKGzwJnFHPTLBeW9eg+Fga1mTHJ8/EtKEO/uTPch+JxyV5gSHSRIAXSulPFOIYeC3WQPLAEjWRPb5iy/A04z3MF4xcNnYTjzPuJsROQhZGeAX3ML4IWN3xoKMLRnxQFrKaOUOsBIUAr7D6xnfZ0RIpggjnhyvM+J6EmMyLEl+EfBf7vmeZY8DelGGvWtDcryOn4Xgg71nY3I8jY/SvGAaAwCGqTgg0TllgxJin4/4KixKaQ38xBzgqsffxtLcfDPAOXvMwdsLGsaYHfyqeECtvIF4KOVkbMbYlBE7VCD0YoE+DcBQ3ciI5KVljNDtVUY9sFjPIF9jkv7cTI56FXzdznLX7fe3JboQrbR5kD8l2ZpUJcfHD3GFHfMW5tSO/5kg/p904gLhCKAEILk5Bcyr8RQRrRcGayCS+Y9hhFfA6O8D3OafMb7GaKT3gdmbHmAAwPCCMQDD4GbG/IzZHWJZAfCmYCe/4cbfPfw39a6e3wYE8EJVD4jixmDtONqqt0z9cBJZlz8a1c2DfM1nK1+UnL+/SFQ4r68hprgewc1/nHLn7pWsI2HiYor7cJYMrxZMvCqZgdE/+MnzWH/Nr4GOLOL3jCWDIOopnmME4w+McJ9bcF0DCB3cxIgsqNR/g/GZXJcgeP+HMXiUcScjdvfwDOE1HtaI6auED5gZDFwhcM4YSbbGVYRow5bIgOZBGXRRKA85f3uB0F7Y7BDFxY3MUATo2t3vy3gALrKeizHCQ6mBZQAka8L6Cw3gQYOHcge8CQKs5jlgCCwPwlzhPEVRFh5GQfkbWJb/lmPE3wqMuRjNBniIn2E8yHjoxl+8TkY8/FN+iPi1kdCamf8tOgHc4o4x94mShy8dys0qbh6UogzuIOj8mQsRNaqccsmsL2x87C6HXNa9kqUlHTlH0T3ekOE1jYnvTs3AMgBSa8N6DQ0gMRQP5f8xOhmDAX/wJOwHtOrxCyq7MNPBGMBWCl6EQjcw/WsYCvC1Jn+uBfg1fgMcjPkYkwG785REIX6NcA0e6JdvvEb8HYjrlxjPM56+gSf4Lx78QA+jGQDrg9cJyYKBA+9UIzayE4HPqGc7YNe3676PybMWURhFgON+3JTI3qepIobGsnGyDiJM4P6PHzuX4sf/JbPYAUz8Q2oGlgGQWhvW69QaQNLaREah2GlqRjpfI8Y7mfFlxkOMFlgaUKmBiczsAVGGzgnDCY1psiVEx5LrrvfJs+2wkuWjuY/9MZxGDg8whfufvRBXO79GnjOwwYUgjqmwQYDRngLY7VlgacCbBpBx3YDxPUbs/owGfBfvZ/yX8RNGuL0tsDSgSgMzZBihv322BTQP4mqBtsolpFVg798qrB7+aP1rhti/i6tSSjz88bnNZ0zz8MdFywCAFizwpYFYvvE8IzJHkaAVDMCphOGM+xlfYYSb2gJLA7IawA8gQhVCkLRgC3kOIaqRTYGz9B1TnpZqHmRrW5tzKWDjhw84E4KVppK5ThJ+RbqUFEz1Rm0ZAN60Yl1LrwFUjqrPOJIR8eFgAGLVrzIeZYRHoBSjBZYGRDWQwIS/iBITnwFHy9vsDDLNg7SeA188ynkUYfTI4QwWR3ywfu58f7OSjp0n1zKp/VcMc5/jbYYw+jS8iW9dC6IG8C/hHcbGjKgmFSxAKWF4BA4wfs9YldECSwMiGvhRhCiZRgsDcHXA7Azag3wi/3PMFaVbDbYSBcnx4/9x+mlO3TRmGIjOfzY+DhlqwNl/4hwACfiVaVMn9aawsgyAFFVYL3Rq4B8e14zxDcZgmsf4xYH/cAfjRMaajBZYGghEAyiAgtCSGHAmeNJP2TgX4IbWbDdXJuckNgLy41BJ5mArU5gcU/m4X8mCmQ804V2nCXb/HjY4E2etl9XON74YWAaAL81Y1zPTANypoxkbMi5lDCZE8GTI5t7OOJ2xCaMFlgb0aADbOZ8/hnoYJGE3ZpKmMHrkNWqMrVl1cv4xmuydOTLorYQvH5m092uljbFVQvJ5eAGS/xyJ7pALncAGp4ePIUoAkqp9Wq3WMUAJzVqkKRroz6/QmCVUcXqYyJ8zTmWMY7TA0oAvDRTlG8gr0e/DTscJLWuRzW7BdQ14jl8gz9/bycN16sluJ1uFYmRvV5srUiB6F54QERNPofYAeK7EUHS318nDVQgl4HmmxUkur2AZAF7VYl0U0ACS9uAVeIoRu/RQwDme9FvGcYxqDi2HYhXWnEZr4P/bOw8wuaoyDP93ym6ASEILEQQCCKETRQIBBBVEFAQ0CEosIChFRUFpESUIoqKCCkYhG7rwGHrUUASRQIKAQASRCKTAJlQjadun+H1beHbXLTP3nltm5vuf58vM3HtPe3cy97/n/OecG1CA76X9OKadefiHZiM4YUVWbQQ8BHzWr27C+H+8LWu7/E/WNuPPQSrRhsRbQoNOX9EQQBC8StubAFeGo7e5M8QpV3EYV3o7G1oM8X/OJyE5uYAg60Ngep9PZX4ovv52zc8IKBNZRV3OyP+4b/4c+2+/aW5Qbgx6HfTmz8zlAARFrPT9CbyIAx+HjobY1RqH8Xt9EDQbeh76DhTX8ASKliWMwKOoz+NB6pSffjcWRm4OkoXSJpAAo/7j7vonFi75W2ziA7xvY//FpcOlTg93gc6LgE8C/0K6qyCOye8B+R5zRdogxl6BgyEOTezbndEivHZ0v9dLbRLAgHXfjVHKwsAIcXQVp/bfqaxkujjZBDKtHZaOOcizsOQNa/n+zZ3frwC05iAt108Z0tQDMCQenQxIgJOmL4S2hX4BBXJpkT6I0dmlI3ADxI1hroUOhPR/ABBq0O5Em9k75Ns4I6Az8M13DkqYJAIc+6cDELe1/uwuFzNNfl5KO/ijKBOBsAmwr/ReiDdfTgjeDYpzbJ7RWxOgL0JfhsZA3Cv7NUhWGwTYRUoH9UjfzeWTYuN/LHX4RN9ZKGFyCGQT8PSfe+R5a/tN4BCq+aDKgOxhTQ7AsIh0gUMCq5AXn7xuh7aAxkNx2yhUYD/oJOh4aGuIPRXLoAIkq14Cz6FpdAJH+21icdHr5u2wuXnbKcTEL8MkpOPTf11TvDOIOd+/5RsNxul/AY2/Y0tKyUPdn6VQ0jWuCXARn8OhSdBDrjMPkN9WSHsa9BfoDWgWxBsEpzjKqo8A+3unBW1W/rybFBAYFGLM6bMtcY5OdjW+bfo9VkCPUkB7BOkfKDUP9QCUSkrXhUGAT9nXQuyyYo/AOCgptg4qwimNn4K+Ce0JsbdgJcThAll1EHgWzZgMcRjIn2HRGHt7raU+OsFfeqWKlQC3+81imec4Lf/8Mms9H4F/wfcemIJ2vFJqW7xSL9R1IhABAfYInAsdBiX5u7kU9aOXTfX0FuCtrEIJHIF6c2jKv2E53AzXvJ+UhFEt/82ouZSIBKlf02wpLP0bm2HJ4aYpl1l+IZ+HAhnmptonyskhyT+y5bRD11YXAQYJngMdDSW9l4rBZBzS6HEIHsZ7xjrIKovAPFR3nyBV9rYda5n7L8CWt0n/ygZpZXWl5Zx/Lvsbp7VeOts6d/wLVgkOZ+0OlTWzRd/UYNCVOhwCHH+/DcLgqrErflcoqd9VOtGbQntDx0JnQZ+FOGTwboiPFhzYi/ERA6XLhiPwDC44EfL/UIRhAG/T0ebtPm64snQ+AQR6Av/8/8GDNyL32AvW+sNb0PUfOK8rkMON5eYSZ9vLrauur10Cm6PpDM47AdqoAjG0oM5PQVx97jHoCWgpJKcAEBJkV6EuXwlSH+/921jmrqlBslDaiAjUrW2Jdcc/Lve79qhLrPhm4A5DPmBsD5UdmyQHIKIvm4pxQmAEcuHT9degDzjJMb5MONeH3XX/6iVOS1sCyTEAhBhsY5T5b2hD32WnPMsu+q2GAXwDjCYh1/uvi7PrH9MOm0+90nLzF7po8CnIBF+68k0OQPnMlCIZBPZCNb4OfQaqT0aVnNSCvQX8VaBz8BLUCDGql69LIZ6XhUfgVGT96yDZZ5/EImxjRgXJQmlDJNC1218zNvwJ3u/ut5ptV8zpXO/fb/pe6R7Fe65j4uuhQQ5AL5J6W5EExqDWHLs9GeJUwmq3t9DAHqeAjgFDh1dA7P77bz/JWQCQMo1rozwM+Q4IzL4wHZErdWUWq8ujIlC3Bl3/Ma73n3voOWs+rcHFlL92MHs/xJ5DXyYHwBc2JUoggTTqxOmDx0GcCqNf4K6NmHqcAoY6r4byEK1nvDCH92s6j3StgMh9Ep6GHoRau4/X2st4NHgBxCGnsqxzJsBfLyorjS6OjkAWq+1lYpzzX3jpNWv64i+tuNbJf60LQG5aEHpyAILQU9qkEmCg4Gehz0N7J7WSCa8XA4t4J7sc8tW9mPD2DVe9M3HBJcNd1P986rTDLH3mkf0P63MCCHDBn3oE/jmIuPfVmuJbq6zp87+wwms9vrevbHoSMXaIT/+B5jDKAejBqddqJcDo2C9AdAbGQbLyCHCBnGMgdjfWkrFHaT40seRGj1rXsnMvRgjhyJKT6MJoCHC8f8Rq3PwL8fiyRQQcNh9/uXHFPwfG/4uTIM4sCmQc75KJQDUTeAGN+x60DXQANBNy4oIjn1owPs7+qhYa2q+NHCqZDDX2Oz7wx0zKMr/CDELd/AfmE+dRxPpl2eUe083fsNJfyxnXuLr5k+R5UOCbPzNSDwApyGqNQBYNpjPAdf6PgLjOgGxwAvgJ7QyK+9vgl1TtGfYg3Qyxu3Vg87xV6RmntqY+9r5NB75AR+MkwI1+MtjqNxbDEsPNZ15rufufcVX8A8joYMhJV4YcAFd/FuVTqQT4f4BrCtAZ4NPujpDs/wnchENT/v9wTRyhw3g8dBzE7wo/0xZBs6DL6l6+epNiqjAP70dDsoQQSLdjvn9ToGFy/y3BXP+W835nHX/8u/88+qZkXM4EaHnfw/4/yQHwz04pq5MAI8DpCFB7QhwLlnUtZ7yJQBiHTcdCnDlBvWOZxhkf8sy7Fwfq3jmoN7ER4FQ/rvYXS9Afhhtapv3eOu7kwp9OjENSnN10n5PcujORA+CSpvKqNgIboEEfhg7sFp2DWjZGtzXVMoDh2l7X2HAsxktuxHX6bR0OVojnubsf5/vHstgPHI+WqTdaxz2cTevMvoucLnaWW3dG+pK6Jqr8qpkAx3j3hw6CDoG2hGrFGAewLoRoKtlQBDKvNJyH3YEvHOoanQuPQKwr/bXnrPns6y33gLMxf4KaDbFHkv8HnZocAKc4lVmNEdgJ7f0IxLUG9oLeC1Wrcf7SFtXaONftqmuc+aOiFc9xna/yG5oAn/jrMd3PiyHiv7iq2Zq/NdPyTzI0xJktRE78fQm8Y9BANZIDMBAVHRMBfwQ2QjI6Apw73iMeqwa7Eo04uRoaElUbsssafo5ntjOiKq/Wy+l88seYv4fu/6itsGxF5+Y+haVvuiyamXG+/2KXmfbOSw5Abxp6LwLuCWyHLOkMMKBwF2hnaCxUScblgln3f1dSpWOva7HowQmYgXCAE2KvS5VXIM6bf/4fSzvX9i++vdYlZUQvdvYuhjr1Vg6Ayz+Z8hKB0ghsiMs4fNBfm5eWPPKrvocSL4q81GookE5AY8Ol5nnfqobmJLENnd3+DPiL4cm/fdY8a73kDqyTSR/ZmbEL42joNmc5DpKRHIBBwOiwCMRAYBTK5DoEXLWQAYYcc+frVt2vPB+1YW9bOxNyHoAUdUPiLK+ucca0onnnx1mHaiw7tif/tg5ruegW67jr8TCwnoZMLw8j4/55ygHoT0SfRSC5BNZH1egQjIPoHHBWAnsTBlOQ/98LkC+nHs2BZA4IZJbNnIqnVfakBPm7OKhJdWTBJ35u7kMnIErjOH/LWddbfiHjYp1bKNP9BqulvoiDkdFxEah8AlzHgM7B6O6msAeBC9nw/33PsQzevwvqMUYbPw1xDwWZYwJ1y2YeXSwWr0O2IwbMGlvVFp9rtOKK1eaNXs+8Hd5jhk2GZH0JcGe/uqbWyG/+7bc9am3o8i+Gs6Xwj9DKqX1bGu4nOQDh8lXuIiACItCHQGZ5w75ewe7EwY17ThTxVFm4dLYV7sYeL9iz/h3DJkPeAbtY+ttHmLcrR4JkaYy312F3PcOUv6iMAX4tP5jlen5/7+qzy59d/5GaHIBIcaswERABEcBawS9fvRP2DpgNFtsW5jxp+dOvNuNNbTBLeZaacoClz/50TfcIZPDkne3tIA3Gy+Hxjj88Ya0/vdOKK0NbBDO2OBs5AA6/KMpKBERABEom8OKN66fvm/un/Dcb9rNcobRkGBZInzPZUsd+EAM5tfPzzUj/LBwkPv1HZYVX/2utfOqfz7V4QrOfIOdzQst9mIxr5xs0DAidFgEREIGICTAOgLEWDOgsy7y9x1v64inmbbdZWekq8eKuYD+O95foJAVtJCL8234319qvus+KQ/XKBCuH4xdnQT8Llk2w1HIAgvFTahEQARHwS+AUJJzuN7HVZSx1wkGWPuUQsw24T1P1WbotZ9kW3PyjGO5HLwM38Gm7DLEYr68ME2YHMj8JuibMQkrJWw5AKZR0jQiIgAi4J3A3ssTdO6CNXMfSX/2opb5ysNnIgScXBCwh8uQelp3INkXX5c9u/rYr5lj+n6+E3VbOsjkKuj/sgkrJXw5AKZR0jQiIgAi4J7AIWXLRJze24UhLn/pxS33pw5hkWOcmzxhy6Zri1xZJl3/uiZe6bvxPL46ipfQuDoX+GUVhpZQhB6AUSrpGBERABNwTWI4s3Q/ijxll6eM+gkDB/c026r3Eg/sGOM0RXfCZ1o7wo/yxcFDuwWet7boHLb9gidMmDJHZozg3GXptiGsiPyUHIHLkKlAEREAEOgn8Df9y98hwrD5rqSMmWur4A83bZctwynCUa7oDY/3N7aE+9TOgr+OPf7f26/9qhVfeclTzkrJhnMfpUK8FHkpKF/pFcgBCR6wCREAERGBAAhfj6LkDnnF80Ju4naXYK3DwBDM4BkkxLuObbQl3rJ/j+u23zrfcvU9bEXEFERp39DsZuj7CMssqSg5AWbh0sQiIgAg4I8Dxf04yj+6OjIDB1CHvs9The5r3QWxGmUk7a0y5GXFBnzQURoR/YdkK68ANvwOLLBVejKXXnX/Xz0ELyuUS5fVyAKKkrbJEQAREoC8Bbg7EDWCiN0wdTB26h6UOgzMw8b1wQ7gtRPjGxXz41O96E5/C4jcsN/c567hvQRTR/EOBugon2eXfPNRFSTgnByAJfwXVQQREoFYJpNDwG6BjYwWwbj2cAAwT7LejeftCO2FtIiw/7NLSHXnL4Mafwi5+Lqy4utnyTy6y3LyFlnvkeePKfTHbCpR/IsR9HirC3P6FK6LJqqQIiIAIJIoAf4f5xHghlIyt/zClMDVpvHm7b23ezlt0OQQbczfq8i3FAD9E93N6n2/DKoCFl9+yPHZKZOR+7qnFVlj8ulnEWwEPUf87cO5rUCzjDUPUa8hTcgCGxKOTIiACIhAZgXEoibvCHRZZieUUhOmF7BnodAi2GWve2NFm797AvM02Mluvvl9ORUu34Ym/rb2sJ35uuMPxez7NF5evsDy69TmGn1+Emz2W6E2g8Yb/dej2BNZt2CrJARgWkS4QAREQgUgJfAql/RIqe4+ASGvZuzAEF3qbwRnYBE5CfcY8BBd6cAq8NF7XX6f3lVZcg+B4LO3LaXm84b8jbLlbxG5/FWIcx2iAzoZWVkidVU0REAEREIEKIMChgGkQ561xJXwpOQwex99jEiQTAREQAREQgdAI7Iac50ByAOJn0Ii/A4M11XMOCDIREAEREIFoCOyHYh6C5AhEz4DR/VOhZARooiIyERABERCB2iNwEJrMLmg5AuEzWAPOP4YQ7SgTAREQAREQgfgJsAuagYLPQHIE3DPgggIXQRtCMhEQAREQARFIJAEODcyCOEdOzkAwBkvAkFH9oyCZCIiACIiACFQEga1Ry59CfHqVI1Aeg7lgdgyUgWQiIAIiIAIiUJEE1kOtT4KeguQIDM7gTfChwzQekomACIiACIhAVRHYAa2ZBnFnOjkDXZvz3AoWk6E6SCYCIiACIiACVU9gAlrIiPalUC05A61o710Q5++PhGS9CGhBg14w9FYEREAEqpwAf/P3gA7sFoMI+67ViwMVbotR/3u69Re8NlV4e0KrvhyA0NAqYxEQARFIPIERqOE+UI9D8AG8Tye+1n0r+DI+PgLNgx6AXoBkJRCQA1ACJF0iAiIgAjVC4F1o564Qhwx2737dBa9JWQXvVdTlWegfEAMdeeNfDsl8EJAD4AOakoiACIhADRFgj8D20G7QttDmEHcqfE/3+zF4dWlvILOl0JLuV75/EeJNn8vyyhwRkAPgCKSyEQEREIEaJcBhBDoDG0MMtGNMAY+xN4Fz67mUbu97zSp85na67dBKiDf1Hv0H7/OQTAREQAREQAREQAREQAREQAREQAREQAREQAREQAREQAREQAREQAREQAREQAREQAREQAREQAREQAREQAREQAREQAREQAREQAREQAREQAREQAREQAREQAREQAREQAREQAREQAREQAREQAREQAREQAREQAREQAREQAREQAREQAREQAREQAREQAREQAREQAREQAREQAREQAREQAREQAREQAREQAREQAREQAREQAREQAREQAREQAREQAREQAREQAREQAREQAREQAREQAREQAREQAREQAREQAREQAREQAREQAREQAREQAREQAREQAREQAREQAREQAREQAREQAREQARKJ/A/JC8bXkVxDs4AAAAASUVORK5CYII=;" parent="1" vertex="1">
                    <mxGeometry x="165" y="160" width="50" height="50" as="geometry"/>
                </mxCell>
                <mxCell id="19" value="API - Gateway" style="ellipse;shape=cloud;whiteSpace=wrap;html=1;" parent="1" vertex="1">
                    <mxGeometry x="670" width="120" height="80" as="geometry"/>
                </mxCell>
                <mxCell id="24" value="" style="shape=image;verticalLabelPosition=bottom;labelBackgroundColor=default;verticalAlign=top;aspect=fixed;imageAspect=0;image=data:image/png,iVBORw0KGgoAAAANSUhEUgAAAgAAAAIACAYAAAD0eNT6AAAKo2lDQ1BJQ0MgUHJvZmlsZQAASImVlwdQk9kWgO//p4eEFghFSugd6QSQEnoo0qsohCRAKDEGAopdWVzBtaAiAhbApSq4KkUWFbFgYRFQwL4gi4K6LhZsqLwfGIK7b957887Mzfnm/Oeee86de2ZOACDjWQJBKiwNQBo/Qxjs5UqLjIqm4cYABGCAB9bAmMVOFzACA/0AIvP67/J+APFG5LbJTKx///5fRYbDTWcDAAUiHM9JZ6chfAZZT9gCYQYAqCLErpWVIZjhNoTlhEiCCPfMcOIc/zHD8XP8cdYnNNgNADQJADyJxRImAkBSROy0THYiEodER9iMz+HxEU5C2CktbSUH4WqE9REfAcIz8enx38VJ/FvMeHFMFitRzHO1zArenZcuSGWt+T+v439LWqpo/gxdMFOA0DsY0UTkzu6mrPQVMz9+acA88ziz/rOcJPIOm2d2ulv0PHNY7r7ivalL/eY5gefJFMfJYIbOMzfdI2SehSuDxWclCN0Y88wSLpwrSgkT25O4THH87KTQiHnO5IUvnef0lBDfBR83sV0oChbnz+V7uS6c6ymuPS39u3p5TPHejKRQb3HtrIX8uXzGQsz0SHFuHK67x4JPmNhfkOEqPkuQGij256Z6ie3pmSHivRnIg1zYGyi+w2SWT+A8g3AQCSyAJUBeZwZ3dcZMAW4rBWuEvMSkDBoD6SwujclnmxrTLMwsrACY6dO5Z/D27mz/QVT8go2P1EzvQ/rBfsEW+xCA01QApHwXbPrHkXZB3m57FVskzJyzoWd+MEhWUkAOKAE1oAX0gQmSmw1wAC7AA/iAABAKosAKwAZJIA0IQRZYBzaDXJAPdoP9oBgcARWgGpwAp0AzaAMXwVVwE/SAfvAADIFR8AJMgPdgCoIgHESGKJASpA7pQEaQBUSHnCAPyA8KhqKgOCgR4kMiaB20FcqHCqBiqAyqgX6BzkIXoetQL3QPGobGoTfQZxgFk2A5WBXWhRfDdJgB+8Kh8HI4EV4FZ8M58E64CC6Hj8NN8EX4JtwPD8Ev4EkUQEmgqCgNlAmKjnJDBaCiUQkoIWoDKg9ViCpH1aNaUZ2o26gh1EvUJzQWTUHT0CZoB7Q3OgzNRq9Cb0DvQBejq9FN6Mvo2+hh9AT6G4aMUcEYYewxTEwkJhGThcnFFGIqMY2YK5h+zCjmPRaLpWL1sLZYb2wUNhm7FrsDewjbgG3H9mJHsJM4HE4JZ4RzxAXgWLgMXC7uIO447gKuDzeK+4iXwKvjLfCe+Gg8H78FX4ivxZ/H9+Gf4acI0gQdgj0hgMAhrCHsIhwjtBJuEUYJU0QZoh7RkRhKTCZuJhYR64lXiA+JbyUkJDQl7CSCJHgSmySKJE5KXJMYlvhEkiUZktxIMSQRaSepitROukd6SyaTdcku5GhyBnknuYZ8ifyY/FGSImkqyZTkSG6ULJFskuyTfCVFkNKRYkitkMqWKpQ6LXVL6qU0QVpX2k2aJb1BukT6rPSg9KQMRcZcJkAmTWaHTK3MdZkxWZysrqyHLEc2R7ZC9pLsCAVF0aK4UdiUrZRjlCuUUTmsnJ4cUy5ZLl/uhFy33IS8rLyVfLj8avkS+XPyQ1QUVZfKpKZSd1FPUQeonxVUFRgKXIXtCvUKfQofFBcpuihyFfMUGxT7FT8r0ZQ8lFKU9ig1Kz1SRisbKgcpZykfVr6i/HKR3CKHRexFeYtOLbqvAqsYqgSrrFWpUOlSmVRVU/VSFageVL2k+lKNquailqy2T+282rg6Rd1Jnae+T/2C+nOaPI1BS6UV0S7TJjRUNLw1RBplGt0aU5p6mmGaWzQbNB9pEbXoWgla+7Q6tCa01bX9tddp12nf1yHo0HWSdA7odOp80NXTjdDdptusO6anqMfUy9ar03uoT9Z31l+lX65/xwBrQDdIMThk0GMIG1obJhmWGN4ygo1sjHhGh4x6jTHGdsZ843LjQROSCcMk06TOZNiUaupnusW02fTVYu3F0Yv3LO5c/M3M2izV7JjZA3NZcx/zLeat5m8sDC3YFiUWdyzJlp6WGy1bLF9bGVlxrQ5b3bWmWPtbb7PusP5qY2sjtKm3GbfVto2zLbUdpMvRA+k76NfsMHaudhvt2uw+2dvYZ9ifsv/LwcQhxaHWYWyJ3hLukmNLRhw1HVmOZY5DTjSnOKejTkPOGs4s53LnJy5aLhyXSpdnDANGMuM445WrmavQtdH1g5u923q3dneUu5d7nnu3h6xHmEexx2NPTc9EzzrPCS9rr7Ve7d4Yb1/vPd6DTFUmm1nDnPCx9Vnvc9mX5BviW+z7xM/QT+jX6g/7+/jv9X+4VGcpf2lzAAhgBuwNeBSoF7gq8NcgbFBgUEnQ02Dz4HXBnSGUkNiQ2pD3oa6hu0IfhOmHicI6wqXCY8Jrwj9EuEcURAxFLo5cH3kzSjmKF9USjYsOj66MnlzmsWz/stEY65jcmIHlestXL7++QnlF6opzsVKxrNjTcZi4iLjauC+sAFY5azKeGV8aP8F2Yx9gv+C4cPZxxrmO3ALuswTHhIKEsUTHxL2J40nOSYVJL3luvGLe62Tv5CPJH1ICUqpSplMjUhvS8GlxaWf5svwU/uWVaitXr+wVGAlyBUOr7FftXzUh9BVWpkPpy9NbMuSQgahLpC/6QTSc6ZRZkvkxKzzr9GqZ1fzVXWsM12xf8yzbM/vntei17LUd6zTWbV43vJ6xvmwDtCF+Q8dGrY05G0c3eW2q3kzcnLL5ty1mWwq2vNsasbU1RzVnU87ID14/1OVK5gpzB7c5bDvyI/pH3o/d2y23H9z+LY+TdyPfLL8w/8sO9o4bP5n/VPTT9M6End27bHYd3o3dzd89sMd5T3WBTEF2wche/71N+2j78va92x+7/3qhVeGRA8QDogNDRX5FLQe1D+4++KU4qbi/xLWkoVSldHvph0OcQ32HXQ7XH1E9kn/k81He0btlXmVN5brlhRXYisyKp8fCj3X+TP+5plK5Mr/yaxW/aqg6uPpyjW1NTa1K7a46uE5UN3485njPCfcTLfUm9WUN1Ib8k+Ck6OTzX+J+GTjle6rjNP10/RmdM6WNlMa8JqhpTdNEc1LzUEtUS+9Zn7MdrQ6tjb+a/lrVptFWck7+3K7zxPM556cvZF+YbBe0v7yYeHGkI7bjwaXIS3cuB13uvuJ75dpVz6uXOhmdF645Xmu7bn/97A36jeabNjebuqy7Gn+z/q2x26a76ZbtrZYeu57W3iW95/uc+y7edr999Q7zzs3+pf29A2EDdwdjBofucu6O3Uu99/p+5v2pB5seYh7mPZJ+VPhY5XH57wa/NwzZDJ0bdh/uehLy5MEIe+TFH+l/fBnNeUp+WvhM/VnNmMVY27jneM/zZc9HXwheTL3M/VPmz9JX+q/O/OXyV9dE5MToa+Hr6Tc73iq9rXpn9a5jMnDy8fu091Mf8j4qfaz+RP/U+Tni87OprC+4L0VfDb62fvP99nA6bXpawBKyZkcBFLLghAQA3lQBQI4CgILMxcRlc3P0rEBzs/8sgf/Ec7P2rNgAUNEOQJgLAAGIPopoPWTJIp8CER3qAmBLS/Gan3ln5/PZ2YSH/B3oQCYH6M7bLDr4h8zN7t/l/U8NxFH/pv8Fs6EAusMweWQAAAA4ZVhJZk1NACoAAAAIAAGHaQAEAAAAAQAAABoAAAAAAAKgAgAEAAAAAQAAAgCgAwAEAAAAAQAAAgAAAAAAKDCXvwAAQABJREFUeAHsfQd8FVX2/5ESICQhJLQEQgm9996bBXtddV3LukV3/f12dZv+V9ftuvvbda0rurZVFCwgUqRI773X0EMJISGEEEJICP7Pd8xDEl6SmXNn3sy8dw+fy7w3755bvjOZOffcU64iTRoBjYBGQCPgNALx3EFTLklc6pcWnKtXQYnl8wGK4Q81A19KjzX4iDrFXPK5FHE5y6WQy7nSgs+Bc1n8GSWbS8ZlnzP58ykumiIQgasicM56yhoBjYBGwE4E8IJuy6UNF7zkm3FpwiWFC174OBfNxasEIQLCwSEu+y4r+0s/H+ejpjBEQAsAYXhR9ZQ0AhoB2xGoxS225xJ40eMYKHjJhzNBixAQDLbx542l5SAfNfkYAS0A+Pji6aFrBDQCjiAAFX1nLr1LSyc+duECIUDTtwjk8cetXNZz2c5lB5e1XM5z0eQDBLQA4IOLpIeoEdAIOIYAVPUDuPTn0o9Ldy6JXDTJEChgthVclnBZxGUNFy0QMAheJC0AePGq6DFpBJxHAMZnDbngZRcodUq7hXFa+WdDbT6H38sbnQWMz/CQx8MfhmcwQjvN5SQXLxmY1eTx9OGClz1e+igtuGhyDgHcC6u5LOayqPQzzmnyAALl/8g9MCQ9BBsQgHUw1JVxVbSVy7/jgX6minr6Z38hkMDDbc0FRmmBYyp/DrzocYQVeSjoIneSU1ogEAQ+43iCy+HScrT0CAHCLsIce3MZyWUElyFc6nLR5B4CEBSXcplWWg65NxTdsxYAvH0P4AEGS2KUxqWlAR8bcWnCBSs47FdiZYZVG1760gccpHI8fLGvB6EAwgEe2HAbKn/M4nOZXPDw1sIDg+AS4Zr35QLVdWcugRc+BAC/Eu6tI6UlnY8ou7ns4gKrdNyblREEnnFcruUylAuEYU3eRWATD206FwgE67l8zUVTiBDQAkCIgK6km2r8WyqXbqVHfMZDDEeoJ6G29DJBUMADG5L85Q/ug/w9jYt2IWIQbCAIdz244GUfeOm348+R9DeMlz+EAAgDEAoCgkE0f8ZLH6U9F03+RABaIAgDU7gs4FLCRZODCETSw8NBGE03jdU5jIzwssfDHMeuXOBHHK4EjcIeLhAGAgXf8fDGb5qCIwDBEOprrGRRsHcdxUWTRiASEIAw8CGX97lsj4QJuzFHLQA4i3ocN48V2xgu2H/EQxwrOU3fIJDBB/xx7+AC9R8+o2ArIhIpkSc9igvulxu4JHPRpBGIdATwfIAg8B4XbD1qsgkBLQDYBGRpM1BF4uF9HZdhXDpy0RgzCBaoiOtCCFhXWtbycRuXqvZ+uYovqQ2P+m4uN3KBgIiVvyaNgEbgSgTwDJjF5R0uM7joLQIGQYX0y0kFvW94W/Lhei5YsY3gUpuLJnsRgEZgMxcIBau4LOGSzsWv1JQHfg8XvPih5tekEdAIWEMAtiCvcoEwAJdTTQIEtAAgAI1ZWnL5LpfvcMEevqbQI3CIu4QgAJcilF1cvEw1eXAQEh/mgj396lw0aQQMBOLj4ykhIYFq1qxJMTExFB0dTbVq1aJ69epRtWrVyqB01VVXEeoXFRXR2bNnLx3Pnz9PBQUFFDgWFhZSbm6uca5MA+H15QxP5z0uL3PZy0WTBQS0AGAerASueieX+7gM5qKxYxA8RNgbXMYFwgAEgy1cvKAixGr/US4/4AJXTk0RgABe5CkpKZScnExJSUmXCr43atSI6tevb7zw8dLH5/IveTshglCQnZ1Nx48fp6ysLONz4PuJEydo//79Rjl27Jid3Ya6rYvc4UwuL3GZH+rO/dqffolVfuWAz2gueIBj9aatsBkEnxA8DCAQLOYyhwu2EEJJg7iz/+VyGxes/jWFGQJ16tSh1q1bU5s2bYwjPgdKixYtqEaNGr6a8blz5y4JA/v27TM+7927l7Zu3UpHjhzx01xgUPx7LrAT0FQJAloACA5OLJ/GHu3/cOkSvIo+6zMETvB4IQzgoTCdi1MhauHt8RsuEBg1hQECsbGx1K1bN+rRowd1796d2rdvb7z0sZqPFILGYNOmTWXK7t276cKFC16GAEL/X7h8xkUHGApypbQAUBaUNvwVq7YHuMCFT1N4IoCtARgTwqJ4NpeNXKBClBL+jm7h8gyXntJGNJ/7CDRt2vTSix4v/J49e1JqaqqjKnr3Zy0bAWwMtmzZQsuWLaPFixcbx5ycHFljznKt5Oaf5fKVs934r3UtAHxzzRBR7Wku93LRxlnfYBJJ/0M7gG0CaAe+5JLPxSzBoO9PXPqYZdD1vIFAVFQU9enThwYNGkRDhgyhgQMHGvvz3hid/0Zx8eJF2r59uyEMLFmyhJYuXWrYHXhoJst4LL/jstBDY3J1KJEuACBsKF78UPfrF7+rt6JnOofL4Vwun3OZxqWiJU1f/u2fXIZy8TxdbojWsGFDwyitcePG1KBBA6pbt65heQ6Lc1ifY287QLA2h9U56OuvvzasyvH59OnThAd+fn6+UWBtfnmBsRkMzI4ePWoc8Rn13SQY2w0ePPhS6du3L9WuXdvNIYV93xAIZsyYQdOmTaNVq1a5fg+UAv4FH3/BZV/YX4AqJhipAkALxgV7Q/DD9s2LHysWPLSbNWtmrFRwxP4kHtJ4eONzoMTFfbuDUb16dbr8O1R3MPgB4aGMh3lJSQnl5eUZnwMPdRwDVsOBIyyJz5yB501EEDY4F3GBMDCVC8ykYdX/Vy7f4+Kpvx+4j2GvumvXrlcYpuEl7ybh/sK9c+DAAaMcPHiQUGBstmPHDuM+s3t8uO+hxh8zZoxRRowY4TvDPLsxcbO9kydP0oIFCwyBYOrUqcbzxsXxnOe+IcDjb/msi+NwtWtPPcBCgASegk9ygfT37TInBB2b7QJ7kLAqbtu2bZkjVnBYuXmB4GcMlyGs7g4dOmQcYSWcnp5uPNzxUId/cpgRlq/ruHTm4u7bFAPgF/qAAQOof//+xksOLzpYoDvpTsbdOkbYO961axft3LnTsDrfuHEjbd682RBIrXSKv5GbbrqJrrnmGuOlj1W/Ju8hgEUIhIGPP/6YpkyZYmiRXBrlUe4XRrsfcfnapTG41m2kCACY5x1c/o8LVv+uE1yEOnbsSL169bpU8BDHKi4cCKs9uBCh7Nmzx9gb3LZtmyEguK0K9iO+0PIMHz6chg0bZuxX477xm5uZVdyx5QAf9Q0bNtDq1asNFfL69esJL4/LKTExka6//nq68847jRc/fPA1+QcBXM/p06fTBx98QLNmzXLLs2AtI/a/XGAcHDEUCQIAsu6N59LfzasK1TwMjaCGxEMcL/tI3H+EZgAqX1gPQyBAgZ9xZmamm5fHk3136dKFxo0bZxTsXYf7C9/MRUD0OwgEK1asoFOnThn7+WPHjiWo+zX5HwFoFj/88ENDGMBzIcQELd/LXH7LpSDEfbvSXTgLAFgGPMHlj1yiQo0u9uvxsh81apRx7N27t36AV3IR4GcMoQBlzZo1tHLlSmOPuBKWsPwJVun33nsv3XbbbYRgMpo0ApGKAJ4DL7/8Mn366adGuOMQ4nCA+3qYy8IQ9ulKV+EqAHRjNN/l0iuUqMKCevTo0YYq8sYbbzSM80LZf7j1BavydevW0fLlywmqX/gbY9UXbtSuXTvjpX/PPfcQPmvSCGgEvkUgIyODxo8fT2+88UYoNYVf8wj+wwX2Ylbcgr8duA8+hZsAgJX+s1x+zaVGKPCHMdbtt99uvPRhbRyJav1Q4Iw+YEmO7QO4E0FDsGjRIsOmIFT929kPNEQ333wz/ehHPzKExoCrnZ196LY0AuGEAIyPJ02aZGgFsA0UIoKr4Pe5LAlRfyHtJpwEgBaM3MdcQrLXD5X+/fffT/fdd5+R1COkV013dgkBrA6gGZg3bx7NmTPH8Eq49KMHP7Rs2ZJ+/OMf0/e//30ddMaD18fLQ8orgOcar2yqV6PoWpFt6Lhw4UL6wx/+YAQdCsE1g23Aa1zgLXAuBP2FrItwEQBGM2IfcWnkJHKwNn7wwQeNh3enTp2c7Eq3LUQgLS3NcC/CAwIaAgSg8QLBoO/Xv/41Qc2vjfm8cEVCO4ai4hLKyMmjnDPn6NQZzs53uoBy8/H5HOUVFNLZQk7te44LH/NRSl/2hcUXCLxVUXTtKKpVszoLBlFUt3ZNiqpZg6L5iO9x0bWoQb26lBAbTQlxdYzP9WP5GFeXYvk3PxP+zp999lkj6mAI5rGT+7iTy/YQ9BWSLvwuAMD095nSUs0pxGCM9eijj9IjjzxiBNxxqh/drv0IYMsALkbQEEAgCHXyEsSSf/zxx+m73/2ub3307b8q4dciXtJHT56mjJNnuOTRMS6Bzxk5Z/iF7824GLVYUEhpVI9SGsYbx2bGMZ6aNaxHjevHULXSKJBev2Lz58+n3//+94Y20OGxwh7gx1yw4PQ9+VkAaMjof8hlrFNXARHVfvWrX9Hdd99N2rfYKZRD124gEhmEAYQmRawCpwgR+Z577jnDhc+pPnS7oUcAL/r9GSe55NDeoydp77Fs2n8sh47zSz7cKIo1Cm2aNqAOKQ2pQ/NGxhHfcd6rhL/t//f//h+tXQu3fkfpA279ES6+dhf0qwCAjGszuDiSjxMv/sDDWxtnMcphSDAohCHhF198YUQiQ8AZOyglJYWefvppevjhh7Vvuh2AutjGGVbDb91/nLYfyqQ9R7KNl/2RLORAgIF4ZFL1atUoNSmB2jdvSD3bJFOvdk0N7YGX0ECgsffff98QBGAj5CBt4rbv4rLHwT4cbdqPAsAYRmQyl2+D3dsEEfJ7Yz9JP7xtAtRHzWCrAP7G2C6Ay6FVgjfIM888Qz/72c+0J4hV8Dxav7DoAs1ctZM+mr+JDmWGn/upXbAnxkVTz7acRrl1MnVvk8SagkacQMqu1uXtIOjYP/7xD3r++eeviB4pb/UKzjw+8wMun17xiw9OeOAyWULpdq49gYutKbwQpQ+q/ieeeMKIsW5pRLpy2CEAQ8LJkycbLkcITFQVIfY8Apb4JXAPVrCnSg3QTuadZWO0b4zQCtj4DC+9c0XFlM8GaQjFezlBGxZTJ8o4FRf9zZ8gvsOQLKZOLeMYy8f4mNpcPJlq4/LpmP58kXFYse0QTZi3gdbtPmKaL1IrNq4fS0O7taTh3VOpd7tmFFXD3S0DhCP/xS9+YWz7OXRN8Ifydy5PcSn7R+NQh3Y16ycB4Gc86Re42GrsB6vsf/3rX0aWPbtADWU7eGAb1sT8QD9z9jxdKLlIBeeLqOhCyTcP8/PFxrnyY6rDbkRwJ8IDHIY+eKBXq4YjP8jr1jaOddmyONIJ6Uzhezxx4kQjc93leDRv3tx48cOf32uEvep9vFd9gPeqobY2SvZpOpadR3jpl3u32z78mvzQh6V5o/gYw/o8uUEsJSfWo6YN4iiZS7MG9Qj3oN9ow56j9PoXK2nj3mN+G7or44V3wqDOLQxhYHCXlsZzxZWBcKdz5841jLnt2u4LMg9oAR7g4htXQT8IABjj81wQ3Mc2grr/9ddfNzKH2daozQ1hRXaEH9jfWhV/Y1mcmZtPOXnfuBFBAHCKIBB8s6KrQ1DzNYyvaxwb1IthV6JofqDzg5ytheFiFAmEhDTYW4QwgFC9EByhPXKbIOztPHSCNu/LoF3pJ9g4LZtV1rlUwnuhXiUInRAE2rJRWeumidQmOZHaNmtg7CfjvvM6rd6ZTq9PW0XbDhz3+lA9Mz7YD/TvmELXD+hII3qksttijZCPDdsCTz31FL322mtGKnQHBrCK28SKwBv+x1VM0Ot/aRjfa1werWIepn+GGvOhhx6if/7zn54J1QsV48Hjp4wHt2FZzA/wvcdOGi9+p1dqpoGrpGLtqBqGIAAXIggEWN0ZR/6clBhL+MMPJ4KRkZtpd6Hl2cQrULyEcISRmhlfcT9cA1iYt05igYCFgs4tm1CvtsnUir/zn60naenWAzSeBYHdh7M8OT6vDgqaxzG929INLAx0Z9uBUF/fpUuXGvFcsD3gAMGi+AYuiBvgafLon9UlzLCv8qtL3xQ/wEL77bffJmQPc5Owat9xMJM27TtmlC28csOeazgSXv7QFGB1h9IOR171YfWnyTwCJ1njs3TLAVqx/SCt2nmYoB2KFII9ASzOYWgGgaBds4bGdpVX5g8hfeGmvfTq1BWUzpoXTdYQwGIBgsBtQ7twoKJoa8wKtQsKCgyPnZdeeskJbQD8Qr/DZZbCEB1n9bIA8GeePdIy2kJXX301TZgwgRo2RPiA0BP8hpfxamHZtoOEFz5WcZFMWAHgQQ6/YggFKFAFu6EW9Op1QOjXhRv30py1abQu7UhEu59dfo1w7/RggQAGZjA0a94o/vKfXftczFsxExdspre+XBNRAppdgMNY8Oq+nBhrVA9qx7EHQkVILf3AAw+QA9qAYp7D97nAcN2T5FUB4AlG6592IAZVLdyzfve734VUbQu1/vq0o7Ro0z5+8R+ko2yApalyBKAtgJagW2oSlybUrXWSoT2onCu8fsV9A9X+50u30VK+b/BS0VQ5AvBLhyCA0qllY9ej1yHqH7QBcCH0wxZe5ei68ysEvLtHdqeRPVuHZAvxzJkzRmIuGPzaTPAK+F8ur9rcri3NeVEA+B+e2ct2zA6x+7Hqv/baa+1ozlQbB47n0Ffr9tAM/uOHxbUmNQRgfNiZH+qIRBbwMw5HLQFixE9bvp0+X7ZdC4sKtwwMUod1a0UjuremPh3cdUHbygaC//fxYmO7T2FKEc3alO2Jvn9dH7phYMeQCAL//ve/DXdwZB60kSAE/JILvNg8RV4TALBnMpGL8rgQg33q1KkEVy2nCfux01fuNAqssDU5hwDUhF1aNaE+7ZtRvw4pxme4M/qVICR+8NUGmrZiB53nxC+a7EMALq3X9G1PNw7qRJ1aOJonrMJBQ6Mzg58NL09ZbrjrVlhR/1ApAkkJsfTQdX3p5sGdHBcENm7cSHfddZcTWwLY0v5rpRMN8Y/KL1obx4vwvsu4KFuBjBo1ij7//HOKi3PW0OzEqXyatHAzr9q2EcKGago9AkiL2oMNw/q1T6G+LBBgC8EPCUz2s5fHO7PXGdoiL7vrhf6KOtNja3YzvIkFgev6d+C4BKEPUgQNz98nLaJ5630bNdaZC2OxVRgPP3hNH7plcGdHDUEd3BL4G0/5SYvTdqy6VwSAJjzDNVxSVGcKyQ2+2rVqOZfmMo3jgk/gVdvcdWkRb8yner3s5ofFeF/WDiDoyCAubjzsK5sTksa8MX0VzVy9Sxv1VQaUQ79BW4R7A8LA0K6tHH2JBJvCAjbqfH7iIiOOR7Df9TlzCKSyQPfEHUNpQCdnNbxwF//Nb35DyB1iI73EbT3OBVsDrpIXBAC8qRdwGaSKxE9/+lMjMptTPtp4eL8zay1N5b3aSE4IonqdQsUPTUB7tibux8FHhnVLpa5sWOiWdgAaIliHf7p4S9j47IfqOjrVD9xT72aL81tYrYyIdaGi02cL6Z+fLKEvWQjUpIYA7D1+cdcwjjBZT62hSrhnz55N3/nOdygvz1abrle4SxgHukpeEADeYQQeUkXhT3/6k+HTqdpOMH6E2n37y7X02ZKt2io7GEA+OQcDMaz+YC0+oGPzkKQ1hRX4rDW76MXJy/Sqz6P3CdwK4YP+HbY6Rxz7UBGCCP11wgLKYq8BTXIEEHb6jmFd6dGbBjgmyCEnyI033kjp6enygV7J+Uc+9eyVp0N3xm0BAPH9X1SdLjL4/f73v1dt5gp+rPI/mr+R/jNzDZ2NoMArVwARhiew4hvCwsA17Hc8lFcRTmgGEPvh+YkLaQO7g2ryPgLYHhjL0em+O6an4XUSihFDG/DH9+fR4s37Q9FdWPfRqH4MPc7bAriGTtCxY8cIeT/WrVtnZ/M/58awJeAKuZmmqQfP+BMuSmN4/PHH6bnnnrMdPITkffz16YZlv/bFth1e1xvENc3jh++9/LBPiFW2Oy0zHwiO/52znn779mwjCU+ZH/UXzyIAi3383U/hGAzbOVJnqyb1Hc9zgTDaV/dpx4mTatNazjRYwveOJhkCWKTN37CXdnBobASJsjuZGfJ+3H///UZSsG3btskGeSXXNXzqIJfNV/7k/Bmll6/C8Goz72wuSQptGNGb4LeJ+P52ESL0wS3raX54Y89fU3giAGPB8Y/fSqkcZ95Owj3zi9dn0Bfs1qcf5nYiG9q2Dp/INbx74NaLXASIR+EU4fGFvAcje7bhLINHCR4DmuQIpPO1m7lqFzVh10F4f9hJNWrUMBKB5eTk0Jo1sFtXJry8kDdgK5eQG4W4JQD8H0/2Ji5iglHGf//7X1uj+8E16ycvTaXZa3frh7f4ynifESuD1352q+3hRuEV8lO+fw5z+l1N4YEAsirCzfdIVh6159DVsRxbwClC+mRkykPeB51cSA1l5FuBNgBZMhEzxE4jTyw4x40bx1Eev6bFixerDfQbbgQyuYXLSi4HvjkVmv/dEADG8NRe4yJeto8cOZKmTJlCkMbsotlrdtMTvHI7wal2NYUvAlC5vvTYTUa4YbtmCa3RXz9aQK9NXandQu0C1UPtwJBzD7v+woMjO++ssVqvw/EnnCAYtMFINYXzG6zcfkjfT4ogG9oA9rZo2SSBWjSur9haWXa8h6pXr04LFy4s+4PsG15mt3GZwyVD1oR1rlALAAmlExRH6GnRogXNnTvXtjzs2AuGS84rn6/Qf2zW7x9fccDI6x+P3GC4Bdo18MNZufTTFz+n5dsO2dWkbsejCMBGYAevKL9gN2AIAAhP7YTxKKaPjJkwUl3BQkC4ZgoN1WWGNgDaObjiInpotWritecVQx4+fLiRYG7WLFuS/kG9dD0XJCQIyUo01AIAXP7E/v516tShOXPmUJs2bbgZdULSjv955QtO5blPvTHdgucR+M09Iwyrf7sGupmzOv7kxakcu99W/2C7hqfbcQiB88UlhsCHqH5YVSKdrROUyG6r2BKAHYK+x9QR3sa5GVbuOMTBg1pQbB37tnL69etHycnJNHPmTGNbQHGkWBwP4TKBi+OxwUMpAIzlCSEMopjefPNNY+9F3MBljIjB/si/Pmer3+zLzuqP4YrA98b2MmKJ2zU/rCh+9cZM7R5qF6A+bCc3v9AI5oMXdPfWyRRj40slAAe2rK7t196IPwKBU5MaAlm5Z2kOb/ci3bCdglvv3r2pVatWNG3aNDuEgGY8y1ZcPlebbdXcoRIAsGH2BRdxkucnnnjCCMlY9ZSqrgFXn0f+NYUytJV/1WCFQQ1EAXzm/tG2eYu8OWO1keWtpES7bIXB7aE8BRgKTuUsjnVqRRnpiO30SsLgsM3QnwNXwaoddgHau0Ttkp3jLQHYfOE69WzblI9q7QW4u3fvbmwHfPnll4FTKsduzIwEM8tUGqmKN1QCwBM8kHurGkxFv0PFMnHiRFss/texry0stXPZB1xT+CMASf9FNvpDFkFVgjHY/328iN6fu0G1Kc0fZggUsyEo9uvxfOnJyanq1YWns72EsNbwb1/EQYN05kg1bCG6r0s7QkjfjkBgdmUU7du3r2GcbpNh4EgeJuID7FabbcXc6k/FitsO/JLMHz7lItp0wb4/YjE3aqSeznP1znT6+avTCEYhmsIfAaSDfZ19/e3w4UZwnz9PmG8EiQl/5PQMpQggDgS0AXihdEtNsk3rFBgPtACjerWmFWx0mlegFzEBXKRHROuE0AYtoV2eHcOGDaOCggJasWKFdFgBPugmECNgJpfMwEk7j6EQAF7nAfeRDhrZmK6/HoaRaoTIXj/Dy1/nXFcD0ifcUOs998Nx1LVVE+URI13v796dq5O3KCMZGQ3gflmz67Bj2gBoF8b0bsMr2KMEQ2ZNaghkclp3GILDOBABwuygMWPG0NGjR2nDBmVtIbJUXcPlv1ywJWArOS0ADOXRvsAFkoxlGjVqFL366qvKUrQR4IddtbQ7jeVL4FuGB67pTXeNwDaaGsH16w//nWfsGaq1pLkjDQFoA+AyiJdKxxbqGszL8UNgm2s5j8Wu9CwdbvpyYISf89hFcM7aNOrWOomSWMuiSrAvwMIVIYN37typ2hwCGLTkMlm1ofL8TgsA8GdMKd+pme9xcXGG6r9+fbXgDZmnzhjW/oiupSkyEOjFhj1/eHCsLT7a//fxYiP9c2Qgp2dpNwIIEoWsfwdY1TywcwtbbFECY0TQIOQRwDMujQMVaVJDAHYVczgKLOI7NOdATKqEtPS33HILLVq0yI4sgl14PIe4bFId1+X8TgoAV3NHT13emZXPL730Eo0ePdoKyxV1Czg5xI/+OYWOZJ++4jd9IjwRiGP16Os/v80Wl6x/f7GSJszbGJ5A6VmFFAHsNSNuQDd2F2wYX9e2vhHUZnj31nT67DkjgZFtDUdoQ/CwQAjh1KQEzgGBuHVqhGi1yCA4efJkOnXqlFpjRMO5gfe42Lbv46QA8AEPVLT679GjB40fP17J6h8W2797by5t2HOUh6EpUhB49oExtoT5/Wj+JoIAoEkjYBcCUDPPWLWTotldsAvbptjlfoZ2BnPUwMKiYtKxAtSvFgx+52/cy1sBcbbkC4mOjibYBHz44Yd0/rzSNj4MFJpysW0rwCkBQGn1P2nSJCOogsqlREa/iQts1ZaoDEfzhgCBa3hP9Ec39FfuCSpb5GiHEKlJI2AnAni5IBpd2pEsGtK1pa1bAogVAFrPxoGa1BDA3/6SLQeoUf0YY0tArTUOgNOwISFOAN5tSCKkQF2ZdzGXgwptXGJ1SgAQr/6R5e+Xv/zlpQFKPqxn/87fv/eVKtCSrjWPSwg05LCpL/70JqrFkdNUCKpauIoi3KsmjYBTCBzKPEULeJWJl7ZdlucYK+IE1I6qSXB51qSGAF7TWAwkxEYbAZ7UWuP8Dm3bUlRUFM2fP1+1qU7cwNuqjYDfCQFAvPqHz//UqVMpPl5ugHGKc2k/whb/2P/XFBkIQAX6/I/GURtOoKJCyMP+yAtTjHSsKu1oXo2AGQROczCy2Wx53qG5vWFpu7Mle0ydKNY0aCHAzHWoqs7y7QeNKIwIxKRKQ4YMoX379tGWLVtUmsI2wHYuO1QaAa8TAsB/ud1vdFEWR/fUU0/RrbfeapGrbPU/fTCfkPRBU+QgMK5/B7r/6t5KE4bv9uOvTdfW1EooamarCHxjeZ5Gddmtr2uqesyKQP9dOQgRvATWcjwCTeoILN92kNqzoGZHSuFx48YZiYOOH1d6T3XgWY1XnZndAkBPHtBfJINKSEigTz/9lGrVEgUMNLpczCEyX5+mDbck+PuVB0FR/vWTG5WjeMHgbxbHB9ekEQg1AtgThl0A4gbAmM+udLU92yQbKc437j0W6imFXX+IB7Jo034jzHNSYpzS/OAZgDTC7777LhUXF0vbasyM67ikSRsAn90CAF7+EAIs029+8xu6+mrsHsgI6jSk9j13XgyorGPN5SoCT947kjOxJSmNAWFV/zZxESmZ5iiNQDNrBDjg++EstuI/RiN7trbNOLBvhxTtHWDTzQUtISIGDuJ4DkjVrEIwCoyJiTFi3Si0A037uwr8tgoAcJrEYGpaHRCC/iDZD2wApPSnD+Zp1b8UPJ/yIeDPL+4cpuROdYLDgD4GwZFdqDRpBNxG4NjJPFrGhmfDuqca2wJ2jKdfh+Z0Kr+Adhw6YUdzEd1G0YUSWsia5hE9UpUTPiFxEGzeMjPFYf4hACBlsLiBajZezQe5LdEb/LHHHiOViH8b2O0FYRw1RQ4C1TnK1lPfHan08oda7+l351Bu/rnIAU7P1PMIIF35D/8xmdJP5NoyVhjJ/vruETS2d1tb2ov0RnI4qizshVRDy1evXp1eeeUVVTh/rNKAXVsAECRg/Gc5dBKCJGD1X7euTKWCh/iT//mSsnRSDJX7wHe8dw7vRjcM6Kg07okLNuvsfkoIamanEDjDQYPmrksz3Poaxccod4PY9NAqbNqbQRmsZdCkhkBufiHtOnyCEHukGiQsIbVo0YJWrVpleAYIm2jHfC9zEakw7dIAYPO+jWQCP/7xj5VS/c5mwy2t2pIg718epPn90Q39lCYAP+zXpq5QakMzawScRMBwaf7XFFrL6WrtoCj2CnjhJzdQu2Zq7rJ2jCUc2ljFbpYvT1muPJVnn31WpY16zCxOl2uXBuAfPAi4JVgiJEtAeESp+h8uNL8aP1NZFWNp0Lqy6wg8dutg6tteFGXaGLvh8vfvGXol5PqV1AOoCgEkE5q/YQ91admEmjbEs16NIAQM65ZKCzjevaoKW20k4cG9df9xaqwYLTAlJYUWLFigkjAI7/FPJIjaoQGA2v86Seew+m/VqpWE1eBBvHa4zmiKHASaN44nqP9VaBKr/nWsCBUENW8oESgsukCP/3u64SpoR79IRvTSYzdRLGvSNKkj8NxHCzn8spqW5tFHH1UZyDhmjpU0YIcAcBt3HCXpHOp/KeGP4kOdqU0Kn2/5Hr1pINWoLr9tkTr1jemrfDt/PfDIRADazidYa7WI3dDsoNTkRHr+h9cRjGk1qSEALc1v355DeeyKLqXbbrvNyBcg5K/NfGMlvHZc/bslHTdp0oSuv168dUGfL9umrbclwPuYB3uXo3uJTE0uzfofHy+hAh0r4hIe+oN/EChmF7Sn3pptxKe3Y9TIQ/DzO4bY0VTEt5HNRugvfLZUjAMC4N1zzz1ifmYUaeFVBYBG3PEIyah/8IMfUM2alkMGGF1B4vpIr/4lsPua5xFe/atY3K7YfsgI5OFrEPTgIxoBCAG/fuNL27YD7hnVg24b2iWiMbVr8jNW7qQ1Ow+Lm7vjjjvEvMwIAcCyO4KqAHAnd2rZkBDGfw8//LB4snPW7qYMvfcvxs+PjMifPqyb3F4EATwQ7U+TRsDvCEAI+A0LAVv2Z9gylV99ZzghqJYmdQT+M3O1uJHBgwdTcnKylB8XsL1VZlUB4C6rHaL+qFGjqGXLlhJWI0f7+3M3iHg1k38ReOTGAUqD/2ThZjqafVqpDc2sEfAKAtjGQtrqNA4frEpIGvQ3zqaZrBjjXnUc4cCPvAub98kEMyyMr7tOpMkPQDc88MHsUUUAgKgi2kC6804oDmQEa8t9x07KmDWXLxHo2LwRDegkSjBpzBd5It6ZtdaXc9eD1ghUhEAeBwt67OWplJ6pHjGwfmwdI6U23AQ1qSHw4Tz5AlUlHw6PeqjVkasIADdzZ5b5Ef7wlltusTrOS/WnrVBOgXypLf3BHwg8eG0fpYG+NXMN4WGpSSMQbgjknDnHuSymEsLTqlKnFo3oF3cNU20m4vmXbT0ojrEwevRozgZp+bUawNyymlTcE/eI6H+WacSIEeLIfwhcsWDjXst9agb/ItC8UTyN7NFaPAGo/T9bslXMrxk1Al5H4Fh2Hv2c4wTYkQn19mFdaVx/yzHdvA5RSMcHe6MlW/aL+kxMTKR27dqJeJkplYuleABSAaAGdzRSMkoVS0cY/8H/X1PkIHD/1b2V8qO//eVagtGUJo1AOCOw42Am50SZRYhyqUq/vW8UtUtpqNpMRPPPWy9fqPbq1UuK3VXM2NkKs1QA6M+dWI5LCdXGzTdj50BGWv0vw82vXAlx0TRugHw1cjgrl2au2uXX6etxawQsIbB820H6+6TFlniCVa5VswY994NrKbq2KL5bsCYj7tza3YcJ7uoS6tmzp4QtwGMpTKpUABBFHRo6dCglJSUFBmrpuD8jh7azlKspchC4g9WRKkZJb81ca8uKKHIQ1zP1OwKTebvrk0WblafRonF9gnugJhkC2I6RemgoaAAw2K5WRiwVAET7/+PGIWSxjOZz8gpNkYMAXJNUApQgl/qsNXr1Hzl3jJ5pAIEXPl1KG/YcDXwVH28c2JGu7iPejxb3Gy6Mm/YdE00FAgDSNwvJcQ1APA+sr2RwsHCUkl0xsKX9a77QIjC2d1tqUK+uuNMPOFbExYtfi/k1o0bArwhA9fzkm18S8l6o0lP3jqSkBEt2Zapdhg3/Jo4JIKH4+HiVJHmOawBG8aRgBGiJMKkePXpY4glURtS/tCPqAS8C7emj9xG4a4QlQbbMhOASNXP1zjLn9BeNQCQhAPfAX3G0wKJiNQNYZAz8w0NXKxniRhLul8817Uj25V8tfe7UqZOl+pdVrs+fUUyRZAtgiKmWy1VC9D/EAJAQVv9f68WcBDpf8rRnC2SE/pXSJI76p/rgk/at+TQCXkEAngHPfbRAeTgIE/zgNWqxOJQH4cMGjp3MEz+HUlJSVGZsOq6zRACAB4BlUlP/y3wqLQ9SM3gCgVuGWPJkKTNmGN/AEEqTRkAjQDSdE9R8smiLMhQ/vrE/ISKnJvMIYAsSnkgSatrU9Ds8WPPNgp0Mds6qAADVv8hHARoACZ3hCG7SvRRJf5rHXQTggnRNX8s5LS4NGg88hP7VpBHQCHyDwAufLqENaWpGgdXZhfuZ+8dQjepWXxmRfRUOZZ4SAeBVDQAMDOpYnRGkmQ4dZP7cSK5gR3ALq2PW9d1BYHSvNhTH+45S0lH/pMhpvnBFAEaBT701i2AXoELtmjWghxTDcqv070feI1l5omE3a2Z6ER+sfdPMVsU5kfp/0KBBwQZp6hyS/2iKHARuGSxX/+Ne2a8TRUXOzaJnahqBk2wY+8f3v1K2pfr+dX0JgoAmcwjknJHlaPCqBkDk/te7d29zaAWppaq6CtKkPuVRBBrVj6EebcX5sG3Z6/QoNHpYGgFlBJCk5tPFakGCEJ/j2QfG6q0Ak1fj5OmzJmuWreZVDUC/ssM0961PH5kFKZL/7Nbuf+ZADoNaY1j9X00YACOb/9AWbdLGomFwG+gpOIjAi5OXKadTh5fOvaNFpmAOzsybTUPzIqE6depQrVrirVBH3ABjeCIdrU4GEY2kGoCNe4/qYC5WAfdxfZWoY4j5r21FfHzx9dBDggDcY596azadL76g1N+PbuhPyQ3ilNqIBGapAABsYmLwyhWRaUYrNgAwALTsyN+6dWtCECAJbdwji6Qk6UvzuItAE4421rml3Pd/Blv/a9IIaASqRgB2Mq98vrzqipXUqB1Vg568W5QQtpJWw++ns4VF4knVrSuOhGo6dKMVAUDkm9W3r8hswABt5yGd/Ed89/iMEat/ofaftuzPoAPHc3w2Yz1cjYB7CHzMwbKWbj2gNIBBXVrQqJ6tldoId2aV9PVe0wCI/Pik6n/cGLsVQimG+40VbvMbw7H/paRX/1LkNF+kIoDIqn/6YD7l5qu5Bv6SMwbqtMEV30WFRcUV/1jFLwoaANOqA8c1AN26yWK6H+f4/3k6oEsVt0h4/Ny0QT1xlDH4OM/TmSLD40bQswgpAsiZ8a/Plin12Sg+hh5m10BNwRGArYU0jL2CBqA2j6Zm8BGVPWtFABBpANq1k6WT3JV+ouxI9bewReCavnL1/9rdh7WgGLZ3hp6Y0wjMXLWTVu44pNTNvaN7UPPGMjsvpY59wIyXv1QLoKABADKmtABmBQCEAE61ijfcGKQBDXYfzrLana7vUwRU1P/z9erfp1ddD9srCPx1wgIq4BwaUkJsgJ/fPlTKHvZ8XwtVANU4/LICQQtQJZntAS//qCpbK1ehbdu2nEbSbBdlmXcflqdSLNuS/uZlBOBKJI0sBre/xZu177+Xr68em/cRQLr18dNWKg10WLdWNLBTC6U2wpZZaN1cUqKWytkMnmbfziL1PwQAKR3I0FbdUuz8xKfy0FjPCU5OKcY39xNWeqwaAacQQArt7Zw+WIWeuGsoIWmQprIIXFX2q+lvF3mBo0CmmM1eLdFGvnT/H2kUM3JkSRQUANOsLiAwqLN81aDV/y5cMN1lWCKAZ+6fPphHMKqVUqsmCXTz4E5S9rDlQzA8CSlqANj6oGoyKwCkVN3UlTWkGgC8/FVuxCtHos94EQGkFu3b3nTiqjJTwANr4aZ9Zc7pLxoBjYAcgb1HT9KErzbIG2BORAisU8uUAbpSP35iFr7/OQquXBhjfGwVAJpKAJcKAEeFKRQlY9Q87iHQvXWy2IcYYaLhxqRJI6ARsA+Bd2atpaxcWQIbjKJBvbqcJ6CHfQMKg5akGgBFAcCU9GBWA5AkuQ4tWsjUu0eyT0u60zw+Q2Bgp+biES/YqFf/YvA0o0agAgTgDfDq1BUV/Gru9P1X96b6sXXMVQ7zWrCJiGIvCQkpCgCmujQrAFjWAEDqady4salBlK90JCu3/Cn9PQwRGKiw/6/quxyGcOopaQRsQeDL1Ttp24Hj4rbq1o6ih66VZYAVd+pRxuja8u2QggIlDadtGgBYMFjWACABUO3aplwRr7h0R7K0BuAKUMLsRGJcNLv/NRTNCm5L6ZlaSBSBp5k0AlUgALf1v01cRBeF/uto/o5h3QhRAiOdVOwh8vKUDOFNSQ9mNAAN+CJajgGQnJwsvvaZp/LFvJrRHwgMYJ9hqXHMKsXIZf5ASI9SI+AeAjs5EuvsNbvFA4iqWZ2+d3UvMX+4MEYrGEQqCABIQWgqDaEZAcCy+h8XLynJstLg0jVXyaF8qRH9wdMI9O8ociwx5rRm52FPz00PTiMQDgi8MmW5UoTA24d2pYZsFBjJpCIAnDlzRgqdaUbHBIAmTeS53XPOmNJeSMHRfB5AoAd7AEgIask1u7QAIMFO82gErCCQdfosfThvoxWWMnWhBXgwwm0BpJkSYQB49qzYG8NWAUBkySfVAOSfK6Ki4pIyN5L+El4IYFWAEMAS2nXoBJ3WWSIl0GkejYBlBD6ct0Ep2dYtQzpTfEzkegQkxEZbxhwM+fn5KnEAbBUA6ktmINUA6NW/BG1/8XRvI1v9Y5ardqb7a7J6tBoBHyOABdn7CsGBatWsQXcO7+pjBNSGLhV+FPb/MWBbBYBYCQSJiYkSNtL7/yLYfMXULVW+PbRa7//76lrrwfofgY85T4DKc/nOEd0JgkAkUnyMzBPu1KlTKnCZtqI3YwMg0tXGxMhcQHR0N5Xr7g/erqkyA9GiCyW0dX+GPyapR6kRCBMEznFwoHdnrxXPJoGDAl3Xv72Y38+M0i2AjAyl55xpP3rHBIDYWJHiQO/v+vluNzF2rAQ6pMj8/7H/DyFAk0ZAIxBaBCYv2UbHTsr90r83thdVk/r9hnaqtvYmjYh4/Lg8EBNPwHRaR88JAIVFxbZeAN2YtxDo2KIR1RSGxtx2UOmPwltA6NFoBHyEQDEL3u/NXicecYvG9Ukl8qe4Y5cZ6wsNIE+cOKEyclsFANFSXqoBOHf+gsrENa/HEeihYAC4Zb8WADx+efXwwhiBGSt3Uja7BkrpPtYCRBo1TpBthStqAExLD57TAJzTGoCw/hvp0lLkVWpgslULAGF9b+jJeRsBbL9NYoNAKSH1d3vh9p+0Tzf5sOPRUBgOWVEAsFUDIDIClGoACgr1FoCbN63TfbcTPgBO5OZT5inT3i1OT0O3rxGISAQ+W7yFzhaaijIbFJ+7R0VOqmAYAEozASoKAO5rAKReANoGIOjfTVicjI2uRUkJInmSrf+1+j8sbgI9CV8jgLgAMAiU0phebUgaHU/ap1t8jevL1P8Yr5cEgFpWAaxRowZFRVnOH2R0A5cTTeGJQNtmDcQJgLYqpCcNTzT1rDQC7iCA6IDSaK3IjgchIBKoSYLIfM6A5tChQyoQmV4tmbEBMFOnzGCrV69e5ruVL4VF2gjQCl5+qtu2KRJLykglP7msR82lEdAIBEMAQYG+Wp8W7CdT524Y2NFUPb9XalxfJgBkZ2cboYCF80cMANOWmmZe7pbf5tWqmWk2+PRKvr4Y/Ad91vcISA2AkJZ8z5Fs389fT0AjEC4IfLp4q3gqPds0pZSG8WJ+vzA2bVBPNNQDBw6I+EqZDlphNvOmNlOnTJ8qAoB+/5eBMqy+YAtAQhkcgETF8EjSp+bRCGgEKkYAGrkdHJhLQrCOv35ABwmrr3hSGskEgIMHD6rM09LegZmXe0g1AF8TL/c0hR0C1apdRalJCaJ57TmqV/8i4DSTRsBBBCYvkWsBbhrUifBMCGdKaSTTciju/x+0gqkZAcBMnTJ9KmkA9Pu/DJbh8qUlRwKTJgTZe/RkuMCg56ERCBsE5qzdTXkF50XzacQW8n04LkC4UnXeBk9OlHk8KQoAtmsALKdxUhMAtAQQjn8UrYSrf2CxV2sAwvGW0HPyOQIw2J69Zpd4FiN7tBbzep0xKTGWalS3vHY2pqVoA2C7ABDaLQBYfGkKOwSaC9VhACJNGwCG3f2gJxQeCMxcJRcAhnZtFR4gBJmFyvNu9+7dQVo0feqg6Zpc0YyIYnmjRkUDcFG//61cP9/Ule6HnS++QIezcn0zTz1QjUAkIbD9YCYdPC7LXQ8/+TZNE8MSLunzrqioiEJpBGhGvW9GSChzEUtK5Clbw9wupAxOkfRF+geBh8tFLRVG0q2i5xpCBBCd8yo2y4+tEzzeWzE/yws5OFtle/1frt5FP7l5oGjUQ1gLEI42PlKD53379tGFC+JYOJDELFlMmxEAYOVR28rVLSwstFK9TN0ozhevKfwQkKrE0k/o1X/43Q16Rk4jACO0Fk3qUzP2RW/WMI7gk57ERmnxMbUpvm4dQp56vPytEPb8Ean19NlCOpV/jk6dOUcn885STYXAb9gGUEkzbGX8oazbOlmm2VBU/1veOzDztsXbPGQCgNRSPJQXV/dlDQHE/k6Mi7bGVFr7sBYARLhppshCAAJ273bNqDNn20TCLajWpYloKkKudlQNQoHw0JLqV1TN0vmurZpQvbq1DaHCEqPHK0s1AF4VACzBffHiRcJehiQfQK2alm0OLY1NVw49AikNZQExMNIjWYhs6T7hYYpVFIJ74BjHD616dWtRXHRt43ONctEvEdEy7+x5frCd43Kesjib4cHMU3QgI8dYObk/Iz0CPyOAF/Ggzi1oWLdU6tuhGUnDzrqNAWIB9GiTTIs373d7KLb1DxdHPB8k5EUBAFsAlgnbACIBgG9sTeGFgFT9DxRCrQFAlLIWHLOgU4vGxmoKqjy89BvFx4oTGZW/mnmsQkUUtQ17jtL6tCMEQ6oLJToEdnmc9PeyCOBlOaRLKyOKHl7+SKwTDgStRTgJAK2TZOp/XMtdu+ReFczu2BaA5fvs3LlzFBdnPRBCFGcS1BReCGDvUUpOawDgq9stNYlXUSnUvXWS8eKPqSPLZGl2jlgdDOjU3CjgKeB9VTwAZ6/ZTat3pmthwCyQEVIPKvdbh3Sh24Z2IZUMc16Fq2OLRl4dmmhcrYWeDV+zC/z27dtFfZYyWZYezLxtRRZ9UkPA2lF6C0DlDvAib5MEWV5sGBxls5GR3dS8cTyvpFpSvw7NqVe7phTt8koK/V/Xr71Rctm4atqKHfTR/E2Ufdr+uduNpW7POQSwN/6dkd3pu2N6Ul22owlXgsYtnEi6/w/3v7y8PCkUcL2zvI/iOQFAewFIr793+RrFywSAI9mnya64UO04EdHInm1odM/WlCq00A0FwvExdej+q3vT3aN60IyVO+m9OevoWLb4oRCKIes+bEagJtub3Mcv/Yeu6+u6cGrz1II2l8TxALD1ZtffetBOQniyQ3OZRmPrVnluBZ7eAS6WF+ueEwCia4WvpBvCe9BTXTUS5sU+nnNGaR5IOYqsY9fy6rqZgiGi0iCEzDA6hMr3hgEdDSEAgkBRsTy+hnAYmi3ECPRq25SevHekOHFWiIdrS3eIQxAuL3/83Uo1AFu2bFHBUyQ9OCYA5ObK/LcTeL9LU3gh0IStYiWUmZNvmQ3791f3accv/o7G3j5WFn6mKPaK+dEN/Q1B5i8TFtCaXYf9PB099goQgN/+w+P60g+u70fV/H7TVjDHik6Hy8sf82vDmkZpDgBFDcDmivCt7LwZAaCgsgYq+i0zM7Oinyo9n1hP5i9eaaP6R9cQgDozXijUZZ02LwC0apJAtw/rSjcN7hSWalO4Hr72s1vp/bnr6bUvVujoiK7d0fZ3DLex539wHXVjI9RIpOIL4aPZ6ihU/+O6KwoAIvWBGQEgS3JTigWAuLqS7jSPRxFoGF9XvKI5capyAQArpZG8p//d0T0j4uGJheED1/QmPGSefGsWxxmwvOXn0bskcocFdfHL/3NzWFr3m72qZ88Xma3q+XrtOQiThAoKCmjPnj0S1gDPpsAHK0czAoBoKS8XALQGwMoF9HrdBvXkAt2J3OBW8NAqQM3/4LW9CSv/SKN+HVPorV/eQY+9NJVOcIAhTf5EAG6n//rpTRxMylpIXn/OtuJRFxSGjwAgdWncsGGDSg4AGEsdrBjhin/xnABQn62gEfBCJ4Cp+KL56RfEHZcSouddTgh8csvgznTf2J6+jXx2+XxUPmPlCCHgJy997ploiSrziTReWIpj5R/O7n1mr2lRmGwBYGEizQGwZs0as3AFqwf1vyiPrmMCwPHjx4MNtMpzePnDFSonT2R6UGX7ukJoEUDyESkFVrcIe3ovq/nhGiUNsSkdg5f5khvEsV3ALfTg3z7R4YW9fKHKja0lJ+l5Rb/8L6ESLkaAbdkAUJp/Ye3atZfwEHwQGQCiH8cEAOkWAAYFq3EtAAAJ/xOEOQnBMAiBgMb0bkv/e9tgSlaIJijp3y88MA58idXIP3phMiFbmyZvI4AV/wuP3mgk1AnVSBFmOiMnj45m5dGxk3lGXgojox9n8ztdUGjcN8XsYoqVOOxMkN2vOkfIjK79TajhGB5zNfZSqMOCeCJv6SXERhvjx/YevLagta3P56TOC4iAFw7ULbWJeBpaALgMumbsv41Y6Zr8j4BUAMDL/6On7xWr1PyPnPkZdOJY6r+7fwz9v7dmm2fSNV1B4JnvjSZEonSS0jNzae3uw7Qz/QTt5OfovmMnHQ8vDde3X989wohdYXVuJRfDQwDo2krmxZGTk0P791sO4nc5zOL9A8c0AEePHhVnBPRb0JbLr4T+XBYB6RYAVP1eVffDaAlBijK4YCWFlTdKwJ0Jedax0sMKCrHbW3KoU+wPOkkwikSMgKnLtjvZjW5bAQEEdoJGy27CAnrTvmNGLomVOw65EjkSWob8czJjPmSPDQfqKtQAYPWvoAWBK5D4j96MAIB8rOe4WNLllpSUEGIbt2vXzvK1TeHc1prCAwGpAOCF2SNJz54j2ZR2JMs47j6cZWQnzCuwliATQV4g1CJHez9OOjS0ayuC77fd9MSdw2jd7iPaKNBuYG1oD+ry/7l1sA0tfdvEGb4PP1uylaYt30GHs2SB175tTf2T1JvhjFBwUB+xfS0kxEWLtykV1f9w/yuWzsSMAIC2D3DpZLWTffv2yQQAn4VttYpLJNWv46PQznjhb9pzjNbvOUIb0o4a21AlNqxO0MahzFNGmb9hLz1HCwn+wrcM6Uw3DepEtWqa/TOs/M5BUqE/PHg1/eAfn4ZNaNXKZ+yfX3951zCCZsgOwkr7o/kbaeKCTQQhwCsknV/+Oe/MQYpld84oKiVFAUDJetDsk2cvT86yALB3L9isk9YAWMfMqxyw4PcyQY2/dMt+WrLlgPHSD5VLErQJf5u4iP4zYzXdwx4OCGaEsL+qBN/ya/q2N9TBqm1pfnsQ6NEm2TbV/9KtB+ivHBI6y4OZImPryAQcLwkx0ive1T0BYJ10zOAz+3TeJ+kEGgAJJbI6JZr3UMMpQIQEh3DgqRP1jSWxl+aCCINz1qUZL0m8iN2kHLbEfm3qCpq1ehf9/oGxBIM+VfrpLYNowca9OnmQKpA28f+Q4/urEgTT5z9aaKSKVmkLxnrQFEGLcNFm6/sYoYYjHDQA0v1/2MplZGSoXNKQaQAsD1KqAUBH2DNNc/nhbHnCmuEKBLyiAYBXwVfr99CMVTsNNb/dD78rJm7xxP6MHHro75/ST28ZaGx6HBIAAEAASURBVKQDtshepjrSq97D6YT/O2d9mfP6S+gRQHz//h2bK3WMFfIvxs8wNFRmGoLNSWcWJKENgt0JomU25JTcWFghzkqA0O5RTrm95+hJWrn9EC1j7QK2waQktQGQGg9Kx2k3H3z/O7eQCe6rV69WGQ4iAO5WacBRDYCKAJCiBQCV6+oZXkTvc5Owwv982TZeYe+msx4POQpbgZenLCcYGT7Gq3gV+u6YXsYesU4hrIKiOi8EMRXCPfujf07ml3R2pc3gxT6wUwsa178DDena0lSEQezZIyIhyo0DOxr33ZszVtHHCzeLbEiQiVNCftcAdGHrf+n2naIAsIrxVnKhMCsAiDbzDxw4QPAGqM6BJayStgOwipg36yN4SKgJYaQXbd5HH87bSJv3KanXQj10o7/3Zq8z/LZ/fvsQcf8I0IKXgXYLFEOozFiPXVmHd08VtwMt1TPvzKn05Y/gO+P6dzRSCTdX9J7CCv6Xdw0nhO8ePx3vFvOEF2A9Ydhvv9sA9G7b1DxQ5WouWbKk3BlLX5dZqh2kstmn8yHmhW7I0nKuqKiI0tPTqVWrVkG6rvwUfKc1+R+B2iG0AcBqd8rSbfTRgo0h9YXGg7MdW/Uj6BEMoWKjo4y4ALn5hZSbf45yzhRQ+olcS3vyE77aYHgKXNevvfgmuJdXn18s3y5azYk71YyXEIAAJg0Ni0beZANRGKdWRA3ZtfAPD11tuJZWVEdy/v6re9OH7GVg5cWMeBfSSIBeNGi0gluvds2sVL9UFxkAkQRIgZSkB/RrVgC4wHUhBLQBkxXCNoBEAGjNe1ea/I0AVgWX7zk6NRsYSE1lNf97s9eHLDteanIi3TakC/Xt0IxacWIepCaujKDehxCwhTUSq3ceplU706tM5/vchwsMIQCJfySEMfZq24zWpx2RsGseRQRUgv7AJgSaoIoIfudvPHG7I1EF8XcL4cKKAJCUEFfRUKs8j6BafiUE+OraShYCeMWKFUawPOHcEXVJHAEw0KdZAQD1YdJvWQBIS0ujsWPHBvozfcRDDy8PnRXQNGSeq+j06h+R96at2EHvzFpHmadC8xDBH/zjdwylO4Z3rfKlf/kFgWEWjLFQbuaMhhBaVmw7SJOXbCNEbwtGMMj64/vz6N1f3yVeXV3Tt50WAIKB6/A5aIW6tJIZhmFof5+0qNLwvT+9eaAjL3/0DU3acfaUsULQAEgp02Jf0n6c4OvUohFJDZ2XLl2qMiRY+CpnzLMqAFge8I4dOyzzgAHBUZom1vNEhCvRBDQTweXICcLe6HR+8b81c40RjteJPipq8y8PX0ujerau6GfT56EaHtGjtVGQ9+KFT5fQpr3HruDfduA4ey+kEUL9Smh0rzZVvkwk7WqeyhHox5b/EPoktGV/hhHRsTJeFduCytrFb7CfseqCDc8TCWGLDB46fqXeQvU/5qu4/68kPQTwtnKH7gkwWTlu27bNSvUydfU2QBk4/PfFZj9jALD9YCY9+PzH9KcP5of85T+sWytbXv7lLyRWEW/+4nYjVGywrYRXOU6ANEARDNH6dUwp36X+7jACfdvL9oUxrAlfbaxydE4l0IFW7T8zrGuWpRoABOLyM/VuJzMAhH2cogfAMjtwsyIAiJbyW7duFY+zdbJs71PcoWa0F4Eq9sWtdIaVwp8nzKeH/vaJa5kiB3dpaWXIlurixf/ANb3pqe+OvILvWHYezV2bdsV5syeGd0s1W1XXswmBjkK/cOy7I9pfVfTVOtF6rKpm6T2OHXHgeE6V9cpXaCoM3+7n/X/YSiDKo4QQ/vfcOaTYERGnf6LlIs5yTFYEANFS/tSpU+JIR63ZiEmTfxFAxDE7CJbstz37geHS5mYAH+lenxUMbmXDwpG8NVCepjIGUuqjsBqV9hnJfLATQQAeCS3evP9SVsnK+N+cuZpO5ilvAZfpAoIHQlNLSOqC6GcBoGebpuI8HorqfzwMrEtpQS6sFQEAG5SiTqXbAKlJsj+iIPPUp1xA4Kxili/sQ/727dmGuj+P0+66TWmcGTAUhCRB5Qn2AbAMl1ALdql1IvugZCyRwNOqSX2x+5+Z1T8wxN/D4/+ebtv+Oe6vp9+eIwoPjABAiDIooSNZSDbrT1KJ8KhoAGjL/j9QtyIAoL5oG0AqALTkPySn86hjUpqcQeC0wksbYaDv/ctEmqOg+rZ7Vgs4k18oNBAVqY+RL0BKfRSMlaR9Ripf0wb1xFPfuv+4ad4dbA/z6IufU46iJgB5Ix57eao4UmZzhZgt6ZnupzE2DXi5igOEtjXFxcW0fLmSBt81AUC0DbB9u0x9CStyhATW5E8E8LIsKZFFqnyHfaC9tjqAwdLsNUqht01dyIq0HSt3pJviD1ZJulcZrC19rnIEkhJlFvFIUnUi15r7HbxE7ntuEsfxP1j5oIL8Wlh0wfAQ+fUbXxqBq4JUMXWqhUIEwkMnTpnqw2uVEGmzbbOGomHB/z8vL0/EW8pkiwEg2rKqARC9yaUaAAxQ2wEABf+SNP5+Xc4G6UV6bepKI5Oak2PDPnAwglbkFGcPlFAHjlSoKTQINBEGxZEY32FGEBx+/to0eoK3BBBoqiqCn//EBZvo5qffo08WbamqepW/S8O2w7PFrzYAUP9LbZy/+uqrKjGtpMJB/u1wJb9b+slKHAA0LNYAfM2rwasEiCGaGXEWN03+RCCf9/Hj2BXNKkkTi1jtx2p9BBz6K0foQzwAwe1cZXdY/X/AYYCDETQqa3cfFsUEaNOsgRGX4YJQIxNsPPpccATq8+pQQkfZ20OFEDYYBUHUBnZuYUSoa8AR/WI4PDUE8YNs3b+R9/pRpyItk6R/qQEgNHx+DfSmsv+vKADYpv7HtbYqAIg0APn5+XTo0CFq2bKl5furHT+4NPkXAWmQD69qAHAl5q5LM8L/2pHn/fIrixc84hvA5bEi2rjnmEgAQOAhCNM6xXZFyNp3Xiq8ZpxUEwACM4CxqNRgNNCGlaNUAEjP9Kf6H4K/VADIycmh9esRxE9Mi8WcQRitbgFkcRsngrRT5SnpNkCH5lp1WSW4Hq4gFQCkD9FQQfEGZ0t7Z9Za27rDy/8fHy+mhZsQcbti2pUu+vMzGtTbABXjaucvUuE1X9Frxs45WGmrmdAGIP2EPz0A2vHef8P4ulYgulR3/vz5RobcSyesf5hvnaViDqsCAFoSaQGkhoCN68eSVKVW8bT1L6FCAPHsJSR9iEr6kvL8+4uV9NR/ZlkOm1q+PxhjPfnmLFP7sXBFRGIhCSHvuybnEZDGv5Dayzg/o4p7QAZM5D2Q0GFOjuVHGtK1pXjYiup/RAM7KO48CKNEABDZAWzZIjc2aa8NmIJcOn+ckmoA6tgURMhplL5i+5TvPfexEaJY0tdqzgp4958+JLhimaHzxRfoQIZMddqRQw5rch4BhGmTEARBv5GKl9bhLL8KAK3El2nevHliXmZUsh4M1rFVGwC0IdIAqOQ9xspllYILVLCJ63OhQUC6qompLVtVhGZWZXs5xHuZD/7tYxrbux3dN6YndWpZeRY41vZzSuB0mjBvg+i+3snbAJJIc7CnQYIaqQah7Kz1t4oQwPWVUHXOfuo3knoAYJ5Ij+03gkFzZ2GYZ2TGPXDggMqUPSEAiDQAmPyZM2coNta6j6zWAKjcM+7ySgWA6Nr2hBEO1ezx0IdxIAoCWCFvQGcWBGCFXZszW+aw+17W6XzDTQvCbNbps+KhwQ7gxoEdLfMjwybGtu/YScu8msE8AvB4khDSn/uNmgnjtECTlZ0r/xtwC6ch/HctvU6zZ89WGTbUQ4tUGgjGK9EAQJePTUhL2wcXed9y8+bNNGTIkGDjqPScNgSsFB5P/1hQKLMBiPZoHAAzYB88fopdrmRqejPtQwMgJWwDaAFAip45vvNCVT4ENL+R1APAcAEUCkpuYqSy/z9jxgyVoa9hZtutJi29xEtHf4aPeyUzkW4DNGsQT7FCQxPJODWPfQhINQB1faYBsA+xqlvaw4aAUv/pDinaDqBqhNVq5BeeFzWA1M1+I+kWgB/V/1j5S93/4AqvmABorhP3hkQAwDiCRyqpYoRSAQB+l211PIAq0PXmzwXni0QDi67lzUiAosnYzATDSgR1kVCqTrEtgc0Sj9Sdz5cCgHAL4LAPXQC7pyaR9BrNnTuXzp+XCYalN5+nBICNlv4iSitLBQCw65WLBHH3eaRbAH5wA3QTXek2AGwANDmLwJkC2YM+ke1F/ERw/5NE+cQcj/jQA2Bkz9biy6Oo/oe0jy0A2ymkGoAdO3ZQQUGBaBLaDkAEm+tM0i2AqJrVdSbISq7e3qMyQ75G8TEcGlZrVyqBVvmnbKGBp4pLnfKgBQ1IAwChKz/GABjePVWAEhvMsf3brFmzRLylTF/ysUSlgYp4pQLAem7QsqlrSUkJbd26taKxVHpeRzGrFB7P/igVADAhv8QCcAN8aeIYjLWFQvpWN+bqtz4zOTmPhFTS6kr6U+VpUj9G3ITfogC241g00jTPa9eupePHzad5DgIqBABHSCoAwMQ5XTIi6TZAyyYJ+oUgAdxlHukWAIZd1yfBgNyAWCXWeytOFqPJOQSspvQNjAQpZv1k7JwYJ9uyQEKqLItpjwMYuXUcIVz9Y7wzZ85UGTZW/o7s/2NQUgEAvCE1BIQFZtumDdCvJh8hUFgkcwPEFGtF+c8tKlSX5vjJM+Ic7i21BsDRy5TB10ZKUrc6aX8qfNJ4+CfzzhJyX/iJRvRwbf9/FeMk2+8zAbBvBADMRdsBmLiiHqtynnOPSynKh37R0rla5cMDVJpNTWsArKJtrX5GTh4VCe97P23PIMiVhLJ8FgAouUEcSbPSHjlyhDZt2iSBKcCjZDwQaKSio4oAIPIEQFZAqTtEl1ZNKpqHPu9RBIo44peUkMJWU8UISLcBtCdAxZja8QtiNEit3CNCABAaSdpxbSRtjFRY/U+ePJmkkSFLx+rY/j/aVxEA1knALCoqImlmwC4ttQAgwdxNnvMXVDQAWgCo7NpJDQERvlULV5Uhq/7bwUxZnHuEj/YLNYiLFg1V6iUh6swGJqn1P7qeOnWqygiOMrOS+qCqzlUEgExuPKOqDoL9LjUERNQpaSCGYOPQ55xHQEUDUKuGtgGo7AodyJAFA0JCIGkM98rGo3/7FgFpuOWuqU3Esea/7T00n2KE0Vn9JAAkspDTo3WyCNDs7GxatmyZiLeUaQofHTWWUBEAMEbRNsC6dSLlASEioJ8k5NKLGNGHIq0BcOz6q+QbkLo0OTaZMGt49+Es0YwQAKtNcqKIN9RMMXVkGTulgZJCPT/0N7ZPW7FA9vnnn9OFC/ItUO7+C6fnrCoAiDwBVq2CYaOMtB2ADDe3uIpZAJAa/Go1deVX7XDWabE1dZOE2Mob178qIYCMjVLqLlxxSvuT8knzdUhDJUvHqcKHFN9SmjIFC3gxYQ9piZjbJKOqACDSAMAQEMkRJKTtACSouceDl7/UCEaadtO92Ya2ZwhXUnVqY4UgLqGdpT97O55zhk5xCmgJdW+dJGELKQ+CdGErSUIqwcEk/Ul5GvHfCLZkJHT69GlasGCBhDXAg9SBch/qQCtVHGVX8NtG13770fwnRASUbgN0adXY2Aow35uu6TYCUp/fatjz0VQpAogHICGtAZCgZo1n6wFZ9LfubWR7ztZGp1ZbJVeHXwSAMb1Y/S98Bk2fPp1g8K5A0xR4TbOqCgCHuSdYKlom6TYAkk+kNIy33J9mcA8BaeraasIVhnszDX3PGbzSlJAWACSoWeNZn3bEGkNp7STenklOjBPxhopJRQDwyxYA9v+lhP1/BUI2qdkK/KZZVQUAdCTKUrR69WrTgyxfUdsBlEfE299LOBmGhDj4o6YqEMg4mVdFjeA/N9Y2AMGBsfHshjTR2sgYwZCuLW0cif1N1eJkXVKSpgiX9ifhg4As3W4+e/YszZkzR9JtgGc+f5BJ9oEWTB7tEABEb/IVK1aYHOKV1bQAcCUmXj4jtwGw4/b0MjLqY5NqABrF1xXv4aqPOjJa2H0ki6QW70O6tgpbkKQawVACMrZ3W/FW87Rp0whCgAJNVuC1xGrHE1Zk0n/ixAk6dOiQpcEGKmsBIICEP44lHBlNQtL9N0lffuVB2FkJwYBLGspV0l8k8uBFt3HvMdHU+7RvRtHsEuhVknr2YD5X8T+v09g+cuv/jz/+WGV6MPxTih5kpXM7BAA49YucHaV2AIjLXEvHibdynV2tKzYC1HsAVV63jGy5prBJQkyV7esKaghs2CPbBoALbL8OKWqde5RbaFcXstkgIVOnFo1E/eXm5tLs2Urb93AdyBF1LmCyQwCArmO7oG+S2gHUqF6N2jdvKOlS87iAwFVe/4t3ARO7ujx+Si4AaA2AXVeh4nbW75YZAqLFIV1aVtywy798rRKgzuMKgOsHdBSjC99/aa6b0k4/E3cuYLRDAEC3IjsAqQYAHUoNNMCrKbQIQGCTEPKGa6ocgXPni6mAi4R0WG0JatZ4YAeQVwCjbusEQ0Cvys7hugUAvK/t55r6H5p0x6P/XX4nyp7Ml7fwzWeRAICcAFJpCfEANPkDgRpCdz6p94A/ULFvlLn5soAz8TF17BuEbikoArADWLHtYNDfqjoJDU3XVG8GBZJZ9Xwz4+rCBUFVeNnxO+L+S8NkZ2VlqQb/WchzkMWQFk7eLgFAZAiIl//mzZtFQ/fqH4ZoMmHOVL26TOenNQDmbozc/EJzFcvV0hqAcoA49HXR5v3ilq/tK1+Nijs1wVgo1Dqh6RgPGzde17+DidkHr/Lpp5+qxv4PmfV/YAZ2CQC7uMHTgUatHKXbAAiWoYOZWEHavbrVrpLdZiV6C8DURcsVhpxFUC1NziMADUBRsSwtNmLRS0PuOjmz/HOybQ2MKSbam94NNdnwcnSvNmLYFK3/cYMoRQ+SDFz2ZL6yJ2zWisICSw0BMYQePgiZeSVUkXUGDy/pPqbeAjB3r+SelW0BaA2AOXxVa8FGY80uBE21TvVj61D/jt7zBkA0P6kdQKwwi6B19KxxwOhS+jdx5MgR1dS/83m08gxS1qZ6qbZdAgAaFNkBqAgAPbUAcOlCevWDVP2P+egtAHNXVWwDoDUA5gC2odaizfvErVzbr72Y1ylGuPZKI/rFRsvSCDs1l0C7Kur/Dz/8kC4KI56W9v9BYByhPLouAOzbt48yMzNFc+7ZtqmITzOFDgGpASBGeEHtDyp0k3S5J7ENQIzeAgjVpVvCdgDSCHgje7QmZN/zGkmjHMZ4UAOAlb9K+OUJEyaoXB640ocs+M/lA7VTABAZAmIwy5Ytu3xMpj+3apJAUJFp8i4CtaNqiAd34YJ2AzQDnlQDEBetBQAz+NpRJ4ftNLbszxA1hZf/UA+GBpYm9YnzoAbg+gEdCMGXJLR27VpCinsFmsK8+Qr8YlY7BQC4L4jMXZcuXSqaAPaWu3nUTUY0oTBkqlNLbvAj9W8PQxgrnVJhkSgQJ6kIZ5UOSP8YFIGFm+TbADcM7Bi0TTdP5hXIvE8SYqPdHHbQvm8Y2CnoeTMn33//fTPVKqujpD6orOGqfrNTAEBfIjsAqQCADrUdAFDwLkUrqC61AGDuuhZdKDFXsVytKIWMbuWa0l9NIDB3bZp4G2BAp+aeSxGck1dgYtZXVmnIiai8RAj7i/DyEioqKqJJkyZJWAM8UAvBANAVslsAWC6ZBWIBnD4t8iIkbQcgQTx0PCp7lyq+xqGbofs9nRdqAOChUU3nWwjZBcw6fZZW70oX9YfEWDcNkq9SRZ1WwZR9WiYAeC0E9Y0KuM6cOZOys7OrQKrSnyfyrzIJvtJmzf1otwAg0uWXlJSQND1wB84J4OWsWeYuQ/jWUhEAtAbA3H1x/oJsCwCt16wu2/c0NzJdqzwCX65CyBQZ3TKks6diAmTnwXbNOnlJAIAW7Jq+7a1PopTDBvX/B+LObWC0WwCAJYQok5F0GwCrGB0W2IY7waEm1LYAihwaVXg1K9UAAAW9DRDaewF2AAWFsvsaL87BHkoQlM0aDQnB+NQr992onm1IapR48uRJmjVrlgSCAM8O/rAp8MWNo90CAMy2V0gmIhUA0FfPNtodUIJ5KHikGgAEAZJGTwvFvLzUhwpOiH6mKXQIwGBz/ka5MeCtQzuHbrBV9CQVAGC83SDOG3YANykY/02cOFGcy6YUWldX/xiD3QIA2hT59MGVorBQZlWqDQEBuzdJaml+7rxcre1NJJwb1fliOVZS1yfnZhP+LX+5aqd4ktAAeCUEelauTAOAyTeqHyPGwC7G5MQ46tOhmbi5d955R8zLjFgsf6jSgB28TggASyQDQ2IgaVTArqlNSK9kJKg7zyMN+iGNMub8jLzXgzQkK2aiBYDQX8/1aUcp89QZUccwBrxtaBcRr91MUg0AxuEFIQY2FcBTQuvWraONGzdKWAM8i/nD4cAXt45OCADreDIi81DpNkCtmjWoY/NGbmGo+60EAWnKWWmQkUqGErY/qYRbRkhXTaFFAJjPWCk3BoQAgGee23T6bCGHAy4WDcNtAaAGpyS+UUH9/9Zbb4nmfRmTa77/l43BkS0A3BFrLu/E7GepAID2dWIgsyiHtl6CMFKjNMNdaGfnjd5UssUV62iLrlzEKUu3iWMCQKi+rr/cct3OCUs1GU3qx9o5DMttIbyyNB7BuXPnSDHzH/a6Ef3PdXJCA4BJibYB4Ap4QejS1LNtsutg6gFciYBUA3AqX5bh7soRhP+Z6gq+/BfYBVdT6BHAi3PZtgPiju8d1UOcZVPcaRDG4zmyrQy3NQC3DesaZDbmTiHwT25urrnKwWt9waeVGgjerPWzTgkAS60PhYMh5+eL91W6t07WQU0koDvMI83VcEqY497h6XiyeSUNQAlskTS5gcBni7eKu01NTqS+HVLE/HYxSgWApET3NAApDeOpTzu58V+4qP9xDzglAKzktkWbQ9JtAPhytm/W0K77WrdjEwLxwoxz0gQ3Ng3bV82oRPPTKZfdu9Qrdxyi9BPyheA9rAVwm6QCgJsagDuGdxVrT3bt2kUrV+L1JqYM5pwj5raZ0SkBAP4hmyRjlQoA6KtfR/clYsmcw5lHugWQe1ZvAZi9L2ooRPMr0RoAszDbXg/2l1OXybPIwSWweeN428dlpcHMU7IkdnVrR1FMHXmiMCtjvLwuvF7G9e9w+SlLn9988036Ws1wFtaDosWxpYGarOyUAIDul5gcQ5lqS5YsYeMYmVqynwdUYmUmE+Ff8MeGP3QJ5eRpAcAsbioP0mJtA2AWZkfqfbF8hzjgFVzY7hvTy5FxmW0046TMBgDtu6EFGNunnTiFPBL/TJigZLwPg5u3zWIbinpOCgCigEA5OTm0c6csUAY8AbRfcyhuG3N91KsrzzcPFyNN5hCQxloo5iyCFy9qN0BzKDtTC/f5V+vTxI0jTXBDDhHsFkm3ADDexi54AkD9L6XJkydTVlaWlB18s7kcUmnAbl4nBQBoAERL+QULFojmCd/YrqlJIl7NZD8CUjcbjOTUGVEoCfsn4YMW69WtJRqlFrJEsNnONGnBZnGbWPDc7aItwIncfJLGkgi1BgCxYrq2aiLG+tVXXxXzljK+qdqA3fxOCgBICrRLMuD58+dL2AwevQ0ghs52RpU/8Nx8rQEwe0GkGoC8gvNmu9D1HERgZ/oJWp92RNwDVrWxbATtBkGLJPXYaRzicMD3jJYbTSJlvTRjbel1gfHfl25co8r6dFIAQL8id8BFixaJ4wFoQ8DKLndof2uSECfqEJbp0lSjog59ziR9+GsNgHcu/ISv5GFlYWdzu4JfuyoK0m0AlQWC1TEjINmY3m2tsl2q/9prr136LPzwH+a7IOR1jM1pAQDbAJbp9OnTtH79est8YOjUopEr1qWiwYY5U5MEWcKPE2xZrPemzd8csXVkq78zBVrLYh5lZ2siKNCB46JM6sbAEBjIrfDAfogGeMfwbmL7MAT9+eijj1RuAM8Z/wUm47QAsJA7ElkZzZs3LzBGS0cERenVtqklHl3ZGQSkGoCMnDxnBhSmrUptLfQ2i3duCHiWTZwv8pw2JpEQF00wCHSDpBqAxsIFgtU5Iu4/Ev9I6b333qOzZ+WZD7nfWVzSpf07yee0AIB9D5FJv4odgBciZDl50fzStlTFJ32g+AUXu8cptabO054Wdl8KpfZmrNxJJ/Pkxq8PXdvHlayox3NksQAS40LjvTCWVf+N4mXaSPj8jx8/Xum6MrPnjP8CE3JaAEA/Iou+5cuXi6Wu/joeQOD6unqUCwCyB4qrk3Wxc6kxVY4Ot+ziVbuy6yI2qJu8RB4eGH9vNwwIvRZAmha4dlQNihbGCbkSvYrPfGdk94p/rOIXaKJ3795dRa1Kf4Z1p+eM/wIj9qwAgKALUqvLVkmJ1MBF39gAuJF8xH5kfc5aJiGtATCPGmIt1KlV0zzDZTUzTuqtlsvg8MTHTxdvocIiua3YQ9f1Iai8Q0kqWovE2GhHhwrXvy4Krn///ve/VceHwD+wAfAkheJOWcQzF93R0m0ADpBFfdo38yTgkTIorEZwHSSkBQDzqDVmnKWUIczkJu1P81WNAFzqPlcID5ycGKcU6rbqEV5ZI0dh26J+nGyRcOUogp/53tXySInp6ek0Y8aM4A2bO4sX/7vmqrpTKxQCwGmemsikX2oICCh1PAB3bqhAryoGPloACKBY9VElr7rGuWp83ajx3znrxeGBMd6Hx/UllQyRVud8Mk9uIOekBgDC0OhebaxO51L9V155ReyOXtoIVP+eivx3aXKlH0IhAKArkR3Axo0bKTs7u/yYTX3XAoApmByrpPJikroVOTYZDzfcKqm+aHTYb1Z5cIs61UymEMCe+oxVIttpo/2mDeqxFqC9qb7sqHTm3HnC/SQheC84RQj8IxWEYPX/zjvvqA7Ns8Z/gYmFSgAQ+fQhKdDixYsDY7V0hAoaeZ81uYOA1DANwWkKznsmWZY74FnotTXnhZcQVv9qSc0kvWoeswi8M2stqaRq/uEN/UPmEYD7SBq6O9EhAQDp4W8eLHf9w8sfeWkU6DDzwv3P0xQqAWAFo3BOgoTUDgB99e2g7QAkmNvBI3VNy9T70pbgT01KsFQ/UPlYtjYADGDhxSMEtNlr5NbnUH/fovACtIrJydMy98X6HKHPCULgn2ihcSxc/2yI/IfQgTK1iBOAVNBmqAQABB0XZQdUsQPo37F5BdPWp51GQOp3e1yYX9zp+Xix/WrVrqJWQgFgf8ZJL05Jj+kyBN7+cq1SREzYAsDVLhQkdSmVegpVNickSLprRLfKqlT62/Tp01Vd/2AUgdC/nqdQCQAAQpTib8+ePXTw4EERkAM6NQ+5S4xooGHIFCvMUKf3/83fDM14r1ca/nXvUS0AmEfanZqHs3Jp3oY94s7hCh2qTIEF54tE46xbJ0rEVxnTtf3aK7mBv/jii5U1b+a3/3Ilpf0DM53YUSeUAoDIDgCTlKYHRpKMbq2T7MBJt2ERgRjhH/ZpnQXQNNIdOe+FlPYelRnXSvvTfDIExk9fRSVsCyWlB67uTXEcK8JpOie028Ez2k6C6/F9Y3qKm9y2bRshGZ0C4WK9rMAfUtZQCgBIdyWSilTsAIZ0aRlSQHVn3yAQU1uWoOZsoWwlEYm4d0uVCbfI337g+KlIhMx3c07PzFWyBUCmSJUXolnAzp2/YLZqmXp2CwCDOrekVKFhLAb2wgsvsHGsKH1NYF5w/ZMbbwRaCdExlAIADCIWSeYFDYD0omgBQIK4Oo9UtacFAPPYdxVGODuSdZqkKzbzo9M17ULgjemrqVjoZocx3MOZAp2ytg/M8VyRzHPHbgHgQc6HIKXMzEyaOHGilD3A96/ABz8cQykAAA9RPIDjx4/Tpk2yTFmQBpMUoqX54SJ6cYw1heFI9YvJ3NXE3n+7lIbmKperteeIVv+Xg8TTX49xyOYvlu8QjxGhor9/XV8xvxlG6d9tFN/HdhE0Yj3bJIube+mll6iwUClF9jbufKF4AC4w+kIAAC5ffgnNiowG6W0AGXAKXFcJ4wArKd8Uxus3Vuz/S2O+b9mf4bfpRvx43/pyjVKOgNuGdiEECHKKCoUaAOk9HGweP7yhX7DTps6dOXOGXn/9dVN1K6n0T/7NV4+wUAsA2BtBgATLpCIADNYCgGW8VRmqCQWAixd99fejCpOYv69CrovN+7QAIAbeJUZEB0SiICnVZNe4H14vf0FW1a/UBkCqKSw/HmjDBnRsUf606e9I+Zubm2u6fpCKJ/jcpCDnPX0q1AIAwBC5A65evZpOnjwpArN/xxSxu5SoQ83EYrB+kTt5G0hjXBQVl9Duw1lODk237RAC781eRyo2MuP6d1AykKtsWueLZUaAdmkAfjCunzj5WHFxMSHuvyIh8I/S/oFi/yJ2NwSAryQjLSkpoTlz5khYjZd/r7ZNRbyaSYZAiXAlH6rAJbJZeYMLLpZdU5uIBrMz/YSSQZmoU81kCwIIk/3hPDhTyQiBox69aYCM2SGu6kJbocuH06pJAo3okXr5KUuf33//fTp8WKSYDvSDF//4wBc/Hd0QAPAWF4VI1NsA/rm1zp6TufPZbRXsH8TMj7RP+xRxkhOt/jePsxdrfjR/I0EQkNLIHq2ph4KhXEX9QriQUEmJPMZBoL+HrutD0i1HeJfB9U+RPmJ+bAH4jtwQAGCCvEaC1KxZswiaAAkN7dZSwqZ5hAhIVZVS90HhMH3JNqizfK9z7S6llY4v8QqnQeezYP3+3PVKU/r57UPE6vKKOpa+gKWawsA4khvE0TV92wW+Wj5OnTqVduyQe1iUdviS5Y49wuCGAICpi7IkITsTbAEkBAvY5o11dkAJdhIeqQCALF6aKkYAD9ph3VpVXKGSX7BPu2HP0Upq6J/8gMCkBZvpRG6+eKhdOH7E6F5txfzBGKVpd1WiHGIciHQo7Rv8f//733FQIWxpy60zVXq2gdctAWCmdOzQAkhpSBfZg1PaXyTz5XOOcAk1jI+RsEUMD0JbI8a7hDbuOUZSYy1Jf5rHGQRwDd+braYF+N9bBxOS5thFiDUgIZUtAKR8v3FQJ0m3Bg9Sza9atUrMX8roq8A/5SfrlgAASxaRL9LMmWLZgQZ3katOywOnv1eOwIncs5VXqOBXaRbBCpoLu9OjerYWz2nF9kNiXs3oLQQ+X7aNjmafFg8KqvM7hncV85dnlOb+KBDmEED/CG6kIsT8+c9/Lj8Nq993MsNsq0xequ+WAAAfMdFSHhEBjx6VqTHhCRBtc/IJL11ML40lS6iibFRfawAquo4IrTCCjbiktGpnupRV83kMAYQGfnOGyJTq0kweZtc55Aqwg6KFGgDYNEjIWP0P7ChhNXiwlaySar604+f56Gt/Z7cEAOAnCu0Hq83Zs2VCF4Jh9OuQUnrt9MFJBKR7lI1ZAJCqE52cjxfaRqjT5MQ40VCwWtx/TBZHQ9ShZnIcgVmrdxHcOqVUj7MEPnRtXyl7GT6p8a50qxB+/3ieS+mPf/yjlDXAB2l6YuCLX49uCgAwnhCJfyrugCoW1H69yG6MOzNHZqQEI7eWjeu7MWTP93n9APmKZ/6GvZ6fnx6gNQSQ1fHFz5ZZYypX+55R3alZw3rlzlr/2rCeTHN3RmArhNwu1w/oYH2QpRwbN24kFVuy0mae42OxeBAeYXRTAMhjDER371dffUVFRSLZgZAdEKpUTc4icOiEPKxmq6QEZwfnw9ajalansb3lltvztADgw6te9ZDXpx2hFdvkth1YRT9y44CqO6qiRoN60VXUCP7zmQLrxsI/vKG/8upfml22dBbH+Phe8Bn566ybAgCQEtkBIHHDsmUi2YGwx9w+pZG/rpIPR5ueeYouCIN8dGje0IczdnbII7q3Fu/XZp46QzsPZTo7QN26awi8NGUZqeTQuKZve+rUsrHS+KXGuydOWdMUQluhsvrfvn07TZs2TWmuzPwPLvJoTKq928jvtgAgNulX2QYY0T3VRgh1U8EQwMs/XagFgJ+yprII3DK4c9kTFr7N37CPWFusKUwR2Me2HdNWyIPZQCOK4EBSgiV+fGwdEbtVbyHs/av4/WPv/+JFpeiD2TzRN0WT9SCT2wIA3Cj2SXBREQBGKrhSScYaqTxSo7MOzRspufeEG97NG8VTXwXjVRiLaQpvBMZPX0XnFFzq4CElDTCVwvenNBIgtFNmCYHcruvf3mz1K+rt2rWLPvvssyvOWzzxIteX+Thb7CgU1d0WADDH2ZKJ7ty5k/btE8kO1Do5UUcFlIBukUdqoYwVhapK0uJQPV39Vs7lLrVbgRAmvQ6eBkUPrgwCSBc8QSFREBr7GWsBJKvrFgpGu5kWtgAevWmgaHwBoP7yl7+orv5ht/ZaoL1wOHpBABC5AwL8GTNmiK/B8G56G0AMnknGrfuPm6x5ZTXtrfENJjD+u1HB33nGKijZNEUCAh9wjgAIAlLCi/zmwdYj67VsIvfaOWYymFFH1gqOUQhfnJaWRpMmTZJCE+B7lT/IrZsDrXjo6AUBYCHjUSDBBIkcpISsWJqcRWD7wUxx6tkBnVo4OziftH5dvw4UHyPbX4Wb2Oy1aT6ZqR6mKgKIqvfmjNVKzTzCq2yrGTlThV47EFbyTHoBPHbrILEWDIA888wzdOHCBRVs8I7ybdKfiibuBQHgHA9uUUUDrOz80qVLKSsrq7IqFf7WhfOpS2OqV9io/qEMAohZvueoLPgMPAES42SuRWUG4fMvd7OftpSWbztIVq2spX1pPm8gMHX5dqWATwlszHff2F6WJtOVn6US2n8sxxRbr3ZNqX/H5qbqBqu0bds2O/b+3+C25VGXgg3MA+e8IAAABtE2AFIDS7cBVLKqeeC6+WYI63YfEY0V12d0rzYi3nBhQtTKtk0biKczZck2Ma9m9CcCcAd85fMVSoO/b0xP04sjCAzItCqh/RnmBID/4cRFKvT000+r7v0jWME/VcbgVV5fCwAAVWUbAL7VmpxFYMX2g+IOxvaR5/kWd+ohxntG9xCPBtbVyxWwF3esGV1HYOnWA7Rm12HxOBCK+4FrepviV3HZ3Z9RtXZwVM821FXBLXj9+vV2+P2/x2DIEtCYQtG9Sl4RAA4wBKLlyty5cwmBgSTUr2OKOLiKpL9I5Nm8L4MKCmVRG7tz6ttITQ4E17/BHLVSSlOWblMKDiPtV/N5A4EXJ3NwIIXgD7cP7UoNTaSd7t46WTzhHYcq16hXq3YVPXrzAHH7YPztb3/LMTCUgmCUcDMI/BOW5BUBAOB+LkG4sLCQIARIqEb1aqStzSXImedB1rLVwtUItgFuVsj3bX6U3quJvX+pbzUwn7psu/cmpUcUMgTSDmfRHAUDUHifmLEFGNhZZqyLmAV7jiCmTsV0E//tt2qSUHGFKn5Zvnw5zZkzp4paVf78EdcI20QaXhIAxCb9KtsAYxTiq1d56+gKBgKLNu0XI3HrkC5Kvr/ijl1kRIrWGwZad8cKDHnuujQ6mSdyrAk0oY9hgMArny+nwiK55fvtw7oS9vgrIhhRS21Uth44TiWVROSrVbMG/fD6fhV1beo89v4VCav/vyi24Wl2LwkAGxgpbAVYJhgCSpMDDe7c0rLbi+UBRjjDok37qKgYf0vWCVsAQ7u1ss7oY45bh3QmaX51TPuj+Zt8PHs9dLsQgAfIJ4s2i5urHVWDtQAV2wJAeyoNULWFtwYro++yIWLj+rGVVan0t3nz5tGiRYsqrWPixw+4zm4T9XxbxUsCAECcLkEyNzeXFi9eLGElqLqkITBFHUYg01m2AVi27aB45vcqGMOJO3WJEZHY7hohd/1DdrjdrP7VpBEAAu/OXke5+fC0ltEdw7pQTJ2ooMwqz03YBlVE0DqYNUIM1gb2/J988slgP1k5h1S/f7LC4Me6XhMA9DaAH+8iE2OGWlpKiFPes43c2Ejarxt8cH1swvnOpTRxgXzFJ+1T83kXAaTbfZ8jBEopunYURwe8MhFVHG9TDRIaqWL/f/2eit2DH73ZejCiy+eHiH+w/lekd5lfvnep2Hmo2L0mACzhiVduGVIBMl988YXY2nMgR52zGv2qgmHo0xUgsGTzfso5I1+JPHRt3wpaDq/TUH1K6Vh2Hi3ZEvbPLCk8Ecv36eKtlKNgE3L3qB5X2OHAdgo5OyS0lmODVLQliKiCMP6TUnFxMf3ud7+Tsgf4ivjDc4Ev4Xz0mgCAjeIZEsCPHj1KK1askLAa2wDDdYpgEXZmmYrYMn3GSnlc+kFdWlCPMNcCQMvRWSEv+8QFm7Trn9kbMoLqYcX9XwUtQBJrpMoH5bqufwcxgss4TkFF9MSdw64QNiqqG+z8+PHjae9eZaN9RP07GKz9cDvnNQEA+Iq3AT755BPx9dHeAGLoTDNOWbpVyTcZ2cqkRkemB+liRZXAP7CzUMkJ7+K0/397VwEnVdXFz8fSncvS3Q3SUkqHIAiCImK32MFnoNiCn1hIGBioICJKSDci3d0dSy241MJ+5/9kcNmdeO/eNzPvzZzz+52dmffuufG/s3PPu/eENB0CBMbOXUNHT6onCnqwU4OrCzPS8tbU8P9fuG631xEj7kWDysW93jNz8cyZM4SMf5p0juXf1azDNeJOVADg1K/0TYUCgPDAKtSQv3g41xIKHgL7jp6ixRv2KDeAiGA3amQEU244BIJwqWqqkaFyAseAhxIgJAh4QwBb7t/PXOntlqlrWPTb1C1vlO3ZoqayIo4EYYhSmZoQ9OfxrnohfwcNGkSHDx9OXbXVz5+wQERG/fMGhBMVABwUK0VvOHToECH4gwpl4POspnIMoAKdJZnvpsPbU52e4F0AHRc59ZaDK4lzTwSmUiHEf/9p9hoVUZGJIgR+XbBOOSonYLqX/fLzcGbKjhrpqSf5SE/dtUlVKlM4n/JsICncBx98oCx/RfAUv76jW4mb5NV+cYI/wp9Vm9A5BmglQYFUYTcthxjlgXyA/VUGC/kHeDsykggR/7qw778qzVy5jfabzKuu2obIuR+BM2cv0K8LNygPBOGpX+7TUlkBT7p0maYt25qmfQS+ur+j3v/0a6+9phwSPkWH3uP3x1J8jvi3TlUAEA9AyWT8559/Vj4GwPlTXklBG/Qv/ddTl2m10YutkisVj9Wqw0nCDaoUp8L5cip36QcJ/KOMXbQJ/qhpKNqkWkllyGD85y0mwf0d6/uNOBiowS1bttDw4cMDFQt0/xAXGBKoUKTdd6oCcIaBnqICNs6A5s2bpyJqGLnILoASdJaEkK1sS4A44P4qxHnha3e1JoQLjQRC4hVVWrPjIIGFBAEzCBw4lkCzeMdIlf6jYYU7afGmNM3C7a97s+pprlu58PTTTxPc/zTpdZZXsj3TbDes4k5VAADKWFVkdI4B2tWroNqsyJlEAMm5Pv5FzVbD0wR+OPp10zMa8tQVzldEPdPJ+jdmjpz9h3P+3Nj28ElLtLxxVMZ88PhpjlGR1v3vuZ7NlW1f0I9Zs2YRQsFr0naWH6lZhyvFnawA4BhASSPDMUBSUpLShCC/NSxehYKLwJ8bdmt5BKB33ZvVcH0YZ/hTqxr/YTt11gr1p7ngzrDU7lQEdhw4RjOWpz2LD2Z/f5q9Ok3yH+y2XlehqHKz8Ph68sknleVTCL7E77W3EFLU55q3TlYAsPgreQPEx8fT7NmzlSehbV3ZBVAGz4LgR7/o5SzHbuRrfVu7WmHTsaj+nQMrIcCSkCBgFYERE3kXgL1HQkGJ7J4KD4SUhERDj7NHjw6NHDmS1qzR3gFbzX1QDyCjMwAHyDpZAQA84TkGqF9B2c/VAXPqmi7ADkA3bz0siAc92JEQs9xtVL5ofuV0qjhGGT//2h9Vt41f+hs+BHYeOk5TlqQ9kw9Gj37lGBXwQEhJd7erS4gwqEqnT5+mAQMGqIqnlHuWP1xOeSGa3jtdAVA+Bhg3bhydP39eaS6LFchNVUvGKcmKkDUEPuGc5TpxytEa7AHeuqft1Uhl1noQvtLtNcKpLt28l/YcORm+zkvLrkfg01//JIQJDibB9e9H3v5PSUUL5KLeLWunvGT5/RtvvEGI+6JJMB6YrlmHq8WdrgAoHwOcOHGCJk2apDw57XgXQCj4CCRwtrLBY+dpN3Q9uye9emdL1+zcwPe/9ZXIaiqDR+Q/IUFAB4EjJ89o5Qgw0/Z43vpHkqqU9HSPpkb+lZTXrLzfuXMnffTRR1ZEvJWF5oOn/6gmpysAmBzl85lvv/1WeXJb1SmvbJyl3GiUCk5duoUWrfceH9wKJHiifqRzIysiYStbr1Ixis2dXal9hPyds0qy/imBJ0LXIPDttBUEC/1g0PmLSfTVlGtjfjStXoqaVCul1dxzzz1H586d06qDhYcyh+YMRLenQZR3gwKAYwClb+jkyZPp2DG1wE552D1L94saxHmLuKrf+HYmnfpb+5+a+ra9zogpruGuHBJsdbb/p3M0Nfy4CgkCugjgezR4jP4OnLd+IEAVdhk8BMO/Z3o083xUep0/fz7heFeTjrP8a5p1RIS4GxSAREZaKUPghQsXaOxYZTtC6qSRlzoivh0hHAR+KAayEmAH9Wldh1687QbCNrsTKUumDNS8ZhnlrvmKp65coQhGNQJzVm3n4EBwhbePcLT3TaoUxMgoWDi/esRLuHY/8sgjlAwLWD3C4g8lIOrJDQoAJul71ZnSOQZozDnoC3CWNqHQIIAfIpwZ2kFILvI6RwuMSee8r/gNtcoqx1NHJLdV2w/YAZHUIQhcReC9H+fQaV607aIvJi8hKAEeKlskH/XkEN46NGTIEFq7dq1OFZDFtj+2/4UYAef9OnqfFjwaKuV5XLRoESFWtAph8eigkflKpc1ol/lg7Hzauj/eFhjaclTHd+9vp7zY2tIJL5W01zAwRThV/QcgL52SS1GNQPypv+nDcQtswQB1IfCPh7AT1//2G7RsqhDifeDAgZ4qdV5h+Bdc1wed3oVY1i0KAA48lY0Bf/jhB2VYb2pY2TWW5cqDdJAg3JKe/myi16QhKt3EVvt3/XtRaY1Uoyrt+pLBjlLdCsV83Q54PVS+2wE7IgUiDgF4lujkCfAAAvspRFT10C3NqlH10oU8H5Ven3nmGTp16pSSbAqhWfwern9CVxBwiwKA7modA6ieGyEscM0yheULE0IEsM3df+QfaUKHqnYBc/j18z3ICYme4F6KZEYqhDTKew6L778KdiJjDgEY4x7S9ArAzul797c3vFzycXbVh25qaK5xH6UWLlxI33+v/PPvqfUSv3nC80Fe/0EgxkVA7Oe+3s6cz2qfEROgTZs2VKyY+pPX3NXidmUVd53y+9l3GCFEG1YpoVPNVdkM6WPoxtrlKHuWjLRiy35WLrQNia7WbeXNs7c2o/yKdiVf/rGMNu4+YqU5KSsIWELg/MVLtGnPUerQoBLvfKopqmgQhq7VyxSimmULU0WN1N2I99+lSxc7gv4M5259aQkMvcJZWLwkc3nmGszwT67PXCcFV+b3uZgBNIzdLzOHlNyWT3U0o/OqCkKjRo2ihg3VNFE8OQ5iVxksSEKhQ2A0uxHBV753K72oYZ4e4/fs9pa1qGmNUvT297Npyaa9nlsheYUFtOqP4UWO+R/qBC4hAUUacRwCK7bup+9mrKQ+rfX+76rhGKCU3vCGDh1Kq1at0quECGcHr+hW4kM+M1+veoUrXXnFwo4nFyzsZgk7FNuY/2ReyDyPeQtzUMlKB4PaEZOVQ5vabLLsNcVy5sxJBw4coGzZ1Kz63/xulm0W6td0TD74RQCL9it9WlEnm40xYUiH83T4QNsRf8DvIK7cxA/q413VEqDM5Kx/zw+fbKYZKSMIaCOAHbOvnuuurLBqd4ArQKjfypUrE3ZwNQmGf4M064B4AWa4MoDxVI9XhIwN1oM0NB889MKIbR+z7eQmGwAMHhrRXyooJCQkaMUE6NYUSp5QqBHAQv3mdzNtiRSYsu9QLBCMZ8yrvekmjvcQCnfBFuz+p0qT/4L3kpAgEBoEsOP03LDJIVOOvY0KqX5tWPy3c90fe6vfxzUci5dibsP8KDNk/2DGETTO36Yxv8eM4+gqzMFa/LlqQ8FAWzh//oJZ/QeEhb2R23YAMIYHmD/3NphA1xo3bkwLFiwIVMzn/b7vjqF1O7UTUPisX274RiAjP5G8+0D7oEVnhOHh13zGPmHhBtuMD1OOBkcZk96+W8mjBKF/Wz07gi7w+ayQIBBKBOpXKk4fP9ZZ2XBVta9Tp06ltm3bqoqnlOvKH8ZfuYAoRGDYkRVlhmtCEebCV7g0v5ZhzsTsRMIPANa+/swJdnTQjQoAjCYOMsPIwjJt2LCBKlXCUY11msj51weMmm5dUCRsQSBjhhga/FBHalgZx2vBIWTY+2LyUpq+bAtd4KcguwiuUC/0aqFUHZ7+X/kKDx5CgkDoEbi/Y30Ch4rOnj1L1apVo+3bt9vR5B6uBIt+bjsqc0gd+7gf9zNP0e2Pm7wAPGM9z29gZFHNc8HKa+bMmal169ZWRK6WLRGXh8bNWytx2K8iEto3sNyfuXwbFS+Yh8oEya8/V7bM1IJjB/RoXoOK5M9FRzmoCQKb6BLyn5eMy6tUzacTFknqXyXkRMgOBFZuPUCVShTk/7vQrKGvvPIK/f7773Z0HXXggRGGepFEUGhuY8ZD8CxmPihVIzcqABgptj/6qAx527Zt1K9fP4qJsT709DHp6MSZs7RmBzYghMKBAJSA2RwyOE/2rFS5ZMGgdSFThvT8oxdLCCnchDOYZebPCYnnlM5EYV+A3ATYwbBKZ85eoHdGzw6b26LV/kr5yEMAq8ui9buoJXtD5cwa3LV03bp11LdvX7p8+XLkAWnviLB7D4vicsy/MSsBZv0XiVtyAO3iPvRltqySJiYmUvXq1alKFdhvWKeiBXLRmDlr1FUu602KRCoEYBi4YN0uqsU+xnhKDzYhel8jjkdwa4saRoKoMoXyERSEk6wMnr2QFLD56qXjqHuz6gHLeSswd80OmsbHEUKCQDgRQHwA7AR04sioMfwgFAzCot+tWzfatWtXMKqP1DqxE16R+Vdmy0qAWxUAKKXYT23GbJngEdC7d2/LchDIyVvEq3kHYN9R7bCUSu2L0D8IYEHtwQtyqClHlkyGaxSehu7grIM9mlen6zm/eTUOdQrlEEcIiH6Gckh/Cm+DduxtUKc8bI2s06ipy23LjWC9dZEQBP5F4FhCIh07nUhNq8NWzn4aNmwYwe9fyDICeJotzGz53MSNRoAedPAt3MZseQzpeEt2x44dVKJECU9dll6Rte6ZzydZkpHC9iGAJD/I9OfUdL92jfQyH3e0fm6kbXkR7OqX1BPdCLx6p/1xOQ4ePGj4/J88eTK6wdUb/YMsPsxKFcHZy7HSA/WyO1h0noo4tpqGDx+uImrIQAMOxdazcgcjWLARp2gewD9Akb74YwrX7z4si38Ef5fdOrS3R8/icMFwibePHnroIZLFXxvPD7kGS8bxblYAgNYXqpCNGDGCzp07pySOZC49bwj99rNSZyNICLHF37u/g1ZaUTfBsXwzvH04Zzd/32CHAKUTnJezrUWDAuSmuYqmviJIEEIF20XI1jphwgS7qovmemChiSdb07vipgs6FFUEbNjLjBCNlgn5Afr06WNZDgLIC9Ch/1d0OhFeiULBRgBufyOe7mbYYAS7LafUv3TzXl74sxvuV6kX/HNsfLh1f7zxJLaaswQuZKNI+S46ZeYisx81WAFvU7c8Na9RhmLzZLdlkEePHjUMsvEqZBsCt3JNY8zU5nYFAGMczPyUmcGmLlO3bl1asmRJ6sumPw8Zt4C+nb7CdHkpqIYAkuh88Ux3KpA7m1oDYxDNAABAAElEQVQFUSCFp7KlvGOAYFWwUbEziFEUwCdD9IEAXFfbXFeedzxrUoViSs9ZPmr+5/KmTZuMiH+7d+/2W84tN+FeXrp0aapataoRcK5ixYqUN2/eq5whQwaCJxoYSg8SHS1btoyQ8thGJWgn44VodwGfTiNBAajAA93IrDSWxYsXU/369VncOh05cYZueulrSrpk2fvCemNRKpGHt7tHPnMLleDgP0LmEDhx+iz9MGsV/Th7tWSwNAeZlEqFAEJvw8vmTvZ0wf9gMAmR/z766CP68MMP7Uj7G8yuXlN3jhw5qEaNGgbXrFmTatWqZexmINicVbpw4QKNGzeOPv74Y/rzzz+tinsrj0iBI7zdSHlNadFMWYFD3s/ifrRQ6QvcAb/99lsVUUOm/8g/xE9bGT3/gtkyZ6RhT3W1LSMZnjKKFy/OrnmR8rX3j1/C3+fo66nL6PsZq4KS38B/63LXrQgg/n//21uE3ND5/Pnz9Msvv9Do0aNp2rRphEXRCZQpUyYqW7YsVahQwXiqx2IPLlOmTFB+S7AewSjy77+1IpAuY+zqBsIvUn4Je/BAfwo0WG/3MblYGAoWLOjtdsBr63cdpjvfUWo6YN3RXACBdj5+vDPVLqfmP58aO/yw3HrrrYRjn5dffpnatWuXukjEfsZ39DXOYbHj4PGIHaMMTB8BPPU/1b0pdWtaTSlplX4P/q3hzJkzNH/+fJo5c6axRb527Vo6fjx43988efJQkSJFjAcEuIdjsQeXL1/ecBdXiRz772isv8OxQMuWLenUKa14M7W45VX+Wo8UBSAjD3IPs9IqPnDgQHrppZf84eT33r2DfqZV2w74LSM3zSMAq/dBD3awLeAIfkQ6dOhAeMLwUO3atenFF1+kLl26UPr06T2XI/YVmQTf4LTKklY4YqdYa2AIXvU+/89V54BWTqV9+/YZ8Vv27NlDBw4coP3799Pp06cJygJe4dWFp+Zcua6NDoqt+ty5cxuMhR7v8Vq4MEcS5UW/WLFilDVrVscNe8qUKcbvVjJCn6rRqyz2uj/RSFEAMMa3mV/wN1hf9/BFQPhJGGioECyw+32CcMxCdiDwXM9mRjIeO+paunQp3XjjjcYPhLf68M//4IMP0r333kuxsbHeikTMNfyOjJy8hIZPXEzqvykRA4cM5AoCBfPkoOFPdw35lr9MQGAEbrvtNoKbpCItYrnG/mTdGgrY25gQGOgxZstKDbRHWGsiBaUKFY/NTfPX7LQla5xK+5Ekc1+HenRnm+tsGdLWrVupVatWfrcOERZ61qxZNGTIEIKygN0AnO1F4q4ATB8Qkjhvjqy0cP0uWzCWStyNAOJLfM52NsUK5Hb3QCK09/gt0ghah+2c95l9JiyJJAUAMSSxclRgtkzIEognQVUDMcSAn7F8q+V2ReBfBNpzzPxnejSz5fwR24UtWrQwtgn/bcH3O0SH3LJlC40dO9awSF65ciVdvHiRihYtSlmyBNcK2nevgnMHWRQz8Hnv0k0IoSEUrQjgzP+Tfl2oXJH80QqB48cdFxdHs2fPNuzUFDqLQH+/MB/yJRtJCgDGiPiUSpF9Dh8+TI0bNzae/nyB5e96ybg8NHPldoILlpB1BBpXLUlv39fWiHpnXfpaifj4eLrhhhsISp0Kwfp4w4YNhkXyoEGDaOLEibR9+3ZDIcDZoRPPC62OE5kUETho3U6fvw1Wq5TyLkMAKaqbcqprIWcjgDwJsGNSpAUst8aXrOXtcl8VOeQ6xoPBVlXpD7aL4X6iSpMWb6RXv56uKh61cpVLxPI2ZDfKmknNBiMlcAiwAetZm3xpU1Z99X3JkiWpTp06xrERjo5gKQxbAniSINGUW+gS73rcP3gcIZKgUHQhcH21kvThIzdF16BdOtrx48dT165dVXv/LAsO8iUcaebPMJccwjzC14D9XZ8+fTqtWLGCYCGuQu3qVaSRk5bS3qM4jRAygwBS6OKHyI7FH0/u+EcJ5uKPMcFgFJyaYDcAJQBWxrA8hhvR119/nbqYYz7HsLLy1r1t6bY3fqBTHDNAKDoQQJrqZ29tFh2DjYBRZswIJzdl8nu+457HFfPj/56Lxpsvfm1JbPmqEtzX7mitpjyotulmOSS1+eTxLpSXXZB06dKlSwSL2alTp+pWpSyflJRk2BysX7+eEGES53dOJ1iAP92jqdO7Kf2zEYE+HN0vWNlME/hYaerSLYQAaZ9N+FMCUNkwb5oBgfxqD5G2AwC4cQiPjEj98cEqjRkzhhAXANaXKnRTo8r0zbTltO+oVgAHlaZdJYOnkMEPdyLsAOgS/GQROQuhNJ1CnTt3prfeessp3fHbD+xc/TJ/ncSy8ItSZNzMytE1e3KIXztpz+GTNGf1DiMhFeKh4GjJQ8u27KPX+rYSLwMPIAqvsE/ToIv+ZCPNCNAz1s38Bi6BlseHxQSsGikOuwA52SNgNidkEfKOQPqYdDTooY50Xfmi3gtYvNq/f3/Dct+iWNCKV6lShSZPnkyIMmkHIevfyElLaMSkv+i3hRtow+7DlIkVqEL5cip7raTsF9wDK3Kil/EL10t8gJTAROB7LP7NapTWHhnyn/y2aAO99+Nc+mj8Qvpr4x46eCzB+O1MWflhzpcynpXL8xyIqmqpOMP7JOV9eR8Ygffee482btwYuKD3EjBqm+v9loLPvK+KHHh9NPepl0q/smXLRjt37qQCBdSyX12+nEw93xhNOw4cU2k+omWw2LzSpxV1aljJlnHCf/+JJ56wpS47KsH5PzJMlitXTrs6PEkNGbeQk/qsInynUlNc3hzUtUlV44kOT3a6JHktdBF0tjz+934deKf29v+Ctbvog5/nEZ78rRCO+nq3rEW3cKhhO76vVtp2a1kcbWIdOnHihOoQ7mHBL30JW35C9lWRA6/v4j7dr9Iv+H+D4BWgQoglkJ8DbExftlVFPKJlHu7c0LYtSPjs33fffWmeOsIFIDwA0KcGDRpodyHx/EV6gqNL4jzVV9S+M2cvGCmAJ/21iSqxJwV2BHSoCKddxlGAUGQiUIXjP+D8X5Uu8xfx/Z/m0eCx85SMRs/yd/qvjXtp3Ly1HDQt0UjvjRDEkUB/n7tAG3cfoflrd9IE3klDau4a7GqLeBs6hGNNnWR13PZHzDt99YF1wogmbH8oreLYBYDvt2qSIKB617tjaK34WV/9guFptf/tN1z9rPNm3rx51KZNGyP+t049dsrq5pTw9OXchSQjtPRyPj81S/ihef2u1tSqjt7Ow8NDxtMS/pEWijwEkOjnthtrKg/s3R/m0Ni5a5TlvQlWLB5LLWqWoSbslliej6GcTlDGDxw7RVv3xdMW5m18PLd5b7xxzaOot76uPA24sxVlzKC3+AMLpKrHjqIiYdsQXgA+syhFugJwIw9+hiJ49PTTT5OOVwDOxR4Z8qtq8xElh4AjSDYC1zNdgpV9kyZNdLbFdLuQRv7mm282jBBVI0l6KsRW/9NDJxpPEp5rZl+B7ZBHb6IGlYubFUlTbtqyfyy409yQC65HANv/qka3SCL1yld4ngoexebOTjX5qblGmUJUjZMSlS2SjxCtMNR0MekSHTx+mvbHn6L9RxP+eeX3++ITDOPuRH7a90Y4Yrm3fT26v2MDW6KZwo4IScw0CJHQ/D4RRLoCAOz+ZFbak0XEN+wC6LhzyRMVGf/Qnz1xMyHFry4hxG/Dhg0Jr06hypUrG25/8P3Xpfd/mks/zV6tXE2OrJnox5dvI7j3qRB2H1o/O4JwBCEUOQhgcZ38zt1KA8KC1+XlUXQ8xFFOYVBdNH8uKlM4HxWLzUWxuXNQXN7sxvFqHnYhzpElE2Xn73s6rLwB6PzFJOPYAvEuTp05RwmJ5+gkv548c5bfn+drZ/kp/p9F/wgbLuK4wwohFPzLd9xIzXk3ww6C61/VqlW9xhuxUP+nXPZRf+X1f5H91e6Me3Ds/1mlK4gqBwvMDz74QEXckHka224caCWla4xyZS4URIjk/7G7nx2L/8mTJw3vDCct/jD6+/XXX43AP7rT8+Os1VqLP9pHeN/Xv5lJn3KMdxWCe2YT3q2B7YFQ5CCAJ2tVGr9gfcgXf/QVu2F7jpw02F/fs7EBbAwrC6DMGTMY5+6J5y/QJfZUAJ3jxR/psINFddibaSAfv8XmyW5bEy+//LLu4o++TArUIf392EAthP/+eO4C3AKVaOjQoaYTynhrANorzr6jkXJnz0If8OIPt0hdQpS/W265hdatc46RGtJHI26EHRb/MB6CZbUdhKOnueyXrUpNqpVSFRU5hyJQs2wh5Z79ygqAkwkGeHiKBx85ecbYskdOFs+1YC3+OHKDUfNQ3t20c/H/7bff6MMPP9SF/ChXEDCBQDQoAFADkRJRic6dO0fvv68sbrT50E0NCFtE0UR44v/g4Y6EVMm6hEx9vXv31kmIoduFNPI46x8xYoSyp0jKCjfvPUr/5chp3lz9Upaz8n7Y74t9eg8EqqdWuSKBish9lyFQsmBepR4jrPnOQz5tyJTqjAQhZFD84tlb6O52dW1JYObBZPPmzdSnTx87PJu+4zq9Gyt4GuPXaFAAMNxvmZUPjYcNG6aajhFtG0/A93Wob7yPhj84kxt4d2uqzoY8dtCTTz5puNfZUZcddWDxh1J45513aleHc9WnPpto+5k7LJRXbT+g1L+CvJWpakOg1KAIBR2BonyGrkJLNyn/bKo053gZ5Cx58pYm9N1/exqBjezs8JEjRwgRRE+d0o4ii/OOoWb6Fi0KADSht8wA4q0MdgH++9//ertl+lr35tUMYxbTAi4u+FjXxnRDrbK2jAA2GB99BFdWZxAS/nz++eeGh4huj2AX8uKIKXT4xGndqrzK/7FE+eSLGlZR9yTw2hm5GDYE4CIap2gUumkPMqwLAQF4Mo15tTfdzsGM7PBmSokqFn1En8UOgA00luswFYQmWhQAYPoF8x68UaHRo0fT0qVLVUQNGXxhYBAY6dSNo3zd0aq2LcP8/vvv6YUXXrClLjsqyZ8/P02cOJHuv18pvlSaLvzv5/lkxdc/TQUBLixatytACd+3JU+8b2zcdqcQR4yERb0K7Tgo2/84xvzosc6GPROib9pNCQkJxuKPTLQ2UBLX8brZeqJJAcAuwJtmgUldDvkB+vXrp3U2U69SMerQwJ4QuKn754TPjaqUoOd6NrOlK7Nnz6Z77rlHC29bOnKlkjvuuMOIx43gQ3bQpMUbCVb/wST4Mqu685VQPDMO5nikbjUEdIxwD/N3KFoJRsyP3dyYfnzldsJvWzDo+PHj1Lp1aztTmI/gfppOHBBNCgDm7yvmXXijQsgzP2HCBBXRqzJPdW9CSIMbaQRvh7fubWfL1tjatWupa9eudP78+bDChLN+hIOeOXMmffPNN4QdADtoA4cMfev72XZUFbAOhF9VIZx1CkUGAlkzq8/lsdOJkQGChVFAYYJ1/+9v9qU729QJWjCiPXv2UKNGjeivv/6y0Du/RQ/x3Vf8lkh1M9oUAPwavpEKA0sfn3nmGYJLmirBGwAhOSOJCnDeg48eu4myZ8moPSz4+Ldv357g8x8uQhho7D6sXr2apk2bRjfccINtXTmWkEjPfD6Rs6Nhpy74hKhmKsS6j1CEIJA9s1pWygv83QmWC50TocUT//0d69MEjpgI6/4sQVSCFy9ebOQMsenM3wMnzibjPR/MvKY3UyjCynzD43mRWSlkEyIDwivgscceU4albb0KNIUNtBZqnNEqN26zIJ4Uh/D5mB1W48eOHTOeuMMR6AcBfTp27EjdunUzcgxkyWL/Lg0W42eHTSJEGhMSBEKFQDbFHYBoWfxL8+5l92bVqCMfzwZz0ffMN5L7wI4IxuU20pdc1+9W64tGBQC7AAOZv7YKlqf8a6+9Rr169dLaEn7hthZ06+vfk6+40p62nPwKw6I37mlL5Yvqb41ju79Lly60adOmkAwZ1vzXXXcdNW/e3HjCb9asGWXMqL+D4a/z7/44h9ZsP+iviO33VH/Q8PQnFBkIxMSobfSq7h65ATU8uDSrUZpuvr4q1S5fJCRdxs7xs88+Gwyvpl08gCdVBhGNCgBwQlyAJ5hr4oNVwpPq888/T198AccCNYJl7rO3NqPXRk1Xq8ABUv26Xm+4xuh2BQaW9957Ly1YsEC3Kp/ymTJlotq1a9P1119vLPpIJmRH7H6fDaa68eWUpRTqiGrIRoZ46SoUqiMKlb6JjDUELiZdtiZwpTTCQkcSQRluXLUktb6unPFqR3hys/js3LmTevToQcuWLTMrYrYcjDR6MCeYFUhZLrJmOOXI/L/Hf8TTzDP9F/N996uvvjKi07Vo0cJ3oQB3OjWsxPmx95COv3aAJoJ2+6ZGlQ1/WDsaeOmll+i7776zo6qrdZQuXdo4Y0M6TXCtWrWC/oR/tfFUb8YvWEdDf/sz1dXgf0SaVVX3r8Rz2CgTigQEVM05MtqQvCvc+CFiH7JjNmQrfuRDCEd2QWz5P/7448Gwa8I61odZ2T89WhUAfC9nMePMpBM+WCU8tT700EOGoRieLlXphV4taM2Og3SAU026hWrxP9KLfIRhB3355Zf01ltvaVWF83ss8vXq1aO6desa72NjY7XqtEt41srt9Pbo2cpheVX7kZ63fe/tUE9VnE5wdjShyEAgX66sSgNBgh0c7yGqpBsI3/kKxQpw9tHCvNgXMl7z5VQbux3jPXDgAD3wwANG7BA76vNSR3++Ns7LddOXolkBAEjPMbdlVvKTgQUnMgW++CJsCtUIlvNvs/vcPe+PpaQr2avUagqNVBFOz/n+gx2MjFu6Lc6ZM8dQoqzWAwM97LzAOh9n+DVr1qSYmBir1QS9/KyV2+ilL6baGuPfbKcf7tyISsXlNVs8TbljpxLTXJML7kQgVzZ1g9bv+veiOZxYasLC9bR0817HeAVgO78sG++VYwWlYvFY4xVP+045thg1ahQhhPmJEyeC9aXB+fO7upVHuwIAi7NhzI+qAjlw4EC69dZbCVvOqlSlZEHD/eSzCaHfJrbS55yce/tjtviHu4wuIasfjP7MulTmzJmTOnToQDfffLMRNSt79uy6XQiq/OiZq+hDjvRnNa+4HZ26sXZZ7WiMYgNgx0w4o4706dWMANF7HCHdUKuMwecuJNGKLftp3a5DtH7XYdq2/xgd5ex7wfqO5+Wnd7gYIzdFMY7Gh4h8nld4HTnRVXX//v3GU/+kSQEz8ep8OWDD9oBOBR7ZaFcAgMNrzL2ZldLWnT17lh599FGaPHky6lKmu9rWpa281TZ9+VblOoIpiO21dx/oQMULKsF0TdcOHjxoLOZmkl5UrVrVwBfZAOGf73TCj+H/xs6nH2atCktX8dT/ap+W2j+OSZfECyAsExiERmNsWinxdN2oagmDPd2Et8j++FN08NhpOsnHRifPnDNeT/19zojieelyMiFdr4dgeJeJjVNBeI8dUATewcPFP6+ZjUU/f+5sYTmv9/TT6uvFixfps88+owEDBgTjrD9ld77hD3cz2/IPKgrAP4ET3mRA30+JspX3U6ZMMVLD3nfffVbErimL/9EBfVvR/mMJtIG1a6cRPBbqViiq3S0oTHiKRxQsf4TEGAi6ZGcQHn/t2XEP/v2vfD2Nlm3eZ0d1luvImjmjcTyDV11yw3GU7hijRd6OHTtfWMGoDkqnznGTr7rdch2//0899VQoXJhHMSZY/GH8Zwuls6UW91fyMQ9hh84w8AVAkCAdgkY8iJ+yw2m44q3/t91Yi5DkR5cu8VMljkv8hb6sUaMGwTYAOypuWfzx1A8Xv54Dvw/b4o+t2oF3taaScXl0p8mQFwXAFhgdUUkBfpoWsh8BxCzBsSQil4YgfslHPAJbF38gIgrAP98LBJ1//p+3an/PnDlDffr0ISxyOhTL512DHuroGGOW5uxK9kS363WGdFX2ueeeo99/9x6sCoF5EGAJGRcRlMcttHLbAbrnvbH0xnczKSERX6PQE3aPXup9oxHYxK7WRQGwC8nw1yMKgL1zcOTIEXriiSeoevXq2ke/JnqGBeVx5n7Mtj35e9p1num0p2ehf93ATTZmLqPa9N69eylDhgzUtGlT1SoMORi9VC0VRzOWbyPkjA8XwTjxA1ZGEFBGl+Du58tbIl++fEaSpbvuusuR1vzexr6Ut/nfHj2LhrLh5hE2hAonPd2jKd1iww5NyjH8tXEvQbkRcj8Cj3ZpZIvXjvuR0BvB0aNHjYcU2CPNn88GvsH/bcYPSw/mb/V67luanx2EUiBQjt+vYc6c4pqlt1AAkDWwTp06luS8FV60breROCYcYVlLF8pLw5/uZovF/6xZs6ht27YEQ5nUhAx7SP0LYz+nUwIbNs1YsY1+nreWtuw96ojuInkJ2G766JcF9M00W/KT2901qc8CAjnYuG72B7YYjFtoNbKKxsfH06BBg+jTTz8l7PSGiHZyO92YVwazPTECvBZdmOC/wzzg2svmP2GRg4aIrWxdVzVY3L5zfzt6btjkkMYIwDny0Ce72rL4b9myhbp37+518c+cOTP98ccfjl784Q43l/2g/1iyhf7csJucFB8dGcuCsfjj2y5HAOb/551cEm50QmoIbNy4kYYOHUqI+hrChR+dhQ9hH+bj+BBMEgUgLbpQAHoxV0h7y9wVGIRgO3vMmDHsjqW3ydK0emn68JGb6IURk+nM2X/dacz1xHopZMb6rF8XWwwRjx8/Tp06dSK8eqPBgwfbslPirW6da3BnWrJpLy1Yu8sIguK0hE0w+INXRvdm1XWG6VdWNX6830rlZsgRKJDb2fEyQg5IgAbxADd+/Hhj4YcxcogJ5/0vMSPAT3Io2hYFIC3KsOS6n3k2s7KR5M8//0zvvfeekTQobRPWriCW9Tcv9qQnP/2ddh8OWmQpuo7d/N5nLwRsG+oS/pGQ/AI7AN4IiXkQStkJBDsLhDtdwufef23aQ8s37w+r7YU/TOCL/RZHjmxavZS/Ytr3ZAdAG0JHVCAGgIGnAYbbONMfO3YsjRs3jg4fDosb9m7u6Z3McwP32L4SogB4x3IeX/6U+THvt81d/e9//2skoWndurU5AT+lEAXri2dvMY4DVmzd76ek2i24+T3DxmQZ2K/XDnr44Ydp5syZPqt65ZVXtHdHfFYe4MbZ8xdp4+4jRg4GGLoBT1xzOiEy2v8e7kQwzgw2SSCgYCMcmvrlCMA7znhAwaKPB7VffvklXIu+p3Nj+Q0MNYL3dOdpKdWrKACpAEnx8UV+34G5dIprlt5Cs7ztttsMe4BSpfSf2BDQ43M+m/9x9irOLrfYlkULkbie54RE7eopn3ikwQT5EUaOHJnmuudCrly5DN9Zz+dgv8af+ptW8UK/evtB2rjniBFoKRyGlTrjrFexGL3WtzWF6olOdgB0Zss5sqH6vjhnxL57sn79epoxY4bB2N4P8bm+t47Bkhi7zb96uxmKa6IA+Eb5b751D/Ms5v/4Lub/zrFjx6hr1640b948W/LP4/wXgXma1yhDb34/y0gn7L8Hvu8iZvwzPZrZuqjAzx/+/v6oVatWhrukvzKq9y5cvGQs8ljsV28/QGt3HqLjCYmq1YVdDjsyj3RuyKmXa2uH97UyGFEArKDl3LL5o9QIEE/4q1atMoKOIfAYPJGQnc9BBNe+p5jjw9knUQD8oz+Hbw9hfsJ/Mf938UVE+FskiNBJHZyylcL5c9KnbKwHy/Sv/lhmJOlIed/X+3RslFi/UnG6r2M9ql66kK9iSteXL19Ot99+e8BgSGXLllWq35sQB+GjzXuP0KL1u+lP5nUcRtlJlvre+mz2GgwyX+Pw0JU421mo6aILMlOGGhM3tqdqBLh48WKC+xuicWbNGr6UumYwR3hxWOxv2LCBli1bRkuWLKGVK1fSuXPnzIiHusx2bvBB5hmhbthbe6IAeEPl2ms4CriBWcvkGufhcA/88ccfbQ1207ByCQLvOnSCpi7dzDsCe9mg7Sghc5eH8uTIQqXYr78BL/ytritHxQroJ/Tx1O153bZtm7Gtf/r0ac8ln6+FCukrHjsOHKOJizfS9GVb6eDxwG367IwDb8AIE+59PZpXp5h0ynaoWiO7JAqAFn5OEVbdAUBsjv79+xNcda+77jqqX78+NWjQwLBpKlmypK2/YWawwhP9vn37jBwiO3fuNELvYsEH43MIgvKY6aa/MtiGHMz8NvNZfwVDeU8UgMBoQ43sxbyMOUvg4r5LwOAExnHDhg3zXUjxDnz3H+jUwODLnIHrDGfggvsaEsMg01Yw6dChQ9SmTRtCiEwzpKuZw1r/qaG/X6PkmGnX6WWwO9O5cRV6mLf8obSFk4KV4jWcY4q2tvF9ys+Goyrk2S7H/+qCBQsM9tSTMWNGwi5euXLlqHjx4hQXF0dFihShggULEtJ2ezhHjhyGCMojk2cyb9edPHnSuIands/vANyEwTguBXveI/Iekobt2rWLkEHUBYu8B6KUr3Dn+5kZ56K7mB1FogCYm44NXOxZ5k/MFfddavjw4VSgQAF64403fBfSvAM7ASO9ZpAXfnQzISHBePLfsWOH6V7jn1yH6lUqRmNe7U2fcRjeacu28A8D/sfcSzjnb1u3PN3Rug4hAqOQIGAHArmzZ1b26vEoAN76ceHCBePJG0/fQn4RmM93cc6Ph0dHkigA5qcFboFNmXuYF/Fe8s033zS0WbzqBgry3kJorv7999/UuXNn47zNSotr1iDash4VzpeT3ri7Dd3XoR6NmrrcUARSHnvo1R4a6ayZMlCX66tS75a1CEmgnER4WhNyNwJxef95AlcZxf799rsaq/TDpTJ7uN8vM8PQz9H/SMrW7S6dGN1u4z9qCXNF3Yogj+yBX3zxBSETntvoxIkT1LFjR1q0aJHlrmfJksXY6sOrXYQoiVOWbKJpS7fQ6h3YLnTm/x12Z+pWKEbt61egFpxpEUc0TqTHP55gGFY6sW/SJ3MI4Pv1/oPwZLZO2NpHcjMhSwhAa3qXGWe8wQ/baqlr3gu7b+XxPo5QXYW1WRdmKAE5dRv95ptvjDMxGAbauRjq9iuQPM7jkNxH9Uke538IvgGPAbsI8QwQGhd8ipP2LFy3i5Zxxr41rAwgemI4H2gzZUhPtcoVpkZVSlCrOuVtdbv0h98PP/xAvXrBfMU6iQ2AdcycJlEon9oOAAzu/B0BOG2cDugPNKXBzMOZHWPgZwYX2QEwg1LaMjgG+JHZFvyaN29uLIh58uRJ25LDrmzevNkw+Nu9e7dWz6pUqWIoEOlCYOUOhQCKwFYO94uQv8jkt+/oKQrWIgcDvnJF81OVEgWpHnte1GB3SztSKpsFHNv3AwYMoCFDhlw1ujIr6yn3yJBftWJMeOqR1/Ah8FT3JkbMEKs9gNGdHYHLrLbrwvL4EUTumC+ZXfHEnxpj2QFIjYi5z2O4WGXmV80V918KUakQG/+nn36ievXq+S8cxrsTJ06kO++802dyHytdQ1Suzz//3PCKsCKnUjZXtszUpFopgz3yCBi0L/4U7WeGMnDwWAKdPHOOTpw+S8cS/qa/z11kvmDYakBRSOTP2GWIiUlHWTNlZOOqdJwwKRsV5LN7RFuL5aQrJQrmMRb+fIqW156+6bzCLgNzhJjmuXOru3smO/voUgeiqJFVtQHQVe4jHGCcLSLGOZ72f2V2fgxx7qQvEgXAFzKBr7/GRWALcGvgooFLQOtu3LgxvfTSS/Tyyy9TKJ6MA/fqnxJJSUkEg8XXX3/dWBDNygUq9+yzzxqBRipWtMWkIlBz19zHEzks7iPJ6h6xGJB6GYGnQFrfIWeaUFwzh/LBPwJxedSOAOB6J5QGgWN85StmnO9vS3PXpRfCE2XEpWCl6jZ+Iu9i/ivVdeWPWGixdYuogbqucsqdSCWIp4EmTZoY/bLbDzcxMdEwJEQcASE9BBBjom7dulcXf9Sm42EiXgB68+EE6Tj2lFEhUQCuoobz/PHMMFYqygxX8IhZ/Hks6uluISxkGHzAzNZWh9jffvvNCLLx7rvvEnxuw0EwBProo4+oWrVqhLCgwaLt27dTu3btjLCjwWojkutFQpO+ffsaT/6eICue8ersAMgGgAdFd75ihysPJw9ToSi3/seiP5H5TuaCzF2ZRzM7Mq4w90uLZAdACz5DGFtDbZlt9ZmBm90LL7xA1atXpylTpuj30kINCFtcs2ZN6tevH5kJ7Wuhaq9FsWWNUKMwMBQyjwC+F1WrVqVRo0Z5FdLbAfBapVx0CQI4/+dAgEoUhTYAWxkonOl3ZkYkrk7M3zBHVoxxHlBqEgUgNSJqn7H4t2FGekdbCYti+/btqUOHDgRjwWARtvfhmte0aVNq2bKlEekrWG15qxeRBBs2bGgYr3m7L9f+RQAhl5FmGt8Lfz/WejsAsgfwL+Lue6dqAIiRRsERwB4eJrRmPOUXYy7P/ADzb8wR+aTP4/JKogB4hUXp4kaWuoH5iJJ0AKHJkydTixYtDG+BTz75xBZLfDSJ7b7//e9/xpFDt27daP78+QF6Erzb2PW45ZZb6J577rFtfMHrbehrPn/+PA0ePJhgNAkf/0CkswMgTgCB0HX2/UJ51c7/MaoIOwLAlv6fzAjjDputcswlmPsyf8O8jzlqSXGTKGrxMjPwKlxoFnOsmcKqZRA98PrrrzfOz+E9ADdCM8GEsMgigA92E2BrgLSZTjT4io2NpXfeeYfuuOMOV0ZKVJ1Xb3KYn7Fjx9KLL75IVnIuIEELMqip0H2DfqaV2w6oiIqMAxBANkmwVUIinnz58lkVc0r5E9yRTczLUzAezP5NjcofhP5FQNwA/8XCrnfruaIWzNOYi9hVaep64DGARRwMypAhAxUrVswI4IGsXNmzZzfyeMNI7NSpU4aR3datW5UXBKOREP7BNvfdd99tuB5i4cN7N4ZM1oEMxzLY+YH75dKlSy1XpbMDIAcAluF2lEChyPUAOMNAwxIf5/YehvEQ3sczC1lAQBQAC2BZKAqvgEbMU5gRMCjoBKt9PB1aeUIMeqdsaADxER544AH64IMP6Pnnn6eePXua2umwoemwVYFgPt999x29//77BC8JVdKyAQhn7GTVAYvcVQRUbQD82ZRcrTztmwl8CbvJBZgLMiOkKT77i0R1me+fYk5kPnvl/d9X3uMYFb7B2II6zIwY+7iG7SwoAEI2ISAKgE1AeqkGhiZNmGFY0tjLfblkAQEYQ2IX4IknnjCUgIceesjwVLBQheOLbty40bDoHzFihC02ELID4PgpD1oH4/KqZZdUNAB8nAeC3zszBKUAC/55M4WlTHARSBfc6qO+9uOMQEvmr6MMiaCduSUkJNDw4cOpVq1ahgIwcODAkHss2DmXO3fuNJ70EcSncuXKhNgPOIe1g3QUADvalzrCgwDc/woqRgFUMADE/7oVY5GTXF4W//B8NdK0KjsAaSCx/QLcSu5iXsH8AXOkY76Dx9iN+W7mx5iDRqtXrybwK6+8QiVLljTcFxs1amTEFIClvM4WeLA6DdsNnOfPmDGDJkyYQMuXw17JeZTs0HTKzkPKeT1CjoqM6WOUOqZwBIDFP2gKv9IgRMg0ApG+GJkGIgQFP+Y2EKT9O+biIWgvHE38zo32YYaW348Z2313MAedYCswcuRIg9FYrly5qEGDBgbXqVPHeLqGkhATo/bDqDoAGGCuWLHCWOjnzZtHc+fOJexihIIuXbqk3IwYASpDF3ZB1fN/dFzhCMDs1n/YcZEOpEVAFIC0mATzCpzsazJ/ztwjmA2FuG5s6b3C/D6zZ+3AK3YBsjJjRyCkhIV36tSpBnsazpQpk+FDj92BSpUqGR4ThQoVosKFC1NcXJyy+xNyGsBrAdv5MNpDUh4w3C3xGi43Sx0FwIOZvLoPAVEA3Ddn4eqxKAChRx6+qrcy42kZRwKwnHUzwT8NRxxwf0xN2BrEWD9kfjT1zVB/RiAdz7GBt7ahIMCFMmfOnIT3WbNmNV6zZeMt1YwZjbDI2MJHfgZY6sfHxxuM904kneRN6XCQLORKBApxGGAVwvdaITHXXpW2RMYZCIgCEL55wFHAFGY8NfdldtsvLla9N5nRf39ngNiHhi3AzitlHWt4CgVBYQuUh+VM0tkBiEnntq+jM+cgHL1SNQBE0CgFpVFSeYZjkm1q07E/xjaNz+nVHOMOYpv8euaFTu/slf5ha/9b5orMbzP7W/z59lXCbkdHZvj1CoUAAR0FwIkGlCGALCKaUHUBVDAABF7w4xdyKQKiADhj4hZxN6AEdGFe54wuee3FH3y1PjMM/fZ5LeH/InY8ajDjVSjICCg8zV3tkewAXIXCdW9CHAXwrOsAkg5fRUAUgKtQOOINImpVZ+7APMsRPSK6zP34mbkOcztmnPnrEHYAML5HmE/qVCSy/hHQ2QGISSc/Df7Rde5dVSNAxeMvUQCc+1UI2DP5Lw8IUcgLYIt9MvONzHhahgEdwmCGmnZxgwOYSzF3Z17BbBdhjJ8xV2D+mhmfhWxGQGcHIJ3YANg8G6GpLnPG9JQrW2alxhQVAMQ5EXIpAqIAOHvi1nD3nmQuyozzcyyaO5iDRdu44sHMzZjLML/GvIc5WATF5i5mhEqeG6xGorVe2QGIvpnXSQOsqADIDoCLv2biBeCOybvI3Zx0hdHj8szNmbFDgCMDcE5mKwQrfmTRWsYMA0TwduZw0J/caPMrPIBfoYAIaSKgpwD8R7N1EQ8HAoXyqbkAoq+iAIRjxsLbpigA4cVftfUtLAj2EH6tSzBjp6Awc27mXMwpd3hO82e47BxlxlM92Glb73O4T82ZsSPwKHNX5ozMQv8gsJVfNjLfZAYQOQIwg1JklVE9/wcKCnkAICY7AEDBpSQKgEsnLlW3sZDvusKpbrnyo2dHIo57fx9zX+bSzNFIF3jQCBqF6JEzmW9hNqUA6O0ApONmhNyGgKoCgKBWigGtRAFw25ckRX/lvzwFGPLWcQhgx2IgM+wRGjDDIBLJRyKdoNAtYH6QuRAzFv0ZzLhuyehKVQkQN0BG2oVUJD82/qyT4vY/GhIFwDrcjpGQHQDHTIV0JAACf/F9MIwiqzDDKLIlc1PmSDgmQMTExcxjmccx72P2RpZSqarmIZBAQN6gd/61IvmtmgL9MybksVCk0GS2UuyciPlHQBQA//jIXWcisJ67BX6XOTtzfebrmRsxY6dA7VeQBUNIeJpH0Cds64PnMJ9hDkSWdwDSp7f+by47AIGmwZn3CyvuAGgoAGa+s84ES3oV8bnpZYojHwH8AHkWUYwWx1plmWsx177yWpFfizGHk/Zw43DrXJKCTyh0yLICoNAGSSAgFdTCK5MlUwbKkz2LUicUFQB8F+GhJORSBKw/Grh0oNLtqEEAkQvhIQH+KcWosVOAwEPgksxQCIozl2DOz5yPWef/ATHREddgHzP2U3cz72LewIzdCru2Si0pAKqeABIIiGfMZYQQwKpJHBUVALu+0y5DOnK6q/ODFzkoyEiiAQHsFCy/wr7Gm5dv5GGGGyXsCrIxQ3HIwOwhLPQ4hz/FnMR8jDmeGddDQZYUAHUjQLEPDsVk2tlGUcXzf/Rhxw6l+GJwLRZyMQKiALh48qTrtiNwnGsEO5ksGQGqKgDpYyQQkJO/BN76ppoECIaiil4AsgPgbSJcdE3UfBdNlnRVEGAELO0AXLiAMALW6T+qe8nWmxIJmxBQdQE8ePAgnT2r5M0nOwA2zV24qhEFIFzIS7uCgBoClhSAc+csFb/aIzECvAqFa96EwQVQFADXfDu8d1QUAO+4yFVBwKkIWFrRVRWA9DHy0+DUL4CvfqkeASgaAKIbsIMRcjEC8l/u4smTrkclArABgKeDKTp/3pLJwNU6M2UQ86CrYLjkjeoOgKIBIFCBAayQixEQBcDFkyddj1oETK/qqjsAGTPERC24bhx4bvb/z5ZZLSCmxg6A0w1m3TiVIe2zKAAhhVsaEwRsQcD0MYD6DoAoALbMVIgqKazhAigKQIgmyYHNiALgwEmRLgkCARAwrQCo7gDIEUCAGXDY7SIcBEiVNBQAOQJQBd0hcqIAOGQipBuCgAUETPtsqSoAGcUGwMJ0hL+o6g7AxYsXaf/+/aoDkCMAVeQcIicKgEMmQrohCFhAwPQOgBwBWEDVxUVVYwDs3r2bVINFMVyyA+Di7wy6LgqAyydQuh+VCJhWAFR3AOQIwF3fq8KKRwAa2/8ASCWZlbuAjfDeigIQ4RMsw4tIBIKuAMgRgLu+N0UKqNkAaCoAsgPgrq9Jmt6KApAGErkgCDgeAdMKgPIRQHrxAnD8t+BKB9Nx2OaCeXIodVdDAUCMadkBUELdOUKiADhnLqQngoBZBExnHlQ+AsgogYDMTka4yxXInZ0yKipsGgoAUl8nh3vs0r4eAqIA6OEn0oJAOBAwHYNdVQGQQEDhmFa1NlUjAKI1DQXgoFpvRcpJCIgC4KTZkL4IAuYQMK0AqB8ByA6AuakIfykdBUAjDPCh8I9ceqCLgCgAugiKvCAQegSCrwDIEUDoZ1WxxcL5cylJnjlzhuLj45VkWUgUAFXkHCQnCoCDJkO6IgiYRMC0AqB8BKB4pmyy/1LMRgRUdwA0tv/Re1EAbJzDcFUlCkC4kJd2BQF1BBLMiqoqABIHwCzC4S8XphgAh8M/cumBLgKiAOgiKPKCQOgRML0DcPas6ajB14wiA+8AwL1MyPkIiALg/Dlyag9FAXDqzEi/BAHfCJhWAHDOq0JY+6EECDkbAXhr5M+dTamTGgaAaG+PUqMi5CgERAFw1HRIZwQBUwiYVgASEkyfFqRpOGvmDGmuyQVnIVAob07lnZpdu3bpDGa3jrDIOgMBUQCcMQ/SC0HACgKmV3UtBSBTRit9krJhQEDVABBd1dgBOM/iCAQk5HIERAFw+QRK96MSgZDsAGTPIgqA079dqlkAMS6NHQBs/0sUQKd/OUz0TxQAEyBJEUHAYQiYVgBOnzZdNM0Qs4kCkAYTp10oFqsWA+Do0aOkah/CGEABEIoABEQBiIBJlCFEHQKmjwBOnTqlDE72zJmUZUUwNAgULZBbqSGN7X+0J+f/Sqg7T0gUAOfNifRIEAiEgOnH+sTEREpKSgpUn9f7cgTgFRZHXSweq6YAbN26VWcce3WERdY5CIgC4Jy5kJ4IAmYRgBEW0rGaItVjgGyZxQbAFMBhKoQ4DYXz51Rqfdu2bUpyV4R26giLrHMQEAXAOXMhPREErCBgehdA1RNAbACsTEfoy8blzaGcBlhzB0Br+yD0SEmLvhAQBcAXMnJdEHA2AsFXAGQHwNHfgKKKBoAYlOYOgCgAjv5mmO+cKADmsZKSgoCTEDBtCKi8AyAKgJPmO01fVM//UZGGAgCr0qNpOiMXXImAKACunDbptCBAQVcAxAjQ2d+yooppgE+cOEHHjx9XHZw8/asi50A5UQAcOCnSJUHABALHTJQxiqjuAIgCYBbh8JQrXlDNA2DLli06HRYFQAc9h8mKAuCwCZHuCAImEQi6AiBeACZnIkzFVGMAaGz/Y6Ra7gNhgkqa9YGAKAA+gJHLgoDDETB9Dqu+AyCBgJz6HYALoGoeAE0FYLNTMZF+WUdAFADrmImEIOAEBOLNdkLiAJhFyj3lYvNkp0wZ0it1WFMBWKfUqAg5EgFRABw5LdIpQSAgAqaPAFTDAYsNQMA5CFuBMHkAIKTkprANWhq2HQFRAGyHVCoUBEKCgOkdgPh400Wv6XjObJkpJp38RFwDikM+lIzLq9wTjSBA2P5HFEqhCEFA/rsjZCJlGFGHgGkbAFUFAOfMeXJkiTpg3TDgknFqHgBwATx2zPTmUWooZPs/NSIu/ywKgMsnULoftQiYfqxH6ldVyisKgCp0QZUrWVBtB2Djxo06/VqrIyyyzkNAFADnzYn0SBAwg8BhM4VQRnUHALJ5c2bFi5DDEChZKI9SjzZt0jrClx0AJdSdKyQKgHPnRnomCPhDALkATEUD1NsBEAXA3ySE415WDtFcIFd2paY1FYBVSo2KkGMREAXAsVMjHRMEAiKwP2AJLpCYmGiwmbKpy+TPJQpAakzC/blkXB5i8wwl0lAAjnCDu5UaFSHHIiAKgGOnRjomCAREwJQCgFpUjwHy5hAFIOAshLhAyYJq2//opoYNwNIQD1OaCwECogCEAGRpQhAIEgKmFYDDh02bDFzTVbEBuAYOR3zADoAKnT9/nnbu3KkiChlRAFSRc7CcKAAOnhzpmiAQAIF9Ae5fvX3gwIGr7628ySdGgFbgCklZ1RgA8P+/dOmSah9FAVBFzsFyogA4eHKka4JAAARM7wCoKgB55AggwBSE/rbqDoDG+T8GuSz0I5UWg42AKADBRljqFwSCh0DQFYD8sgMQvNlTqDlzxvRUQjENsMb5/y7uKowAhSIMAVEAImxCZThRhcAus6NV3QHInT0LpUunaHJutnNSzjQC5YsWUA7PrLEDsMB0B6WgqxAQBcBV0yWdFQSuQWA7f0q+5oqPD/v3m94suKYGLP5QAoScgUD5YvmVO7JunXIcnznKjYqgoxEQBcDR0yOdEwT8IvA33z3kt8SVm6o7ABCPy5vDTBNSJgQIVCoeq9TK2bNnacOGDUqyLDRXVVDknI2AKADOnh/pnSAQCIFtgQrg/r59ph0G0lRXJF/ONNfkQngQqFCsgFLDa9asoaQkZPO1THAfMfUds1yzCIQdAVEAwj4F0gFBQAsBUz/OyAJ38uRJpYYKiQKghJvdQjAALFM4n1K1y5cvV5JjIXn6V0XOBXKiALhgkqSLgoAfBEwpAJBXDQJTWBQAP/CH7lb1MoUoQ/oYpQZFAVCCLeKFRAGI+CmWAUY4AjAENEU7duwwVS51ocL55QggNSbh+FyzTGHlZleuXKkqO01VUOScj4AoAM6fI+mhIOAPAdP5XVV3AFT9zv11Wu5ZR6B2uSLWhVgCBoDr169XkcV3Szl2sEqDIhNaBEQBCC3e0pogYDcCG7nCC2YqVd0BgA0Azp+FwocAtv6rlopT6sCiRYvowgVTX5HU9U9JfUE+RxYCogBE1nzKaKIPAfyym3q8U1UA0nHuWdX489E3HcEZca1yhZWVsDlz5qh2arKqoMi5AwFRANwxT9JLQcAfAqv93fTc0/ADp9KF8nqqkdcwINC0WmnlVmfPnq0ie4aF5qsIiox7EBAFwD1zJT0VBHwhsMrXjZTX9+7dq+wKqOp+lrJ9ea+OQJPqJZWEExMTaelSpUR+M7nB80qNipBrEBAFwDVTJR0VBHwiYEoBgLSiMRifPxf02bjcCC4Cpdn3v0j+XEqNLFy4UPX8f5xSgyLkKgREAXDVdElnBQGvCOAIwFROgLVr13qtINDFSiUKKiehCVS33PePQPMa6tv/M2bM8F+597t48v/N+y25GkkIiAIQSbMpY4lWBBDiz5Q7oOoOQNZMGahMEbUodNE6KXaNu339ispVTZgwQUV2KgudUhEUGXchIAqAu+ZLeisI+ELAVMhWjYhwVLdCUV9ty/UgIVC9dCH2wMijVDuUvc2bN6vI/qwiJDLuQ0AUAPfNmfRYEPCGgCkFYNmyZQTDMBVqUbOMipjIaCDQsWElZelx45SO8WX7Xxlx9wmKAuC+OZMeCwLeEDClAFy8eJFUdwEQiz5fzqze2pZrQUAAxy6tryuvXLPi9v8kblC2/5VRd5egKADumi/prSDgC4GDfGOLr5spr8MyXIUQEKhz4yoqoiKjgECX66tS9iwZFSSJdu3aRStWrFCR/VJFSGTciYAoAO6cN+m1IOANgXneLqa+Nn++enyX7s2qK2ekS90P+ewbAYT+vb1lTd8FAtz55ptvApTwevsQX4UBoFCUICAKQJRMtAwzKhAwFbt95syZlJCQoARIgdzZqFWdckqyImQegXb1KlDBPDnMC6QoefnyZfryS6UH+a+4mqQUVcnbCEdAFIAIn2AZXlQh8AePNqCF3/nz52nyZPUw771uVH8yjarZUBwsnv77tr1OUZpo+vTptHv3bqvyiCMBBUAoihAQBSCKJluGGvEIYPE3tQugaCFuAFipeCzVKls44sEM1wB7tqhBxWNzKzc/YsQIFVkYkW5VERQZ9yIgCoB75056Lgh4Q+AXbxdTX8MOwMmTiB+kRr1urKUmKFJ+EcibIwvd076e3zL+bh4+fJh++00piN+H/uqVe5GJgCgAkTmvMqroRWAiDx2+3H4JsQC+/vprv2X83UR4WtX49P7qjfZ7j3RppGz5D+w+/vhjgqunRcKT/+8WZaR4BCAgCkAETKIMQRBIgQCs+6an+Ozz7aeffkrJyaZSCKSpI126/9C9HdSfVNNUKBeoUZUSdFMjdTfLU6dOEeZUgYawzGUFORFxOQKiALh8AqX7goAXBMZ6uZbm0rZt2wgeAarUgWPUly6UV1Vc5FIggK3/V+9sRRxqQZk+/PBDlWOdE9zg18qNiqCrERAFwNXTJ50XBLwigEPggMcAkBw6dKjXCsxcxC7Agzc1MFNUyvhBAIv+gL6ttaIswq1zyBA8yFumz1jib8tSIhARCIgCEBHTKIMQBK5BANZ906654uMDDMa2b9/u427gyy1qlqXa5YoELiglfCLwaJfGxva/zwImbuDs/8QJPMxbIoT8/cCShBSOKARiImo0MhhBQBDwIADlvqvng69XBI05d+4cderUyVcRv9fx9FqlZEEav2A9XVa0J/DbQITf7NqkKj12c2OtUR46dIh69epFiO9gkd7j8qbcRi3WK8VdgoDsALhkoqSbgoBFBHAMcNaMzKhRo2jfvn1minotU7pwPurRvLrXe3LRNwLIrvhCrxa+C5i888QTT6hEdsQu0f9MNiHFIhQBUQAidGJlWFGPwGlGAJndAhKeHAcPHhywnL8CD93UkIoXzO2viNxLgQBC/b59XzuCHYUOzZs3j8aMGaNSBRZ/KAFCUYyA3rcvioGToQsCLkCgG/fxZzP9zJo1K+3cuZNiY2PNFPdaZsPuI3T3e2Mo6ZJ4lHkF6MrFnjfUoKe6NyVkV9ShpKQkql27Nq1du9ZqNQdYoALzGauCUj6yEBAbgMiaTxmNIJASgZ384XHmTCkvenuP4DEZMmSgG2+80dttU9eQKCiJbQpWbN1vqny0FUofk46e7N6EHujYgN399BZ/YPfyyy+TYkjnh1l8WbThL+NNi4D+tzBtnXJFEBAEnIPAt9yV3ma6kz17dtqyZQsVKlTITHGvZS5fTqanhv5OC9bu8no/Wi/G5c1Bb93TlqqXUcc2JXZz5841lLVLly6lvGzm/WIu1IhZLQKUmRakjGsQkB0A10yVdFQQUELgAkvdZkbywoULhitZ586dzRT3WgZPttdXK0VzVm+nk2fOeS0TbRdbcvrkIY/eZJuNxJEjR6hVq1Yqhn9Y9Lszq1t8RtvkRfh4ZQcgwidYhhf1CKRnBHYxm3LWj4mJoeXLl1ONGjW0gNt79CTd895YOn7alCOCVltOFS5aIBc906MZK0QlbesiQjd36NCBpkxR8t4byR25z7bOSEWuR0B2AFw/hTIAQcAvArDIg3l+M7+lrtzEArNu3Trq27ev1jl1rmyZqVHVkjRrxTY6eyHJTNMRUyZThvSc0a8uvclb/qVsDpXcv39/1SROMPy7mVm2ZSLmm6Y/EFEA9DGUGgQBpyOwjTsIY0BTbr979uyhuLg4qlu3rta48ubISk2ql6ZZK7dT4vmLWnW5QThj+hjq3LgKvf9AB2pavRTFsNGfnTRs2DB64YUXVKu8gwVXqQqLXGQiIEcAkTmvMipBIDUCiAnQPvVFX59z5cpF69evpyJFTJ0c+KrGuL7nyEl65vNJtOPAMb/l3Hoza+aMhIh+fVrVprw5swZlGOPHj6fu3buT522b3QAACFBJREFUgtEf+vMdMxQAIUHgGgREAbgGDvkgCEQsAi15ZNOtjK59+/Y0ceJEraMAT3uJ5y7Qq19Pp9mr1PMOeOpyymvF4rHGwt+Wg/pkzZQhaN1CsJ+2bdvS2bNK9hR7uWM1mY8HrYNSsWsRkCMA106ddFwQsITADi6NgP+FzUpt3bqVsBPQsGFDsyI+y2Xg7fFWdcpTjqwZadX2g64NFpSH0/Z2aFCJXuQQvg90akCVSsQSxhYsmjx5MsErQ3Hxh/HFTcybg9U/qdfdCMgOgLvnT3ovCFhBoCcX/sGKAIIDzZ8/n+rXr29FzG/ZIyfP0KCf5hq2AX4LOuRmzqyZDFuGlnXKUsPKJQgBfUJBo0ePNowxEaRJkZ5luUGKsiIWBQiIAhAFkyxDFASuIACXwC3MpawgUrZsWVqyZAnlyZPHiljAsvPW7KQvpyyldTsPBSwbygII0VuxeAFqwIt9wyolqHrpOIpJF5pF3zNOpPdFkh9ka1Sk31kOAR0k4I8igNEgJgpANMyyjFEQ+BeBvvz2q38/mnvXvHlzmjp1KmXMmNGcgIVSSzfvo1FTl9GSjXvDklIYUXlLFsxLNcoWouvKF6X6lYoTtvrDQUjM9OSTT9LQoUN1mt/Kwg2Y5dxfB8UokBUFIAomWYYoCKRAAI+yy5lhGGaJEBvgq68s6w6m2ziWkEgzOW7AjBVbadXWA0FTBrKx1X7ZIvn4yb4Q1SpX2HjNnT08C35KcJCMCZb+CMSkQVj0YbSBnR4hQcAvAqIA+IVHbgoCEYlABx7VRJWRvf7660YSGhVZKzIJiedpw67DtGH3YT4iOExb9x2leFYQLiaZi32PLfu8/BSPBEXFYnPzgp/fWPTLFM5HhfPltNKVkJT97bffjPP+EydO6LR3gYXbMs/WqURkowcBUQCiZ65lpIJASgRm8ocbUl4w+/6dd96h559/3mxxW8udPHOWjrMigBDDSDx0DfGvGYIPYeHPw6/Y2nc6HT9+nJ577jn68ssvCVEYNQjCdzJ/q1GHiAoCgoAgIAhEAQK1eIwwL8fCYZl5J4DXKyEdBMaMGZMcGxtrGXsv8wVLwceYhQQBQUAQEAQEAVMIvMullBegAQMG6Kx/USvL8RWS27Rpo4y7lzkLz3aMqa+YFBIEBAFBQBBwIgKZuFMbmZUXo549eyYnJiZG7WJuZeB79+5N7tevX3KmTJmU8fYyVy868YslfRIEBAFBQBBwPgLNuYvYQlZelGrVqpXMCYSsrIVRVTY+Pj6ZbSaSs2TJooyxl/nBnD3JLCQICAKCgCAgCCgj8ClLai1ORYsWTZ47d25ULeyBBrt9+/bkp556Kjl79uxa2HqZm/N8rZfybIugICAICAKCgCBwBQEcBSxh1lqo/vOf/yTff//9yadPnw60Nkb0/QULFiSzP39yTEyMFp4+5uM0X2/DLCQICAKCgCAgCNiCQAmuJZ5Ze9Hi0MHJnD8gohf51IM7dOhQ8pAhQ5IrVaqkjZ+fOdjG96ozCwkCgoAgIAgIArYicCPXhgxy2osYdgPwFLxly5bUa2XEfIbxI1z5OnXqlMxJk7QxC4D7JL5vbzIGrlBIEBAEBAFBQBDwIPBffmPbYoaF8YEHHkjet29fRCz8MOjjLH2GcmOzUZ8vzBH68GVmF4Q18nyF5FUQEAQEAUHAjQhgoRnJ7GtBUrqOxRL2AZxV0FWKAGfjS16xYkXym2++mdyoUaNgnev7wnQXz0NzZiFBQBAQBAQBQSAkCCBt8ARmXwuT1vUaNWokf/LJJ8kc995xygAW/PXr1ycPGzYsuXfv3smFCxfWGqsGhlDCcjALCQJBQ0C2lYIGrVQsCLgaAXgGjGNG4qCgUObMmalp06bUqlUrat26NVWrVo3j94f2J4nP8WnNmjW0aNEimjdvHi1cuJB4mz8o4zVZ6W4u9yizUrImk21IMUHAQCC0/20CuiAgCLgJASgBPzN3DEWn4+LiqGXLltSwYUOqXr26wTlz2pO57/z587Rjxw7atm0bbdy4kVatWmUwGynSpUvmMgwGGQP49g9ifos5MchtSfWCgIGAKADyRRAEBAF/COA4YCjzvf4KBetewYIFqVSpUgYXKFCA8uXLZzAbFxKUA/a1N5rm2AOUlJREeKJHSt2jR48Su+YZT/O7d+8mNkLk7IEInudIgoX/U8xbHNk76ZQgIAgIAoJAVCPQj0ePR+VwnYlHYruLGc8WUf2tksELAoKAICAIuAKBW7mXCcyRuBiHckxLGcObXDHj0klBQBAQBAQBQeAKAiX59U/mUC6YkdLWAsatE7OQICAICAKCgCDgSgRgHPghs1YWQZaPlIXd3zjO8DiHM9dkFhIEBAFBQBAQBCICgSY8ijXM/hbAaL23jnF5nDkXs5AgIAgIAoKAIBBxCMBLAAaCp5ijdbH3jDueMRjGfD2zkCAgCAgCgoAgEBUIFOFRfs58jtmzIEbD634e76fMSKT0j08ivxESBAQBQUAQEASiDYGiPOAhzAhmE4kKQBKP6y/mgcyNmNMxCwkCgoAgIAgIAoLAFQQK8uubzHuZ3a4IIDzvCObuzHmZhQQBQUAQEAQEAUEgAAJ4Qm7JPIr5NLMblIGd3M/vmB9mrsgsJAhEJAISCjgip1UGJQg4EoHs3CsEwEGCodbM+ZnDTRe5AyuZF13hhfx6gFlIEIh4BEQBiPgplgEKAo5EADsDNZgbM+Ms/TrmMszBPFOHpwLc81alYHyG4aKQIBB1CIgCEHVTLgMWBByLQFbuWWXm8swlr3BhfsW5e74rDAUB5RCMCIGIsKiDEKL4DPNR5iNXXg/x6/YUfIzfCwkCgsAVBP4PBVuiGg+LmI4AAAAASUVORK5CYII=;" parent="1" vertex="1">
                    <mxGeometry x="340" y="81" width="31" height="31" as="geometry"/>
                </mxCell>
            </root>
        </mxGraphModel>
    </diagram>
</mxfile>